<?xml version="1.0" encoding="UTF-8"?><svg id="a" xmlns="http://www.w3.org/2000/svg" viewBox="0 0 512 275.8"><defs><style>.b{fill:#fdca74;}.c{fill:#993e29;}.d{fill:#a8503c;}.e{fill:#3b484a;}</style></defs><polygon class="c" points="213.1 0 166.1 0 124.7 65.4 124.7 145.8 145.4 246 185.2 275.8 234.7 275.8 262.6 0 213.1 0"/><path class="d" d="M439.8,0c-47.9,0-43.4,20.4-88.6,20.4S310.4,0,262.6,0s-119.6,142.9-27.9,275.8h218c9.6,0,18.6-5,23.6-13.1C554.7,135.6,486.1,0,439.8,0Z"/><path class="b" d="M466.8,82.3c-5.6-16.7-12.6-28.6-18.6-36.1-5.7-7.3-15-10.7-24-8.8-5.5,1.2-9.4,3-14.4,5.5-11.8,5.7-28,13.6-58.6,13.6s-46.8-7.8-58.6-13.6c-5.3-2.6-9.4-4.5-15.3-5.7-8.7-1.7-17.7,1.7-23.2,8.7-6.3,8-13.9,20.8-19.7,39.3-7.6,24.4-19.9,85.9,20,154.6h193.6c41.1-69.9,26.9-133.2,18.8-157.4Z"/><path class="c" d="M166.1,0h-47c-3,0-6,.4-9.1,1.3l-34.8,4.8-25.1,28.5L21.9,127.3l31,119.3,38.4,29.2h47l7.2-29.8-20.7-100.1V65.4L166.1,0"/><g><path class="d" d="M119.2,0h-47C26.1,0-42.1,134.6,34.6,260.8c5.7,9.3,15.8,15,26.7,15h30C-.5,142.9,71.3,0,119.2,0Z"/><path class="d" d="M138.2,275.8C46.5,142.9,118.3,0,166.1,0h47C165.3,0,93.5,142.9,185.2,275.8h-47Z"/></g><g><path class="e" d="M293.1,144c-4.3,0-7.7-3.5-7.7-7.7v-10.5c0-4.3,3.5-7.7,7.7-7.7s7.7,3.5,7.7,7.7v10.5c0,4.3-3.5,7.7-7.7,7.7Z"/><path class="e" d="M409.3,144c-4.3,0-7.7-3.5-7.7-7.7v-10.5c0-4.3,3.5-7.7,7.7-7.7s7.7,3.5,7.7,7.7v10.5c0,4.3-3.5,7.7-7.7,7.7Z"/><path class="e" d="M351.2,149.6c-7.8,0-15.2-3.3-20.2-9-2.8-3.2-2.5-8.1,.7-10.9,3.2-2.8,8.1-2.5,10.9,.7,2.1,2.4,5.2,3.7,8.5,3.7s6.5-1.4,8.5-3.7c2.8-3.2,7.7-3.5,10.9-.7s3.5,7.7,.7,10.9c-5,5.7-12.3,9-20.2,9Z"/></g></svg>