<?xml version="1.0" encoding="UTF-8"?><svg id="a" xmlns="http://www.w3.org/2000/svg" viewBox="0 0 1412 594.7"><defs><style>.b{fill:#feea61;}.c{fill:#fec300;}.d{fill:#2aac92;}.e{fill:#3b484a;}.f{fill:#4cc7b3;}</style></defs><g><path class="c" d="M72.5,289.5c-24.9,0-45.5,20.6-45.4,46v154.3l194.4,44.4,211.9-44.4,49.8-200.4H72.5Z"/><path class="b" d="M652.5,289.4h-170.2c-27.1,0-49.1,22-49.1,49.1v151.2l134.2,44.4,134.2-44.4v-151.2c0-27.1-22-49.1-49.1-49.1Z"/><g><path class="e" d="M477.2,396.8v-13.2c0-5.9,4.5-11,10.4-11.1,6-.2,10.9,4.7,10.9,10.6v14.2c0,6-4.9,10.8-10.9,10.6s-10.4-5.3-10.4-11.1Z"/><path class="e" d="M637.7,396.8v-13.2c0-5.9,4.5-11,10.4-11.1,6-.2,10.9,4.7,10.9,10.6v14.2c0,6-4.9,10.8-10.9,10.6s-10.4-5.3-10.4-11.1Z"/><path class="e" d="M567.8,416.3c-10.9,0-21.2-4.6-28.1-12.5-4-4.6-3.5-11.5,1-15.5,4.6-4,11.5-3.5,15.5,1,2.8,3.2,7,5,11.6,5s8.8-1.8,11.6-5c4-4.6,10.9-5,15.5-1,4.6,4,5,10.9,1,15.5-7,8-17.2,12.5-28.1,12.5Z"/></g><path class="f" d="M703.1,489.6H26c-17.4,0-29.9,16.8-24.9,33.4h0c12.7,42.5,51.9,71.7,96.3,71.7H631.7c44.4,0,83.5-29.1,96.3-71.7h0c5-16.7-7.5-33.4-24.9-33.4Z"/><path class="d" d="M75.2,523h0c-5-16.7,7.5-33.4,24.9-33.4H26.8c-17.4,0-29.9,16.8-24.9,33.4h0c12.7,42.5,51.9,71.7,96.3,71.7h73.4c-44.4,0-83.5-29.1-96.3-71.7Z"/></g><g><path class="e" d="M84.4,232.1c-7.1-9.2-3.9-35-2.8-49.4,1.1-17.7,2.1-45.6,2.1-62.2-1.1-14.5,1.8-51.6-7.1-65.3-6-6.4-46.3,3.9-59-6.7-3.5-2.8-7.4-15.9-3.5-24,6-12.7,60.7-10.9,79.8-9.2,17.7,1.4,55.4-1.4,72.4-1.8,6.7-.7,20.8,2.1,22.2,9.9,1.4,9.5-3.9,19.4-9.9,22.6-9.9,4.9-39.2,1.1-47.3,8.8-9.2,8.1-5.7,34.6-6.4,57.2-1.8,45.6,2.1,89.3-6.7,119-4.2,14.1-26.8,14.8-33.9,1.1Z"/><path class="e" d="M291,71.1c15.5,3.2,22.6,28.3,24,52.6,1.1,17.3-.4,44.5-.4,65.7,.4,22.2,1.4,45.9-7.4,54.7-7.8,8.1-23.3,4.9-27.2-1.4-3.9-6.4-.4-37.8,0-75.6-.4-8.5,1.1-48.7-4.9-54-11.7,0-19.4,5.7-25.1,11.3-6.4,5.7-11.3,14.1-14.5,23-5.7,25.1-4.9,41.7-8.8,69.6-1.8,18-1.8,35.3-24,33.5-15.5-2.1-15.9-21.5-13.4-41.7,4.2-33.5,8.1-49.4,12.4-86.5,2.5-25.8,5.3-41.3,7.4-63.2,2.1-23,1.8-55.1,17.7-58.6,8.1-1.8,17.7,1.4,21.2,7.1,6.7,11.3,0,27.2-1.1,37.4-1.8,14.8-6.7,40.6-3.2,40.3,18.4-.7,26.5-18.4,47.3-14.1Z"/><path class="e" d="M414.6,206.4c23.7,4.9,33.5-14.1,47-6,7.8,8.1,6,19.1,0,24-18,13.1-52.6,17.7-70.6,8.1-28.6-11.7-37.8-21.9-47.3-50.9-6.7-30.4-2.8-52.6,8.5-68.2,8.5-15.9,24.4-29.7,38.5-33.9,34.6-12,63.6-1.8,78.7,33.9,2.5,4.2,7.4,18.4,7.4,24.7,.7,9.5-6,21.5-15.5,24.7-15.9,5.7-24,10.6-40.3,15.2-10.9,3.2-25.4,7.4-33.9,10.2,2.8,11.7,12,14.8,27.5,18Zm-35.3-52.3c6.4,1.1,27.9-6,40.3-8.5,8.1-1.8,18.4-7.8,20.1-13.8-9.2-26.8-30.4-28.3-52.6-10.2-9.2,7.4-10.6,26.1-7.8,32.5Z"/></g><g><path class="e" d="M690.7,131.9c11.9,12.3,22.2,35.8,16.9,56-11.9,44.7-60.6,58.3-103.3,56-12.3-.7-24.8-3.3-28.5-13.2,1-29.5,3.3-59.6,6.3-96.7,2-25.5,3-70.5,10.9-94.7,7.9-11.3,38.7-14.2,59.6-12.6,20.5,2,43.7,16.9,45.7,32.1,1.3,13.2-7.3,23.2-13.2,30.8-7,9.3-14.2,13.6-19.5,24.2,8.6,9.6,17.9,10.6,25.2,18.2Zm-68.9,7c-6.3,6.3-4.6,24.2-5.6,35.4-1,11.9-2.6,24.8,1,33.8,18.2,5.3,51-7.9,54-22.9,5.6-26.5-28.8-50.3-49.3-46.4Zm37.4-67.6c.3-10.3-21.2-17.6-34.4-12.3-3,7.6-6.3,35.1-2,45,2,4.3,21.9-11.9,26.8-15.6,4.6-3.6,9.3-11.9,9.6-17.2Z"/><path class="e" d="M762.9,133.9c-2.6,26.2-14.2,81.8,24.2,73.2,13.2-2,22.2-32.5,23.8-50.7,1.3-14.6-1-41.4,1.7-52.3,2.6-9.9,18.9-13.2,24.8-9.6,9.6,5.6,10.3,33.4,9.9,49.3-.3,13.2-2.3,28.1-6.3,41.7-10.6,37.4-29.5,60.9-78.2,53-17.9-4.3-34.1-16.2-37.1-40.7-1.3-11.3-1-34.1-.7-44,1.3-25.5,4-50,32.8-48.7,8.9,5.6,6.3,18.5,5,28.8Z"/><path class="e" d="M999.7,100.5c2,8.9-2,18.5-8.9,22.2-10.3,5.3-37.4,3-43.4,8.3-6.3,5.3-8.6,42.7-9.6,50.7-.7,6.6-4,32.1-5,38.7-2.3,11.3-4.3,48-20.9,50.3-7.3,1-17.9-2-20.2-6.6-2-5.3,5.3-33.8,6-39.1,1-6,5-31.1,5.3-37.1,2-12.6,2.3-27.8,3.6-47-7.3-8.6-30.5,1.7-40.1-3-7-3.6-9.3-13.9-7.6-19.5,1-6.3,6.6-12.9,13.2-15.6,7-1.7,29.8-1.3,35.1-5,5.6-4,7.3-23.8,8.6-31.5,3-19.2,.3-41.1,26.5-42.4,16.6-1,14.6,7.6,11.6,19.2-2.3,17.6-8.3,26.5-4.6,49,7.9,7.6,47-7.3,50.3,8.3Z"/><path class="e" d="M1148.4,100.5c2,8.9-2,18.5-8.9,22.2-10.3,5.3-37.4,3-43.4,8.3-6.3,5.3-8.6,42.7-9.6,50.7-.7,6.6-4,32.1-5,38.7-2.3,11.3-4.3,48-20.9,50.3-7.3,1-17.9-2-20.2-6.6-2-5.3,5.3-33.8,6-39.1,1-6,5-31.1,5.3-37.1,2-12.6,2.3-27.8,3.6-47-7.3-8.6-30.5,1.7-40.1-3-7-3.6-9.3-13.9-7.6-19.5,1-6.3,6.6-12.9,13.2-15.6,7-1.7,29.8-1.3,35.1-5,5.6-4,7.3-23.8,8.6-31.5,3-19.2,.3-41.1,26.5-42.4,16.6-1,14.6,7.6,11.6,19.2-2.3,17.6-8.3,26.5-4.6,49,7.9,7.6,47-7.3,50.3,8.3Z"/><path class="e" d="M1218.9,215.4c22.2,4.6,31.5-13.2,44-5.6,7.3,7.6,5.6,17.9,0,22.5-16.9,12.3-49.3,16.6-66.2,7.6-26.8-10.9-35.4-20.5-44.4-47.7-6.3-28.5-2.6-49.3,7.9-63.9,7.9-14.9,22.9-27.8,36.1-31.8,32.5-11.3,59.6-1.7,73.8,31.8,2.3,4,7,17.2,7,23.2,.7,8.9-5.6,20.2-14.6,23.2-14.9,5.3-22.5,9.9-37.8,14.2-10.3,3-23.8,7-31.8,9.6,2.6,10.9,11.3,13.9,25.8,16.9Zm-33.1-49c6,1,26.2-5.6,37.8-7.9,7.6-1.7,17.2-7.3,18.9-12.9-8.6-25.2-28.5-26.5-49.3-9.6-8.6,7-9.9,24.5-7.3,30.5Z"/><path class="e" d="M1333.3,120.7c8.3,2.6,19.5-7.9,27.8-11.3,8.9-3.3,22.5-8.6,34.4-7,7,.7,14.9,5,16.2,11.3,2,13.2-10.3,20.9-16.9,22.5-7,1.7-21.2,5.3-26.8,7.3-13.6,4-36.1,19.2-36.1,24.8-1,15.6-.7,53-4.6,66.9-3.3,11.3-9.6,11.9-22.2,11.3-5-.3-11.9-4.3-13.6-8.3-1.3-4,0-11.6,1-18.5,2.3-27.2,3.3-71.9,6.3-98.7,3-24.5,2.3-36.4,20.2-37.1,5-.3,10.3,1.7,13.2,5,3.6,11.3,1.7,20.9,1,31.8Z"/></g><g><path class="e" d="M889.7,445.9c9.3-.3,20.9-2,24.2-6.3,7-16.2,7.6-58,7.9-80.1-.3-10.3-1.3-18.9,1.7-25.2,4.3-8.9,20.2-16.2,30.8-7.9,8.6,7,1.7,44,1.3,61.9-.3,36.1-2,85.1-7,120.5-1.7,11.9-3,37.8-6.3,43.7-5,11.9-19.9,7-27.2,4-14.9-4,5-59.3-3.3-75.5-5.3-2.3-12.3-.3-19.2-.3-10.9,0-22.2-2.3-29.8,1.3-8.6,25.8-4.3,59.6-8.3,85.8-2.3,7.3-14.9,20.2-29.1,14.6-11.6-4.3-7.9-16.6-6.6-33.8-.7-24.5,3.3-50,5.3-75.2,1.3-30.5,2-63.9,6.3-94.7,1.7-24.8-.7-58.3,18.2-61.3,7.6-1,16.2,1.7,18.5,4.3,7.9,8.6,1,41.7-.3,57-2,23.5-4.3,41.4-3,61.9,6.3,5.6,16.6,5.3,25.8,5.3Z"/><path class="e" d="M992.7,431c-1.7-13.2,10.9-19.5,21.5-24.2,20.9-10.6,37.1-17.6,58-12.9,11.9,4.3,23.2,20.2,25.8,37.4,3.6,21.2-1.3,45-4,61.9-3.6,19.2-7,37.4-12.3,55.3-2.3,6.6-10.9,18.5-18.9,19.5-5.6,1-19.2-1.3-24.8-3.6-19.5-7.6-34.4-13.6-49-29.1-6-5.3-12.6-12.3-13.6-19.9-3.6-17.6,5-29.1,12.3-36.4s16.2-11.6,25.5-14.6c16.2-5,44.7-3,50-9.6,8.3-11.3-3-28.5-10.6-29.5-24.8,4-38.7,18.9-51,17.9-6.3-2.3-7.9-6.3-8.9-12.3Zm16.2,69.5c.3,19.2,24.8,26.2,40.7,28.5,10.3-2.6,11.3-25.8,11.3-37.4-4.3-3.6-16.9-2-23.2-1.7-12.6,.7-23.8,4-28.8,10.6Z"/><path class="e" d="M1170.9,372.1c-3.6,50.7-8.9,93.4-13.2,142.1-1,9.6-4.3,35.8-7,42.7-4,10.6-18.2,20.2-27.8,14.2-11.3-6.3-1-49.3,.7-65.2,4.6-40.7,8.6-70.2,11.9-109.9,2.3-27.5,0-64.2,22.5-71.2,23.2-7,14.6,27.8,12.9,47.4Z"/><path class="e" d="M1247.3,557.5c-4.6,13.2-28.8,12.3-31.8,1.3-4.6-17.9,1.3-51.3-3.3-70.5-16.2-4-15.2,2.6-26.8-8.9-4.6-5-3.3-9.6-2.3-13.2,1.3-7.9,10.9-12.9,19.5-13.2,9.3-.3,5.6,1.7,9.3-3.3,3-4,1-18.2,2-25.2,2.6-25.5,5.3-43.4,14.2-64.2,9.9-23.5,22.2-40.7,45.7-45.7,22.9-5,37.8,7.3,46.7,24.8,6.6,12.9,7.9,27.5,5.3,33.8-2.6,9.6-13.9,12.3-21.5,9.9-6.3-.3-9.3-10.3-12.3-16.9-3-6.6-5.3-18.9-14.6-18.9-15.6,0-20.5,30.8-23.8,47-2,9.9-6,50.3-.7,58.9,10.6,4.3,16.2-1.3,32.8,3.6,14.9,5,12.6,28.1,.7,30.5-12.6,2.3-25.2-.7-35.1,4.6-4.3,8.9,1.3,49-4,65.6Z"/></g></svg>