<?xml version="1.0" encoding="iso-8859-1"?>
<!-- Generator: Adobe Illustrator 19.0.0, SVG Export Plug-In . SVG Version: 6.00 Build 0)  -->
<svg version="1.1" id="Capa_1" xmlns="http://www.w3.org/2000/svg" xmlns:xlink="http://www.w3.org/1999/xlink" x="0px" y="0px"
	 viewBox="0 0 511.999 511.999" style="enable-background:new 0 0 511.999 511.999;" xml:space="preserve">
<g>
	<path style="fill:#E86D24;" d="M14.102,389.012c1.049,100.236,108.351,161.397,112.601,95.683s29.349-57.991,36.149-93.267
		L14.102,389.012z"/>
	<path style="fill:#E86D24;" d="M389.012,14.102c100.236,1.049,161.397,108.351,95.683,112.601s-57.991,29.349-93.267,36.149
		L389.012,14.102z"/>
</g>
<path style="fill:#D96622;" d="M162.852,391.428l-148.75-2.416c0.186,17.796,3.724,34.36,9.439,49.201
	c18.904,11.531,40.988,18.536,63.118,19.732c15.8,0.853,31.033-1.22,45.118-5.997C140.687,420.337,157.48,419.299,162.852,391.428z"
	/>
<path style="fill:#FB8D4B;" d="M19.09,299.053c-80.773,103.117,118.391,196.055,158.819,60.231L19.09,299.053z"/>
<path style="fill:#D96622;" d="M391.429,162.852l-2.416-148.75c17.796,0.186,34.36,3.724,49.201,9.439
	c11.531,18.903,18.536,40.987,19.732,63.118c0.853,15.8-1.22,31.033-5.997,45.118C420.338,140.686,419.3,157.479,391.429,162.852z"
	/>
<path style="fill:#FB8D4B;" d="M299.053,19.09c103.117-80.773,196.055,118.391,60.231,158.819L299.053,19.09z"/>
<g>
	<path style="fill:#ED8547;" d="M3.153,328.385c5.791,6.253,12.48,12.025,20.034,17.247c35.05,24.227,70.478,40.106,102.45,45.921
		c13.168,2.395,24.961,2.974,35.513,2.245c6.916-9.301,12.654-20.73,16.757-34.515L19.089,299.053
		C11.305,308.99,6.13,318.832,3.153,328.385z"/>
	<path style="fill:#ED8547;" d="M328.386,3.153c6.253,5.791,12.025,12.48,17.247,20.034c24.227,35.05,40.106,70.478,45.921,102.45
		c2.395,13.168,2.974,24.961,2.245,35.513c-9.301,6.916-20.73,12.654-34.516,16.757L299.053,19.089
		C308.991,11.305,318.833,6.13,328.386,3.153z"/>
</g>
<g>
	<path style="fill:#E86D24;" d="M44.787,172.501c0,0-81.435,94.205-4.028,147.708s162.726,66.461,182.103-16.283L44.787,172.501z"/>
	<path style="fill:#E86D24;" d="M172.501,44.787c0,0,94.205-81.435,147.708-4.028s66.461,162.726-16.283,182.103L172.501,44.787z"/>
</g>
<path style="fill:#FB8D4B;" d="M276.775,276.775c0,0,66.269-46.919-8.134-133.014S162.94-5.515,78.713,78.713
	s-21.047,115.525,65.049,189.928S276.775,276.775,276.775,276.775z"/>
<g>
	<path style="fill:#3B484A;" d="M95.14,275.733c-1.977,0-3.955-0.754-5.464-2.263l-15.643-15.643c-3.017-3.017-3.017-7.91,0-10.927
		c3.018-3.017,7.91-3.017,10.927,0l15.643,15.643c3.017,3.017,3.017,7.91,0,10.927C99.095,274.978,97.117,275.733,95.14,275.733z"/>
	<path style="fill:#3B484A;" d="M268.006,102.866c-1.977,0-3.955-0.754-5.464-2.263L246.899,84.96c-3.017-3.017-3.017-7.91,0-10.927
		c3.018-3.017,7.91-3.017,10.927,0l15.643,15.643c3.017,3.017,3.017,7.91,0,10.927C271.961,102.112,269.983,102.866,268.006,102.866
		z"/>
	<path style="fill:#3B484A;" d="M161.671,209.628c-1.012,0-2.023-0.034-3.038-0.102c-4.258-0.286-7.477-3.969-7.191-8.227
		c0.286-4.258,3.981-7.475,8.227-7.191c9.021,0.608,18.053-2.912,24.789-9.649c6.738-6.738,10.255-15.774,9.649-24.789
		c-0.285-4.258,2.934-7.941,7.191-8.227c4.253-0.285,7.941,2.933,8.227,7.191c0.905,13.465-4.249,26.861-14.14,36.753
		C186.241,204.532,174.096,209.627,161.671,209.628z"/>
</g>
<g>
</g>
<g>
</g>
<g>
</g>
<g>
</g>
<g>
</g>
<g>
</g>
<g>
</g>
<g>
</g>
<g>
</g>
<g>
</g>
<g>
</g>
<g>
</g>
<g>
</g>
<g>
</g>
<g>
</g>
</svg>
