<?xml version="1.0" encoding="UTF-8"?><svg id="a" xmlns="http://www.w3.org/2000/svg" viewBox="0 0 512 246.8"><defs><style>.b{fill:#fdca74;}.c{fill:#e6b25b;}.d{fill:#993e29;}.e{fill:#a8503c;}.f{fill:#3b484a;}</style></defs><path class="b" d="M17.2,126.7c-27,114.6,66.1,120.1,238.8,120.1s265.8-5.5,238.8-120.1l-73-64.6H137.1L17.2,126.7Z"/><path class="c" d="M69,118.7l105-56.6h-37L17.2,126.7c-27,114.6,66.1,120.1,238.8,120.1s22.5,0,33.2-.1c-161.9-1.1-247.1-13.7-220.2-128Z"/><path class="e" d="M256,121c8.1,0,16.1,2,23.4,6.1h0c14.6,8.1,32.3,8.1,46.9,0h0c14.6-8.1,32.3-8.1,46.9,0h0c14.6,8.1,32.3,8.1,46.9,0h0c14.6-8.1,32.3-8.1,46.9,0h0c1.8,1,3.9,1.8,6.2,2.3,22.7,5.5,43.3-15.4,38.1-38.2C496.7,28.3,434.4,0,256,0S15.3,28.3,.8,91.2c-5.2,22.8,15.4,43.6,38.1,38.2,2.3-.6,4.4-1.3,6.2-2.3h0c14.6-8.1,32.3-8.1,46.9,0h0c14.6,8.1,32.3,8.1,46.9,0h0c14.6-8.1,32.3-8.1,46.9,0h0c14.6,8.1,32.3,8.1,46.9,0h0c7.3-4.1,15.4-6.1,23.4-6.1Z"/><path class="d" d="M52.3,91.2C66.1,31.5,123.1,2.9,281.8,.2,273.4,0,264.9,0,256,0,77.6,0,15.3,28.3,.8,91.2c-5.2,22.8,15.4,43.6,38.1,38.2,2.3-.6,4.4-1.3,6.2-2.3h0c5.2-2.9,10.7-4.7,16.4-5.6-7.7-7.4-11.9-18.6-9.2-30.3Z"/><g><path class="f" d="M167.2,196.8c-4.3,0-7.7-3.5-7.7-7.7v-16.1c0-4.3,3.5-7.7,7.7-7.7s7.7,3.5,7.7,7.7v16.1c0,4.3-3.5,7.7-7.7,7.7Z"/><path class="f" d="M344.8,196.8c-4.3,0-7.7-3.5-7.7-7.7v-16.1c0-4.3,3.5-7.7,7.7-7.7s7.7,3.5,7.7,7.7v16.1c0,4.3-3.5,7.7-7.7,7.7Z"/><path class="f" d="M256,205.3c-10.8,0-20.9-4.5-27.7-12.3-2.8-3.2-2.5-8.1,.7-10.9s8.1-2.5,10.9,.7c3.9,4.5,9.8,7.1,16.1,7.1s12.2-2.6,16.1-7.1c2.8-3.2,7.7-3.5,10.9-.7,3.2,2.8,3.5,7.7,.7,10.9-6.9,7.8-17,12.3-27.7,12.3Z"/></g></svg>