<?xml version="1.0" encoding="UTF-8"?><svg id="a" xmlns="http://www.w3.org/2000/svg" viewBox="0 0 512 256.5"><defs><style>.b{fill:#f9545b;}.c{fill:#fa7578;}.d{fill:#fdca74;}.e{fill:#e6b25b;}.f{fill:#3b484a;}</style></defs><path class="d" d="M29,106.2S93.8,0,256,0s227,106.2,227,106.2v23.7h-38.7l-44.4-15-73.7,15-70.2-14.4-68.2,14.4-70.5-14.4-65.3,14.4H29v-23.7Z"/><path class="e" d="M65.1,115.1S119.9,25.3,253.2,0C93.1,1.2,29,106.2,29,106.2v23.7h23l13-2.9v-11.9h0Z"/><path class="c" d="M21.1,145.6c0,54.1,21.8,110.9,55.1,110.9H435.8c33.3,0,55.1-56.8,55.1-110.9l-7.9-15.7h-38.7l-44.4-15-73.7,15-70.2-14.4-68.2,14.4-70.5-14.4-65.3,14.4H29l-7.9,15.7Z"/><path class="b" d="M63.3,145.6l7.9-15.7h23l45-9.9-21.9-4.5-65.3,14.4H29l-7.9,15.7c0,54.1,21.8,110.9,55.1,110.9h42.2c-33.3,0-55.1-56.8-55.1-110.9Z"/><g><path class="c" d="M256,60.3c-4.3,0-7.7-3.5-7.7-7.7V30.3c0-4.3,3.5-7.7,7.7-7.7s7.7,3.5,7.7,7.7v22.2c0,4.3-3.5,7.7-7.7,7.7Z"/><path class="c" d="M170.4,60.6c-.9,0-1.9-.2-2.8-.5-4-1.5-5.9-6-4.4-10,4.3-11,15-18.5,16.2-19.3,3.5-2.4,8.3-1.4,10.7,2.1,2.4,3.5,1.4,8.3-2.1,10.7-2.2,1.5-8.3,6.6-10.5,12.1-1.2,3.1-4.1,4.9-7.2,4.9Z"/><path class="c" d="M341.6,60.6c-3.1,0-6-1.9-7.2-4.9-2.1-5.5-8.3-10.6-10.5-12.1-3.5-2.4-4.4-7.2-2.1-10.7,2.4-3.5,7.2-4.5,10.7-2.1,1.2,.8,11.9,8.3,16.2,19.3,1.5,4-.4,8.5-4.4,10-.9,.4-1.9,.5-2.8,.5Z"/></g><g><path class="f" d="M173,212.2c-4.3,0-7.7-3.5-7.7-7.7v-15c0-4.3,3.5-7.7,7.7-7.7s7.7,3.5,7.7,7.7v15c0,4.3-3.5,7.7-7.7,7.7Z"/><path class="f" d="M339,212.2c-4.3,0-7.7-3.5-7.7-7.7v-15c0-4.3,3.5-7.7,7.7-7.7s7.7,3.5,7.7,7.7v15c0,4.3-3.5,7.7-7.7,7.7Z"/><path class="f" d="M256,220.2c-10.2,0-19.8-4.3-26.3-11.7-2.8-3.2-2.5-8.1,.7-10.9,3.2-2.8,8.1-2.5,10.9,.7,3.6,4.1,8.9,6.4,14.7,6.4s11.1-2.3,14.7-6.4c2.8-3.2,7.7-3.5,10.9-.7,3.2,2.8,3.5,7.7,.7,10.9-6.5,7.4-16.1,11.7-26.3,11.7Z"/></g><path class="e" d="M188.5,151.7c-14.8,0-29.7-3.7-43.2-11.2-15.2-8.4-33.4-8.4-48.7,0-27.1,14.9-59.4,14.9-86.4,0-9.5-5.2-12.9-17.1-7.7-26.6,5.2-9.5,17.1-12.9,26.6-7.7,15.2,8.4,33.4,8.4,48.7,0,27.1-14.9,59.4-14.9,86.4,0,15.2,8.4,33.4,8.4,48.7,0,27.1-14.9,59.4-14.9,86.4,0,15.2,8.4,33.4,8.4,48.7,0,27.1-14.9,59.4-14.9,86.4,0,15.2,8.4,33.4,8.4,48.7,0,9.5-5.2,21.4-1.8,26.6,7.7,5.2,9.5,1.8,21.4-7.7,26.6-27.1,14.9-59.4,14.9-86.4,0-15.2-8.4-33.4-8.4-48.7,0-27.1,14.9-59.4,14.9-86.4,0-15.2-8.4-33.4-8.4-48.7,0-13.5,7.5-28.4,11.2-43.2,11.2Z"/></svg>