<?xml version="1.0" encoding="iso-8859-1"?>
<!-- Generator: Adobe Illustrator 19.0.0, SVG Export Plug-In . SVG Version: 6.00 Build 0)  -->
<svg version="1.1" id="Capa_1" xmlns="http://www.w3.org/2000/svg" xmlns:xlink="http://www.w3.org/1999/xlink" x="0px" y="0px"
	 viewBox="0 0 512 512" style="enable-background:new 0 0 512 512;" xml:space="preserve">
<path style="fill:#F3F5E6;" d="M256.817,0.946c-7.823-3.033-16.51,1.505-18.667,9.614c-4.857,18.259-22.513,37.016-22.513,37.016
	L256,72.778l40.362-25.201C296.363,21.218,273.766,7.516,256.817,0.946z"/>
<path style="fill:#D7D9CC;" d="M296.363,47.576h-80.725c-19.649,0-35.577,15.929-35.577,35.577v12.768l75.939,29.316l75.939-29.316
	V83.153C331.939,63.505,316.012,47.576,296.363,47.576z"/>
<path style="fill:#F3F5E6;" d="M331.939,95.922H180.062c-25.084,0-45.418,20.335-45.418,45.418v13.214L256,191.069l121.357-36.516
	v-13.214C377.358,116.256,357.023,95.922,331.939,95.922z"/>
<path style="fill:#2AAC92;" d="M113.193,56.358c-13.924,15.224-19.4,39.906-12.318,64.581c7.082,24.674,24.816,42.695,44.695,48.216
	c13.925-15.223,19.4-39.906,12.318-64.58C150.806,79.899,133.072,61.878,113.193,56.358z"/>
<path style="fill:#4CC7B3;" d="M58.745,92.566c-4.804,20.064,2.366,44.309,20.518,62.461s42.397,25.322,62.461,20.518
	c4.804-20.064-2.366-44.309-20.518-62.461C103.055,94.933,78.809,87.763,58.745,92.566z"/>
<path style="fill:#FEEA61;" d="M448.734,284.119l32.021,158.964c7.179,35.641-20.059,68.917-56.41,68.917H87.655
	c-36.352,0-63.59-33.276-56.41-68.918l32.021-158.964l54.961-54.961h280.834L448.734,284.119z"/>
<path style="fill:#FEC300;" d="M149.466,512c-36.352,0-63.59-33.276-56.41-68.917l43.091-213.925h-17.92l-54.961,54.961
	L33.219,433.291l-1.973,9.792c-0.673,3.342-1.044,6.662-1.132,9.937c-0.385,14.189,4.517,27.509,13.013,37.888
	c1.307,1.597,2.699,3.124,4.17,4.574C57.593,505.631,71.751,512,87.655,512H149.466z"/>
<path style="fill:#A8503C;" d="M448.734,284.119c-4.68-2.057-9.7-3.075-14.719-3.075c-7.838,0-15.676,2.499-22.249,7.519
	c-6.573,5.02-14.411,7.519-22.249,7.519s-15.676-2.499-22.249-7.519c-6.573-5.02-14.411-7.519-22.249-7.519
	c-7.848,0-15.687,2.499-22.259,7.519c-6.573,5.02-14.411,7.519-22.259,7.519c-7.838,0-15.676-2.499-22.249-7.519
	c-6.573-5.02-14.411-7.519-22.249-7.519c-7.838,0-15.676,2.499-22.249,7.519c-6.573,5.02-14.411,7.519-22.249,7.519
	c-7.848,0-15.687-2.499-22.259-7.519c-6.573-5.02-14.411-7.519-22.259-7.519c-7.838,0-15.676,2.499-22.249,7.519
	c-6.573,5.02-14.411,7.519-22.249,7.519s-15.676-2.499-22.249-7.519c-10.78-8.219-24.964-9.7-36.969-4.443L80.43,198.94
	c5.194-25.808,27.876-44.385,54.218-44.385h242.715c26.343,0,49.024,18.577,54.218,44.385L448.734,284.119z"/>
<g>
	<path style="fill:#3B484A;" d="M156.259,395.662c-4.268,0-7.726-3.459-7.726-7.726v-18.052c0-4.267,3.458-7.726,7.726-7.726
		c4.268,0,7.726,3.459,7.726,7.726v18.052C163.986,392.203,160.527,395.662,156.259,395.662z"/>
	<path style="fill:#3B484A;" d="M355.741,395.662c-4.268,0-7.726-3.459-7.726-7.726v-18.052c0-4.267,3.458-7.726,7.726-7.726
		c4.268,0,7.726,3.459,7.726,7.726v18.052C363.468,392.203,360.01,395.662,355.741,395.662z"/>
	<path style="fill:#3B484A;" d="M256,405.297c-11.823,0-22.916-4.933-30.435-13.532c-2.809-3.213-2.481-8.094,0.731-10.902
		c3.213-2.808,8.094-2.482,10.902,0.731c4.583,5.244,11.437,8.251,18.801,8.251c7.364,0,14.218-3.007,18.801-8.251
		c2.807-3.213,7.689-3.541,10.902-0.731c3.212,2.808,3.541,7.689,0.731,10.902C278.917,400.365,267.823,405.297,256,405.297z"/>
</g>
<path style="fill:#DE4B51;" d="M311.918,128.625c-2.077,0-4.146-0.832-5.67-2.476c-2.899-3.131-2.714-8.019,0.417-10.919
	c40.725-37.728,38.348-78.188,38.319-78.591c-0.236-3.323,1.684-6.424,4.766-7.692c3.082-1.269,6.627-0.419,8.8,2.107
	c18.199,21.166,19.641,41.595,17.648,55.005c-2.17,14.589-8.83,24.214-9.113,24.617c-2.451,3.492-7.269,4.339-10.762,1.887
	c-3.483-2.444-4.333-7.242-1.909-10.732c0.685-1,12.863-19.36,3.495-42.875c-4.084,17.813-14.504,43.304-40.743,67.611
	C315.679,127.944,313.796,128.625,311.918,128.625z"/>
<circle style="fill:#F9545B;" cx="364.272" cy="120.903" r="33.655"/>
<circle style="fill:#FA7578;" cx="311.919" cy="120.903" r="33.655"/>
<path style="fill:#993E29;" d="M80.057,200.762l-16.79,83.357c12.004-5.257,26.189-3.776,36.969,4.443
	c6.573,5.02,14.411,7.519,22.249,7.519c0.061,0,0.123-0.003,0.183-0.003l19.567-97.14c5.194-25.806,27.873-44.383,54.213-44.385
	h-61.805c-21.404,0-40.39,12.263-49.543,30.706c-1.408,2.837-2.584,5.821-3.5,8.929c-0.457,1.553-0.851,3.138-1.175,4.751
	L80.057,200.762z"/>
<g>
</g>
<g>
</g>
<g>
</g>
<g>
</g>
<g>
</g>
<g>
</g>
<g>
</g>
<g>
</g>
<g>
</g>
<g>
</g>
<g>
</g>
<g>
</g>
<g>
</g>
<g>
</g>
<g>
</g>
</svg>
