<?xml version="1.0" encoding="iso-8859-1"?>
<!-- Generator: Adobe Illustrator 19.0.0, SVG Export Plug-In . SVG Version: 6.00 Build 0)  -->
<svg version="1.1" id="Capa_1" xmlns="http://www.w3.org/2000/svg" xmlns:xlink="http://www.w3.org/1999/xlink" x="0px" y="0px"
	 viewBox="0 0 512 512" style="enable-background:new 0 0 512 512;" xml:space="preserve">
<path style="fill:#45B6D9;" d="M391.279,438.444c0,0,20.672,18.354,56.428,25.045c15.096,2.825,26.099,15.906,26.099,31.265V512
	H38.194v-17.246c0-15.359,11.002-28.44,26.099-31.265c35.757-6.691,56.428-25.045,56.428-25.045H391.279z"/>
<circle style="fill:#80E2FF;" cx="256" cy="240.084" r="240.084"/>
<circle style="fill:#F3F5E6;" cx="256" cy="240.084" r="166.189"/>
<circle style="fill:#D7D9CC;" cx="256" cy="240.084" r="131.101"/>
<g>
	<circle style="fill:#F3F5E6;" cx="398.33" cy="97.744" r="13.734"/>
	<circle style="fill:#F3F5E6;" cx="457.287" cy="240.084" r="13.734"/>
	<circle style="fill:#F3F5E6;" cx="398.33" cy="382.414" r="13.734"/>
	<circle style="fill:#F3F5E6;" cx="113.67" cy="382.414" r="13.734"/>
	<circle style="fill:#F3F5E6;" cx="54.713" cy="240.084" r="13.734"/>
	<circle style="fill:#F3F5E6;" cx="113.67" cy="97.744" r="13.734"/>
</g>
<path style="fill:#55C2E3;" d="M320.313,66.448c-20.032-7.422-41.7-11.478-64.313-11.478s-44.281,4.055-64.313,11.478
	c-10.013,3.71-15.006,14.95-11.124,24.897c16.647,42.651,55.695,161.698,42.489,312.359c-0.928,10.591,6.859,19.972,17.454,20.85
	c5.109,0.423,10.276,0.639,15.494,0.639s10.385-0.216,15.494-0.639c10.595-0.878,18.384-10.259,17.454-20.85
	c-13.205-150.661,25.843-269.709,42.489-312.359C335.32,81.397,330.327,70.157,320.313,66.448z"/>
<path style="fill:#FA7578;" d="M279.246,46.468l-22.214-18.942H256l-22.214,18.941c-9.322,7.949-14.163,19.944-12.98,32.139
	c2.242,23.111,8.707,62.228,27.349,95.831c3.649,6.578,13.072,6.578,16.721,0c18.642-33.603,25.108-72.719,27.349-95.831
	C293.409,66.413,288.568,54.416,279.246,46.468z"/>
<path style="fill:#F9545B;" d="M241.41,78.606c-1.183-12.193,3.658-24.189,12.98-32.138l12.428-10.597l-9.786-8.344H256
	l-22.214,18.941c-9.322,7.949-14.163,19.944-12.98,32.138c2.242,23.111,8.707,62.228,27.349,95.831
	c3.649,6.578,13.072,6.578,16.721,0c0.663-1.197,1.308-2.401,1.942-3.611C249.665,138.067,243.572,100.894,241.41,78.606z"/>
<g>
</g>
<g>
</g>
<g>
</g>
<g>
</g>
<g>
</g>
<g>
</g>
<g>
</g>
<g>
</g>
<g>
</g>
<g>
</g>
<g>
</g>
<g>
</g>
<g>
</g>
<g>
</g>
<g>
</g>
</svg>
