<?xml version="1.0" encoding="utf-8"?>
<!-- Generator: Adobe Illustrator 26.1.0, SVG Export Plug-In . SVG Version: 6.00 Build 0)  -->
<svg version="1.1" id="Layer_1" xmlns="http://www.w3.org/2000/svg" xmlns:xlink="http://www.w3.org/1999/xlink" x="0px" y="0px"
	 viewBox="0 0 512 512" style="enable-background:new 0 0 512 512;" xml:space="preserve">
<style type="text/css">
	.st0{fill:#C97E4B;}
	.st1{fill:#DD9666;}
	.st2{fill:#B26E40;}
	.st3{fill:#FF8C51;}
	.st4{fill:#F26E3B;}
	.st5{fill:#3B484A;}
</style>
<path class="st0" d="M430.3,247.9v-36.1c0-98.6-80.2-178.9-178.9-178.9S72.6,113.1,72.6,211.8v36.1H39.7v-36.1
	C39.7,95,134.7,0,251.4,0c116.8,0,211.8,95,211.8,211.8v36.1H430.3z"/>
<path class="st1" d="M28.6,253.2c0,0-6.3,141.8,61.9,233.6c11.8,15.9,30.4,25.2,50.1,25.2h221.5c19.8,0,38.4-9.3,50.1-25.2
	c68.2-91.8,61.9-233.6,61.9-233.6H28.6z"/>
<path class="st0" d="M474.2,253.2h-60.6c0,0,6.3,141.8-61.9,233.6C340,502.7,321.4,512,301.6,512h60.6c19.8,0,38.4-9.3,50.1-25.2
	C480.6,395,474.2,253.2,474.2,253.2z"/>
<path class="st0" d="M453.2,404.2c1.7-5.3,3.2-10.5,4.7-15.7l-2.7,0.2c-20.6,1.1-41.2,2.1-62.1,2.9l3.6-44.2
	c23.6-0.9,47.2-2.1,70.7-3.4c0.9-5.3,1.7-10.6,2.3-15.6l-1.6,0.1c-23.4,1.4-46.8,2.5-70.2,3.5l5.8-70.5c0.3-3.7-2.1-7.1-5.6-8.1
	h-4.3c-3,0.9-5.3,3.5-5.6,6.8l-6,72.4c-18,0.6-36,1.1-54.1,1.5l2.4-58.5c0.2-4.3-3.1-7.9-7.4-8c-0.1,0-0.2,0-0.3,0
	c-4.1,0-7.5,3.3-7.7,7.4l-2.4,59.4c-17.9,0.3-35.9,0.5-53.8,0.5v-59.6c0-4.3-3.5-7.7-7.7-7.7s-7.7,3.5-7.7,7.7v59.6
	c-17.9,0-35.9-0.2-53.8-0.5l-2.2-53.8c-0.2-4.2-3.6-7.4-7.7-7.4c-0.1,0-0.2,0-0.3,0c-4.3,0.2-7.6,3.8-7.4,8l2.2,52.9
	c-18-0.4-36.1-0.9-54.1-1.5l-4.8-58c-0.4-4.2-4.1-7.4-8.3-7.1c-4.3,0.4-7.4,4.1-7.1,8.3l4.6,56.2c-24-0.9-47.9-2.1-71.8-3.5
	c0.7,5.1,1.4,10.3,2.3,15.6c23.5,1.4,47.1,2.5,70.7,3.4l3.6,43.7c-21.5-0.8-43.1-1.8-64.8-3c1.4,5.2,3,10.5,4.6,15.7
	c20.5,1.1,41,2,61.4,2.8l3.7,44.9c-15.8-0.5-31.4-1.2-46.8-1.9c2.7,5.4,5.5,10.7,8.6,15.9c13,0.6,26.2,1.1,39.5,1.6l3.4,41.2
	c5.1,1.8,10.4,3,15.8,3.5l-3.7-44.3c16,0.5,32.2,0.9,48.5,1.1l1.8,43.4h15.5l-1.8-43.1c16.1,0.2,32.2,0.3,48.3,0.4V512h15.5v-42.8
	c16.1,0,32.2-0.2,48.3-0.4l-1.8,43.1h15.5l1.8-43.4c16.3-0.3,32.4-0.7,48.5-1.2l-3.7,44.3c5.4-0.5,10.7-1.7,15.8-3.5l3.4-41.3
	c13.3-0.5,26.5-1,39.5-1.6c3-5.2,5.9-10.5,8.6-15.9c-15.4,0.7-31,1.4-46.8,1.9l3.7-44.4C412.5,406.2,432.9,405.3,453.2,404.2z
	 M121.6,347.9c17.8,0.6,35.6,1.1,53.4,1.5l1.8,43.7c-17.2-0.4-34.4-0.8-51.6-1.4L121.6,347.9z M130.2,452l-3.7-44.8
	c17,0.6,34,1.1,51,1.4l1.8,44.6C162.8,452.9,146.5,452.5,130.2,452z M243.7,453.8c-16.3,0-32.7-0.2-48.9-0.4l-1.8-44.6
	c17,0.3,33.9,0.5,50.8,0.5V453.8z M243.7,393.9c-17.1-0.1-34.2-0.2-51.4-0.5l-1.8-43.7c17.7,0.3,35.5,0.4,53.2,0.5V393.9z
	 M308.1,453.4c-16.3,0.2-32.6,0.4-48.9,0.4v-44.4c17,0,33.9-0.1,50.7-0.4L308.1,453.4z M310.5,393.6c-17.1,0.2-34.2,0.4-51.4,0.4
	v-43.8c17.7,0,35.5-0.2,53.2-0.5L310.5,393.6z M372.7,451.9c-16.3,0.5-32.7,0.9-49.1,1.2l1.8-44.3c17.1-0.3,34.1-0.7,51-1.3
	L372.7,451.9z M377.6,392c-17.1,0.6-34.3,1-51.6,1.3l1.8-44c17.8-0.4,35.6-0.9,53.4-1.5L377.6,392z"/>
<path class="st2" d="M455.2,388.6c-19.5,1.1-39,2-58.7,2.7c-7.2,25.8-17.5,52.2-32,76.3c2.3-0.1,4.6-0.1,6.9-0.2l-3.7,44.3
	c5.4-0.5,10.7-1.7,15.8-3.5l3.4-41.3c13.3-0.5,26.5-1,39.5-1.6c3-5.2,5.9-10.5,8.6-15.9v0c-15.4,0.7-31,1.4-46.8,1.9l3.7-44.4
	c20.6-0.8,41-1.7,61.3-2.8c1.7-5.3,3.3-10.6,4.7-15.9L455.2,388.6z"/>
<path class="st2" d="M468.3,328.3c-19.8,1.2-39.6,2.2-59.5,3c-0.7,5.1-1.5,10.3-2.4,15.6c20.4-0.9,40.8-1.9,61.1-3.1
	c0.9-5.3,1.6-10.5,2.3-15.5L468.3,328.3z"/>
<path class="st3" d="M490,281.4c-155.8,10.3-312,10.3-468.4-0.1c-12.4-0.8-21.6-11.7-20.4-24c1.1-11.8,11.4-20.6,23.3-19.8
	c154.1,10.2,308.6,10.2,462.7,0c12-0.8,22.4,8.2,23.3,20.2l0,0C511.4,270,502.2,280.6,490,281.4z"/>
<path class="st4" d="M510.4,257.8L510.4,257.8c-0.9-12-11.3-21-23.3-20.2c-12.4,0.8-24.9,1.6-37.3,2.3l1.7,43.9
	c12.8-0.7,25.6-1.5,38.4-2.3C502.2,280.6,511.4,270,510.4,257.8z"/>
<g>
	<path class="st5" d="M160,396.8v-14.7c0-4.4,3.4-8.2,7.7-8.3c4.5-0.1,8.1,3.5,8.1,7.9v15.4c0,4.5-3.7,8-8.1,7.9
		C163.3,405,160,401.2,160,396.8z"/>
	<path class="st5" d="M335.6,396.8v-14.7c0-4.4,3.4-8.2,7.7-8.3c4.5-0.1,8.1,3.5,8.1,7.9v15.4c0,4.5-3.7,8-8.1,7.9
		C339,405,335.6,401.2,335.6,396.8z"/>
	<path class="st5" d="M255.6,414.1c-10.8,0-21-4.5-27.8-12.4c-3-3.4-2.6-8.6,0.8-11.5c3.4-3,8.6-2.6,11.5,0.8
		c3.8,4.3,9.4,6.8,15.5,6.8s11.8-2.5,15.5-6.8c3-3.4,8.1-3.7,11.5-0.8c3.4,3,3.7,8.1,0.8,11.5C276.5,409.6,266.4,414.1,255.6,414.1z
		"/>
</g>
</svg>
