<svg height="511pt" viewBox="0 -62 511.99965 511" width="511pt" xmlns="http://www.w3.org/2000/svg"><path d="m267.042969 16.355469c-3.054688-11.269531-19.039063-11.269531-22.09375 0l-15.054688 60.257812h52.203125zm0 0" fill="#d7d6d9"/><path d="m289.988281 86.722656c-3.726562-8.828125-11.992187-14.9375-21.53125-15.816406-4.105469-.378906-8.238281-.570312-12.378906-.570312-3.976563 0-7.949219.175781-11.898437.527343-9.546876.84375-17.910157 6.742188-21.757813 15.523438l-7.242187 16.53125 40.820312 13.273437 40.828125-13.261718zm0 0" fill="#aeaeb2"/><path d="m88.332031 30.132812c3.4375-5.730468 2.519531-13.070312-2.207031-17.792968-5.308594-5.3125-13.796875-5.742188-19.585938-.953125-31.523437 26.082031-115.300781 115.007812-.183593 252.246093l28.710937-43.625 20.398438-87.457031c.003906 0-52.601563-59.957031-27.132813-102.417969zm0 0" fill="#d7d6d9"/><path d="m423.660156 30.132812c-3.4375-5.730468-2.519531-13.070312 2.203125-17.792968 5.3125-5.3125 13.800781-5.742188 19.589844-.953125 31.523437 26.085937 115.300781 115.007812.183594 252.246093l-28.710938-43.625-20.402343-87.457031s52.605468-59.957031 27.136718-102.417969zm0 0" fill="#d7d6d9"/><path d="m139.429688 136.769531c-9.46875-8.585937-24.234376-7.757812-32.5 1.992188-1.441407 1.695312-2.851563 3.417969-4.234376 5.167969-21.941406 27.761718-35.621093 60.035156-40.246093 94.519531-2.089844 15.585937 4.074219 31.136719 16.390625 40.921875l10.113281 8.03125 55.105469-104.5625v-41.878906zm0 0" fill="#aeaeb2"/><path d="m372.558594 136.769531c9.472656-8.585937 24.234375-7.757812 32.503906 1.992188 1.4375 1.695312 2.851562 3.417969 4.234375 5.167969 21.9375 27.761718 35.621094 60.035156 40.246094 94.519531 2.089843 15.585937-4.078125 31.136719-16.390625 40.921875l-10.113282 8.03125-55.105468-104.5625v-41.878906zm0 0" fill="#aeaeb2"/><path d="m215.179688 102.921875c-72.523438 18.21875-126.226563 83.855469-126.226563 162.03125v68.445313h126.226563l40.820312-117.75zm0 0" fill="#c68c6a"/><path d="m296.824219 102.929688-.003907-.007813-40.820312 112.726563 40.820312 117.75h126.226563v-68.445313c.003906-78.175781-53.699219-143.8125-126.222656-162.023437zm0 0" fill="#c68c6a"/><path d="m128.949219 264.953125c0-64.878906 36.988281-121.117187 91.027343-148.789063l-4.796874-13.242187c-20.039063 5.03125-39.121094 13.863281-55.949219 25.847656-43.648438 31.082031-70.277344 82.574219-70.277344 136.183594v68.445313h39.996094zm0 0" fill="#b27858"/><path d="m296.820312 102.929688v230.46875h-81.640624v-230.476563c13.066406-3.277344 26.734374-5.023437 40.816406-5.023437 14.082031 0 27.761718 1.742187 40.824218 5.03125zm0 0" fill="#d7d6d9"/><path d="m423.046875 305.140625h-334.09375c-8.90625 0-16.125 7.21875-16.125 16.125v42.492187c0 8.902344 7.21875 16.125 16.125 16.125h334.09375c8.90625 0 16.125-7.21875 16.125-16.125v-42.492187c0-8.90625-7.21875-16.125-16.125-16.125zm0 0" fill="#c5c4c9"/><path d="m112.824219 363.757812v-42.492187c0-8.902344 7.21875-16.125 16.125-16.125h-39.996094c-8.90625 0-16.125 7.21875-16.125 16.125v42.492187c0 8.902344 7.21875 16.125 16.125 16.125h39.996094c-8.90625 0-16.125-7.222656-16.125-16.125zm0 0" fill="#aeaeb2"/><path d="m270.597656 342.511719c0 8.0625-6.535156 14.597656-14.597656 14.597656s-14.597656-6.535156-14.597656-14.597656 6.535156-14.597657 14.597656-14.597657 14.597656 6.535157 14.597656 14.597657zm0 0" fill="#d7d6d9"/><path d="m270.597656 243.953125c0 8.0625-6.535156 14.597656-14.597656 14.597656s-14.597656-6.535156-14.597656-14.597656c0-8.058594 6.535156-14.597656 14.597656-14.597656s14.597656 6.539062 14.597656 14.597656zm0 0" fill="#c5c4c9"/><path d="m270.597656 151.050781c0 8.0625-6.535156 14.597657-14.597656 14.597657s-14.597656-6.535157-14.597656-14.597657 6.535156-14.597656 14.597656-14.597656 14.597656 6.535156 14.597656 14.597656zm0 0" fill="#c5c4c9"/><path d="m168.042969 342.511719c0 8.0625-6.535157 14.597656-14.597657 14.597656s-14.597656-6.535156-14.597656-14.597656 6.535156-14.597657 14.597656-14.597657 14.597657 6.535157 14.597657 14.597657zm0 0" fill="#d7d6d9"/><path d="m373.152344 342.511719c0 8.0625-6.539063 14.597656-14.597656 14.597656-8.0625 0-14.597657-6.535156-14.597657-14.597656s6.535157-14.597657 14.597657-14.597657c8.058593 0 14.597656 6.535157 14.597656 14.597657zm0 0" fill="#d7d6d9"/><path d="m255.179688 102.921875c6.78125-1.703125 13.730468-2.980469 20.8125-3.824219-3.273438-.394531-6.574219-.691406-9.902344-.890625-.160156-.011719-.324219-.015625-.484375-.023437-16.941407-.921875-33.960938.605468-50.425781 4.738281v15.804687c12.445312-6.894531 25.863281-12.253906 40-15.804687zm0 0" fill="#c5c4c9"/><path d="m255.984375 320.320312c-12.183594 0-22.097656 9.910157-22.097656 22.097657 0 12.183593 9.914062 22.09375 22.097656 22.09375s22.097656-9.910157 22.097656-22.09375c0-12.1875-9.914062-22.097657-22.097656-22.097657zm0 29.195313c-3.914063 0-7.097656-3.1875-7.097656-7.097656 0-3.914063 3.183593-7.097657 7.097656-7.097657s7.097656 3.183594 7.097656 7.097657c0 3.910156-3.183593 7.097656-7.097656 7.097656zm0 0"/><path d="m255.984375 221.761719c-12.183594 0-22.097656 9.914062-22.097656 22.097656 0 12.1875 9.914062 22.097656 22.097656 22.097656s22.097656-9.914062 22.097656-22.097656-9.914062-22.097656-22.097656-22.097656zm0 29.195312c-3.914063 0-7.097656-3.183593-7.097656-7.097656s3.183593-7.097656 7.097656-7.097656 7.097656 3.183593 7.097656 7.097656-3.183593 7.097656-7.097656 7.097656zm0 0"/><path d="m255.984375 128.859375c-12.183594 0-22.097656 9.910156-22.097656 22.097656 0 12.183594 9.914062 22.097657 22.097656 22.097657s22.097656-9.914063 22.097656-22.097657c0-12.1875-9.914062-22.097656-22.097656-22.097656zm0 29.195313c-3.914063 0-7.097656-3.183594-7.097656-7.097657 0-3.914062 3.183593-7.097656 7.097656-7.097656s7.097656 3.183594 7.097656 7.097656c0 3.914063-3.183593 7.097657-7.097656 7.097657zm0 0"/><path d="m153.429688 320.320312c-12.183594 0-22.097657 9.910157-22.097657 22.097657 0 12.183593 9.914063 22.09375 22.097657 22.09375 12.183593 0 22.097656-9.910157 22.097656-22.09375 0-12.1875-9.914063-22.097657-22.097656-22.097657zm0 29.195313c-3.914063 0-7.097657-3.1875-7.097657-7.097656 0-3.914063 3.183594-7.097657 7.097657-7.097657 3.914062 0 7.097656 3.183594 7.097656 7.097657 0 3.910156-3.183594 7.097656-7.097656 7.097656zm0 0"/><path d="m358.539062 320.320312c-12.183593 0-22.097656 9.910157-22.097656 22.097657 0 12.183593 9.914063 22.09375 22.097656 22.09375 12.1875 0 22.097657-9.910157 22.097657-22.09375 0-12.1875-9.910157-22.097657-22.097657-22.097657zm0 29.195313c-3.914062 0-7.097656-3.1875-7.097656-7.097656 0-3.914063 3.183594-7.097657 7.097656-7.097657 3.914063 0 7.097657 3.183594 7.097657 7.097657 0 3.910156-3.183594 7.097656-7.097657 7.097656zm0 0"/><path d="m60.109375 267.769531c3.332031 6.667969 8.085937 12.636719 14.050781 17.375l7.277344 5.78125v7.847657c-9.359375 3.144531-16.125 11.992187-16.125 22.398437v42.488281c0 13.027344 10.597656 23.625 23.625 23.625h334.097656c13.027344 0 23.625-10.597656 23.625-23.625v-42.488281c0-10.40625-6.765625-19.253906-16.121094-22.398437v-7.855469l7.265626-5.773438c5.96875-4.738281 10.71875-10.707031 14.054687-17.375 19.25-23.042969 34.082031-46.125 44.074219-68.613281 1.683594-3.785156-.019532-8.214844-3.804688-9.898438-3.785156-1.683593-8.21875.023438-9.898437 3.808594-6.367188 14.324219-14.855469 28.957032-25.34375 43.707032-.144531-1.046876-.324219-2.085938-.484375-3.128907-2.871094-18.703125-8.460938-37.160156-16.46875-54.3125-8.210938-17.601562-17.46875-35.707031-32.308594-48.707031 13.511719-17.710938 45.371094-66.238281 22.457031-104.441406-3.976562-6.632813 4.613281-14.050782 10.578125-9.113282 21.941406 18.15625 70.9375 68.703126 52.042969 145.734376-.984375 4.023437 1.476563 8.082031 5.5 9.070312s8.082031-1.472656 9.070313-5.496094c20.914062-85.277344-32.925782-140.90625-57.050782-160.867187-18.570312-15.367188-45.429687 7.671875-33.003906 28.386719 9.132812 15.226562 7.726562 35.308593-4.183594 59.695312-6.617187 13.546875-14.84375 24.765625-19.171875 30.261719-1.949219-.390625-3.949219-.601563-5.976562-.601563-7.414063 0-14.53125 2.703125-20.082031 7.609375-19.113282-15.929687-41.519532-27.746093-65.511719-34.339843l-5.40625-12.808594c-1.902344-4.511719-4.71875-8.445313-8.175781-11.640625l-14.402344-57.632813c-.011719-.046875-.023438-.09375-.035156-.144531-4.859376-18.304687-31.652344-18.144531-36.570313 0-.015625.050781-.027344.097656-.039063.144531l-14.492187 58c-3.191406 3.027344-5.808594 6.6875-7.628906 10.839844l-5.785157 13.214844c-24.023437 6.59375-46.453124 18.421875-65.585937 34.371094-5.550781-4.910157-12.667969-7.613282-20.085937-7.613282-2.027344 0-4.027344.210938-5.976563.601563-4.292969-5.445313-12.417969-16.515625-19.035156-29.992188-12.035157-24.503906-13.488281-44.679687-4.316407-59.96875 12.429688-20.734375-14.429687-43.761719-33.011718-28.382812-12.3125 10.1875-29.785156 27.417969-43.125 51.660156-1.996094 3.628906-.671875 8.191406 2.957031 10.1875s8.1875.675781 10.183594-2.953125c12.203125-22.175781 28.238281-37.980469 39.546875-47.335938 5.96875-4.941406 14.546875 2.5 10.582031 9.109376-22.914063 38.203124 8.945313 86.730468 22.453125 104.445312-1.121094.980469-2.179688 2.050781-3.144531 3.1875-24.648438 29.074219-40.945313 65.203125-46.121094 102.988281-36.136719-50.714843-47.945313-99.042969-35.101563-143.953125 1.136719-3.980468-1.167968-8.132812-5.148437-9.273437-3.980469-1.136719-8.136719 1.167969-9.273437 5.152343-7.296876 25.515626-7.40625 52.351563-.320313 79.765626 8.335937 32.28125 26.800781 65.679687 54.875 99.277343zm371.546875 95.890625c0 4.757813-3.867188 8.625-8.625 8.625h-334.09375c-4.753906 0-8.625-3.867187-8.625-8.625v-42.488281c0-4.753906 3.867188-8.625 8.625-8.625h334.09375c4.753906 0 8.625 3.867187 8.625 8.625zm-196.019531-282.078125c5.964843-4.117187 13.644531-3.851562 20.664062-3.839843 10.234375.019531 22.054688.882812 26.703125 11.660156.019532.046875 1.351563 3.199218 1.351563 3.199218-9.34375-1.527343-18.839844-2.296874-28.375-2.296874-9.445313 0-18.859375.757812-28.128907 2.257812 1.882813-4.304688 3.792969-8.226562 7.785157-10.980469zm127.257812 64.847657c31.3125 28.285156 50.125 67.914062 52.40625 109.804687.5625 10.34375.234375 20.714844.234375 31.0625v10.25h-111.226562v-184.796875c21.742187 6.871094 41.6875 18.421875 58.585937 33.679688zm-140.230469-37.628907c2.894532-.613281 5.804688-1.15625 8.734376-1.605469.039062-.003906.078124-.011718.117187-.015624 19.164063-2.875 38.828125-2.398438 57.792969 1.625v188.742187h-66.644532zm165.21875 29.453125c6.886719 0 11.5 5.148438 15.515626 10.230469 20.753906 26.273437 34.242187 57.664063 38.695312 90.867187 1.589844 11.851563-2.769531 24.152344-11.558594 32.28125 0-3.855468.027344-7.714843-.070312-11.570312-1.003906-37.894531-13.898438-73.539062-37.460938-103.351562-2.566406-3.25-5.265625-6.386719-8.050781-9.453126-.398437-.441406-5.695313-6.351562-5.921875-6.191406 2.578125-1.824218 5.660156-2.8125 8.851562-2.8125zm-135.691406-120.089844c.964844-3.839843 6.542969-3.675781 7.582032.003907l11.347656 45.417969c-.652344-.101563-1.3125-.179688-1.988282-.246094-7.9375-.730469-16.046874-.785156-24.03125-.167969-1.371093.105469-2.730468.222656-4.089843.445313-.058594.007812-.125.011718-.183594.019531 0 .003906 11.222656-44.910157 11.363281-45.472657zm-44.527344 279.382813h-111.226562v-10.242187c0-10.351563-.324219-20.726563.238281-31.070313 3.542969-65.339844 48.613281-123.765625 110.992188-143.492187v184.804687zm-74.726562-156.476563c-4.953125 4.929688-9.632812 10.152344-13.964844 15.636719-23.5625 29.8125-36.460937 65.460938-37.464844 103.359375-.039062 1.597656-.070312 11.574219-.070312 11.574219-8.773438-8.109375-13.15625-20.460937-11.570312-32.292969 4.453124-33.191406 17.945312-64.601562 38.699218-90.863281 6.027344-7.625 14.902344-14.121094 24.371094-7.414063zm0 0"/></svg>