<svg height="512pt" viewBox="0 -20 512.00017 512" width="512pt" xmlns="http://www.w3.org/2000/svg"><path d="m202.902344 130.96875 224.65625 224.65625c8.390625 8.390625 14.410156 18.851562 17.449218 30.316406l19.3125 72.851563c.933594 3.515625-2.277343 6.726562-5.789062 5.792969l-72.855469-19.3125c-11.464843-3.039063-21.925781-9.058594-30.3125-17.449219l-224.660156-224.65625zm0 0" fill="#c5c4c9"/><path d="m309.097656 130.96875-224.65625 224.65625c-8.390625 8.390625-14.410156 18.847656-17.449218 30.316406l-19.3125 72.851563c-.933594 3.515625 2.277343 6.726562 5.792968 5.792969l72.851563-19.3125c11.46875-3.039063 21.925781-9.058594 30.316406-17.449219l224.652344-224.65625zm0 0" fill="#d7d6d9"/><path d="m433.992188 31.019531 47.25 47.246094-113.101563 113.101563-47.25-47.246094zm0 0" fill="#57565c"/><path d="m191.109375 144.125-47.25 47.25-113.101563-113.105469 47.25-47.246093zm0 0" fill="#57565c"/><path d="m492.394531 39.988281-20.117187-20.117187c-16.613282-16.617188-43.554688-16.617188-60.171875 0l-2.828125 2.828125c-9.121094 9.121093-9.121094 23.914062 0 33.039062l47.25 47.246094c9.125 9.125 23.917968 9.125 33.039062 0l2.828125-2.824219c16.617188-16.617187 16.617188-43.558594 0-60.171875zm0 0" fill="#d7d6d9"/><path d="m309.097656 130.96875-41.769531 41.769531c10.113281 12.371094 21.628906 25.03125 34.398437 37.800781 12.769532 12.769532 25.429688 24.285157 37.800782 34.398438l41.769531-41.769531zm0 0" fill="#c5c4c9"/><path d="m202.902344 130.96875 41.769531 41.769531c-10.109375 12.371094-21.628906 25.03125-34.398437 37.800781-12.765626 12.769532-25.429688 24.285157-37.796876 34.398438l-41.773437-41.769531zm0 0" fill="#aeaeb2"/><g fill="#d7d6d9"><path d="m411.371094 190.519531c-10.246094-13.691406-23.855469-29.667969-41.90625-47.71875-18.050782-18.050781-34.027344-31.65625-47.71875-41.90625-7.425782-5.554687-17.796875-4.84375-24.359375 1.714844l-14.605469 14.609375c-6.5625 6.558594-7.273438 16.929688-1.714844 24.359375 10.246094 13.691406 23.855469 29.667969 41.902344 47.71875 18.050781 18.050781 34.027344 31.65625 47.722656 41.902344 7.425782 5.558593 17.796875 4.847656 24.355469-1.710938l14.609375-14.609375c6.558594-6.5625 7.273438-16.933594 1.714844-24.359375zm0 0"/><path d="m19.605469 39.988281 20.117187-20.117187c16.613282-16.617188 43.554688-16.617188 60.171875 0l2.828125 2.828125c9.121094 9.121093 9.121094 23.914062 0 33.039062l-47.25 47.246094c-9.125 9.125-23.917968 9.125-33.039062 0l-2.828125-2.824219c-16.617188-16.617187-16.617188-43.558594 0-60.171875zm0 0"/><path d="m100.628906 190.519531c10.246094-13.691406 23.855469-29.667969 41.90625-47.71875 18.050782-18.050781 34.027344-31.65625 47.71875-41.90625 7.425782-5.554687 17.796875-4.84375 24.359375 1.714844l14.605469 14.609375c6.5625 6.558594 7.273438 16.929688 1.714844 24.359375-10.246094 13.691406-23.855469 29.667969-41.902344 47.71875-18.050781 18.050781-34.03125 31.65625-47.722656 41.902344-7.425782 5.558593-17.796875 4.847656-24.355469-1.710938l-14.609375-14.609375c-6.558594-6.5625-7.273438-16.933594-1.714844-24.359375zm0 0"/></g><path d="m16.945312 108.207031c5.832032 5.832031 13.585938 9.042969 21.832032 9.042969 5.679687 0 11.125-1.523438 15.871094-4.378906l54.578124 54.578125c-5.308593 6.25-10.25 12.417969-14.785156 18.480469-7.75 10.351562-6.710937 25.042968 2.414063 34.167968 0 0 14.597656 14.597656 14.609375 14.609375 9.09375 9.09375 23.886718 10.109375 34.167968 2.414063 1.566407-1.171875 3.140626-2.375 4.71875-3.597656l22.652344 22.652343-94.050781 94.046875c-9.3125 9.316406-16.019531 20.96875-19.398437 33.703125 0 0-19.273438 72.703125-19.3125 72.851563-2.367188 8.921875 6.050781 17.34375 14.976562 14.976562l72.855469-19.3125c12.730469-3.375 24.386719-10.085937 33.699219-19.398437l29.089843-29.089844c2.933594-2.933594 2.933594-7.6875 0-10.621094-2.933593-2.933593-7.6875-2.933593-10.621093 0l-29.089844 29.089844c-7.441406 7.441406-16.753906 12.800781-26.925782 15.5l-68.238281 18.089844 18.089844-68.238281c2.695313-10.171876 8.054687-19.484376 15.5-26.929688l198.386719-198.386719c7.722656 9.222657 15.851562 18.097657 24.246094 26.710938 0 0-213.46875 213.46875-213.59375 213.589843-6.640626 6.640626 3.601562 17.644532 10.621093 10.621094l213.59375-213.589844c8.613281 8.390626 17.496094 16.511719 26.710938 24.242188l-148.058594 148.058594c-2.933594 2.933594-2.933594 7.6875 0 10.621094 2.933594 2.933593 7.691406 2.933593 10.621094 0l43.71875-43.71875 94.046875 94.050781c9.316406 9.316406 20.96875 16.023437 33.703125 19.398437 0 0 72.773437 19.292969 72.851562 19.316406 8.925781 2.363282 17.339844-6.074218 14.980469-14.980468l-19.316406-72.851563c-3.375-12.734375-10.082032-24.386719-19.394532-33.703125l-94.050781-94.046875 22.652344-22.652343c1.578125 1.222656 3.152344 2.425781 4.71875 3.597656 10.292969 7.710937 25.078125 6.675781 34.167969-2.414063l14.605468-14.609375c9.128907-9.125 10.167969-23.816406 2.417969-34.167968-4.539062-6.0625-9.476562-12.230469-14.785156-18.480469l54.578125-54.578125c4.746094 2.851562 10.191406 4.378906 15.871094 4.378906 10.082031 0 17.792968-5.003906 24.660156-11.871094 19.300781-19.300781 19.285156-51.507812 0-70.792968 0 0-20.105469-20.105469-20.117188-20.117188-19.304687-19.300781-51.511718-19.28125-70.796874.003906-10.984376 10.984375-16.042969 26.21875-7.480469 40.519532l-54.585938 54.589843c-6.25-5.3125-12.417969-10.25-18.480469-14.789062-10.296874-7.703125-25.074218-6.679688-34.167968 2.417969l-14.609375 14.609374c-9.125 9.125-10.164063 23.8125-2.417969 34.167969 1.171875 1.5625 2.378906 3.136719 3.601562 4.714844l-22.652343 22.652344-22.652344-22.652344c9.125-11.769531 13.019531-27.050781 1.183594-38.886719 0 0-14.589844-14.589844-14.609375-14.609375-9.097656-9.097656-23.882813-10.113281-34.167969-2.414062-6.0625 4.535156-12.230469 9.476562-18.480469 14.785156l-54.578125-54.578125c2.855469-4.746094 4.378907-10.191406 4.378907-15.871094 0-8.246094-3.210938-16-9.042969-21.832031-20.109375-20.113281-52.332031-24.117187-73.621094-2.828125 0 0-20.09375 20.09375-20.117187 20.117188-21.15625 21.152343-17.152344 53.640624 2.828124 73.621093zm405.125 252.640625c7.445313 7.441406 12.804688 16.753906 15.5 26.929688l18.089844 68.234375-68.234375-18.089844c-10.175781-2.695313-19.488281-8.054687-26.929687-15.5l-94.050782-94.046875 25.476563-25.480469s110.242187 110.246094 110.484375 110.488281c6.84375 6.84375 17.484375-3.761718 10.625-10.621093l-110.488281-110.488281 25.476562-25.476563zm-7.65625-332.929687c14.496094-14.496094 36.863282-18.34375 52.378907-2.828125 0 0 20.109375 20.109375 20.117187 20.117187 15.5625 15.558594 11.652344 37.898438-2.828125 52.378907-6.117187 6.113281-16.308593 6.105468-22.417969 0 0 0-47.25-47.25-47.25-47.253907-6.179687-6.179687-6.179687-16.234375 0-22.414062zm-5.308593 38.351562 36.625 36.625s-53.246094 53.246094-53.246094 53.246094c.386719-.394531-16.042969-16.902344-17.882813-18.742187-6.105468-6.105469-12.351562-12.078126-18.746093-17.882813zm-121.191407 56.167969s14.59375-14.59375 14.609376-14.609375c3.875-3.878906 10.164062-4.289063 14.546874-1.011719 16.671876 12.476563 32.191407 26.488282 46.90625 41.203125 14.71875 14.71875 28.726563 30.238281 41.203126 46.910157 3.304687 4.414062 2.871093 10.667968-1.011719 14.546874 0 0-14.59375 14.59375-14.605469 14.609376-3.878906 3.875-10.171875 4.285156-14.546875 1.011718-16.675781-12.480468-32.191406-26.488281-46.910156-41.203125-14.714844-14.71875-28.722657-30.238281-41.203125-46.910156-3.304688-4.414063-2.867188-10.664063 1.011718-14.546875zm-125.492187 101.328125c9.101563-7.65625 17.875-15.679687 26.394531-23.976563l20.289063 20.285157-25.480469 25.480469-21.519531-21.519532c.105469-.089844.210937-.179687.316406-.269531zm61.261719-61.308594c0 .003907 21.519531 21.519531 21.519531 21.519531l-25.476563 25.476563s-20.285156-20.28125-20.285156-20.285156c.355469.285156 24.566406-26.386719 24.242188-26.710938zm-29.105469-55.640625c4.386719-3.28125 10.667969-2.863281 14.546875 1.011719l14.609375 14.609375c3.878906 3.878906 4.3125 10.132812 1.011719 14.546875-12.480469 16.671875-26.492188 32.195313-41.210938 46.914063s-30.226562 28.714843-46.902344 41.199218c-4.382812 3.28125-10.667968 2.863282-14.542968-1.011718l-14.609375-14.609376c-3.878907-3.878906-4.316407-10.132812-1.011719-14.546874 12.480469-16.675782 26.472656-32.199219 41.203125-46.910157 14.726563-14.726562 30.222656-28.714843 46.90625-41.203125zm-57.484375 30.539063c-.015625.015625-.03125.027343-.046875.042969-.015625.015624-.027344.03125-.042969.046874-6.089844 6.089844-12.046875 12.320313-17.839844 18.695313l-53.246093-53.246094 36.625-36.625 53.25 53.246094c-1.460938 1.324219-14.011719 13.152344-18.699219 17.839844zm-112.355469-92.148438s20.113281-20.109375 20.117188-20.117187c13.507812-13.503906 36.058593-13.492188 49.550781 0 7.003906 7.007812 10.886719 17.1875 2.828125 25.246094 0 0-47.230469 47.230468-47.25 47.25-8.082031 8.167968-18.261719 4.152343-25.246094-2.828126-13.507812-13.511718-13.492187-36.054687 0-49.550781zm0 0"/></svg>