<svg height="512pt" viewBox="-33 0 512 512.00092" width="512pt" xmlns="http://www.w3.org/2000/svg"><path d="m100.066406 434.347656-55.539062-32.347656c-7.402344 7.773438-14.996094 15.113281-22.691406 22.242188-9.144532 8.472656-14.335938 20.371093-14.335938 32.835937v.003906c0 26.667969 23.175781 47.582031 49.667969 44.523438 20.601562-2.382813 41.144531-6.269531 61.34375-11.71875zm0 0" fill="#ffc471"/><path d="m126.503906 56.429688c0 9.894531-8.023437 17.917968-17.921875 17.917968-9.898437 0-17.921875-8.023437-17.921875-17.917968 0-9.898438 8.023438-17.921876 17.921875-17.921876 9.898438 0 17.921875 8.023438 17.921875 17.921876zm0 0" fill="#ffdaa6"/><path d="m438.84375 56.429688c0 9.894531-8.023438 17.917968-17.921875 17.917968-9.894531 0-17.917969-8.023437-17.917969-17.917968 0-9.898438 8.023438-17.921876 17.917969-17.921876 9.898437 0 17.921875 8.023438 17.921875 17.921876zm0 0" fill="#ffdaa6"/><path d="m264.753906 74.347656-126.789062 31.042969c0 136.273437-27.664063 211.128906-65.5625 263.355469l27.664062 65.601562 61.253906 41.378906c126.839844-50.125 230.222657-167.992187 230.222657-370.335937zm0 0" fill="#c68c6a"/><path d="m137.964844 105.390625c0 10.347656-.160156 20.335937-.472656 29.992187.15625.003907.316406.011719.472656.011719h252.785156c.515625-9.789062.792969-19.785156.792969-30.003906l-126.789063-31.042969zm0 0" fill="#b27858"/><path d="m391.542969 7.464844h-253.578125c-11.984375 0-21.699219 9.714844-21.699219 21.703125v54.523437c0 11.984375 9.714844 21.699219 21.699219 21.699219h253.578125c11.984375 0 21.699219-9.714844 21.699219-21.699219v-54.523437c0-11.988281-9.714844-21.703125-21.699219-21.703125zm0 0" fill="#ffc471"/><path d="m225.070312 56.429688c0 9.894531-8.023437 17.917968-17.921874 17.917968-9.898438 0-17.921876-8.023437-17.921876-17.917968 0-9.898438 8.023438-17.921876 17.921876-17.921876 9.898437 0 17.921874 8.023438 17.921874 17.921876zm0 0" fill="#ffdaa6"/><path d="m340.277344 56.429688c0 9.894531-8.023438 17.917968-17.921875 17.917968-9.894531 0-17.921875-8.023437-17.921875-17.917968 0-9.898438 8.027344-17.921876 17.921875-17.921876 9.898437 0 17.921875 8.023438 17.921875 17.921876zm0 0" fill="#ffdaa6"/><path d="m85.566406 497.332031c11.050782-2.039062 22.050782-4.507812 32.949219-7.449219l-18.449219-55.535156-55.539062-32.347656c-7.007813 7.355469-14.191406 14.320312-21.464844 21.09375zm0 0" fill="#ffb85c"/><path d="m141.046875 504.535156c-6.132813-.011718-12.304687-2.5-16.53125-7.519531l-81.949219-97.34375c-7.683594-9.125-6.515625-22.753906 2.613282-30.4375 9.125-7.679687 22.753906-6.511719 30.4375 2.613281l81.949218 97.34375c7.683594 9.125 6.511719 22.753906-2.613281 30.4375-3.886719 3.269532-8.882813 4.917969-13.90625 4.90625zm0 0" fill="#ffdaa6"/><path d="m186.296875 161.503906v12.839844c0 4.144531 3.359375 7.503906 7.5 7.503906 4.144531 0 7.503906-3.359375 7.503906-7.503906v-12.839844c0-4.144531-3.359375-7.5-7.503906-7.5-4.140625 0-7.5 3.355469-7.5 7.5zm0 0"/><path d="m343.207031 174.34375v-12.839844c0-4.144531-3.355469-7.5-7.5-7.5-4.140625 0-7.5 3.355469-7.5 7.5v12.839844c0 4.144531 3.359375 7.503906 7.5 7.503906 4.144531 0 7.5-3.359375 7.5-7.503906zm0 0"/><path d="m287.203125 167.804688c-3.121094-2.726563-7.855469-2.410157-10.585937.710937-2.878907 3.292969-7.203126 5.183594-11.863282 5.183594s-8.984375-1.890625-11.863281-5.183594c-2.726563-3.121094-7.464844-3.4375-10.585937-.710937-3.121094 2.726562-3.4375 7.464843-.710938 10.585937 5.726562 6.550781 14.167969 10.3125 23.160156 10.3125 8.988282 0 17.429688-3.761719 23.160156-10.3125 2.726563-3.121094 2.410157-7.859375-.710937-10.585937zm0 0"/><path d="m207.148438 81.886719c14.019531 0 25.421874-11.40625 25.421874-25.421875 0-14.019532-11.402343-25.421875-25.421874-25.421875-14.015626 0-25.421876 11.402343-25.421876 25.421875 0 14.015625 11.40625 25.421875 25.421876 25.421875zm0-35.84375c5.746093 0 10.421874 4.675781 10.421874 10.421875s-4.675781 10.421875-10.421874 10.421875c-5.746094 0-10.417969-4.675781-10.417969-10.421875s4.671875-10.421875 10.417969-10.421875zm0 0"/><path d="m347.78125 56.464844c0-14.019532-11.40625-25.421875-25.425781-25.421875-14.015625 0-25.421875 11.402343-25.421875 25.421875 0 14.019531 11.40625 25.421875 25.421875 25.421875 14.019531 0 25.425781-11.402344 25.425781-25.421875zm-35.84375 0c0-5.746094 4.675781-10.421875 10.417969-10.421875 5.746093 0 10.421875 4.675781 10.421875 10.421875s-4.675782 10.421875-10.421875 10.421875c-5.742188-.003907-10.417969-4.675781-10.417969-10.421875zm0 0"/><path d="m52.019531 509.410156c20.988281.199219 43.597657-5.839844 63.800781-11.039062 0 0 2.953126 3.507812 2.957032 3.511718 10.046875 11.9375 29.066406 13.570313 41.003906 3.519532 7.273438-6.117188 11.125-15.636719 10.226562-25.082032 42.175782-17.460937 79.707032-41.507812 111.613282-71.578124 3.011718-2.839844 3.15625-7.589844.3125-10.601563-2.839844-3.015625-7.585938-3.15625-10.601563-.316406-30.453125 28.703125-66.28125 51.710937-106.574219 68.453125-.027343-.039063-.058593-.070313-.085937-.109375-.433594-.601563-82.519531-98.167969-82.519531-98.167969 19.695312-28.429688 34.269531-60.359375 44.472656-97.382812 12.1875-44.214844 18.355469-95.863282 18.8125-157.6875h238.554688c-.710938 54.4375-9.183594 104.710937-25.207032 149.53125-15.4375 43.183593-37.984375 81.640624-67.011718 114.304687-2.753907 3.097656-2.472657 7.835937.625 10.589844 3.09375 2.75 7.835937 2.472656 10.585937-.625 30.3125-34.105469 53.839844-74.21875 69.929687-119.222657 16.695313-46.695312 25.4375-99.003906 26.066407-155.542968 12.511719-3.296875 21.761719-14.707032 21.761719-28.238282v-1.84375c.0625 0 .121093.003907.179687.003907 14.019531 0 25.421875-11.402344 25.421875-25.421875 0-14.015625-11.402344-25.421875-25.421875-25.421875-.058594 0-.117187.003906-.179687.003906v-1.84375c.003906-16.101563-13.097657-29.203125-29.199219-29.203125h-185.136719c-4.144531 0-7.503906 3.359375-7.503906 7.5 0 4.144531 3.359375 7.503906 7.503906 7.503906h185.136719c7.828125 0 14.199219 6.367188 14.199219 14.199219v54.523437c0 7.832032-6.371094 14.203126-14.199219 14.203126h-253.578125c-7.832032 0-14.199219-6.371094-14.199219-14.203126v-54.523437c0-7.832031 6.367187-14.199219 14.199219-14.199219h38.433594c4.144531 0 7.503906-3.359375 7.503906-7.503906 0-4.140625-3.359375-7.5-7.503906-7.5h-38.433594c-16.101563 0-29.203125 13.101562-29.203125 29.203125v1.84375c-.058594 0-.117188-.003906-.179688-.003906-14.015625 0-25.421875 11.402343-25.421875 25.421875 0 14.019531 11.40625 25.421875 25.421875 25.421875.0625 0 .121094-.003907.179688-.003907v1.84375c0 13.503907 9.210937 24.886719 21.679687 28.214844-.394531 60.886719-6.382812 111.546875-18.277344 154.6875-9.679687 35.125-23.433593 65.382813-41.960937 92.273438-3.480469-1.4375-7.25-2.207032-11.121094-2.207032-6.839843 0-13.496093 2.429688-18.730469 6.835938-11.03125 9.289062-13.574218 25.835938-5.753906 37.976562-5.359375 5.449219-11.242187 11.140626-17.859375 17.269532-10.636719 9.859375-16.738281 23.832031-16.738281 38.339844 0 28.148437 24.390625 52.027343 52.019531 52.292968zm379.324219-452.945312c0 5.804687-4.8125 10.519531-10.597656 10.417968v-20.835937c5.78125-.101563 10.597656 4.613281 10.597656 10.417969zm-333.179688 0c0-5.746094 4.671876-10.421875 10.417969-10.421875.0625 0 .121094 0 .179688.003906v20.835937c-5.8125.097657-10.597657-4.613281-10.597657-10.417968zm42.902344 440.605468c-4.117187-.078124-8.121094-1.652343-10.8125-4.851562 0 0-81.945312-97.339844-81.949218-97.339844-4.953126-5.882812-4.167969-14.925781 1.707031-19.867187 5.730469-4.828125 15.035156-4.035157 19.867187 1.707031l81.949219 97.339844c4.929687 5.855468 4.152344 14.9375-1.707031 19.867187-2.40625 2.027344-5.613282 3.144531-9.023438 3.144531m-114.164062-67.289062c6.308594-5.84375 11.988281-11.316406 17.195312-16.570312l60.941406 72.386718c-15.960937 3.808594-32.316406 6.691406-48.761718 8.589844-21.808594 2.515625-41.308594-15.203125-41.308594-37.070312 0-10.34375 4.351562-20.308594 11.933594-27.335938zm0 0"/></svg>