<svg height="512pt" viewBox="0 0 512 512" width="512pt" xmlns="http://www.w3.org/2000/svg"><path d="m504.5 256c0 137.242188-111.257812 248.5-248.5 248.5s-248.5-111.257812-248.5-248.5 111.257812-248.5 248.5-248.5 248.5 111.257812 248.5 248.5zm0 0" fill="#935b43"/><path d="m435.167969 256c0 98.953125-80.214844 179.167969-179.167969 179.167969s-179.167969-80.214844-179.167969-179.167969 80.214844-179.167969 179.167969-179.167969 179.167969 80.214844 179.167969 179.167969zm0 0" fill="#c68c6a"/><path d="m106.832031 256c0-93.898438 72.238281-170.914062 164.167969-178.535156-4.945312-.410156-9.945312-.628906-15-.628906-98.949219 0-179.167969 80.214843-179.167969 179.164062 0 98.953125 80.21875 179.167969 179.167969 179.167969 5.054688 0 10.054688-.21875 15-.628907-91.929688-7.625-164.167969-84.640624-164.167969-178.539062zm0 0" fill="#b27858"/><path d="m270 42.167969c0 7.730469-6.269531 14-14 14s-14-6.269531-14-14c0-7.734375 6.269531-14 14-14s14 6.265625 14 14zm0 0" fill="#c5c4c9"/><path d="m224.332031 432.375c10.28125 1.835938 20.863281 2.792969 31.667969 2.792969s21.386719-.957031 31.667969-2.792969v-352.75c-10.28125-1.835938-20.863281-2.792969-31.667969-2.792969s-21.386719.957031-31.667969 2.789063zm0 0" fill="#c5c4c9"/><path d="m268.25 124.851562c0 6.765626-5.484375 12.25-12.25 12.25s-12.25-5.484374-12.25-12.25c0-6.765624 5.484375-12.25 12.25-12.25s12.25 5.484376 12.25 12.25zm0 0" fill="#aeaeb2"/><path d="m268.25 387.148438c0 6.765624-5.484375 12.25-12.25 12.25s-12.25-5.484376-12.25-12.25c0-6.765626 5.484375-12.25 12.25-12.25s12.25 5.484374 12.25 12.25zm0 0" fill="#aeaeb2"/><g fill="#c5c4c9"><path d="m421.203125 104.796875c0 7.730469-6.269531 14-14 14s-14-6.269531-14-14 6.269531-14 14-14 14 6.269531 14 14zm0 0"/><path d="m483.832031 256c0 7.730469-6.265625 14-14 14-7.730469 0-14-6.269531-14-14s6.269531-14 14-14c7.734375 0 14 6.269531 14 14zm0 0"/><path d="m421.203125 407.203125c0 7.730469-6.269531 14-14 14s-14-6.269531-14-14 6.269531-14 14-14 14 6.269531 14 14zm0 0"/><path d="m270 469.832031c0 7.734375-6.269531 14-14 14s-14-6.265625-14-14c0-7.730469 6.269531-14 14-14s14 6.269531 14 14zm0 0"/><path d="m118.796875 407.203125c0 7.730469-6.269531 14-14 14s-14-6.269531-14-14 6.269531-14 14-14 14 6.269531 14 14zm0 0"/><path d="m56.164062 256c0 7.730469-6.265624 14-14 14-7.730468 0-14-6.269531-14-14s6.269532-14 14-14c7.734376 0 14 6.269531 14 14zm0 0"/><path d="m118.796875 104.796875c0 7.730469-6.269531 14-14 14s-14-6.269531-14-14 6.269531-14 14-14 14 6.269531 14 14zm0 0"/><path d="m76.832031 256c0 10.804688.957031 21.386719 2.789063 31.667969h352.753906c1.835938-10.28125 2.789062-20.863281 2.789062-31.667969s-.953124-21.386719-2.789062-31.667969h-352.753906c-1.832032 10.28125-2.789063 20.863281-2.789063 31.667969zm0 0"/></g><path d="m76.925781 261.785156c.273438 8.675782 1.175781 17.335938 2.695313 25.882813h30.011718c-1.832031-10.28125-2.800781-20.859375-2.800781-31.667969s.96875-21.386719 2.800781-31.667969h-30.011718c0 .011719 0 .023438-.003906.03125-2.171876 12.339844-3.089844 24.902344-2.691407 37.421875zm0 0" fill="#aeaeb2"/><path d="m342.332031 256c0 47.679688-38.652343 86.332031-86.332031 86.332031s-86.332031-38.652343-86.332031-86.332031 38.652343-86.332031 86.332031-86.332031 86.332031 38.652343 86.332031 86.332031zm0 0" fill="#aeaeb2"/><path d="m276 332.332031c-47.679688 0-86.332031-38.652343-86.332031-86.332031 0-29.78125 15.078125-56.039062 38.019531-71.558594-33.769531 11.722656-58.019531 43.796875-58.019531 81.558594 0 47.679688 38.652343 86.332031 86.332031 86.332031 17.898438 0 34.523438-5.445312 48.3125-14.773437-8.871094 3.082031-18.390625 4.773437-28.3125 4.773437zm0 0" fill="#a1a1a5"/><path d="m399.398438 256c0 6.765625-5.484376 12.25-12.25 12.25-6.765626 0-12.25-5.484375-12.25-12.25s5.484374-12.25 12.25-12.25c6.765624 0 12.25 5.484375 12.25 12.25zm0 0" fill="#aeaeb2"/><path d="m137.101562 256c0 6.765625-5.484374 12.25-12.25 12.25-6.765624 0-12.25-5.484375-12.25-12.25s5.484376-12.25 12.25-12.25c6.765626 0 12.25 5.484375 12.25 12.25zm0 0" fill="#aeaeb2"/><path d="m250.226562 76.925781c-8.621093.351563-17.398437 1.179688-25.894531 2.699219v8.125c14.746094-5.402344 30.398438-8.9375 46.667969-10.285156-3.695312-.308594-7.421875-.507813-11.175781-.589844-3.195313-.070312-6.402344-.078125-9.597657.050781zm0 0" fill="#aeaeb2"/><path d="m271 434.535156c-16.269531-1.347656-31.921875-4.878906-46.667969-10.285156v8.125c.054688.011719.109375.019531.160157.027344 11.667968 2.023437 23.492187 2.976562 35.335937 2.722656 3.753906-.082031 7.476563-.28125 11.171875-.589844zm0 0" fill="#aeaeb2"/><path d="m170.089844 30.777344c27.433594-10.46875 56.339844-15.777344 85.910156-15.777344 64.375 0 124.894531 25.066406 170.414062 70.585938 45.519532 45.519531 70.585938 106.039062 70.585938 170.414062 0 89.011719-48.789062 170.453125-127.328125 212.546875-3.648437 1.957031-5.023437 6.503906-3.066406 10.152344 1.929687 3.601562 6.5625 4.996093 10.152343 3.070312 83.421876-44.710937 135.242188-131.21875 135.242188-225.769531 0-68.378906-26.628906-132.667969-74.980469-181.019531-48.351562-48.351563-112.640625-74.980469-181.019531-74.980469-31.40625 0-62.109375 5.640625-91.257812 16.765625-3.871094 1.476563-5.808594 5.8125-4.332032 9.679687 1.476563 3.871094 5.808594 5.8125 9.679688 4.332032zm0 0"/><path d="m256 512c31.207031 0 61.730469-5.570312 90.71875-16.558594 3.871094-1.46875 5.820312-5.800781 4.351562-9.671875-1.46875-3.875-5.796874-5.824219-9.671874-4.355469-27.28125 10.34375-56.015626 15.585938-85.398438 15.585938-64.371094 0-124.894531-25.066406-170.414062-70.585938-45.519532-45.519531-70.585938-106.039062-70.585938-170.414062 0-88.773438 48.59375-170.113281 126.820312-212.28125 3.648438-1.964844 5.007813-6.515625 3.042969-10.160156-1.964843-3.648438-6.515625-5.007813-10.160156-3.042969-83.085937 44.789063-134.703125 131.1875-134.703125 225.484375 0 68.378906 26.628906 132.667969 74.980469 181.019531 48.351562 48.351563 112.640625 74.980469 181.019531 74.980469zm0 0"/><path d="m277.5 42.167969c0-11.855469-9.644531-21.5-21.5-21.5s-21.5 9.644531-21.5 21.5 9.644531 21.5 21.5 21.5 21.5-9.648438 21.5-21.5zm-28 0c0-3.585938 2.914062-6.5 6.5-6.5s6.5 2.914062 6.5 6.5c0 3.582031-2.914062 6.5-6.5 6.5s-6.5-2.917969-6.5-6.5zm0 0"/><path d="m256 144.601562c10.890625 0 19.75-8.863281 19.75-19.75 0-10.890624-8.859375-19.75-19.75-19.75s-19.75 8.859376-19.75 19.75c0 10.886719 8.859375 19.75 19.75 19.75zm0-24.5c2.617188 0 4.75 2.128907 4.75 4.75 0 2.617188-2.132812 4.75-4.75 4.75s-4.75-2.132812-4.75-4.75c0-2.621093 2.132812-4.75 4.75-4.75zm0 0"/><path d="m256 367.398438c-10.890625 0-19.75 8.863281-19.75 19.75 0 10.890624 8.859375 19.75 19.75 19.75s19.75-8.859376 19.75-19.75c0-10.886719-8.859375-19.75-19.75-19.75zm0 24.5c-2.617188 0-4.75-2.128907-4.75-4.75 0-2.617188 2.132812-4.75 4.75-4.75s4.75 2.132812 4.75 4.75c0 2.621093-2.128906 4.75-4.75 4.75zm0 0"/><path d="m407.203125 126.214844c5.53125 0 11.0625-2.074219 15.203125-6.214844 8.382812-8.382812 8.382812-22.023438 0-30.40625-8.289062-8.289062-22.121094-8.285156-30.40625 0-8.382812 8.382812-8.382812 22.023438 0 30.40625 4.144531 4.144531 9.675781 6.214844 15.203125 6.214844zm-4.597656-26.015625c2.511719-2.507813 6.6875-2.503907 9.195312 0 2.535157 2.535156 2.535157 6.660156 0 9.195312-2.441406 2.441407-6.640625 2.550781-9.195312 0-2.53125-2.535156-2.53125-6.660156 0-9.195312zm0 0"/><path d="m491.332031 256c0-11.855469-9.644531-21.5-21.5-21.5s-21.5 9.644531-21.5 21.5 9.644531 21.5 21.5 21.5 21.5-9.644531 21.5-21.5zm-28 0c0-3.585938 2.917969-6.5 6.5-6.5 3.585938 0 6.5 2.914062 6.5 6.5s-2.914062 6.5-6.5 6.5c-3.582031 0-6.5-2.914062-6.5-6.5zm0 0"/><path d="m392 392c-8.382812 8.382812-8.382812 22.023438 0 30.40625 8.285156 8.289062 22.128906 8.277344 30.40625 0 8.382812-8.382812 8.382812-22.023438 0-30.40625-8.292969-8.292969-22.121094-8.285156-30.40625 0zm19.800781 19.800781c-2.511719 2.511719-6.679687 2.507813-9.195312 0-2.53125-2.535156-2.53125-6.660156 0-9.191406 2.515625-2.515625 6.683593-2.511719 9.195312-.003906 2.535157 2.535156 2.535157 6.660156 0 9.195312zm0 0"/><path d="m234.5 469.832031c0 11.855469 9.644531 21.5 21.5 21.5s21.5-9.644531 21.5-21.5-9.644531-21.5-21.5-21.5-21.5 9.644531-21.5 21.5zm28 0c0 3.585938-2.914062 6.5-6.5 6.5s-6.5-2.914062-6.5-6.5c0-3.582031 2.914062-6.5 6.5-6.5s6.5 2.917969 6.5 6.5zm0 0"/><path d="m104.796875 385.785156c-5.53125 0-11.0625 2.070313-15.203125 6.214844-8.382812 8.382812-8.382812 22.023438 0 30.40625 8.292969 8.289062 22.125 8.28125 30.40625 0 8.382812-8.382812 8.382812-22.023438 0-30.40625-4.144531-4.144531-9.675781-6.214844-15.203125-6.214844zm4.597656 26.015625c-2.507812 2.507813-6.691406 2.5-9.191406 0-2.535156-2.535156-2.535156-6.660156 0-9.195312 2.507813-2.507813 6.6875-2.503907 9.191406 0 2.535157 2.535156 2.535157 6.660156 0 9.195312zm0 0"/><path d="m20.667969 256c0 11.855469 9.644531 21.5 21.5 21.5s21.5-9.644531 21.5-21.5-9.644531-21.5-21.5-21.5-21.5 9.644531-21.5 21.5zm28 0c0 3.585938-2.917969 6.5-6.5 6.5-3.585938 0-6.5-2.914062-6.5-6.5s2.914062-6.5 6.5-6.5c3.582031 0 6.5 2.914062 6.5 6.5zm0 0"/><path d="m120 120c8.382812-8.382812 8.382812-22.023438 0-30.40625-8.277344-8.277344-22.140625-8.265625-30.40625 0-8.382812 8.382812-8.382812 22.023438 0 30.40625 8.292969 8.289062 22.121094 8.285156 30.40625 0zm-19.800781-19.800781c2.511719-2.507813 6.691406-2.503907 9.195312 0 2.53125 2.535156 2.53125 6.660156 0 9.195312-2.511719 2.511719-6.683593 2.507813-9.195312 0-2.53125-2.535156-2.53125-6.660156 0-9.195312zm0 0"/><path d="m210.558594 265.417969c4.144531 0 7.5-3.359375 7.5-7.5v-8.226563c0-4.140625-3.355469-7.5-7.5-7.5-4.140625 0-7.5 3.359375-7.5 7.5v8.226563c0 4.140625 3.359375 7.5 7.5 7.5zm0 0"/><path d="m301.441406 265.417969c4.140625 0 7.5-3.359375 7.5-7.5v-8.226563c0-4.140625-3.359375-7.5-7.5-7.5s-7.5 3.359375-7.5 7.5v8.226563c0 4.140625 3.359375 7.5 7.5 7.5zm0 0"/><path d="m256 269.808594c6.535156 0 12.683594-2.746094 16.863281-7.527344 2.726563-3.121094 2.40625-7.855469-.710937-10.582031-3.121094-2.726563-7.859375-2.410157-10.585938.710937-1.332031 1.523438-3.359375 2.398438-5.566406 2.398438s-4.234375-.875-5.566406-2.398438c-2.730469-3.121094-7.464844-3.4375-10.585938-.710937-3.117187 2.726562-3.4375 7.460937-.710937 10.582031 4.183593 4.78125 10.328125 7.527344 16.863281 7.527344zm0 0"/><path d="m387.148438 275.75c10.890624 0 19.75-8.859375 19.75-19.75s-8.859376-19.75-19.75-19.75c-10.886719 0-19.75 8.859375-19.75 19.75s8.863281 19.75 19.75 19.75zm0-24.5c2.621093 0 4.75 2.132812 4.75 4.75s-2.128907 4.75-4.75 4.75c-2.617188 0-4.75-2.132812-4.75-4.75s2.132812-4.75 4.75-4.75zm0 0"/><path d="m124.851562 275.75c10.886719 0 19.75-8.859375 19.75-19.75s-8.863281-19.75-19.75-19.75c-10.890624 0-19.75 8.859375-19.75 19.75s8.859376 19.75 19.75 19.75zm0-24.5c2.617188 0 4.75 2.132812 4.75 4.75s-2.132812 4.75-4.75 4.75c-2.621093 0-4.75-2.132812-4.75-4.75s2.128907-4.75 4.75-4.75zm0 0"/><path d="m275.683594 441.640625c4.570312-.480469 9.117187-1.132813 13.621094-1.953125 76.28125-13.792969 136.582031-74.09375 150.382812-150.371094 3.972656-21.960937 3.96875-44.671875 0-66.632812-13.800781-76.277344-74.101562-136.578125-150.382812-150.371094-22.117188-4-44.515626-3.820312-66.605469 0-76.289063 13.792969-136.59375 74.101562-150.386719 150.386719-.023438.105469-.050781.207031-.070312.316406-3.824219 21.570313-3.875 44.246094 0 65.96875.019531.105469.046874.210937.070312.316406 13.792969 76.285157 74.097656 136.589844 150.382812 150.386719.105469.023438.210938.050781.320313.070312 17.320313 3.085938 35.171875 3.789063 52.667969 1.882813zm-.410156-15.0625c-14.4375 1.621094-29.054688 1.40625-43.4375-.621094v-79.285156c1.917968.511719 3.859374.964844 5.824218 1.355469 14.03125 2.792968 28.679688 2.332031 42.507813-1.355469v79.285156c-.097657.351563-4.457031.574219-4.894531.621094zm-92.882813-142.402344c-6.90625-18.023437-6.921875-38.332031 0-56.351562 8.003906-20.835938 24.597656-37.429688 45.433594-45.433594 18.027343-6.921875 38.347656-6.902344 56.371093.007813 20.828126 8.007812 37.421876 24.605468 45.417969 45.441406 6.894531 17.992187 6.902344 38.335937 0 56.320312-8 20.835938-24.589843 37.4375-45.425781 45.441406-17.769531 6.832032-38.328125 6.9375-56.375 0-20.828125-8.003906-37.417969-24.59375-45.421875-45.425781zm49.445313-118.847656v-79.285156c.390624-.054688.78125-.113281 1.175781-.164063 15.636719-2.101562 31.53125-2.035156 47.15625.164063v79.285156c-1.921875-.511719-3.867188-.96875-5.832031-1.359375-14.027344-2.796875-28.683594-2.328125-42.5 1.359375zm63.332031 257.824219v-81.894532c20.308593-9.367187 36.722656-25.78125 46.089843-46.089843h81.894532c-14.816406 63.261719-64.722656 113.167969-127.984375 127.984375zm52.855469-148.792969c2.8125-14.019531 2.332031-28.710937-1.351563-42.527344h79.285156c.058594.402344.117188.800781.171875 1.203125 2.097656 15.625 2.042969 31.523438-.171875 47.128906 0 0-79.285156 0-79.28125-.015624.511719-1.90625.960938-3.835938 1.347657-5.789063zm75.132812-57.527344h-81.898438c-9.367187-20.308593-25.78125-36.722656-46.089843-46.089843v-81.894532c63.261719 14.816406 113.167969 64.722656 127.988281 127.984375zm-206.320312-127.984375v81.894532c-20.3125 9.367187-36.726563 25.78125-46.09375 46.089843h-81.894532c14.816406-63.261719 64.722656-113.167969 127.988282-127.984375zm-52.863282 148.8125c-2.789062 14.011719-2.328125 28.699219 1.355469 42.507813h-79.285156c-.054688-.394531-.113281-.785157-.164063-1.175781-2.109375-15.628907-2.042968-31.546876.164063-47.15625h79.285156c-.511719 1.917968-.964844 3.859374-1.355469 5.824218zm-75.125 57.507813h81.894532c9.367187 20.308593 25.78125 36.722656 46.09375 46.089843v81.894532c-63.265626-14.816406-113.171876-64.722656-127.988282-127.984375zm0 0"/></svg>