<svg height="512pt" viewBox="0 0 512.002 512" width="512pt" xmlns="http://www.w3.org/2000/svg"><g fill="#ff727b"><path d="m39.042969 432.863281-31.542969 14.703125v42.804688c0 7.804687 6.324219 14.128906 14.128906 14.128906h34.824219c7.804687 0 14.132813-6.324219 14.132813-14.128906v-41.167969zm0 0"/><path d="m490.371094 7.5h-42.804688l-27.789062 31.542969 29.421875 31.542969h41.167969c7.804687 0 14.132812-6.328126 14.132812-14.132813v-34.820313c0-7.804687-6.328125-14.132812-14.128906-14.132812zm0 0"/><path d="m388.414062 343.808594-52.378906-52.378906-44.605468 44.609374 52.378906 52.375c5.527344 5.527344 14.488281 5.527344 20.015625 0l24.589843-24.589843c5.527344-5.527344 5.527344-14.488281 0-20.015625zm0 0"/><path d="m236.933594 455.285156-24.199219-70.007812-59.625 20.609375 24.199219 70.007812c2.554687 7.386719 10.613281 11.308594 18.003906 8.753907l32.867188-11.359376c7.386718-2.554687 11.304687-10.613281 8.753906-18.003906zm0 0"/><path d="m475.894531 177.308594-70.007812-24.195313-20.609375 59.621094 70.007812 24.199219c7.386719 2.554687 15.449219-1.367188 18-8.753906l11.363282-32.867188c2.550781-7.390625-1.367188-15.449219-8.753907-18.003906zm0 0"/></g><path d="m48.15625 405.527344 142.746094-3.207032 157-130.4375 71.875-167v-65.839843h-371.621094zm0 0" fill="#57565c"/><path d="m384.074219 7.5h-356.847657c-10.894531 0-19.726562 8.835938-19.726562 19.730469v356.84375l31.542969 21.453125 31.542969-19.535156v-315.40625h315.40625l33.789062-31.542969zm0 0" fill="#ff727b"/><path d="m70.585938 70.585938h349.191406v30.964843h-349.191406zm0 0" fill="#48484d"/><path d="m447.566406 7.5h-63.492187c1.710937 13.847656 2.585937 27.886719 2.585937 42.058594 0 90.042968-35.066406 174.695312-98.734375 238.367187-63.671875 63.671875-148.324219 98.734375-238.371093 98.734375-14.171876 0-28.210938-.871094-42.054688-2.585937v63.492187c13.890625 1.445313 27.917969 2.179688 42.054688 2.179688 54.011718 0 106.425781-10.585938 155.78125-31.460938 47.660156-20.160156 90.453124-49.007812 127.195312-85.75 36.742188-36.742187 65.59375-79.539062 85.75-127.195312 20.875-49.359375 31.460938-101.769532 31.460938-155.78125 0-14.136719-.730469-28.164063-2.175782-42.058594zm0 0" fill="#f5615e"/><path d="m120.515625 177.265625c-4.144531 0-7.5 3.355469-7.5 7.5v15.285156c0 4.140625 3.355469 7.5 7.5 7.5 4.140625 0 7.5-3.359375 7.5-7.5v-15.285156c0-4.144531-3.359375-7.5-7.5-7.5zm0 0"/><path d="m289.402344 207.546875c4.144531 0 7.5-3.355469 7.5-7.5v-15.28125c0-4.144531-3.355469-7.5-7.5-7.5-4.140625 0-7.5 3.355469-7.5 7.5v15.28125c0 4.144531 3.359375 7.5 7.5 7.5zm0 0"/><path d="m204.957031 215.707031c10.289063 0 19.941407-4.296875 26.488281-11.785156 2.726563-3.117187 2.410157-7.855469-.710937-10.582031-3.117187-2.726563-7.855469-2.410156-10.582031.710937-3.699219 4.226563-9.234375 6.65625-15.195313 6.65625-5.957031 0-11.496093-2.425781-15.195312-6.65625-2.726563-3.121093-7.460938-3.4375-10.582031-.710937-3.117188 2.722656-3.4375 7.460937-.710938 10.582031 6.546875 7.488281 16.203125 11.785156 26.488281 11.785156zm0 0"/><path d="m490.367188 0h-178.953126c-4.144531 0-7.5 3.359375-7.5 7.5 0 4.144531 3.355469 7.5 7.5 7.5h65.957032c1.648437 15.960938 2.140625 32.054688 1.492187 48.085938h-308.277343c-4.144532 0-7.5 3.355468-7.5 7.5v308.285156c-16.042969.660156-32.113282.136718-48.085938-1.5v-350.140625c0-6.742188 5.484375-12.230469 12.226562-12.230469h254.1875c4.140626 0 7.5-3.355469 7.5-7.5 0-4.140625-3.359374-7.5-7.5-7.5h-254.1875c-15.011718 0-27.226562 12.214844-27.226562 27.230469v463.140625c0 11.925781 9.703125 21.628906 21.628906 21.628906h34.824219c11.929687 0 21.632813-9.703125 21.632813-21.628906v-34.109375c27.132812-1.863281 53.800781-6.398438 79.8125-13.5625 0 0 12.304687 35.601562 12.320312 35.648437 3.84375 11.117188 16.4375 17.226563 27.542969 13.390625 0 0 32.835937-11.351562 32.867187-11.359375 11.152344-3.855468 17.25-16.375 13.390625-27.542968l-13.152343-38.054688c27.917968-13.863281 54.03125-30.785156 78.054687-50.644531 0 0 29.554687 29.558593 29.582031 29.582031 8.351563 8.351562 22.28125 8.34375 30.625 0 0 0 24.5625-24.5625 24.585938-24.589844 8.355468-8.351562 8.347656-22.277344.003906-30.625l-29.582031-29.578125c19.859375-24.027343 36.78125-50.140625 50.640625-78.058593 0 0 38.027344 13.144531 38.058594 13.152343 11.152343 3.859375 23.683593-2.234375 27.539062-13.390625 0 0 11.363281-32.867187 11.363281-32.867187 3.859375-11.175781-2.25-23.691407-13.394531-27.539063l-35.644531-12.324218c7.164062-26.011719 11.699219-52.679688 13.5625-79.8125h34.109375c11.925781 0 21.632812-9.703126 21.632812-21.628907v-34.824219c-.003906-11.929687-9.707031-21.632812-21.636718-21.632812zm-412.28125 78.085938h299.839843c-6.582031 77.277343-39.824219 149.054687-95.304687 204.535156-30.445313 30.445312-65.75 54.265625-104.929688 70.789062-3.8125 1.609375-5.601562 6.011719-3.996094 9.828125 1.613282 3.816407 6.011719 5.605469 9.828126 3.996094 40.972656-17.285156 77.882812-42.183594 109.707031-74.003906 59.992187-59.996094 95.113281-138.214844 100.25-222.1875 0-.023438 0-.046875.003906-.070313 1.117187-18.640625.808594-37.386718-1.027344-55.96875h48.285157c.023437.28125 1.792968 37.070313.972656 55.199219-1.585938 30.828125-6.726563 61.050781-15.371094 90.375-5.839844 19.8125-13.378906 38.902344-22.070312 57.617187-.027344.0625-.058594.128907-.09375.203126-14.804688 31.089843-33.527344 59.902343-55.921876 86.078124-13.429687 15.699219-28.097656 30.335938-43.785156 43.785157-27.761718 23.75-58.5 43.378906-91.78125 58.578125-16.890625 7.714844-34.300781 14.253906-52.113281 19.503906-29.328125 8.644531-59.550781 13.785156-90.378906 15.371094-18.183594.839844-36.183594.21875-54.339844-.898438-.285156-.023437-.574219-.046875-.855469-.074218v-48.285157c14.96875 1.476563 30.316406 1.988281 45.355469 1.523438 32.003906-.980469 63.519531-6.320313 93.820313-15.933594 3.949218-1.253906 6.132812-5.472656 4.878906-9.417969-1.25-3.949218-5.46875-6.132812-9.414063-4.882812-23.222656 7.371094-47.195312 12.105468-71.558593 14.1875zm-15 378.9375v33.347656c0 3.65625-2.976563 6.628906-6.632813 6.628906h-34.824219c-3.65625 0-6.628906-2.976562-6.628906-6.628906v-34.566406c15.773438 1.296874 31.671875 1.699218 47.492188 1.230468.195312-.003906.394531-.003906.59375-.011718zm166.757812.710937c1.183594 3.433594-.699219 7.28125-4.117188 8.464844 0 0-32.863281 11.359375-32.867187 11.359375-3.429687 1.1875-7.277344-.679688-8.460937-4.113282l-12.097657-35c.253907-.082031 30.566407-10.683593 44.9375-17.179687 0 0 12.585938 36.417969 12.605469 36.46875zm124.484375-137.402344s28.730469 28.726563 28.78125 28.78125c2.570313 2.570313 2.566406 6.84375 0 9.410157 0 0-24.535156 24.535156-24.589844 24.589843-2.566406 2.566407-6.847656 2.558594-9.410156 0l-28.78125-28.78125c11.988281-10.65625 23.347656-22.015625 34-34zm84.117187-148.03125s34.972657 12.089844 34.996094 12.097657c3.4375 1.1875 5.304688 5.027343 4.117188 8.460937 0 0-11.339844 32.804687-11.359375 32.871094-1.175781 3.398437-5.070313 5.285156-8.464844 4.113281l-36.46875-12.605469c.167969-.371093 12.464844-30.03125 17.179687-44.9375zm58.554688-115.84375c0 3.65625-2.976562 6.628907-6.632812 6.628907h-33.34375c.003906-.210938.007812-.421876.015624-.632813.496094-15.699219.078126-31.695313-1.238281-47.453125h34.566407c3.65625 0 6.632812 2.976562 6.632812 6.632812zm0 0"/></svg>