<svg height="512pt" viewBox="-31 0 512 512.001" width="512pt" xmlns="http://www.w3.org/2000/svg"><path d="m443.089844 484.769531c-5.652344-23.292969-19.332032-38.449219-19.332032-38.449219l-19.058593-18.722656h-302.921875l-19.058594 18.722656s-13.683594 15.15625-19.335938 38.449219c-2.433593 10.039063 5.09375 19.730469 15.421876 19.730469h348.863281c10.332031 0 17.859375-9.691406 15.421875-19.730469zm0 0" fill="#ffc471"/><path d="m93.382812 484.769531c5.652344-23.292969 19.332032-38.445312 19.332032-38.445312l19.058594-18.726563h-30l-19.058594 18.726563s-13.679688 15.152343-19.332032 38.445312c-2.433593 10.039063 5.089844 19.730469 15.421876 19.730469h30c-10.328126 0-17.855469-9.691406-15.421876-19.730469zm0 0" fill="#ffb85c"/><path d="m135.871094 366.660156h-70.476563c-31.929687 0-57.90625-25.980468-57.90625-57.910156v-109.867188c0-31.929687 25.976563-57.910156 57.90625-57.910156h67.976563v50.15625h-67.976563c-4.273437 0-7.753906 3.476563-7.753906 7.753906v109.867188c0 4.277344 3.480469 7.757812 7.753906 7.757812h70.476563zm0 0" fill="#ffb85c"/><path d="m392.660156 339.496094 15.078125-33.519532-7.84375-68.714843-22.78125-35.605469 14.652344-35.605469-5.675781-49.734375-68.636719-28.105468-22.421875 144.125 48.480469 213.988281h80.246093l-7.890624-69.136719zm0 0" fill="#b27858"/><path d="m253.238281 61.910156-64.214843 26.300782-35.757813 134.765624 9.695313 223.347657h90.277343l41.792969-213.988281zm0 0" fill="#b27858"/><path d="m120.382812 116.316406-5.675781 49.734375 15.65625 38.035157-23.785156 33.175781-7.84375 68.714843 14.574219 35.605469-22.699219 35.605469-7.890625 69.136719h80.242188l26.0625-358.113281zm0 0" fill="#c68c6a"/><path d="m343.511719 446.324219h-90.273438v-384.414063l64.214844 26.300782zm0 0" fill="#c68c6a"/><path d="m106.578125 237.261719h293.316406l-8.128906-71.210938h-277.058594zm0 0" fill="#ffc471"/><path d="m90.609375 377.1875h325.257813l-8.128907-71.210938h-309.003906zm0 0" fill="#ffc471"/><path d="m350.367188 35.070312c-1.734376 0-3.445313.09375-5.128907.273438-2.578125.269531-5.066406-.976562-6.34375-3.230469-8.328125-14.695312-24.097656-24.613281-42.191406-24.613281-15.597656 0-29.46875 7.367188-38.335937 18.8125-2.613282 3.375-7.648438 3.375-10.261719 0-8.867188-11.445312-22.738281-18.8125-38.335938-18.8125-18.09375 0-33.863281 9.917969-42.191406 24.613281-1.277344 2.253907-3.765625 3.5-6.339844 3.226563-1.6875-.179688-3.398437-.269532-5.128906-.269532-26.777344 0-48.484375 21.703126-48.484375 48.480469 0 12.632813 4.839844 24.136719 12.757812 32.765625h265.707032c7.921875-8.628906 12.757812-20.132812 12.757812-32.765625 0-26.777343-21.707031-48.480469-48.480468-48.480469zm0 0" fill="#ffdaa6"/><path d="m186.109375 35.070312c1.730469 0 3.441406.089844 5.128906.269532 2.574219.273437 5.0625-.976563 6.339844-3.226563 5.914063-10.433593 15.585937-18.457031 27.171875-22.234375-4.71875-1.53125-9.746094-2.378906-14.980469-2.378906-18.09375 0-33.863281 9.921875-42.191406 24.613281-1.277344 2.253907-3.765625 3.503907-6.339844 3.230469-1.6875-.179688-3.398437-.273438-5.128906-.273438-26.777344 0-48.484375 21.707032-48.484375 48.480469 0 12.636719 4.839844 24.136719 12.757812 32.765625h30c-7.921874-8.628906-12.757812-20.128906-12.757812-32.765625 0-26.777343 21.707031-48.480469 48.484375-48.480469zm0 0" fill="#f9cf99"/><path d="m172.6875 182.742188c-4.140625 0-7.5 3.359374-7.5 7.5v14.582031c0 4.140625 3.359375 7.5 7.5 7.5 4.144531 0 7.5-3.359375 7.5-7.5v-14.582031c0-4.140626-3.355469-7.5-7.5-7.5zm0 0"/><path d="m333.8125 182.742188c-4.144531 0-7.5 3.359374-7.5 7.5v14.582031c0 4.140625 3.355469 7.5 7.5 7.5 4.140625 0 7.5-3.359375 7.5-7.5v-14.582031c0-4.140626-3.359375-7.5-7.5-7.5zm0 0"/><path d="m278.070312 198.160156c-3.121093-2.726562-7.859374-2.40625-10.585937.710938-3.460937 3.964844-8.652344 6.234375-14.234375 6.234375-5.585938 0-10.777344-2.269531-14.238281-6.234375-2.726563-3.117188-7.464844-3.433594-10.582031-.710938-3.121094 2.726563-3.4375 7.464844-.710938 10.585938 6.3125 7.21875 15.617188 11.359375 25.53125 11.359375s19.21875-4.140625 25.527344-11.359375c2.730468-3.121094 2.410156-7.859375-.707032-10.585938zm0 0"/><path d="m22.179688 172.988281c2.136718-3.546875.992187-8.15625-2.558594-10.292969-3.550782-2.132812-8.15625-.988281-10.292969 2.5625-6.101563 10.144532-9.328125 21.769532-9.328125 33.625v109.871094c0 36.0625 29.34375 65.40625 65.410156 65.40625h18.007813l-7.882813 69.078125c-4.050781 5.050781-14.515625 19.527344-19.425781 39.765625-3.523437 14.519532 7.761719 28.996094 22.707031 28.996094h271.976563c4.140625 0 7.5-3.359375 7.5-7.5s-3.359375-7.5-7.5-7.5c0 0-271.378907 0-271.972657 0-5.417968 0-9.402343-5.242188-8.136718-10.460938 3.859375-15.890624 11.890625-27.800781 15.625-32.714843h333.898437c3.734375 4.886719 11.722657 16.703125 15.609375 32.714843 1.261719 5.210938-2.753906 10.460938-8.132812 10.460938h-46.890625c-4.144531 0-7.5 3.359375-7.5 7.5 0 4.144531 3.355469 7.5 7.5 7.5h46.890625c14.960937 0 26.222656-14.507812 22.707031-28.996094-4.910156-20.234375-15.375-34.714844-19.421875-39.765625l-37.042969-324.535156c8.035157-9.9375 12.4375-22.285156 12.4375-35.152344 0-30.867187-25.113281-55.980469-55.984375-55.980469-1.777344 0-3.574218.085938-5.285156.253907-10.015625-17.179688-28.488281-27.824219-48.378906-27.824219-17.007813 0-32.773438 7.53125-43.464844 20.714844-10.691406-13.183594-26.457031-20.714844-43.464844-20.714844-19.886718 0-38.359375 10.640625-48.375 27.820312-1.753906-.167968-3.53125-.25-5.289062-.25-30.867188 0-55.980469 25.113282-55.980469 55.980469 0 12.867188 4.398437 25.214844 12.433594 35.152344l-1.6875 14.769531h-45.476563c-11.089844 0-22.0625 2.851563-31.738281 8.242188-3.617187 2.015625-4.917969 6.582031-2.902344 10.199218 2.015625 3.621094 6.585938 4.917969 10.203125 2.902344 7.449219-4.148437 15.898438-6.34375 24.4375-6.34375h43.765625l-4.011719 35.15625h-39.753906c-8.414062 0-15.257812 6.839844-15.257812 15.253906v109.867188c0 8.414062 6.84375 15.257812 15.257812 15.257812h23.730469l-4.011719 35.152344h-19.71875c-27.796875 0-50.410156-22.613281-50.410156-50.410156v-109.867188c0-9.128906 2.484375-18.085937 7.179688-25.894531zm91.105468 71.773438h56.835938l-3.910156 53.714843h-59.058594zm286.0625 53.714843h-59.0625l-3.90625-53.714843h56.835938zm-78.011718-53.714843 3.910156 53.714843h-64.496094v-53.714843zm-75.585938 0v53.714843h-64.496094l3.90625-53.714843zm-140.308594 68.714843h295.617188l6.414062 56.210938h-308.445312zm9.554688-83.714843 6.414062-56.210938h263.679688l6.414062 56.210938zm76.4375-71.210938 2.527344-34.734375h51.789062v34.734375zm123.632812 0h-54.316406v-34.734375h51.785156zm-187.976562-34.734375h51.832031l-2.527344 34.734375h-53.269531zm203.015625 34.734375-2.527344-34.734375h51.832031l3.964844 34.734375zm-232.792969 226.136719h62.628906l-3.941406 54.132812h-64.867188zm77.667969 0h70.769531v54.132812h-74.707031zm85.769531 54.136719v-54.136719h70.769531l3.941407 54.136719zm89.75 0-3.941406-54.136719h62.625l6.179687 54.136719zm-194.378906-396.253907c1.953125 0 3.886718.308594 5.832031.308594 5.03125 0 9.691406-2.707031 12.164063-7.066406 7.273437-12.839844 20.941406-20.8125 35.667968-20.8125 12.761719 0 24.574219 5.796875 32.40625 15.90625 2.675782 3.453125 6.707032 5.4375 11.058594 5.4375s8.382812-1.984375 11.058594-5.4375c7.832031-10.109375 19.644531-15.90625 32.40625-15.90625 14.726562 0 28.390625 7.972656 35.667968 20.8125 2.46875 4.359375 7.132813 7.066406 12.164063 7.066406 1.945313 0 3.878906-.308594 5.832031-.308594 22.597656 0 40.980469 18.382813 40.980469 40.980469 0 9.21875-3.074219 18.074219-8.71875 25.265625h-258.78125c-5.644531-7.191406-8.71875-16.046875-8.71875-25.265625 0-22.597656 18.382813-40.980469 40.980469-40.980469zm-90.710938 266.4375c-.136718 0-.257812-.125-.257812-.257812v-109.867188c0-.132812.121094-.253906.257812-.253906h38.042969l-12.601563 110.378906zm0 0"/></svg>