<svg height="511pt" viewBox="-9 0 511 511.99896" width="511pt" xmlns="http://www.w3.org/2000/svg"><g fill="#c68c6a"><path d="m22.035156 490.484375c-10.929687-10.929687-15.828125-25.957031-13.4375-41.226563 2.371094-15.140624 11.484375-27.863281 25.039063-34.96875l56.429687-32.503906c7.328125-4.222656 16.691406-1.699218 20.914063 5.625 2.386719 4.144532 2.621093 8.9375 1.046875 13.082032 4.144531-1.570313 8.941406-1.339844 13.082031 1.046874 7.328125 4.222657 9.847656 13.585938 5.628906 20.917969l-32.503906 56.425781c-7.105469 13.550782-19.832031 22.671876-34.96875 25.039063-15.273437 2.390625-30.300781-2.507813-41.230469-13.4375zm80.585938-80.582031-53.984375 31.09375c-.210938.121094-.425781.238281-.640625.351562-4.949219 2.542969-8.277344 7.152344-9.136719 12.644532-.859375 5.496093.902344 10.902343 4.835937 14.835937 3.929688 3.933594 9.335938 5.691406 14.832032 4.835937 5.496094-.859374 10.105468-4.191406 12.648437-9.136718.109375-.214844.226563-.429688.347657-.644532zm0 0"/><path d="m233.957031 231.214844-23.203125 23.203125-19.070312 63.988281 19.070312 30.703125 70.546875-70.546875zm0 0"/><path d="m191.683594 318.40625-27.816406-17.101562-47.34375 47.34375 6.34375 41.003906 41 6.34375zm0 0"/></g><path d="m210.753906 349.109375-46.886718 46.886719v-94.691406l46.886718-46.886719zm0 0" fill="#b27858"/><path d="m431.164062 122.789062c4.046876-8.710937 2.222657-19.019531-4.570312-25.8125l-30.808594-30.808593c-6.789062-6.789063-17.097656-8.613281-25.808594-4.566407l-39.4375 18.320313 82.300782 82.304687zm0 0" fill="#aeaeb2"/><path d="m293.71875 17.113281-48.902344-9.019531c-11.871094-2.1875-24.058594 1.601562-32.59375 10.136719l-70.4375 70.441406c-8.539062 8.535156-12.328125 20.722656-10.136718 32.59375l9.015624 48.902344 100.351563-52.703125zm0 0" fill="#aeaeb2"/><path d="m475.652344 199.046875 9.015625 48.902344c2.191406 11.871093-1.601563 24.058593-10.136719 32.59375l-70.4375 70.4375c-8.535156 8.535156-20.722656 12.328125-32.59375 10.136719l-48.902344-9.015626 52.699219-100.351562zm0 0" fill="#aeaeb2"/><path d="m293.71875 17.109375 181.929688 181.933594-153.050782 153.050781-181.929687-181.929688zm0 0" fill="#c5c4c9"/><path d="m410.003906 183.9375-101.175781-101.179688c-8.34375-8.34375-21.875-8.34375-30.21875 0l-72.296875 72.300782c-8.347656 8.34375-8.347656 21.875 0 30.21875l101.175781 101.175781c8.34375 8.34375 21.875 8.34375 30.21875 0l72.296875-72.296875c8.347656-8.347656 8.347656-21.875 0-30.21875zm0 0" fill="#aeaeb2"/><path d="m125.109375 401.539062c-4.144531-2.386718-8.9375-2.617187-13.082031-1.042968 1.570312-4.148438 1.339844-8.941406-1.046875-13.085938-4.226563-7.328125-13.585938-9.847656-20.917969-5.625l-44.0625 25.382813c1.546875 2.359375 3.339844 4.578125 5.382812 6.621093l16.261719 16.257813 34.972657-20.144531-20.144532 34.976562 16.257813 16.257813c2.042969 2.042969 4.261719 3.835937 6.625 5.382812l25.378906-44.0625c4.222656-7.332031 1.699219-16.695312-5.625-20.917969zm0 0" fill="#b27858"/><path d="m163.867188 396-47.34375-47.347656c-4.386719-4.386719-11.5-4.386719-15.886719 0l-28.039063 28.039062c-4.386718 4.386719-4.386718 11.496094 0 15.882813l47.347656 47.347656c4.386719 4.386719 11.5 4.386719 15.882813 0l28.039063-28.039063c4.386718-4.386718 4.386718-11.496093 0-15.882812zm0 0" fill="#aeaeb2"/><path d="m314.132812 77.472656c-5.453124-5.453125-12.699218-8.457031-20.414062-8.457031-7.710938 0-14.957031 3.003906-20.410156 8.457031l-72.300782 72.296875c-11.253906 11.253907-11.253906 29.570313 0 40.828125l101.179688 101.175782c5.449219 5.453124 12.699219 8.457031 20.410156 8.457031 7.714844 0 14.960938-3.003907 20.414063-8.457031l72.300781-72.296876c5.449219-5.453124 8.453125-12.703124 8.453125-20.414062s-3.003906-14.960938-8.453125-20.414062zm90.570313 131.394532-72.296875 72.296874c-2.621094 2.621094-6.101562 4.0625-9.804688 4.0625-3.703124 0-7.1875-1.441406-9.808593-4.0625l-101.175781-101.175781c-2.621094-2.617187-4.0625-6.101562-4.0625-9.804687s1.441406-7.1875 4.0625-9.804688l72.296874-72.300781c2.621094-2.617187 6.101563-4.0625 9.804688-4.0625s7.1875 1.441406 9.808594 4.0625l101.175781 101.179687c2.621094 2.617188 4.0625 6.101563 4.0625 9.804688s-1.441406 7.1875-4.0625 9.804688zm0 0"/><path d="m268.390625 133.742188-7.242187 7.242187c-2.929688 2.929687-2.929688 7.679687 0 10.609375 1.464843 1.464844 3.382812 2.195312 5.300781 2.195312 1.921875 0 3.839843-.730468 5.304687-2.195312l7.242188-7.246094c2.929687-2.925781 2.929687-7.675781 0-10.605468-2.925782-2.929688-7.675782-2.929688-10.605469 0zm0 0"/><path d="m348.433594 213.785156-7.246094 7.242188c-2.925781 2.929687-2.925781 7.679687 0 10.609375 1.464844 1.464843 3.386719 2.195312 5.304688 2.195312 1.917968 0 3.839843-.730469 5.304687-2.195312l7.242187-7.246094c2.929688-2.925781 2.929688-7.675781 0-10.605469-2.929687-2.929687-7.679687-2.929687-10.605468 0zm0 0"/><path d="m316.351562 188.199219c-3.042968.207031-6.121093-1.007813-8.441406-3.324219-2.320312-2.320312-3.53125-5.398438-3.328125-8.445312.277344-4.132813-2.847656-7.707032-6.980469-7.984376-4.132812-.277343-7.710937 2.847657-7.984374 6.980469-.496094 7.363281 2.304687 14.675781 7.6875 20.054688 4.972656 4.972656 11.59375 7.742187 18.382812 7.742187.554688 0 1.113281-.019531 1.667969-.054687 4.132812-.277344 7.261719-3.851563 6.980469-7.988281-.277344-4.128907-3.859376-7.253907-7.984376-6.980469zm0 0"/><path d="m482.769531 196.777344c-.371093-1.121094-.957031-2.164063-1.8125-3.019532l-50.859375-50.859374 7.871094-16.933594c5.351562-11.519532 2.914062-25.292969-6.070312-34.273438 0 0-30.792969-30.796875-30.808594-30.8125-8.925782-8.921875-22.835938-11.378906-34.273438-6.066406l-16.9375 7.867188-50.855468-50.855469c-1.050782-1.050781-2.441407-1.78125-3.898438-2.0625-.015625 0-48.949219-9.027344-48.949219-9.027344-14.300781-2.636719-28.976562 1.925781-39.257812 12.207031l-70.4375 70.441406c-10.28125 10.28125-14.847657 24.957032-12.210938 39.253907 0 0 9.027344 48.933593 9.03125 48.949219.253907 1.433593 1.015625 2.855468 2.058594 3.898437l71.867187 71.867187s-1.777343 1.777344-1.777343 1.777344l-90.042969 90.039063c-2.148438-.839844-4.453125-1.292969-6.828125-1.292969-5.003906 0-9.707031 1.949219-13.246094 5.488281l-28.039062 28.035157c-3.535157 3.539062-5.484375 8.246093-5.484375 13.246093 0 1.523438.203125 3.011719.550781 4.457031l-32.34375 18.628907c-15.59375 8.230469-26.097656 22.941406-28.828125 40.382812-2.765625 17.664063 2.898438 35.046875 15.542969 47.6875 12.40625 12.40625 30.367187 18.257813 47.691406 15.546875 17.441406-2.730468 32.152344-13.234375 40.378906-28.832031l18.632813-32.34375c1.441406.351563 2.929687.554687 4.453125.554687 5.003906 0 9.707031-1.949218 13.246093-5.488281l28.039063-28.039062c5.417969-5.417969 6.808594-13.355469 4.1875-20.074219l91.820313-91.820312s52.113281 52.109374 52.113281 52.113281c1.054687 1.054687 2.464843 1.789062 3.941406 2.070312l48.90625 9.019531c2.667969.492188 5.351563.730469 8.015625.730469 11.609375 0 22.878906-4.578125 31.242188-12.941406l70.4375-70.4375c10.28125-10.28125 14.84375-24.957031 12.207031-39.257813.003906.003907-9.175781-49.527343-9.273438-49.824218zm-109.632812-128.359375c5.800781-2.695313 12.828125-1.449219 17.347656 3.070312l30.808594 30.808594c4.546875 4.546875 5.78125 11.519531 3.074219 17.347656l-5.558594 11.960938-57.632813-57.628907s11.949219-5.554687 11.960938-5.558593zm-169.882813 277.601562-31.882812 31.882813v-73.476563l31.882812-31.882812zm-46.882812 31.886719-29.242188-29.238281 29.242188-29.242188zm-64.636719 97.25c-.050781.085938-.097656.175781-.144531.261719-6.929688 13.195312-21.023438 21.613281-35.90625 21.613281-10.644532 0-20.710938-4.203125-28.34375-11.832031-9.21875-9.21875-13.347656-21.886719-11.332032-34.765625 1.996094-12.75 9.691407-23.496094 21.109376-29.484375.089843-.046875 33.78125-19.453125 33.78125-19.453125l11.445312 11.445312s-37.652344 21.683594-37.777344 21.75c-14.574218 7.6875-17.898437 27.734375-6.175781 39.453125 11.632813 11.632813 31.914063 8.492188 39.449219-6.160156.0625-.121094 21.757812-37.789063 21.757812-37.789063l11.445313 11.441407zm-9.527344-44.824219s-17.527343 30.445313-17.703125 30.78125c-2.984375 5.753907-10.917968 7.015625-15.503906 2.425781-4.59375-4.59375-3.335938-12.542968 2.433594-15.511718.320312-.164063 30.773437-17.695313 30.773437-17.695313zm76.359375-23.738281-28.039062 28.039062c-1.363282 1.363282-3.59375 1.445313-5.054688.195313-.015625-.015625-.03125-.035156-.046875-.050781l-46.558593-46.53125c-1.695313-1.695313-3.019532-4.179688-.964844-6.238282 0 0 28.039062-28.039062 28.039062-28.039062 1.445313-1.441406 3.84375-1.433594 5.28125.003906l47.34375 47.34375c1.453125 1.457032 1.453125 3.824219 0 5.277344zm59.6875-75.574219v-72.640625l36.320313 36.320313zm250.976563-55.765625-70.4375 70.441406c-6.792969 6.789063-16.484375 9.804688-25.929688 8.0625l-34.871093-6.429687 96.566406-96.566406c2.929687-2.929688 2.929687-7.679688 0-10.609375-2.929688-2.925782-7.679688-2.925782-10.605469 0l-101.355469 101.355468-171.324218-171.324218s32.257812-32.257813 32.261718-32.261719c2.808594-2.808594 2.875-7.730469 0-10.605469-2.851562-2.847656-7.761718-2.847656-10.609375 0l-27.472656 27.472656-6.429687-34.871093c-1.742188-9.445313 1.273437-19.136719 8.0625-25.925781l70.441406-70.441407c6.789062-6.792969 16.484375-9.804687 25.929687-8.0625l34.867188 6.429688-84.785157 84.78125c-2.929687 2.929687-2.929687 7.679687 0 10.609375 2.890626 2.886718 7.722657 2.886718 10.609376 0l89.570312-89.574219 171.324219 171.328125s-20.035157 20.035156-20.046875 20.046875c-2.882813 2.882813-2.878906 7.730469 0 10.605469 2.878906 2.882812 7.734375 2.875 10.605468 0l15.265626-15.257813 6.429687 34.867188c1.738281 9.445312-1.273437 19.136719-8.066406 25.929687zm0 0"/></svg>