<svg height="512pt" viewBox="-30 0 512 512.00175" width="512pt" xmlns="http://www.w3.org/2000/svg"><path d="m157.917969 384.949219s-47.550781 41.53125-47.550781 119.554687h47.550781l17.464843-54.886718zm0 0" fill="#ffe1d7"/><path d="m294.851562 384.949219s47.554688 41.53125 47.554688 119.554687h-47.554688l-17.464843-54.886718zm0 0" fill="#ffe1d7"/><path d="m157.917969 384.949219h136.933593v119.554687h-136.933593zm0 0" fill="#b27858"/><path d="m53.125 41.4375c-7.527344-7.964844-19.695312-9.335938-28.757812-3.183594-6.230469 4.234375-9.910157 11.320313-9.765626 18.851563.382813 19.679687 5.105469 57.558593 34.125 75.359375l41.722657-66.273438s-21.761719-8.28125-37.324219-24.753906zm0 0" fill="#ffc471"/><path d="m34.601562 37.101562c-.015624-.859374.023438-1.714843.105469-2.5625-3.605469.347657-7.164062 1.558594-10.339843 3.714844-6.230469 4.234375-9.910157 11.320313-9.765626 18.851563.382813 19.679687 5.105469 57.558593 34.125 75.359375l14.835938-23.566406c-24.429688-18.902344-28.601562-53.34375-28.960938-71.796876zm0 0" fill="#ffb85c"/><path d="m399.648438 41.4375c7.523437-7.964844 19.691406-9.335938 28.757812-3.183594 6.230469 4.234375 9.910156 11.320313 9.761719 18.851563-.378907 19.679687-5.101563 57.558593-34.121094 75.359375l-41.722656-66.273438s21.757812-8.28125 37.324219-24.753906zm0 0" fill="#ffc471"/><path d="m428.40625 38.253906c-3.175781-2.15625-6.738281-3.367187-10.339844-3.714844.082032.847657.121094 1.703126.101563 2.5625-.355469 18.453126-4.527344 52.894532-28.960938 71.796876l14.839844 23.566406c29.019531-17.804688 33.742187-55.679688 34.121094-75.359375.148437-7.53125-3.53125-14.617188-9.761719-18.851563zm0 0" fill="#ffb85c"/><path d="m200.039062 9.167969c-114.082031 14.8125-151.308593 123.292969-151.308593 123.292969l151.308593 17.257812 26.347657-72.644531zm0 0" fill="#c68c6a"/><path d="m252.730469 9.167969-26.34375 67.90625 26.34375 72.644531 151.3125-17.257812s-37.226563-108.480469-151.3125-123.292969zm0 0" fill="#c68c6a"/><path d="m89.953125 236.15625c0 22.769531-18.457031 41.226562-41.226563 41.226562-22.769531 0-41.226562-18.457031-41.226562-41.226562s18.457031-41.226562 41.226562-41.226562c22.769532 0 41.226563 18.457031 41.226563 41.226562zm0 0" fill="#ffe1d7"/><path d="m445.273438 236.15625c0 22.769531-18.457032 41.226562-41.226563 41.226562s-41.226563-18.457031-41.226563-41.226562 18.457032-41.226562 41.226563-41.226562 41.226563 18.457031 41.226563 41.226562zm0 0" fill="#ffe1d7"/><path d="m226.386719 405.8125c-13.476563 5.570312-23.050781 19.660156-23.050781 36.175781 0 14.042969 6.925781 26.332031 17.285156 33.121094 3.515625 2.300781 8.015625 2.300781 11.53125 0 10.359375-6.789063 17.285156-19.078125 17.285156-33.121094 0-16.515625-9.574219-30.605469-23.050781-36.175781zm0 0" fill="#ff9375"/><path d="m253.066406 398.617188c0 14.734374-11.945312 26.683593-26.679687 26.683593-14.738281 0-26.683594-11.949219-26.683594-26.683593 0-14.738282 11.945313-26.683594 26.683594-26.683594 14.734375 0 26.679687 11.945312 26.679687 26.683594zm0 0" fill="#48484d"/><path d="m46.886719 155.433594 1.03125 68.21875c1.488281 98.109375 82.222656 176.4375 180.328125 174.953125 98.109375-1.488281 176.4375-82.222657 174.949218-180.332031l-1.03125-68.21875zm0 0" fill="#ff9375"/><path d="m402.964844 202.996094-.800782-52.941406-355.28125 5.378906.722657 47.535156c.375.007812.746093.027344 1.121093.027344zm0 0" fill="#ff7851"/><path d="m356.757812 152.730469s13.511719 22.632812 13.511719 83.425781c0 16.398438-3.824219 28.394531-9.128906 37.148438-12.460937 20.570312-38.703125 27.484374-60.328125 16.957031-22.246094-10.828125-30.097656-32.488281-74.429688-32.488281-44.328124 0-52.179687 21.660156-74.425781 32.488281-21.628906 10.527343-47.867187 3.613281-60.328125-16.957031-5.300781-8.753907-9.128906-20.75-9.128906-37.148438 0-60.792969 13.507812-83.425781 13.507812-83.425781zm0 0" fill="#ffe1d7"/><path d="m252.730469 9.167969v140.550781l-26.34375 3.007812-26.347657-3.007812v-140.550781c8.359376-1.085938 17.144532-1.671875 26.347657-1.671875 9.199219 0 17.984375.585937 26.34375 1.671875zm0 0" fill="#ffb85c"/><path d="m368.75 202.996094c-3.53125-36.0625-11.992188-50.265625-11.992188-50.265625h-260.746093s-8.460938 14.203125-11.988281 50.265625zm0 0" fill="#ffcec0"/><path d="m404.046875 132.464844h-355.320313c-11.191406 0-20.265624 9.074218-20.265624 20.265625 0 11.191406 9.074218 20.265625 20.265624 20.265625h355.320313c11.191406 0 20.265625-9.074219 20.265625-20.265625 0-11.191407-9.074219-20.265625-20.265625-20.265625zm0 0" fill="#ffc471"/><path d="m145.003906 243.835938c4.144532 0 7.5-3.359376 7.5-7.5v-16.753907c0-4.144531-3.355468-7.503906-7.5-7.503906-4.140625 0-7.5 3.359375-7.5 7.503906v16.753907c0 4.140624 3.359375 7.5 7.5 7.5zm0 0"/><path d="m307.769531 243.835938c4.140625 0 7.5-3.359376 7.5-7.5v-16.753907c0-4.144531-3.359375-7.503906-7.5-7.503906-4.144531 0-7.503906 3.359375-7.503906 7.503906v16.753907c0 4.140624 3.359375 7.5 7.503906 7.5zm0 0"/><path d="m251.410156 282.355469c-3.121094-2.726563-7.859375-2.410157-10.585937.710937-3.511719 4.015625-8.773438 6.320313-14.4375 6.320313-5.664063 0-10.925781-2.304688-14.4375-6.320313-2.726563-3.121094-7.464844-3.4375-10.585938-.710937-3.117187 2.726562-3.433593 7.460937-.710937 10.582031 6.363281 7.277344 15.742187 11.449219 25.734375 11.449219 9.992187 0 19.371093-4.171875 25.730469-11.449219 2.726562-3.121094 2.410156-7.855469-.707032-10.582031zm0 0"/><path d="m432.617188 32.046875c-11.96875-8.128906-28.492188-6.269531-38.421876 4.238281-10.082031 10.667969-23.25 17.722656-30.042968 20.921875-7.171875-7.328125-15.28125-14.53125-24.421875-21.238281-3.339844-2.453125-8.03125-1.730469-10.484375 1.609375-2.449219 3.339844-1.726563 8.03125 1.609375 10.484375 35.0625 25.726562 54.160156 60.179688 61.914062 76.898438h-132.539062v-107.054688c15.984375 2.851562 31.207031 7.8125 45.363281 14.792969 3.714844 1.832031 8.210938.304687 10.042969-3.410157 1.832031-3.714843.304687-8.210937-3.410157-10.042968-18.117187-8.933594-37.808593-14.828125-58.53125-17.519532-17.746093-2.300781-36.871093-2.300781-54.621093 0-50.984375 6.621094-86.886719 31.503907-110.410157 55.5-6.785156-3.191406-19.984374-10.253906-30.089843-20.941406-9.925781-10.507812-26.457031-12.359375-38.421875-4.238281-8.367188 5.679687-13.246094 15.101563-13.046875 25.199219.746093 38.523437 13.835937 60.390625 26.097656 72.472656-7.378906 4.996094-12.242187 13.445312-12.242187 23.007812 0 12.710938 8.589843 23.445313 20.265624 26.730469v8.546875c-23.320312 3.621094-41.226562 23.832032-41.226562 48.148438 0 26.871094 21.859375 48.726562 48.726562 48.726562 1.269532 0 2.542969-.066406 3.816407-.167968 16.523437 44.917968 49.992187 81.707031 92.605469 102.601562-14.132813 16-42.28125 55.589844-42.28125 117.1875 0 4.144531 3.359374 7.5 7.5 7.5h232.039062c4.140625 0 7.5-3.355469 7.5-7.5 0-61.566406-28.15625-101.179688-42.289062-117.183594 42.621093-20.894531 76.089843-57.6875 92.613281-102.605468 1.273437.101562 2.546875.171874 3.816406.171874 26.867187 0 48.726563-21.859374 48.726563-48.726562 0-24.320312-17.90625-44.53125-41.226563-48.148438v-8.550781c11.675781-3.28125 20.265625-14.019531 20.265625-26.730469 0-9.5625-4.859375-18.011718-12.242188-23.007812 12.261719-12.082031 25.351563-33.945312 26.097657-72.472656.199219-10.09375-4.679688-19.515625-13.050781-25.199219zm-187.386719-16.175781v109.089844h-37.6875v-109.089844c12.363281-1.167969 25.324219-1.167969 37.6875 0zm-216.648438 28.585937c5.964844-4.050781 14.15625-3.09375 19.089844 2.128907 9.984375 10.566406 22.171875 17.933593 30.476563 22.199218-.804688.957032-1.59375 1.90625-2.363282 2.847656-15.933594 19.59375-25.539062 38.261719-30.339844 49.019532-10.484374-9.453125-22.652343-28.066406-23.34375-63.699219-.097656-5.003906 2.324219-9.675781 6.480469-12.496094zm19.1875 225.410157c-18.15625-.507813-32.769531-15.4375-32.769531-33.714844 0-16.019532 11.226562-29.464844 26.226562-32.882813v17.6875c0 16.480469 2.191407 33.007813 6.542969 48.910157zm192.027344 160.203124c1.410156 3.746094 2.140625 7.773438 2.140625 11.914063 0 10.945313-5.324219 21.234375-13.894531 26.847656-1 .65625-2.3125.652344-3.3125 0-8.570313-5.613281-13.894531-15.902343-13.894531-26.847656 0-4.140625.730468-8.167969 2.140624-11.910156 4.195313 1.792969 8.722657 2.722656 13.410157 2.722656s9.214843-.929687 13.410156-2.726563zm-1.945313-16.101562c-3.292968 2.464844-7.351562 3.828125-11.464843 3.828125-4.101563 0-8.183594-1.371094-11.464844-3.828125-2.941406-2.203125-5.242187-5.21875-6.535156-8.726562 1.179687.117187 2.363281.21875 3.550781.308593 9.621094.738281 19.277344.726563 28.898438 0 1.1875-.089843 2.371093-.195312 3.550781-.308593-1.292969 3.507812-3.59375 6.523437-6.535157 8.726562zm-87.429687-9.226562v92.257812h-32.398437c1.851562-44.261719 19.777343-75.527344 32.398437-92.257812zm15-8.90625c8.847656 3.089843 17.886719 5.480468 27.074219 7.183593.882812 6.816407 3.777344 13.007813 8.074218 17.960938-3.105468 6.472656-4.734374 13.625-4.734374 21.003906 0 16.1875 7.730468 30.914063 20.675781 39.394531 2.949219 1.933594 6.363281 2.953125 9.875 2.953125s6.925781-1.019531 9.875-2.953125c12.949219-8.480468 20.675781-23.207031 20.675781-39.394531 0-7.378906-1.628906-14.53125-4.734375-21.003906 4.296875-4.953125 7.191406-11.144531 8.074219-17.960938 9.1875-1.703125 18.226562-4.09375 27.078125-7.183593v101.164062h-121.933594zm136.929687 101.164062v-92.257812c12.617188 16.730468 30.542969 48 32.398438 92.257812zm-54.132812-107.28125c-14.46875 1.867188-29.1875 1.859375-43.660156 0-74.984375-9.644531-134.84375-68.289062-146.335938-142.691406-2.589844-16.773438-1.996094-34.789063-1.996094-52.101563v-14.433593h23.40625c-3.070312 16.042968-4.628906 34.707031-4.628906 55.660156 0 16.039062 3.4375 29.84375 10.214844 41.03125 9.652344 15.9375 26.730469 25.449218 45.683594 25.449218 16.992187 0 30.636718-8.320312 43.519531-18.523437 12.230469-9.6875 23.785156-18.839844 51.96875-18.839844 28.179687 0 39.734375 9.152344 51.964844 18.839844 12.902343 10.21875 26.511719 18.523437 43.519531 18.523437 18.953125 0 36.03125-9.511718 45.6875-25.449218 6.773438-11.1875 10.210938-24.992188 10.210938-41.03125 0-20.957032-1.558594-39.617188-4.628907-55.660156h23.402344v14.433593c0 17.394531.667969 34.851563-1.996094 52.101563-11.492187 74.402344-71.347656 133.042968-146.332031 142.691406zm114.550781-153.566406c0 13.257812-2.703125 24.449218-8.042969 33.261718-6.910156 11.40625-19.191406 18.21875-32.855468 18.21875-13.507813 0-24.035156-7.226562-34.203125-15.28125-13.070313-10.351562-27.878907-22.082031-61.28125-22.082031-33.402344 0-48.214844 11.730469-61.28125 22.082031-10.179688 8.0625-20.695313 15.28125-34.207031 15.28125-13.660157 0-25.941407-6.8125-32.851563-18.21875-5.339844-8.8125-8.042969-20-8.042969-33.261718 0-25.375 2.445313-43.660156 4.917969-55.660156h262.925781c2.476563 12 4.921875 30.285156 4.921875 55.660156zm75.003907 0c0 18.277344-14.613282 33.203125-32.769532 33.710937.15625-.570312.289063-1.148437.4375-1.722656 4.046875-15.382813 6.105469-31.28125 6.105469-47.1875v-17.6875c15 3.421875 26.226563 16.867187 26.226563 32.886719zm-33.726563-70.660156h-355.320313c-7.039062 0-12.765624-5.726563-12.765624-12.765626 0-7.039062 5.726562-12.765624 12.765624-12.765624h47.761719c4.140625 0 7.5-3.355469 7.5-7.5 0-4.140626-3.359375-7.5-7.5-7.5h-36.492187c5.558594-12.019532 16.96875-33.199219 35.9375-53.652344.066406-.070313.125-.144532.1875-.21875 26.601562-28.699219 58.953125-46.550782 96.421875-53.191406v107.0625h-66.054688c-4.144531 0-7.5 3.359374-7.5 7.5 0 4.144531 3.355469 7.5 7.5 7.5h277.550781c.003907 0 .007813.003906.015626.003906h.003906c7.03125.003906 12.753906 5.726562 12.753906 12.761718 0 7.039063-5.726562 12.765626-12.765625 12.765626zm3.292969-44.847657c-5.03125-11.3125-15.339844-31.316406-32.683594-51.875 8.304688-4.269531 20.472656-11.632812 30.441406-22.183593 4.945313-5.234376 13.140625-6.171876 19.09375-2.128907 4.15625 2.820313 6.578125 7.492188 6.480469 12.5-.691406 35.617188-12.851563 54.226563-23.332031 63.6875zm0 0"/></svg>