<svg height="512pt" viewBox="0 -22 512.0012 512" width="512pt" xmlns="http://www.w3.org/2000/svg"><path d="m57.164062 28.757812c3.445313-9.839843 11.8125-17.160156 22.015626-19.308593 65.214843-13.726563 121.492187 49.550781 121.492187 49.550781l-129.722656 127.769531c-28.296875-88.746093-21.378907-136.328125-13.785157-158.011719zm0 0" fill="#57565c"/><path d="m454.839844 28.757812c-3.449219-9.839843-11.8125-17.160156-22.019532-19.308593-65.214843-13.726563-121.492187 49.550781-121.492187 49.550781l129.726563 127.769531c28.292968-88.746093 21.378906-136.328125 13.785156-158.011719zm0 0" fill="#57565c"/><path d="m454.300781 137.304688c-2.382812-4.226563-4.902343-8.480469-7.617187-12.738282-27.472656-43.121094-63.863282-73.402344-107.367188-89.894531-17.359375 12.382813-27.988281 24.328125-27.988281 24.328125l129.726563 127.769531c5.792968-18.171875 10.105468-34.613281 13.246093-49.464843zm0 0" fill="#48484d"/><path d="m65.316406 124.566406c-2.710937 4.257813-5.234375 8.511719-7.613281 12.738282 3.136719 14.851562 7.453125 31.292968 13.246094 49.46875l129.722656-127.773438s-10.625-11.941406-27.988281-24.328125c-43.5 16.492187-79.890625 46.773437-107.367188 89.894531zm0 0" fill="#48484d"/><path d="m413.441406 54.140625c-29.488281.4375-60.007812 27.644531-67.289062 35.832031l50.5 82.644532c6.0625-19.019532 23.847656-79.882813 16.789062-118.476563zm0 0" fill="#ffa3b3"/><path d="m98.558594 54.140625c29.488281.4375 60.007812 27.644531 67.289062 35.832031l-50.496094 82.644532c-6.0625-19.019532-23.847656-79.882813-16.792968-118.476563zm0 0" fill="#ffa3b3"/><path d="m414.777344 84.191406c-8.621094-8.773437-17.792969-16.65625-27.480469-23.664062-19.550781 8.664062-36.046875 23.710937-41.144531 29.445312l50.496094 82.640625c4.640624-14.546875 16.140624-53.59375 18.128906-88.421875zm0 0" fill="#ff909d"/><path d="m115.351562 172.613281 50.5-82.640625c-5.101562-5.734375-21.59375-20.78125-41.144531-29.445312-9.6875 7.007812-18.863281 14.890625-27.480469 23.664062 1.984376 34.824219 13.484376 73.875 18.125 88.421875zm0 0" fill="#ff909d"/><path d="m485.84375 338.136719h-37.421875c46.375-35.058594 54.734375-91.261719 56.066406-104.152344.152344-1.445313-.984375-2.695313-2.4375-2.695313h-44.472656s-29.328125-181.207031-201.578125-181.207031c-172.246094 0-201.578125 181.207031-201.578125 181.207031h-44.46875c-1.453125 0-2.589844 1.25-2.441406 2.695313 1.335937 12.890625 9.695312 69.09375 56.066406 104.152344h-37.417969c-1.636718 0-2.808594 1.566406-2.355468 3.136719 4.945312 17.136718 35.972656 99.273437 179.8125 115.558593l52.386718-20.195312 52.382813 20.195312c143.839843-16.285156 174.867187-98.421875 179.8125-115.558593.449219-1.570313-.722657-3.136719-2.355469-3.136719zm0 0" fill="#57565c"/><path d="m393.378906 228.371094c-12.097656-12.097656-28.800781-19.574219-47.257812-19.574219-36.898438 0-63.710938 29.917969-63.710938 66.828125v13.257812l-26.410156 9.367188-26.410156-9.367188v-13.257812c0-18.453125-4.367188-35.160156-16.464844-47.253906-12.097656-12.097656-28.792969-19.574219-47.246094-19.574219-36.910156 0-66.832031 29.917969-66.832031 66.828125v13.257812c0 98.042969 104.570313 167.949219 104.570313 167.949219 16.019531 1.824219 33.441406 2.816407 52.382812 2.816407s36.359375-.992188 52.382812-2.816407c0 0 104.566407-69.90625 104.566407-167.949219v-13.257812c.003906-18.453125-7.472657-35.160156-19.570313-47.253906zm0 0" fill="#edebec"/><path d="m282.410156 288.882812h-52.816406s-1.9375 15.269532 13.074219 23.21875c8.296875 4.394532 18.367187 4.394532 26.667969 0 15.011718-7.949218 13.074218-23.21875 13.074218-23.21875zm0 0" fill="#ff909d"/><path d="m353.6875 323.277344h-22.683594c-4.140625 0-7.5-3.359375-7.5-7.5s3.359375-7.5 7.5-7.5h22.683594c4.144531 0 7.503906 3.359375 7.503906 7.5s-3.359375 7.5-7.503906 7.5zm0 0" fill="#f77f82"/><path d="m182.378906 323.277344h-22.683594c-4.144531 0-7.5-3.359375-7.5-7.5s3.355469-7.5 7.5-7.5h22.683594c4.140625 0 7.5 3.359375 7.5 7.5s-3.359375 7.5-7.5 7.5zm0 0" fill="#f77f82"/><path d="m342.347656 298.796875c4.140625 0 7.5-3.355469 7.5-7.5v-15.628906c0-4.140625-3.359375-7.5-7.5-7.5s-7.5 3.359375-7.5 7.5v15.628906c0 4.144531 3.359375 7.5 7.5 7.5zm0 0"/><path d="m171.035156 298.796875c4.144532 0 7.5-3.355469 7.5-7.5v-15.628906c0-4.140625-3.355468-7.5-7.5-7.5-4.140625 0-7.5 3.359375-7.5 7.5v15.628906c0 4.144531 3.359375 7.5 7.5 7.5zm0 0"/><path d="m276.949219 335.550781c-3.121094-2.726562-7.855469-2.40625-10.585938.710938-2.339843 2.679687-5.863281 4.214843-9.671875 4.214843-3.804687 0-7.332031-1.535156-9.671875-4.214843-2.726562-3.117188-7.464843-3.4375-10.582031-.710938-3.121094 2.726563-3.4375 7.464844-.710938 10.585938 5.1875 5.933593 12.832032 9.339843 20.964844 9.339843 8.136719 0 15.777344-3.40625 20.96875-9.339843 2.726563-3.121094 2.40625-7.859375-.710937-10.585938zm0 0"/><path d="m461.917969 26.28125c-7.152344-20.414062-28.347657-26.28125-47.941407-26.28125-49.191406 0-90.226562 36.015625-103.53125 49.125-17.121093-4.351562-35.304687-6.542969-54.445312-6.542969s-37.324219 2.191407-54.441406 6.542969c-8.566406-8.453125-28.117188-25.9375-53.742188-37.578125-3.773437-1.710937-8.21875-.042969-9.933594 3.726563-1.710937 3.773437-.042968 8.21875 3.726563 9.933593 18.75 8.515625 33.984375 20.476563 43.375 28.910157-.546875.195312-22.226563 9.09375-31.832031 14.683593-12.515625-9.324219-33.222656-21.84375-54.480469-22.15625-3.691406-.0625-6.828125 2.542969-7.488281 6.148438-3.175782 17.371093-2.019532 40.542969 3.410156 68.878906-9.527344 12.710937-17.308594 25.867187-23.640625 38.585937-19.484375-72.320312-12.847656-111.503906-6.710937-129.019531 2.558593-7.3125 8.875-12.851562 16.484374-14.449219 10.503907-2.210937 21.511719-2.363281 32.722657-.449218 4.085937.699218 7.960937-2.046875 8.65625-6.128906.695312-4.085938-2.046875-7.960938-6.132813-8.65625-13.078125-2.234376-25.976562-2.046876-38.335937.554687-12.710938 2.675781-23.269531 11.9375-27.550781 24.171875-8.792969 25.09375-13.859376 72.34375 11.363281 155.167969-7.460938 18.636719-11.402344 34.125-13.191407 42.339843 0 0-38.234374 0-38.304687 0-5.835937 0-10.5 5.160157-9.9023438 10.964844 1.5078128 14.550782 8.9296878 60.371094 43.6874998 95.882813 0 0-17.550781 0-17.582031 0-6.53125 0-11.371094 6.429687-9.558594 12.714843 2.863282 9.925782 12.484375 35.785157 39.894532 61.488282 34.511718 32.363281 83.730468 52.359375 146.28125 59.441406 16.707031 1.902344 34.617187 2.867188 53.226562 2.867188s36.515625-.964844 53.226562-2.867188c62.554688-7.082031 111.769532-27.082031 146.28125-59.441406 27.414063-25.703125 37.03125-51.5625 39.894532-61.488282 1.8125-6.285156-3.023438-12.714843-9.558594-12.714843h-17.582031c34.757812-35.507813 42.179687-81.328125 43.6875-95.882813.601562-5.808594-4.074219-10.964844-9.902344-10.964844h-38.300781c-1.789063-8.21875-5.730469-23.703124-13.195313-42.34375 25.222657-82.820312 20.15625-130.070312 11.367188-155.164062zm-356.914063 35.9375c12.757813 2.019531 25.269532 8.921875 34.570313 15.300781-12.28125 8.664063-23.023438 18.464844-32.40625 28.859375-2.617188-17.253906-3.355469-32.226562-2.164063-44.160156zm352.574219 176.570312h38.722656c-2.734375 17.828126-13.390625 63.871094-52.398437 93.363282-5.597656 4.234375-2.503906 13.484375 4.519531 13.484375h30.386719c-8.585938 22.378906-40.226563 79.542969-143.332032 99.496093 8.902344-7.710937 19.511719-17.753906 30.191407-29.839843.015625-.015625.027343-.027344.039062-.042969 5.046875-5.710938 9.902344-11.609375 14.453125-17.722656 2.410156-3.21875 1.78125-8.035156-1.503906-10.496094-3.316406-2.484375-8.015625-1.8125-10.5 1.503906-6.453125 8.609375-13.5 16.671875-20.835938 24.53125-12.515624 13.410156-26.648437 25.851563-41.65625 36.523438-15.613281 1.699218-32.3125 2.558594-49.664062 2.558594s-34.046875-.859376-49.660156-2.558594c-2.519532-1.816406-12.0625-9.207032-14.320313-11.082032-44.351562-36.757812-85.46875-89.3125-85.46875-149.625v-13.257812c0-32.714844 26.613281-59.328125 59.328125-59.328125 15.84375 0 30.738282 6.167969 41.945313 17.375 9.601562 9.605469 14.269531 23.328125 14.269531 41.953125v12.925781c-.277344 3.507813-.664062 20.792969 17.0625 30.179688 10.414062 5.511719 23.277344 5.511719 33.6875 0 17.71875-9.382813 17.339844-26.652344 17.066406-30.171875v-12.933594c0-33.824219 24.167969-59.328125 56.210938-59.328125 31.101562 0 57.742187 25.324219 59.257812 56.367187 1.046875 21.410157-1.058594 42.625-8.183594 62.925782-3.292968 9.382812-7.5625 18.769531-12.804687 28.128906-2 3.570312-.695313 8.207031 2.878906 10.207031 3.613281 2.023438 8.183594.734375 10.207031-2.875 5.71875-10.207031 10.378907-20.476562 13.96875-30.761719 7.398438-21.183593 9.007813-42.476562 9.007813-64.664062 0-40.402344-33.898437-74.328125-74.332031-74.328125-20.441406 0-40.292969 8.972656-53.523438 24.59375-10.667968 12.601563-16.832031 28.699219-17.605468 46.011719-.054688 1.234375-.082032 9.480468-.082032 9.480468h-37.816406v-5.757812c0-22.488281-6.28125-40.171875-18.664062-52.558594-13.828126-13.824218-32.992188-21.769531-52.550782-21.769531-40.988281 0-74.332031 33.34375-74.332031 74.328125 0 15.1875.230469 30 3.480469 44.925781 4.90625 22.527344 14.957031 45.15625 29.84375 67.179688 14.398437 21.300781 32.0625 40.417969 51.441406 57.207031.074219.066406.152344.136719.226562.199219-103.113281-19.953125-134.757812-77.121094-143.34375-99.5h30.382813c7.019531 0 10.128906-9.246094 4.523437-13.480469-39.007812-29.496094-49.664062-75.539062-52.398437-93.367188h38.722656c3.679688 0 6.816407-2.667968 7.402344-6.300781.070313-.4375 7.40625-44.277343 35.117187-87.773437 35.242188-55.3125 93.550782-87.132813 159.058594-87.132813 65.53125 0 123.28125 31.644531 158.789063 86.714844 27.84375 43.492187 35.3125 87.753906 35.382812 88.191406.585938 3.632813 3.722657 6.300781 7.402344 6.300781zm-183.558594 57.59375c-1.113281 3.058594-3.429687 6.566407-8.195312 9.089844-5.984375 3.171875-13.660157 3.171875-19.648438 0-4.773437-2.527344-7.089843-6.03125-8.203125-9.089844zm130.8125-190c-9.382812-10.398437-20.125-20.195312-32.40625-28.863281 9.296875-6.375 21.808594-13.28125 34.570313-15.296875 1.195312 11.929688.457031 26.902344-2.164063 44.160156zm36.214844 53.875c-.050781-.105468-.105469-.210937-.15625-.3125-6.304687-12.621093-14.03125-25.667968-23.480469-38.273437 5.429688-28.339844 6.585938-51.511719 3.40625-68.878906-.65625-3.605469-3.828125-6.207031-7.488281-6.148438-21.257813.3125-41.964844 12.835938-54.480469 22.15625-5.890625-3.425781-12.097656-6.589843-18.625-9.453125-4.328125-1.902344-8.746094-3.660156-13.203125-5.230468 15.953125-14.328126 49.035157-39.117188 86.957031-39.117188 13.136719 0 28.789063 1.984375 33.785157 16.238281 6.132812 17.515625 12.769531 56.699219-6.714844 129.019531zm0 0"/></svg>