<svg height="512pt" viewBox="0 -15 512.00017 512" width="512pt" xmlns="http://www.w3.org/2000/svg"><path d="m455.796875 470.988281 15.234375-15.234375c4.6875-4.6875 4.6875-12.292968 0-16.980468l-272.816406-272.816407-32.214844 32.214844 272.816406 272.816406c4.691406 4.6875 12.292969 4.6875 16.980469 0zm0 0" fill="#b27858"/><path d="m243.09375 275.265625 32.214844-32.210937 34.113281 34.113281-32.214844 32.214843zm0 0" fill="#935b43"/><path d="m56.199219 470.988281-15.230469-15.234375c-4.691406-4.6875-4.691406-12.292968 0-16.980468l272.816406-272.816407 32.214844 32.214844-272.816406 272.816406c-4.691406 4.6875-12.292969 4.6875-16.984375 0zm0 0" fill="#c68c6a"/><path d="m390.472656 202.003906-22.152344-22.152344c33.171876-27.070312 58.757813-40.992187 72.207032-47.285156 6.972656-3.265625 12.625-8.804687 15.960937-15.738281l47.207031-98.121094c1.597657-3.332031.65625-6.75-1.519531-8.929687l-96.652343 76.109375-83.105469 83.105469-13.539063 34.082031 16.109375 16.105469c22.707031-8.296876 46.648438-8.835938 61.453125-8.066407 4.875.25 7.480469-5.65625 4.03125-9.109375zm0 0" fill="#aeaeb2"/><path d="m121.527344 202.003906 22.152344-22.152344c-33.171876-27.070312-58.753907-40.992187-72.207032-47.285156-6.972656-3.265625-12.625-8.804687-15.960937-15.738281l-47.207031-98.121094c-1.597657-3.332031-.660157-6.75 1.519531-8.929687l96.648437 76.109375 83.105469 83.105469 13.542969 34.082031-16.109375 16.105469c-22.710938-8.296876-46.648438-8.835938-61.453125-8.066407-4.875.25-7.484375-5.65625-4.03125-9.109375zm0 0" fill="#aeaeb2"/><path d="m493.246094 8.257812-98.121094 47.207032c-6.933594 3.335937-12.472656 8.988281-15.734375 15.960937-6.296875 13.453125-20.21875 39.039063-47.289063 72.207031l-22.152343-22.152343c-3.453125-3.449219-9.359375-.84375-9.105469 4.03125.769531 14.804687.226562 38.742187-8.070312 61.453125l16.109374 16.109375 193.292969-193.296875c-2.175781-2.175782-5.59375-3.117188-8.929687-1.519532zm0 0" fill="#c5c4c9"/><path d="m18.753906 8.257812 98.121094 47.207032c6.933594 3.335937 12.472656 8.988281 15.734375 15.960937 6.296875 13.453125 20.21875 39.039063 47.289063 72.207031l22.152343-22.152343c3.453125-3.449219 9.359375-.84375 9.105469 4.03125-.769531 14.804687-.226562 38.742187 8.070312 61.453125l-16.109374 16.109375-193.292969-193.296875c2.175781-2.175782 5.59375-3.117188 8.929687-1.519532zm0 0" fill="#c5c4c9"/><path d="m1.546875 22.003906 47.207031 98.121094c4.054688 8.433594 10.996094 15.28125 19.539063 19.277344 11.371093 5.324218 34.242187 17.527344 64.167969 41.113281 0 0-16.179688 16.175781-16.234376 16.234375-8.148437 8.144531-1.753906 22.496094 9.722657 21.898438 14.667969-.761719 36.316406-.105469 56.980469 7.105468l30.25 30.246094s-177.402344 177.40625-177.515626 177.515625c-7.519531 7.523437-7.515624 20.074219 0 27.589844 0 0 15.21875 15.214843 15.234376 15.230469 7.503906 7.507812 20.09375 7.492187 27.585937 0l177.515625-177.511719 84.191406 84.1875c2.929688 2.929687 7.675782 2.929687 10.605469 0 2.929687-2.925781 2.929687-7.675781 0-10.605469l-84.191406-84.1875 21.609375-21.609375 177.511718 177.515625c1.757813 1.757812 1.757813 4.617188 0 6.375l-15.230468 15.230469c-1.757813 1.757812-4.617188 1.757812-6.375 0l-72.113282-72.109375c-2.929687-2.929688-7.675781-2.929688-10.605468 0-2.929688 2.929687-2.929688 7.675781 0 10.605468 0 0 72.101562 72.101563 72.113281 72.109376 7.429687 7.433593 20.039063 7.546874 27.585937 0l15.234376-15.230469c7.605468-7.605469 7.605468-19.984375 0-27.589844l-177.515626-177.515625 30.253907-30.253906c17.335937-6.039063 35.371093-7.339844 47.601562-7.339844 8.265625 0 17.953125 1.820312 21.882813-7.660156 1.996094-4.816406.902344-10.308594-2.785156-13.996094l-16.234376-16.238281c29.921876-23.582031 52.796876-35.785157 64.164063-41.105469 8.546875-4 15.488281-10.847656 19.542969-19.28125l47.214844-98.132812c2.84375-5.9375 1.683593-12.769532-2.945313-17.433594-.011719-.011719-.023437-.023438-.035156-.039063-4.589844-4.5898435-11.640625-5.773437-17.484375-2.972656l-98.121094 47.207031c-8.433594 4.054688-15.28125 10.996094-19.277344 19.539063-5.324218 11.371093-17.527344 34.238281-41.113281 64.167969 0 0-16.210937-16.210938-16.234375-16.238282-8.128906-8.128906-22.496094-1.761718-21.898438 9.722656.761719 14.671876.105469 36.316407-7.101562 56.984376l-30.25 30.25-30.25-30.25c-7.207031-20.667969-7.867188-42.308594-7.101562-56.980469.59375-11.484375-13.773438-17.851563-21.898438-9.726563l-16.238281 16.234375c-23.582031-29.921875-35.785157-52.792969-41.109375-64.164062-3.996094-8.546875-10.84375-15.484375-19.277344-19.539063l-98.132812-47.214844c-5.953126-2.851562-12.808594-1.679687-17.472657 2.980469-4.660156 4.664063-5.832031 11.523438-2.972656 17.484375zm66.332031 443.726563c-1.746094 1.746093-4.632812 1.742187-6.375 0 0 0-15.203125-15.203125-15.234375-15.234375-1.746093-1.746094-1.742187-4.628906 0-6.375l246.503907-246.503906 21.609374 21.609374s-246.355468 246.355469-246.503906 246.503907zm381.847656-352.105469c-2.558593 5.324219-6.957031 9.65625-12.378906 12.195312-12.804687 5.992188-39.421875 20.234376-73.769531 48.269532-3.390625 2.765625-3.652344 8.019531-.5625 11.113281l18.257813 18.257813c-1.535157-.039063-3.070313-.054688-4.597657-.054688-12.738281 0-31.292969 1.296875-49.691406 7.210938l-7.496094-7.5 168.023438-168.019532zm-141.183593 17.105469s18.226562 18.226562 18.253906 18.253906c3.101563 3.101563 8.34375 2.832031 11.113281-.5625 28.035156-34.351563 42.277344-60.964844 48.273438-73.769531 2.535156-5.421875 6.863281-9.820313 12.191406-12.378906l78.527344-37.78125-168.023438 168.019531-7.492187-7.492188c6.292969-19.527343 7.511719-39.34375 7.15625-54.289062zm-84.757813 114.664062-26.167968-26.167969 21.609374-21.609374 26.167969 26.167968zm-110.160156-183.121093c5.324219 2.558593 9.65625 6.957031 12.191406 12.378906 5.996094 12.804687 20.234375 39.417968 48.269532 73.769531 2.773437 3.394531 8.015624 3.660156 11.117187.5625l18.253906-18.253906c-.355469 14.945312.863281 34.761719 7.15625 54.289062l-7.496093 7.492188-90.664063-90.664063c-2.929687-2.929687-7.675781-2.929687-10.605469 0-2.832031 2.832032-2.90625 7.703125 0 10.605469l90.664063 90.667969-7.492188 7.492187c-19.527343-6.289062-39.347656-7.511719-54.289062-7.15625 0 0 18.234375-18.234375 18.253906-18.253906 3.105469-3.105469 2.835937-8.339844-.5625-11.113281-34.351563-28.035156-60.964844-42.277344-73.769531-48.269532-5.421875-2.539062-9.820313-6.867187-12.382813-12.195312l-37.78125-78.527344 56.148438 56.144532c2.925781 2.929687 7.675781 2.929687 10.605469 0 2.925781-2.929688 2.925781-7.679688 0-10.605469l-56.148438-56.148438zm0 0"/></svg>