<svg height="512pt" viewBox="-35 0 512 512" width="512pt" xmlns="http://www.w3.org/2000/svg"><path d="m393.589844 7.5c-6.660156 10.394531-17.457032 25.074219-33.023438 39.878906-38.453125 36.558594-85.511718 55.097656-139.867187 55.097656-53.875 0-100.601563-18.226562-138.886719-54.167968-15.960938-14.988282-27.113281-30.136719-33.960938-40.808594h-40.367187c.617187 1.347656 15.527344 33.417969 49.117187 65.355469 31.078126 29.554687 84.773438 64.78125 164.09375 64.78125 79.320313 0 133.019532-35.230469 164.097657-64.78125 33.585937-31.933594 48.496093-64 49.113281-65.355469zm0 0" fill="#57565c"/><path d="m220.695312 137.636719c28.9375 0 54.449219-4.703125 76.714844-12.09375v-13.363281c0-7.855469-1.726562-15.3125-4.792968-22.03125-22.257813 8.195312-46.277344 12.328124-71.921876 12.328124-25.636718 0-49.652343-4.136718-71.914062-12.339843-3.070312 6.722656-4.796875 14.183593-4.796875 22.042969v13.363281c22.261719 7.390625 47.773437 12.09375 76.710937 12.09375zm0 0" fill="#48484d"/><path d="m244.171875 88.941406h-46.953125c-12.832031 0-23.234375 10.40625-23.234375 23.238282v62.535156h93.425781v-62.535156c0-12.832032-10.40625-23.238282-23.238281-23.238282zm0 0" fill="#c5c4c9"/><path d="m227.21875 88.941406h-30c-12.832031 0-23.234375 10.40625-23.234375 23.238282v62.535156h30v-62.535156c0-12.832032 10.402344-23.238282 23.234375-23.238282zm0 0" fill="#aeaeb2"/><path d="m395.441406 329.753906c0 96.507813-78.234375 174.746094-174.746094 174.746094-96.507812 0-174.746093-78.238281-174.746093-174.746094 0-96.507812 78.238281-174.746094 174.746093-174.746094 96.511719 0 174.746094 78.238282 174.746094 174.746094zm0 0" fill="#57565c"/><path d="m345.597656 329.753906c0 68.980469-55.921875 124.898438-124.902344 124.898438-68.980468 0-124.898437-55.917969-124.898437-124.898438 0-68.980468 55.917969-124.898437 124.898437-124.898437 68.980469 0 124.902344 55.917969 124.902344 124.898437zm0 0" fill="#c5c4c9"/><g fill="#aeaeb2"><path d="m95.910156 334.929688c.019532.414062.027344.828124.046875 1.242187.046875.886719.105469 1.773437.167969 2.65625.011719.171875.019531.34375.035156.515625.078125 1.050781.171875 2.097656.277344 3.140625 0 .003906 0 .007813.003906.007813.421875 4.191406 1.054688 8.320312 1.882813 12.375h30.007812c-1.660156-8.113282-2.535156-16.511719-2.535156-25.113282 0-8.601562.875-17 2.535156-25.113281h-30.007812c-1.035157 5.070313-1.765625 10.25-2.164063 15.523437-.007812.101563-.011718.199219-.019531.296876-.070313.957031-.132813 1.914062-.183594 2.875-.015625.378906-.027343.761718-.042969 1.140624-.027343.683594-.058593 1.371094-.078124 2.058594-.027344 1.070313-.039063 2.144532-.039063 3.21875 0 1.074219.011719 2.148438.039063 3.214844.015624.65625.046874 1.308594.074218 1.960938zm0 0"/><path d="m95.796875 329.753906c0 8.601563.871094 17 2.527344 25.113282h244.746093c1.65625-8.113282 2.527344-16.511719 2.527344-25.113282 0-8.601562-.871094-17-2.527344-25.113281h-244.746093c-1.65625 8.113281-2.527344 16.511719-2.527344 25.113281zm0 0"/><path d="m195.582031 452.128906c8.113281 1.65625 16.511719 2.523438 25.113281 2.523438 8.601563 0 17.003907-.867188 25.113282-2.523438v-244.75c-8.109375-1.65625-16.511719-2.527344-25.113282-2.527344-8.601562 0-17 .871094-25.113281 2.527344zm0 0"/></g><path d="m271.929688 329.753906c0 28.296875-22.9375 51.234375-51.234376 51.234375-28.292968 0-51.230468-22.9375-51.230468-51.234375s22.9375-51.234375 51.230468-51.234375c28.296876 0 51.234376 22.9375 51.234376 51.234375zm0 0" fill="#57565c"/><path d="m245.808594 329.753906c0 13.871094-11.242188 25.113282-25.113282 25.113282-13.867187 0-25.113281-11.242188-25.113281-25.113282s11.246094-25.113281 25.113281-25.113281c13.871094 0 25.113282 11.242187 25.113282 25.113281zm0 0" fill="#aeaeb2"/><path d="m125.796875 329.753906c0-63.902344 47.992187-116.589844 109.898437-124-4.917968-.589844-9.921874-.898437-15-.898437-68.980468 0-124.898437 55.917969-124.898437 124.898437 0 68.980469 55.917969 124.898438 124.898437 124.898438 5.078126 0 10.082032-.308594 15-.898438-61.90625-7.410156-109.898437-60.097656-109.898437-124zm0 0" fill="#aeaeb2"/><path d="m225.121094 454.566406c3.511718-.125 7.082031-.394531 10.574218-.8125-14.246093-1.707031-27.753906-5.8125-40.113281-11.902344v10.277344c9.726563 1.933594 19.621094 2.78125 29.539063 2.4375zm0 0" fill="#a1a1a5"/><path d="m214.871094 204.980469c-6.480469.324219-12.929688 1.101562-19.289063 2.398437v10.273438c12.359375-6.085938 25.867188-10.195313 40.085938-11.902344-1.152344-.136719-2.308594-.257812-3.472657-.363281-5.757812-.53125-11.546874-.691407-17.324218-.40625zm0 0" fill="#a1a1a5"/><path d="m95.902344 334.929688c.273437 6.699218 1.082031 13.375 2.421875 19.9375h30.003906c-1.65625-8.113282-2.53125-16.511719-2.53125-25.113282 0-8.601562.875-17 2.53125-25.113281h-30.003906c-1.035157 5.070313-1.765625 10.25-2.164063 15.523437-.375 4.910157-.460937 9.84375-.257812 14.765626zm0 0" fill="#a1a1a5"/><path d="m220.695312 362.367188c17.980469 0 32.613282-14.628907 32.613282-32.613282s-14.628906-32.613281-32.613282-32.613281c-17.984374 0-32.613281 14.628906-32.613281 32.613281s14.628907 32.613282 32.613281 32.613282zm0-50.226563c9.710938 0 17.613282 7.902344 17.613282 17.613281 0 9.714844-7.902344 17.613282-17.613282 17.613282-9.714843 0-17.613281-7.898438-17.613281-17.613282 0-9.710937 7.902344-17.613281 17.613281-17.613281zm0 0"/><path d="m229.820312 179.929688c0 5.039062-4.085937 9.125-9.125 9.125-5.039062 0-9.125-4.085938-9.125-9.125 0-5.039063 4.085938-9.125 9.125-9.125 5.039063 0 9.125 4.085937 9.125 9.125zm0 0"/><path d="m335.761719 223.8125c0 5.039062-4.085938 9.125-9.125 9.125-5.039063 0-9.125-4.085938-9.125-9.125s4.085937-9.125 9.125-9.125c5.039062 0 9.125 4.085938 9.125 9.125zm0 0"/><path d="m379.644531 329.753906c0 5.039063-4.085937 9.125-9.125 9.125-5.039062 0-9.125-4.085937-9.125-9.125 0-5.039062 4.085938-9.125 9.125-9.125 5.039063 0 9.125 4.085938 9.125 9.125zm0 0"/><path d="m335.761719 435.695312c0 5.039063-4.085938 9.125-9.125 9.125-5.039063 0-9.125-4.085937-9.125-9.125 0-5.039062 4.085937-9.125 9.125-9.125 5.039062 0 9.125 4.085938 9.125 9.125zm0 0"/><path d="m229.820312 479.578125c0 5.039063-4.085937 9.125-9.125 9.125-5.039062 0-9.125-4.085937-9.125-9.125s4.085938-9.125 9.125-9.125c5.039063 0 9.125 4.085937 9.125 9.125zm0 0"/><path d="m123.878906 435.695312c0 5.039063-4.085937 9.125-9.125 9.125-5.039062 0-9.125-4.085937-9.125-9.125 0-5.039062 4.085938-9.125 9.125-9.125 5.039063 0 9.125 4.085938 9.125 9.125zm0 0"/><path d="m79.996094 329.753906c0 5.039063-4.085938 9.125-9.125 9.125-5.039063 0-9.125-4.085937-9.125-9.125 0-5.039062 4.085937-9.125 9.125-9.125 5.039062 0 9.125 4.085938 9.125 9.125zm0 0"/><path d="m123.878906 223.8125c0 5.039062-4.085937 9.125-9.125 9.125-5.039062 0-9.125-4.085938-9.125-9.125s4.085938-9.125 9.125-9.125c5.039063 0 9.125 4.085938 9.125 9.125zm0 0"/><path d="m389.957031 78.292969c34.648438-32.945313 50.125-66.261719 50.769531-67.671875 2.242188-4.894532-1.449218-10.621094-6.820312-10.621094h-40.320312c-2.554688 0-4.9375 1.300781-6.316407 3.457031-6.105469 9.535157-16.59375 23.953125-31.875 38.484375-25.902343 24.628906-56.089843 40.835938-89.765625 48.257813-5.542968-5.414063-13.117187-8.757813-21.457031-8.757813h-46.953125c-8.339844 0-15.910156 3.34375-21.453125 8.757813-33.257813-7.335938-63.125-23.238281-88.820313-47.359375-15.617187-14.664063-26.445312-29.511719-32.78125-39.390625-1.378906-2.148438-3.757812-3.449219-6.3125-3.449219 0 0-40.285156 0-40.367187 0-5.363281 0-9.058594 5.746094-6.820313 10.625.558594 1.21875 14.015626 30.183594 43.710938 60.683594 2.886719 2.964844 7.636719 3.03125 10.605469.140625s3.03125-7.636719.140625-10.605469c-17.539063-18.011719-28.953125-35.246094-35.140625-45.84375h23.820312c6.984375 10.429688 17.871094 24.683594 32.875 38.773438 26.4375 24.820312 57.007813 41.601562 90.980469 49.960937-.78125 2.738281-1.171875 5.601563-1.171875 8.445313v11.898437c-32.929687-7.601563-63.109375-22.265625-89.824219-43.65625-3.234375-2.585937-7.953125-2.066406-10.542968 1.167969-2.585938 3.234375-2.066407 7.953125 1.167968 10.542968 29.402344 23.542969 62.75 39.429688 99.199219 47.300782v16.304687c-74.101563 23.132813-128.035156 92.394531-128.035156 174.015625 0 100.492188 81.753906 182.246094 182.246093 182.246094 21.300782 0 42.175782-3.648438 62.050782-10.84375 3.894531-1.410156 5.90625-5.710938 4.496094-9.605469-1.410157-3.894531-5.707032-5.910156-9.605469-4.5-18.230469 6.601563-37.386719 9.949219-56.941407 9.949219-92.21875 0-167.246093-75.023438-167.246093-167.246094 0-77.472656 52.957031-142.804687 124.566406-161.71875 27.820313-7.347656 57.542969-7.328125 85.367187 0 71.609376 18.917969 124.558594 84.246094 124.558594 161.71875 0 29.722656-7.894531 58.910156-22.832031 84.402344-14.503906 24.753906-35.257813 45.503906-60.019531 60.007812-3.574219 2.09375-4.773438 6.6875-2.679688 10.261719s6.6875 4.773438 10.261719 2.679688c26.972656-15.796875 49.578125-38.398438 65.378906-65.363281 16.285157-27.792969 24.890625-59.601563 24.890625-91.988282 0-81.621094-53.933594-150.878906-128.03125-174.015625v-16.300781c54.089844-11.710938 92.273438-39.492188 115.046875-61.144531zm-24.226562-25.480469c14.621093-13.902344 25.152343-27.722656 31.910156-37.8125h23.777344c-6.929688 11.882812-20.433594 32.109375-41.796875 52.421875-20.917969 19.890625-55.675782 45.292969-104.714844 56.652344v-11.894531c0-2.839844-.390625-5.707032-1.167969-8.441407 34.417969-8.46875 65.328125-25.570312 91.992188-50.925781zm-125.261719 95.769531c-.015625 0-.035156-.003906-.050781-.003906-13.171875-1.199219-26.277344-1.425781-39.445313 0-.019531 0-.039062.003906-.058594.007813-6.527343.667968-13.023437 1.757812-19.433593 3.160156v-39.566406c0-8.5625 7.195312-15.738282 15.734375-15.738282h46.957031c8.539063 0 15.734375 7.195313 15.734375 15.738282v39.566406c-.019531-.1875-14.109375-2.691406-19.4375-3.164063zm0 0"/><path d="m230.785156 461.667969c58.074219-4.386719 107.738282-47.9375 119.5625-105.027344 3.578125-17.28125 4.242188-36.53125 0-53.773437-10.660156-51.472657-51.292968-92.105469-102.765625-102.765626-17.734375-3.675781-36.066406-3.660156-53.773437 0-51.472656 10.660157-92.105469 51.292969-102.765625 102.765626-3.644531 17.585937-4.316407 36.238281 0 53.773437 10.65625 51.472656 51.289062 92.105469 102.761719 102.765625 12.148437 2.515625 24.621093 3.195312 36.980468 2.261719zm-5.945312-14.59375c-7.269532.25-14.566406-.15625-21.757813-1.242188v-60.046875c11.394531 3.59375 23.832031 3.589844 35.226563 0v60.046875c-4.449219.671875-8.957032 1.082031-13.46875 1.242188zm-42.148438-96.363281c-3.625-6.308594-5.730468-13.488282-5.730468-20.957032 0-23.757812 19.988281-43.730468 43.734374-43.730468 23.402344 0 43.734376 20.328124 43.734376 43.730468 0 23.488282-20.21875 43.71875-43.75 43.730469-15.824219.011719-30.316407-9.425781-37.988282-22.773437zm21.273438-137.160157c11.3125-1.632812 23.039062-1.585937 34.34375.125v60.046875c-.550782-.171875-1.109375-.328125-1.667969-.484375-10.9375-3.089843-22.714844-2.9375-33.558594.484375v-60.046875c.292969-.046875.589844-.082031.882813-.125zm49.34375 228.988281v-63.96875c6.402344-4.289062 11.914062-9.800781 16.203125-16.203124h63.96875c-11.164063 38.558593-41.613281 69.003906-80.171875 80.171874zm23.878906-96.707031c1.484375-5.214843 2.242188-10.660156 2.242188-16.078125 0-5.945312-.914063-11.941406-2.703126-17.613281h60.046876c.046874.292969.082031.585937.125.878906.777343 5.449219 1.195312 11.15625 1.195312 16.734375 0 5.886719-.4375 11.792969-1.320312 17.613282h-60.046876c.160157-.507813.3125-1.019532.460938-1.535157zm56.292969-48.691406h-63.96875c-4.289063-6.402344-9.800781-11.914063-16.203125-16.203125v-63.96875c38.558594 11.164062 69.007812 41.613281 80.171875 80.171875zm-145.398438-80.171875v63.96875c-6.402343 4.289062-11.914062 9.800781-16.203125 16.203125h-63.96875c11.164063-38.558594 41.613282-69.007813 80.171875-80.171875zm-23.867187 96.710938c-1.46875 5.164062-2.253906 10.65625-2.253906 16.074218 0 5.953125.914062 11.9375 2.703124 17.613282h-60.046874c-.882813-5.824219-1.324219-11.722657-1.324219-17.613282 0-5.886718.4375-11.792968 1.324219-17.613281h60.046874c-.160156.507813-.300781 1.023437-.449218 1.539063zm-56.304688 48.6875h63.96875c4.289063 6.402343 9.800782 11.914062 16.203125 16.203124v63.96875c-38.558593-11.167968-69.007812-41.613281-80.171875-80.171874zm0 0"/></svg>