<svg height="511pt" viewBox="0 -70 511.99901 511" width="511pt" xmlns="http://www.w3.org/2000/svg"><path d="m472.691406 66.421875c7.414063-.1875 15.1875-1.109375 23.328125-2.945313 2.746094-.621093 5.46875 1.109376 6.003907 3.875 4.746093 24.722657 16.707031 132.484376-128.417969 159.5-4.167969.777344-7.339844-3.691406-5.210938-7.351562 3.179688-5.460938 7.1875-13.101562 10.828125-22.25zm0 0" fill="#aeaeb2"/><path d="m39.308594 66.421875c-7.414063-.1875-15.1875-1.109375-23.328125-2.945313-2.746094-.621093-5.46875 1.109376-6.003907 3.875-4.746093 24.71875-16.707031 132.480469 128.417969 159.5 4.167969.777344 7.339844-3.691406 5.210938-7.351562-3.183594-5.460938-7.1875-13.101562-10.828125-22.25zm0 0" fill="#aeaeb2"/><path d="m79.34375 29.476562 17.863281-17.863281c4.921875-4.921875 12.902344-4.921875 17.824219 0l312.605469 312.605469c4.921875 4.921875 4.921875 12.902344 0 17.824219l-17.863281 17.863281c-4.921876 4.921875-12.902344 4.921875-17.824219 0l-312.605469-312.605469c-4.921875-4.921875-4.921875-12.902343 0-17.824219zm0 0" fill="#b27858"/><path d="m277.207031 245.171875-31.75-31.753906 35.6875-35.6875 31.753907 31.75zm0 0" fill="#935b43"/><path d="m432.65625 29.476562-17.863281-17.863281c-4.921875-4.921875-12.90625-4.921875-17.828125 0l-312.605469 312.605469c-4.921875 4.921875-4.921875 12.902344 0 17.824219l17.863281 17.863281c4.921875 4.921875 12.902344 4.921875 17.824219 0l312.605469-312.605469c4.925781-4.921875 4.925781-12.902343.003906-17.824219zm0 0" fill="#c68c6a"/><path d="m353.335938 55.246094-32.011719 32.007812c1.246093 1.144532 2.5625 2.230469 3.953125 3.230469 14.492187 10.394531 24.1875 21.886719 29.351562 34.84375l34.394532-34.394531zm0 0" fill="#b27858"/><path d="m379.222656 197.25c13.550782-34.074219 22.019532-89.183594-36.457031-131.136719-5.957031-4.273437-6.675781-12.863281-1.492187-18.046875l22.957031-22.960937c4.761719-4.757813 12.523437-4.628907 17.089843.308593 13.820313 14.980469 45.386719 42.207032 91.367188 41.007813 1.816406 35.441406-7.546875 100.777344-93.464844 130.828125zm0 0" fill="#c5c4c9"/><path d="m162.027344 58.609375-35.6875 35.6875 31.03125 31.03125c5.164062-12.957031 14.859375-24.449219 29.347656-34.84375 1.394531-1 2.710938-2.082031 3.957031-3.230469zm0 0" fill="#935b43"/><path d="m132.777344 197.25c-13.550782-34.074219-22.019532-89.183594 36.457031-131.136719 5.957031-4.273437 6.675781-12.863281 1.492187-18.046875l-22.960937-22.960937c-4.757813-4.757813-12.523437-4.628907-17.085937.3125-13.824219 14.976562-45.386719 42.203125-91.371094 41.007812-1.8125 35.4375 7.546875 100.773438 93.46875 130.824219zm0 0" fill="#c5c4c9"/><path d="m137.019531 234.222656c10.257813 1.90625 18.3125-9.46875 13.0625-18.496094-2.707031-4.65625-6.703125-12.117187-10.339843-21.253906-8.945313-22.496094-14.335938-51.125-2.675782-78.84375l72.640625 72.636719-72.308593 72.308594c-2.929688 2.929687-2.929688 7.679687 0 10.605469 2.929687 2.929687 7.675781 2.929687 10.605468 0l195.292969-195.292969c.011719.007812.023437.019531.035156.027343 4.710938 3.703126 9.179688 7.726563 13.296875 12.082032 4.035156 4.273437 7.714844 8.871094 10.929688 13.796875 0 0-252.480469 252.480469-252.8125 252.808593-1.964844 1.96875-5.257813 1.960938-7.21875 0 0 0-17.832032-17.832031-17.863282-17.863281-1.972656-1.972656-1.96875-5.25 0-7.21875l37.128907-37.132812c2.929687-2.925781 2.929687-7.675781 0-10.601563-2.925781-2.929687-7.675781-2.929687-10.601563 0 0 0-37.113281 37.109375-37.132812 37.128906-7.738282 7.742188-7.730469 20.703126 0 28.429688 0 0 17.855468 17.855469 17.863281 17.863281 7.746094 7.746094 20.691406 7.738281 28.429687 0l130.648438-130.644531s130.582031 130.578125 130.648438 130.644531c7.75 7.75 20.6875 7.746094 28.429687 0l17.863281-17.863281c7.839844-7.835938 7.839844-20.589844 0-28.429688l-130.648437-130.644531 72.640625-72.636719c13.804687 32.808594 4.1875 70.5-13.019532 100.097657-5.257812 9.039062 2.808594 20.40625 13.0625 18.492187 53.628907-9.984375 92.273438-31.835937 114.855469-64.953125 27.746094-40.6875 22.917969-85.816406 19.550781-103.332031-1.3125-6.839844-8.238281-11.304688-15.015624-9.777344-19.007813 4.289063-38.890626 3.648438-57.402344-2.5625 0 0 .992187-.992187.992187-.992187 7.753907-7.75 7.742188-20.6875 0-28.429688 0 0-17.851562-17.855469-17.863281-17.867187-7.75-7.75-20.6875-7.742188-28.429688 0l-10.039062 10.039062c-2.621094-1.382812-5.542969-2.160156-8.605469-2.222656-5.3125-.105469-10.328125 1.914062-14.089843 5.679688 0 0-22.945313 22.941406-22.960938 22.957031-5.898438 5.898437-7.320312 15.308593-3.445312 22.691406l-76.527344 76.523437-76.519532-76.523437c1.195313-2.28125 1.941407-4.796875 2.15625-7.425781.464844-5.675782-1.578124-11.238282-5.605468-15.265625 0 0-22.941406-22.941407-22.960938-22.957031-5.941406-5.945313-15.25-7.339844-22.683594-3.445313 0 0-10.042968-10.042969-10.046874-10.050781-7.75-7.75-20.691407-7.738282-28.429688 0l-17.863281 17.867187c-7.839844 7.835938-7.839844 20.589844 0 28.429688l.988281.988281c-10.546875 3.539062-22.410156 5.675781-35.53125 5.332031-7.179688-.179687-14.535156-1.109375-21.867188-2.765625-6.765624-1.523437-13.707031 2.945313-15.019531 9.777344-3.363281 17.515625-8.191406 62.644531 19.554688 103.332031 22.582031 33.113281 61.226562 54.96875 114.851562 64.953125zm154.667969-35.347656 130.648438 130.648438c1.992187 1.988281 1.992187 5.226562 0 7.21875 0 0-17.832032 17.832031-17.863282 17.863281-1.972656 1.972656-5.25 1.96875-7.21875 0l-130.648437-130.648438zm110.582031-181.957031c1.96875-1.972657 5.257813-1.96875 7.21875 0 0 0 17.84375 17.84375 17.863281 17.863281 1.972657 1.96875 1.96875 5.25 0 7.21875l-5.28125 5.285156c-12.308593-6.292968-22.132812-14.117187-29.269531-20.902344 0 0 9.449219-9.449218 9.46875-9.464843zm-55.695312 36.449219s22.898437-22.898438 22.960937-22.957032c1.722656-1.726562 4.617188-1.703125 6.273438.089844 14.648437 15.878906 45.191406 41.777344 89.558594 43.382812.007812 4.171876-.160157 8.34375-.539063 12.496094-.585937 6.476563-1.652344 12.917969-3.234375 19.226563-1.007812 4.019531 1.433594 8.089843 5.449219 9.097656 3.960937.996094 8.101562-1.484375 9.097656-5.449219 1.769531-7.066406 2.964844-14.296875 3.625-21.550781.429687-4.710937.636719-9.472656.617187-14.207031 4.890626-.425782 9.816407-1.144532 14.734376-2.152344 2.46875 14.855469 6.042968 54.691406-17.675782 89.480469-19.515625 28.613281-53.09375 47.980469-99.851562 57.605469 2.226562-4.136719 4.804687-9.316407 7.304687-15.246094.074219-.027344.144531-.054688.214844-.082032 11.738281-4.316406 23.144531-9.707031 33.738281-16.371093 19.003906-11.960938 35.320313-28.359375 46.003906-48.199219.027344-.046875.054688-.097656.082032-.144531 1.9375-3.609375.542968-8.21875-3.0625-10.152344-3.601563-1.933594-8.21875-.542969-10.152344 3.0625-9.378906 17.480469-23.746094 31.875-40.433594 42.453125-6.210937 3.933594-12.726562 7.402344-19.4375 10.410156-.113281.050782-.230468.101563-.347656.152344 6.570312-23.53125 9.085938-54.890625-7.882812-84.996094-.019532-.035156-.027344-.066406-.046876-.101562-8.742187-15.429688-21.445312-28.308594-35.734374-38.675782-2.324219-1.695312-3.636719-4.792968-1.261719-7.171874zm-126.261719 124.296874-75.871094-75.871093c6.5-9.96875 14.925782-18.570313 24.261719-25.90625l76.691406 76.691406zm-77.847656-147.253906s22.90625 22.90625 22.960937 22.957032c2.226563 2.226562 1.035157 5.5-1.222656 7.136718-14.339844 10.386719-26.96875 23.269532-35.773437 38.710938-.019532.03125-.027344.066406-.046876.097656-16.96875 30.105469-14.453124 61.464844-7.882812 85-.136719-.058594-.269531-.121094-.40625-.179688-15.039062-6.777343-29.203125-15.785156-40.90625-27.480468-21.734375-21.726563-32.570312-51.847656-32.570312-82.507813 0-.085937 0-.175781 0-.265625 43.546874-1.585937 73.765624-26.570312 88.632812-42.375.316406-.335937.632812-.671875.933594-.996094 1.664062-1.800781 4.558594-1.824218 6.28125-.097656zm-57.816406 4.367188s17.84375-17.84375 17.863281-17.863282c1.96875-1.96875 5.25-1.96875 7.21875 0l9.46875 9.464844c-7.136719 6.789063-16.960938 14.609375-29.269531 20.902344l-5.28125-5.28125c-1.992188-1.992188-1.992188-5.230469 0-7.222656zm-67.765626 36.5625c4.917969 1.007812 9.847657 1.730468 14.738282 2.15625v.246094c-.09375 32.5625 10.914062 65.304687 33.160156 89.578124 16.859375 18.394532 38.847656 31.199219 62.097656 39.773438.078125.03125.148438.058594.226563.085938 2.5 5.933593 5.078125 11.113281 7.304687 15.246093-46.761718-9.625-80.335937-28.992187-99.851562-57.605469-23.722656-34.789062-20.144532-74.625-17.675782-89.480468zm0 0"/></svg>