<svg height="511pt" viewBox="0 0 511.99947 511" width="511pt" xmlns="http://www.w3.org/2000/svg"><path d="m502.570312 345.257812-163.484374-326.972656c-6.945313-13.890625-26.769532-13.890625-33.714844 0l-49.371094 98.738282 33.84375 67.691406 32.386719-64.765625 96.019531 192.039062h-191.960938l-30.34375 60.542969h289.769532c14.007812 0 23.121094-14.742188 16.855468-27.273438zm0 0" fill="#ffc471"/><path d="m229.496094 372.53125 30.273437-60.542969h-33.480469l-30.34375 60.542969zm0 0" fill="#ffb85c"/><path d="m222.160156 184.726562-146.503906 293.003907c-6.265625 12.53125 2.847656 27.273437 16.855469 27.273437h326.976562c14.007813 0 23.121094-14.742187 16.855469-27.273437l-52.601562-105.199219h-67.6875l35.964843 71.929688h-192.039062l96.019531-192.039063zm0 0" fill="#ffc471"/><g fill="#ffb85c"><path d="m383.742188 372.53125h-67.6875l15.007812 30.011719h67.6875zm0 0"/><path d="m205.382812 218.28125 33.839844 67.691406 16.777344-33.550781-33.839844-67.695313zm0 0"/><path d="m256 117.027344 33.84375 67.691406 16.773438-33.550781-33.839844-67.695313zm0 0"/></g><path d="m285.785156 311.988281-96.011718-192.039062-96.019532 192.039062h64.773438l-30.269532 60.542969h-101.972656c-14.007812 0-23.121094-14.742188-16.855468-27.273438l163.484374-326.972656c6.945313-13.890625 26.769532-13.890625 33.714844 0l146.851563 293.703125zm0 0" fill="#ffc471"/><path d="m128.253906 372.53125 30.273438-60.542969h-33.480469l-30.34375 60.542969zm0 0" fill="#ffb85c"/><path d="m338.46875 281.980469h-67.691406l15.007812 30.007812h67.6875zm0 0" fill="#ffb85c"/><path d="m26.289062 379.898438h89.832032s-47.097656 94.195312-47.171875 94.339843c-8.617188 17.230469 4.378906 38.132813 23.566406 38.132813h326.976563c19.257812 0 32.183593-20.890625 23.566406-38.132813l-47.171875-94.339843h89.832031c19.226562 0 32.175781-20.914063 23.566406-38.132813 0 0-163.332031-326.667969-163.488281-326.972656-9.535156-19.074219-37.617187-19.03125-47.132813 0l-42.660156 85.320312s-42.625-85.246093-42.660156-85.320312c-9.539062-19.074219-37.613281-19.039063-47.136719 0l-45.023437 90.046875c-1.851563 3.703125-.347656 8.210937 3.355468 10.0625 3.707032 1.855468 8.214844.351562 10.066407-3.355469 0 0 44.90625-89.8125 45.023437-90.042969 4.117188-8.238281 16.1875-8.210937 20.292969-.003906l141.425781 282.851562h-50.921875s-93.886719-187.789062-93.9375-187.894531c-2.714843-5.425781-10.714843-5.417969-13.421875 0 0 0-95.734375 191.472657-96.019531 192.039063-2.453125 4.910156 1.25 10.859375 6.710937 10.859375h52.632813l-22.765625 45.535156s-97.09375 0-97.335938 0c-8.308593 0-13.863281-8.976563-10.144531-16.414063l104.316407-208.632812c1.855468-3.707031.351562-8.214844-3.355469-10.066406-3.707031-1.855469-8.210938-.351563-10.066407 3.355468 0 0-104.238281 208.472657-104.316406 208.632813-8.628906 17.257813 4.347656 38.132813 23.566406 38.132813zm287.171876 71.929687h38.5625c5.507812 0 9.171874-5.933594 6.710937-10.859375l-30.535156-61.070312h50.910156s50.328125 100.648437 50.527344 101.050781c3.726562 7.449219-1.863281 16.417969-10.144531 16.417969 0 0-325.910157 0-326.972657 0-8.316406 0-13.875-8.96875-10.148437-16.417969l139.789062-279.582031 25.457032 50.917968s-94.195313 188.390625-94.34375 188.683594c-2.460938 4.917969 1.253906 10.859375 6.710937 10.859375h123.464844c4.144531 0 7.5-3.359375 7.5-7.503906s-3.355469-7.503907-7.5-7.503907h-111.324219l28.460938-56.925781h110.835937l28.460937 56.925781h-26.425781c-4.140625 0-7.5 3.359376-7.5 7.503907s3.359375 7.503906 7.503907 7.503906zm-15.222657-267.25 23.992188-47.988281 83.878906 167.761718h-47.988281zm120.011719 134.777344c5.492188 0 9.164062-5.949219 6.710938-10.859375 0 0-95.808594-191.625-96.019532-192.039063-2.714844-5.433593-10.707031-5.425781-13.421875 0l-25.671875 51.34375-25.457031-50.910156s47.570313-95.136719 47.695313-95.386719c4.117187-8.238281 16.191406-8.203125 20.292968-.003906 0 0 163.199219 326.402344 163.484375 326.976562 3.726563 7.449219-1.871093 16.414063-10.144531 16.414063h-277.617188l22.824219-45.535156zm-179.890625-15.003907 17.644531-35.292968 17.644532 35.292968zm-132.464844 0 83.882813-167.761718 23.996094 48-59.878907 119.761718zm0 0"/></svg>