<svg height="512pt" viewBox="0 0 512 512.00017" width="512pt" xmlns="http://www.w3.org/2000/svg"><path d="m58.316406 411.226562c-3.3125 3.308594-8.140625 4.457032-12.65625 3.238282-10.628906-2.867188-22.507812.140625-30.492187 9.035156-10.40625 11.597656-10.191407 29.554688.472656 40.917969 6.054687 6.445312 14.210937 9.632812 22.34375 9.570312-.0625 8.132813 3.121094 16.289063 9.570313 22.339844 11.363281 10.667969 29.320312 10.882813 40.917968.476563 8.894532-7.988282 11.902344-19.867188 9.035156-30.492188-1.21875-4.519531-.070312-9.34375 3.238282-12.65625l68.511718-68.511719-42.429687-42.433593zm0 0" fill="#edebec"/><path d="m169.257812 385.144531-19.996093-20-68.511719 68.515625c-3.3125 3.308594-4.460938 8.136719-3.242188 12.65625 2.871094 10.625-.136718 22.503906-9.035156 30.488282-8.089844 7.261718-19.273437 9.34375-29.15625 6.324218 1.492188 4.871094 4.234375 9.441406 8.238282 13.203125 11.359374 10.664063 29.320312 10.878907 40.917968.472657 8.894532-7.984376 11.902344-19.867188 9.035156-30.492188-1.21875-4.519531-.070312-9.34375 3.238282-12.65625zm0 0" fill="#d2d2d2"/><path d="m114.023438 308.03125c.242187 7.054688-2.464844 13.886719-7.457032 18.875-9.957031 9.960938-9.957031 26.105469 0 36.066406l42.433594 42.429688c9.960938 9.960937 26.105469 9.960937 36.066406 0 4.988282-4.988282 11.820313-7.695313 18.871094-7.453125 38.070312 1.3125 170.507812-3.382813 286.703125-119.578125l-257.039063-257.039063c-116.195312 116.195313-120.890624 248.632813-119.578124 286.699219zm0 0" fill="#c68c6a"/><path d="m470.640625 258.375c-116.195313 116.191406-248.628906 120.886719-286.699219 119.574219-7.054687-.242188-13.882812 2.464843-18.875 7.457031-9.957031 9.957031-26.105468 9.957031-36.0625 0l19.996094 19.996094c9.960938 9.960937 26.105469 9.960937 36.066406 0 4.988282-4.988282 11.820313-7.695313 18.871094-7.453125 38.070312 1.3125 170.507812-3.382813 286.703125-119.578125zm0 0" fill="#b27858"/><path d="m423.183594 88.789062c-70.980469-70.980468-155.859375-101.179687-189.585938-67.453124-33.726562 33.726562-3.527344 118.605468 67.453125 189.582031 70.976563 70.980469 155.859375 101.179687 189.585938 67.453125 33.722656-33.726563 3.523437-118.605469-67.453125-189.582032zm0 0" fill="#edebec"/><path d="m462.933594 250.667969c-4.71875 4.714843-20.464844 5.996093-43.886719-2.335938-29.613281-10.535156-63.40625-33.386719-92.714844-62.695312-29.304687-29.304688-52.15625-63.097657-62.691406-92.710938-8.335937-23.421875-7.054687-39.167969-2.335937-43.886719s20.464843-6 43.886718 2.335938c29.613282 10.535156 63.40625 33.386719 92.710938 62.691406 29.308594 29.308594 52.160156 63.101563 62.695312 92.714844 8.335938 23.421875 7.054688 39.167969 2.335938 43.886719zm0 0" fill="#f77f82"/><path d="m377.121094 134.847656c-15.085938-15.089844-34.035156-20.601562-42.324219-12.3125-8.289063 8.285156-2.773437 27.234375 12.3125 42.324219 15.089844 15.089844 34.039063 20.601563 42.328125 12.3125 8.285156-8.285156 2.773438-27.238281-12.316406-42.324219zm0 0" fill="#edebec"/><path d="m167.160156 324.554688c-2.929687 2.925781-2.929687 7.675781 0 10.601562 0 0 8.300782 8.304688 8.304688 8.308594 2.894531 2.894531 7.714844 2.890625 10.605468 0 2.929688-2.929688 2.929688-7.675782 0-10.605469l-8.308593-8.304687c-2.925781-2.929688-7.675781-2.929688-10.601563 0zm0 0"/><path d="m258.953125 232.757812c-2.929687 2.929688-2.929687 7.679688 0 10.605469 0 0 8.300781 8.304688 8.304687 8.308594 2.816407 2.8125 7.6875 2.921875 10.605469 0 2.929688-2.929687 2.929688-7.679687 0-10.605469l-8.304687-8.308594c-2.929688-2.925781-7.679688-2.925781-10.605469 0zm0 0"/><path d="m215.261719 295.53125c-4.140625-.277344-7.707031 2.847656-7.984375 6.980469-.28125 4.132812 2.84375 7.707031 6.976562 7.984375 8.207032.554687 16.355469-2.699219 22.144532-8.496094 5.945312-5.945312 9.042968-14.015625 8.496093-22.144531-.277343-4.132813-3.84375-7.257813-7.984375-6.976563-4.132812.277344-7.257812 3.851563-6.980468 7.984375.257812 3.808594-1.25 7.648438-4.136719 10.535157-2.882813 2.882812-6.722657 4.390624-10.53125 4.132812zm0 0"/><path d="m275.3125 37.832031c-8.769531 0-15.453125 2.050781-19.332031 5.933594-8.109375 8.109375-7.890625 27.917969.570312 51.703125 10.898438 30.625 34.390625 65.433594 64.457031 95.5 30.066407 30.066406 64.875 53.5625 95.5 64.457031 11.960938 4.253907 23.152344 6.503907 32.371094 6.503907 8.769532 0 15.453125-2.050782 19.335938-5.933594 8.105468-8.109375 7.886718-27.917969-.574219-51.703125-10.894531-30.625-34.390625-65.433594-64.457031-95.5-30.066406-30.066407-64.875-53.5625-95.5-64.457031-11.957032-4.253907-23.152344-6.503907-32.371094-6.503907zm178.199219 171.488281c7.8125 21.960938 5.714843 34.148438 4.128906 36.042969-.019531.015625-2.046875 1.570313-8.757813 1.570313-5.25 0-14.253906-.980469-27.34375-5.636719-28.601562-10.175781-61.375-32.386719-89.921874-60.933594-28.550782-28.546875-50.757813-61.324219-60.933594-89.921875-7.8125-21.960937-5.714844-34.148437-4.128906-36.042968.019531-.015626 2.050781-1.566407 8.757812-1.566407 5.25 0 14.253906.976563 27.34375 5.632813 28.601562 10.175781 61.375 32.386718 89.925781 60.933594 28.546875 28.546874 50.753907 61.324218 60.929688 89.921874zm0 0"/><path d="m378.84375 188.554688c6.425781 0 11.917969-2.089844 15.875-6.050782 15.359375-15.359375-.414062-41.03125-12.3125-52.933594-12.027344-12.027343-37.457031-27.785156-52.933594-12.3125-11.578125 11.578126-6.285156 34.335938 12.3125 52.933594 11.503906 11.5 25.355469 18.363282 37.058594 18.363282zm-38.761719-60.691407c8.046875-8.054687 26.476563 7.074219 31.71875 12.316407 5.359375 5.359374 20.371094 23.660156 12.3125 31.71875-8.035156 8.039062-26.460937-7.050782-31.71875-12.3125-13.4375-13.4375-16.269531-27.761719-12.3125-31.722657zm0 0"/><path d="m31.0625 480.941406c1.433594 7.933594 5.386719 15.300782 11.335938 20.886719 6.988281 6.558594 16.171874 10.171875 25.867187 10.171875 9.359375 0 18.304687-3.40625 25.191406-9.585938 10.691407-9.597656 15.007813-24.167968 11.269531-38.023437-.546874-2.023437-.058593-4.042969 1.300782-5.402344l43.558594-43.558593c5.179687 3.234374 11.167968 4.972656 17.425781 4.972656 8.816406 0 17.101562-3.433594 23.332031-9.667969 3.515625-3.515625 8.359375-5.433594 13.3125-5.261719 14.707031.507813 45.105469.175782 83.5-7.757812 4.058594-.835938 6.667969-4.804688 5.828125-8.859375-.835937-4.058594-4.804687-6.664063-8.859375-5.828125-36.867188 7.617187-65.914062 7.941406-79.949219 7.457031-9.078125-.3125-17.992187 3.203125-24.4375 9.648437-3.398437 3.398438-7.917969 5.269532-12.726562 5.269532-4.8125 0-9.332031-1.871094-12.730469-5.269532 0 0-42.433594-42.433593-42.433594-42.433593-7.019531-7.019531-7.019531-18.441407 0-25.460938 6.445313-6.441406 9.960938-15.347656 9.648438-24.433593-1.175782-34.007813 2.65625-145.914063 90.851562-252.066407-.042968.910157-.070312 1.832031-.085937 2.761719-.242188 15.785156 3.449219 31.40625 8.710937 46.199219 15.078125 42.378906 43.183594 79.984375 74.753906 111.550781 30 30 64.960938 56.382812 104.613282 72.140625 17.65625 7.015625 36.785156 12.101563 55.925781 11.242187-42.539063 35.398438-90.394531 60.933594-142.71875 76.09375-3.976563 1.152344-6.269531 5.3125-5.113281 9.292969 1.152344 3.976563 5.308594 6.265625 9.289062 5.113281 67.050782-19.429687 127.003906-55.238281 178.195313-106.429687 18.472656-18.472656 21.066406-49.949219 7.300781-88.636719-13.105469-36.835937-39.652344-76.453125-74.753906-111.554687-20.921875-20.921875-43.21875-38.664063-66.269532-52.730469-3.535156-2.15625-8.148437-1.039062-10.304687 2.496094-2.160156 3.535156-1.042969 8.148437 2.492187 10.308594 22.035157 13.445312 43.390626 30.449218 63.476563 50.535156 33.558594 33.554687 58.851563 71.191406 71.226563 105.972656 11.546874 32.449219 10.171874 59.0625-3.773438 73.007812-13.945312 13.945313-40.554688 15.320313-73.007812 3.773438-40.375-14.363281-75.917969-41.171875-105.972657-71.230469-30.023437-30.023437-56.878906-65.640625-71.230469-105.972656-8.0625-22.664063-15.523437-53.683594 3.777344-73.007813 16.929688-16.929687 51.609375-15.238281 92.765625 4.515626 3.734375 1.792968 8.214844.21875 10.007813-3.515626 1.789062-3.734374.214844-8.214843-3.519532-10.007812-47.855468-22.972656-87.898437-23.554688-109.855468-1.597656-.019532.019531-.039063.035156-.054688.054687-118.222656 118.253907-123.050781 253.550781-121.714844 292.207031.167969 4.945313-1.75 9.796876-5.265624 13.3125-11.042969 11.042969-12.597657 28.023438-4.6875 40.753907 0 0-43.410157 43.410156-43.566407 43.566406-3.3125 3.3125-11.160156-.007813-15.277343-.007813-10.714844 0-20.972657 4.582032-28.144532 12.578126-12.976562 14.453124-12.71875 36.882812.585938 51.054687 5.679687 6.050781 12.941406 9.964844 20.910156 11.363281zm-10.335938-52.402344c4.398438-4.898437 10.429688-7.59375 16.984376-7.59375 3.898437 0 7.585937 1.523438 11.488281 1.523438 5.472656 0 10.585937-2.101562 14.394531-5.910156l42.953125-42.953125 31.824219 31.828125-42.949219 42.949218c-5.125 5.125-7.109375 12.757813-5.179687 19.914063 2.261718 8.367187-.347657 17.160156-6.804688 22.953125-8.617188 7.738281-22.34375 7.554688-30.773438-.355469-4.695312-4.410156-7.253906-10.382812-7.203124-16.816406.03125-4.101563-3.40625-7.558594-7.5-7.558594-.019532 0-.039063 0-.058594 0h-.179688c-6.367187 0-12.273437-2.558593-16.636718-7.207031-8.019532-8.542969-8.179688-22.0625-.359376-30.773438zm0 0"/></svg>