<svg height="511pt" viewBox="0 -17 511.99979 511" width="511pt" xmlns="http://www.w3.org/2000/svg"><path d="m64.609375 281.128906c-17.386719 39.648438-18.238281 131.582032 80.804687 149.929688h221.171876c99.046874-18.347656 98.191406-110.28125 80.804687-149.929688zm0 0" fill="#ffc471"/><path d="m104.605469 281.128906h-39.996094c-17.386719 39.648438-18.238281 131.582032 80.804687 149.929688h39.996094c-99.042968-18.347656-98.191406-110.28125-80.804687-149.929688zm0 0" fill="#ffb85c"/><path d="m110.320312 91.054688c6.292969-9.300782 13.464844-17.96875 21.382813-25.886719 31.800781-31.820313 75.753906-51.488281 124.296875-51.488281 60.625 0 114.074219 30.683593 145.679688 77.375l-145.210938 30.078124zm0 0" fill="#aeaeb2"/><path d="m140.320312 91.054688c6.292969-9.300782 13.464844-17.96875 21.378907-25.886719 28.484375-28.496094 66.714843-47.238281 109.257812-50.84375-4.933593-.414063-9.917969-.644531-14.957031-.644531-48.542969 0-92.496094 19.667968-124.296875 51.492187-7.917969 7.914063-15.089844 16.582031-21.382813 25.882813l146.148438 30.082031 14.953125-3.097657zm0 0" fill="#a1a1a5"/><path d="m188.253906 351.726562s-47.050781 41.09375-47.050781 118.292969h47.050781l17.28125-54.304687zm0 0" fill="#ffcec0"/><path d="m323.742188 351.726562s47.050781 41.09375 47.050781 118.292969h-47.050781l-17.28125-54.304687zm0 0" fill="#ffcec0"/><path d="m188.253906 351.726562h135.488282v118.292969h-135.488282zm0 0" fill="#edebec"/><path d="m293.710938 361.183594s-2.585938 28.144531-37.710938 49.691406c-35.125-21.546875-37.707031-49.691406-37.707031-49.691406zm0 0" fill="#ffcec0"/><path d="m431.71875 194.234375c-1.238281 46.644531-20.648438 88.777344-51.421875 119.53125-31.800781 31.820313-75.753906 51.492187-124.296875 51.492187-97.085938 0-175.789062-78.703124-175.789062-175.789062l68.332031-68.332031h217.289062zm0 0" fill="#ffe1d7"/><path d="m110.210938 189.46875 68.332031-68.332031h-30l-68.332031 68.332031c0 97.085938 78.703124 175.789062 175.789062 175.789062 5.054688 0 10.054688-.226562 15-.644531-90.0625-7.613281-160.789062-83.113281-160.789062-175.144531zm0 0" fill="#ffcec0"/><path d="m431.789062 189.46875c0 1.589844-.019531 3.183594-.070312 4.765625l-35.195312 18.484375c0-15.988281-6.480469-30.464844-16.957032-40.945312-10.527344-10.515626-25.09375-17.007813-41.171875-16.949219-32.019531.132812-57.65625 26.738281-57.65625 58.757812v4.796875c0 5.097656-4.128906 9.222656-9.222656 9.222656h-31.03125c-5.09375 0-9.21875-4.125-9.21875-9.222656v-5.660156c0-15.988281-6.480469-30.464844-16.960937-40.945312-10.476563-10.464844-24.953126-16.949219-40.933594-16.949219-31.96875 0-57.894532 25.914062-57.894532 57.894531l-34.324218-41.488281c3.039062-29.496094 13.367187-56.832031 29.171875-80.175781h291.355469c19.007812 28.082031 30.109374 61.949218 30.109374 98.414062zm0 0" fill="#c5c4c9"/><g fill="#aeaeb2"><path d="m111.148438 171.230469c3.039062-29.496094 13.367187-56.835938 29.171874-80.175781h-30c-15.800781 23.339843-26.132812 50.679687-29.167968 80.175781l34.324218 41.488281c0-10.046875 2.558594-19.492188 7.058594-27.722656zm0 0"/><path d="m176.277344 122.480469c0 7.144531-5.789063 12.933593-12.929688 12.933593-7.144531 0-12.933594-5.789062-12.933594-12.933593 0-7.140625 5.789063-12.933594 12.933594-12.933594 7.140625 0 12.929688 5.792969 12.929688 12.933594zm0 0"/><path d="m361.585938 122.480469c0 7.144531-5.789063 12.933593-12.929688 12.933593-7.144531 0-12.933594-5.789062-12.933594-12.933593 0-7.140625 5.789063-12.933594 12.933594-12.933594 7.140625 0 12.929688 5.792969 12.929688 12.933594zm0 0"/><path d="m268.933594 122.480469c0 7.144531-5.789063 12.933593-12.933594 12.933593s-12.933594-5.789062-12.933594-12.933593c0-7.140625 5.789063-12.933594 12.933594-12.933594s12.933594 5.792969 12.933594 12.933594zm0 0"/></g><path d="m349.65625 270.460938h-21.902344c-4.144531 0-7.5-3.359376-7.5-7.5 0-4.140626 3.355469-7.5 7.5-7.5h21.902344c4.140625 0 7.496094 3.359374 7.496094 7.5 0 4.140624-3.355469 7.5-7.496094 7.5zm0 0" fill="#f77f82"/><path d="m184.246094 270.460938h-21.898438c-4.144531 0-7.5-3.359376-7.5-7.5 0-4.140626 3.355469-7.5 7.5-7.5h21.898438c4.144531 0 7.5 3.359374 7.5 7.5 0 4.140624-3.355469 7.5-7.5 7.5zm0 0" fill="#f77f82"/><path d="m64.289062 209.296875-34.625-15.878906c-4.160156 33.292969 9.027344 66.398437 34.945313 87.710937l20.078125 16.515625 20.914062-38.875zm0 0" fill="#d2d2d2"/><path d="m447.710938 209.296875 34.625-15.878906c4.160156 33.292969-9.027344 66.398437-34.945313 87.710937l-20.078125 16.515625-20.914062-38.875zm0 0" fill="#d2d2d2"/><path d="m25.804688 130.789062c-11.089844 24.800782-6.277344 53.828126 12.226562 73.71875l39.421875 42.386719 22.210937-19.789062-5.9375-38.261719zm0 0" fill="#edebec"/><path d="m486.195312 130.789062c11.089844 24.800782 6.273438 53.828126-12.226562 73.71875l-39.421875 42.386719-22.210937-19.789062 5.9375-38.261719zm0 0" fill="#edebec"/><path d="m28.421875 63.375h22.164063l55.015624 98.921875v47l-23.730468-2.964844c-16.984375-18.695312-33.09375-39.578125-45.949219-57.328125-18.019531-24.878906-21.664063-57.386718-9.574219-85.628906" fill="#d2d2d2"/><path d="m483.578125 63.375h-22.164063l-55.015624 98.921875v47l23.730468-2.964844c16.984375-18.695312 33.09375-39.578125 45.949219-57.328125 18.019531-24.878906 21.664063-57.386718 9.578125-85.628906" fill="#d2d2d2"/><path d="m94.96875 86.078125c-15.28125-23.101563-31.144531-45.808594-46.921875-68.574219-7.75-11.179687-23.625-12.851562-33.53125-3.527344-8.257813 7.769532-9.355469 20.511719-2.53125 29.566407 18.96875 25.167969 54.785156 76.6875 69.507813 124.699219 9.265624 24.882812-11.183594 63.480468-1.277344 107.019531 6.28125 27.613281 9.367187 54.769531 10.785156 70.933593.53125 6.054688 7.976562 8.550782 12.105469 4.097657 17.453125-18.816407 16.019531-31.476563 16.019531-117.910157 0-19.695312 7.390625-37.523437 9.140625-56.839843 3.015625-33.238281-15.746094-62.933594-33.296875-89.464844zm0 0" fill="#edebec"/><path d="m417.03125 86.078125c15.28125-23.101563 31.144531-45.8125 46.921875-68.578125 7.746094-11.179688 23.625-12.847656 33.527344-3.527344 8.261719 7.773438 9.359375 20.515625 2.535156 29.570313-18.96875 25.167969-54.785156 76.6875-69.507813 124.699219-9.265624 24.882812 11.183594 63.480468 1.277344 107.019531-6.28125 27.613281-9.367187 54.765625-10.785156 70.933593-.53125 6.050782-7.976562 8.550782-12.109375 4.097657-17.449219-18.816407-16.015625-31.476563-16.015625-117.910157 0-19.695312-7.390625-37.523437-9.140625-56.839843-3.015625-33.238281 15.742187-62.933594 33.296875-89.464844zm0 0" fill="#edebec"/><path d="m163.347656 142.84375c11.265625 0 20.429688-9.167969 20.429688-20.433594s-9.164063-20.433594-20.429688-20.433594c-11.269531 0-20.4375 9.167969-20.4375 20.433594.003906 11.265625 9.167969 20.433594 20.4375 20.433594zm0-25.867188c2.996094 0 5.433594 2.4375 5.433594 5.433594s-2.441406 5.433594-5.433594 5.433594c-2.996094 0-5.4375-2.4375-5.4375-5.433594s2.441406-5.433594 5.4375-5.433594zm0 0"/><path d="m348.65625 142.84375c11.265625 0 20.429688-9.167969 20.429688-20.433594s-9.164063-20.433594-20.429688-20.433594c-11.269531 0-20.4375 9.167969-20.4375 20.433594s9.167969 20.433594 20.4375 20.433594zm0-25.867188c2.996094 0 5.433594 2.4375 5.433594 5.433594s-2.441406 5.433594-5.433594 5.433594c-2.996094 0-5.4375-2.4375-5.4375-5.433594s2.4375-5.433594 5.4375-5.433594zm0 0"/><path d="m256 142.84375c11.265625 0 20.433594-9.167969 20.433594-20.433594s-9.167969-20.433594-20.433594-20.433594-20.433594 9.167969-20.433594 20.433594 9.167969 20.433594 20.433594 20.433594zm0-25.867188c2.996094 0 5.433594 2.4375 5.433594 5.433594s-2.4375 5.433594-5.433594 5.433594-5.433594-2.4375-5.433594-5.433594 2.4375-5.433594 5.433594-5.433594zm0 0"/><path d="m338.703125 246.75c4.144531 0 7.5-3.355469 7.5-7.5v-15.089844c0-4.140625-3.355469-7.5-7.5-7.5-4.140625 0-7.5 3.359375-7.5 7.5v15.089844c0 4.144531 3.359375 7.5 7.5 7.5zm0 0"/><path d="m173.296875 246.75c4.140625 0 7.5-3.355469 7.5-7.5v-15.089844c0-4.140625-3.359375-7.5-7.5-7.5s-7.5 3.359375-7.5 7.5v15.089844c0 4.144531 3.359375 7.5 7.5 7.5zm0 0"/><path d="m275.726562 249.789062c-3.117187-2.726562-7.855468-2.410156-10.582031.710938-2.210937 2.527344-5.542969 3.980469-9.144531 3.980469s-6.933594-1.453125-9.144531-3.980469c-2.726563-3.121094-7.464844-3.4375-10.582031-.710938-3.121094 2.726563-3.4375 7.460938-.710938 10.582032 5.058594 5.789062 12.507812 9.105468 20.4375 9.105468s15.378906-3.316406 20.4375-9.105468c2.726562-3.121094 2.410156-7.855469-.710938-10.582032zm0 0"/><path d="m502.621094 8.441406c-13.058594-12.289062-34.628906-10.003906-44.832032 4.714844 0 0-49.042968 71.777344-50.082031 73.359375-34.210937-50.351563-90.894531-80.410156-151.707031-80.410156-19.390625 0-38.511719 3.027343-56.828125 8.996093-3.9375 1.28125-6.089844 5.515626-4.808594 9.453126s5.515625 6.089843 9.453125 4.808593c16.816406-5.480469 34.371094-8.257812 52.183594-8.257812 51.054688 0 98.949219 23.074219 130.792969 62.375h-261.578125c3.699218-4.554688 7.636718-8.929688 11.792968-13.082031 11.390626-11.398438 24.324219-21.089844 38.445313-28.800782 3.632813-1.984375 4.96875-6.542968 2.984375-10.175781-1.988281-3.636719-6.542969-4.972656-10.179688-2.988281-15.375 8.398437-29.457031 18.949218-41.859374 31.359375-8.199219 8.199219-15.632813 17.1875-22.109376 26.722656-1.039062-1.582031-50.074218-73.347656-50.082031-73.359375-10.21875-14.738281-31.785156-16.992188-44.832031-4.714844-11.066406 10.417969-12.519531 27.417969-3.378906 39.542969 3.527344 4.683594 7.5625 10.175781 11.886718 16.304687-8.046874 21.445313-7.921874 45.078126-.144531 66.261719-8.480469 21.285157-6.71875 44.910157 4.203125 64.433594-3.355468 33.316406 9.09375 65.75 33.722656 88.226563-9.65625 26.261718-11.84375 66.742187 5.53125 99.539062 14.460938 27.292969 40.429688 45.875 75.382813 54.042969-1.808594 10.21875-2.875 21.269531-2.875 33.15625 0 4.140625 3.359375 7.5 7.5 7.5h229.59375c4.140625 0 7.496094-3.359375 7.496094-7.5 0-11.902344-1.097657-22.960938-2.921875-33.136719 16.808594-3.910156 31.539062-10.179688 43.867187-18.691406 3.410157-2.351563 4.265625-7.023438 1.914063-10.433594-2.351563-3.40625-7.023438-4.261719-10.433594-1.910156-10.726562 7.402344-23.675781 12.902344-38.566406 16.382812-5.132813-19.320312-13.511719-37.753906-24.875-54.21875-3.949219-5.714844-7.660156-10.324218-10.71875-13.816406 12.132812-5.949219 23.628906-13.265625 34.296875-21.882812 5.625-4.542969 10.992187-9.40625 16.054687-14.570313 1.410156 12.535156 4.101563 20.847656 9.195313 28.535156 5.152343 7.773438 13.25 17.023438 23.65625 12.605469.007812-.003906.019531-.011719.027343-.015625 8.222657-3.570313 8.769532-13.589844 9.570313-21.292969 1.03125-9.921875 2.585937-22.414062 4.867187-35.914062l9.757813-8.019532c7.378906 24.480469 8.835937 63.519532-13.507813 93.308594-2.488281 3.316406-1.816406 8.015625 1.496094 10.5 3.316406 2.484375 8.015625 1.8125 10.5-1.5 12.890625-17.179687 20.230469-38.925781 21.230469-62.878906.722656-17.308594-1.949219-35.113281-7.375-49.785156 24.632813-22.476563 37.082031-54.914063 33.730469-88.230469 10.917968-19.523437 12.679687-43.152344 4.199218-64.433594 7.78125-21.183593 7.90625-44.816406-.144531-66.265625 4.324219-6.125 8.363281-11.621094 11.890625-16.300781 9.140625-12.125 7.6875-29.125-3.382812-39.542969zm-136.695313 308.386719c-13.464843 11.644531-28.582031 21.007813-45.082031 27.90625-41.09375 17.171875-88.582031 17.171875-129.664062 0-.035157-.015625-.074219-.023437-.109376-.039063-.074218-.03125-.144531-.070312-.21875-.097656-22.445312-9.4375-42.703124-23.777344-59.15625-41.789062-.234374-.253906-5-5.75-5.332031-6.148438.246094-9.050781.292969-19.703125.289063-32.957031 0-21.277344-.152344-41.167969 4.539062-62.042969 1.640625-7.300781 3.269532-14.628906 4.175782-22.0625.09375-.105468.179687-.214844.269531-.320312 9.476562-10.734375 23.421875-17.023438 37.734375-17.023438 20.96875 0 40.398437 13.613282 47.464844 33.382813 2.648437 7.40625 2.929687 14.902343 2.929687 22.671875 0 9.21875 7.503906 16.71875 16.722656 16.71875h31.03125c9.21875 0 16.71875-7.5 16.71875-16.71875v-4.800782c0-28.148437 22.515625-51.144531 50.1875-51.253906h.1875c14.398438-.03125 28.609375 6.445313 38.023438 17.332032.929687 7.617187 2.578125 14.953124 4.175781 22.074218 4.054688 18.035156 4.566406 36.453125 4.542969 54.859375v.5c-.019531 16.4375 0 29.121094.285156 39.648438-.238281.285156-12.878906 14.253906-19.714844 20.160156zm-109.925781 55.855469c9.085938 0 18.199219-.660156 27.1875-1.988282-3.550781 8.292969-11.136719 20.304688-27.1875 31.183594-16.066406-10.890625-23.652344-22.914062-27.199219-31.199218.351563.054687 18.441407 2.003906 27.199219 2.003906zm141.640625-274.203125c.410156.644531.820313 1.292969 1.230469 1.945312-2.597656 4.285157-5.160156 8.75-7.578125 13.378907-7.417969 14.1875-13.277344 29.394531-14.914063 45.425781-11.023437-7.8125-24.511718-12.03125-38.015625-11.976563-28.054687.113282-52.023437 18.277344-61.167969 43.570313-3.199218 8.84375-3.957031 18.082031-3.957031 27.484375 0 .949218-.773437 1.722656-1.722656 1.722656h-31.03125c-.949219 0-1.722656-.773438-1.722656-1.722656 0-8.339844-.371094-16.683594-2.800781-24.714844-8.257813-27.246094-34.171876-46.339844-62.589844-46.339844-13.429688 0-26.792969 4.214844-37.75 11.980469-1.484375-14.53125-6.355469-28.140625-12.515625-40.695313-3.019531-6.195312-6.402344-12.21875-9.976563-18.109374.410156-.65625.820313-1.304688 1.230469-1.949219zm-377.984375-79.117188c6.476562-6.09375 17.15625-4.976562 22.226562 2.335938 0 0 33.546876 48.359375 46.832032 68.441406 15.703125 23.742187 32.964844 50.144531 32.351562 79.777344-.003906.09375-.007812.1875-.011718.285156-.542969 21.058594-9.429688 40.929687-9.429688 62.105469 0 27.601562 1.558594 55.8125-1.40625 83.3125-1.15625 10.699218-4.554688 20.605468-11.851562 28.667968-.082032-.902343-.433594-4.613281-.523438-5.507812-1.171875-11.851562-2.988281-26.621094-5.765625-42.507812-.007813-.03125-.015625-.0625-.019531-.097657-1.96875-11.460937-5.335938-23.210937-6.527344-34.941406-1.921875-18.964844 1.484375-37.796875 4.140625-56.515625.011719-.101562.027344-.203125.042969-.304688 3.398437-24.175781-1.152344-42.246093-10.726563-64.390624-17.421875-40.285157-44.558593-79.234376-61.015625-101.066407-4.527344-6.003906-3.800781-14.429687 1.683594-19.59375zm50.867188 139.800781c3.492187 9.460938 6.371093 19.210938 5.808593 29.40625-.074219-.085937-.148437-.175781-.222656-.261718-4.332031-5.136719-8.601563-10.328125-12.777344-15.589844-9.828125-12.386719-20.867187-24.910156-27.972656-39.121094-.007813-.015625-.015625-.03125-.023437-.046875-8.238282-16.457031-10.5625-35.402343-6.585938-53.332031 16.398438 24.855469 31.429688 50.9375 41.773438 78.945312zm-40.667969-5.835937c9.183593 12.855469 18.84375 25.378906 28.886719 37.578125 4.894531 5.953125 9.890624 11.816406 15.027343 17.5625.054688.0625.109375.125.164063.183594-.085938.574218-.753906 4.800781-.945313 6.339844-.671875 4.542968-1.324219 9.21875-1.855469 14.019531l-27.609374-29.683594c-.011719-.007813-5.21875-6.242187-7.324219-9.691406-7.171875-11.753907-10.078125-25.550781-8.296875-39.097657.027344.039063.054687.078126.082031.117188.613281.898438 1.238281 1.785156 1.871094 2.671875zm6.933593 60.785156 33.136719 35.628907c.007813 2.273437.082031 4.578124.207031 6.898437.398438 7.308594 1.519532 14.628906 3.125 21.816406l-3.886718-3.191406c-18.871094-15.519531-30.359375-37.484375-32.582032-61.152344zm37.660157 161.613281c-14.136719-26.6875-13.441407-59.238281-6.453125-82.175781l3.910156 3.21875 5.863281 4.820313c2.292969 13.542968 3.847657 26.085937 4.882813 36.035156.96875 9.34375 2.121094 21.144531 13.878906 22.289062.015625 0 .03125.003907.046875.003907 6.0625.554687 10.417969-2.652344 14.175781-6.996094 8.832032-10.210937 12.835938-21.980469 14.335938-35.269531 14.746094 15.085937 31.769531 27.355468 50.335937 36.441406-9.925781 11.269531-26.667969 34.136719-35.628906 68.058594-30.863281-7.203125-52.832031-22.796875-65.347656-46.425782zm106.308593-4.25v90.972657h-31.894531c1.84375-43.566407 19.429688-74.390625 31.894531-90.972657zm14.996094-8.902343c5.289063 1.832031 10.675782 3.414062 16.136719 4.761719 2.609375 10.140624 11.382813 32.1875 40.1875 49.859374 2.382813 1.460938 5.464844 1.457032 7.84375 0 28.765625-17.648437 37.558594-39.675781 40.179687-49.828124 5.464844-1.34375 10.847657-2.941407 16.144532-4.777344v99.859375h-120.492188zm135.492188 99.875v-90.972657c12.460937 16.582032 30.046875 47.40625 31.890625 90.972657zm111.382812-187.183594-3.886718 3.195313c.121093-.535157.234374-1.070313.355468-1.609376 2.023438-8.902343 2.941406-17.984374 2.976563-27.109374l33.136719-35.628907c-2.222657 23.667969-13.710938 45.632813-32.582032 61.152344zm41.46875-124.726563c1.78125 13.539063-1.125 27.332032-8.285156 39.078126-2.109375 3.46875-4.570312 6.738281-7.335938 9.710937l-27.609374 29.6875c-.359376-3.242187-.773438-6.421875-1.210938-9.542969-.003906-.023437-1.40625-9.59375-1.589844-10.816406.054688-.0625 1.984375-2.226562 2.882813-3.253906 13.238281-15.0625 25.636719-30.851563 37.507812-47.007813 1.878907-2.558593 3.785157-5.101562 5.558594-7.738281.027344-.039062.054687-.078125.082031-.117188zm-.847656-70.324218c3.976562 17.933594 1.652344 36.878906-6.585938 53.335937-.007812.015625-.015624.03125-.019531.042969-9.351562 18.101562-23.496093 33.9375-36.417969 49.539062-.289062.347657-3.1875 3.820313-4.335937 5.175782-.074219.085937-.148437.175781-.21875.261718-.371094-6.683593 0-12.78125 1.863281-17.785156 1.542969-4.148437 2.746094-8.425781 4.296875-12.578125 10.347657-27.65625 26.734375-55.734375 41.417969-77.992187zm10.777344-41.257813c-16.453125 21.832031-43.59375 60.78125-61.015625 101.066407-4.273438 9.882812-8.519531 19.957031-11.023438 30.460937-3.289062 13.820313-.574219 28.335937 1.503907 42.136719 2.421874 16.070312 4.625 32.355468 2.972656 48.621094-1.210938 11.933593-4.53125 23.515624-6.589844 35.308593-2.734375 15.683594-4.535156 30.292969-5.699219 42.054688-.191406 1.894531-.371093 3.789062-.542969 5.6875-6.6875-7.390625-10.058593-13.699219-11.722656-27.550781-3.359375-27.90625-1.535156-56.386719-1.535156-84.433594 0-.035156 0-.070313 0-.105469-.066406-20.410156-8.222656-39.667969-9.351562-59.9375-1.648438-30.460937 16.175781-57.804687 32.265624-82.125 13.269532-20.0625 46.804688-68.398437 46.832032-68.441406 5.066406-7.304688 15.753906-8.425781 22.222656-2.335938 5.484375 5.164063 6.210938 13.585938 1.683594 19.59375zm0 0"/></svg>