<svg height="512pt" viewBox="-23 0 512 512" width="512pt" xmlns="http://www.w3.org/2000/svg"><path d="m112.097656 161.234375-46.523437-15.796875-50.96875 15.796875c-4.636719 31.824219-7.105469 64.339844-7.105469 94.765625s2.46875 62.9375 7.105469 94.765625l45.191406 15.796875 52.300781-15.796875zm0 0" fill="#b27858"/><path d="m232.902344 7.5h-68.554688l-67.167968 39.566406 34.3125 39.5625 50.707031 17.8125 50.703125-17.8125 39.320312-39.5625zm0 0" fill="#c68c6a"/><path d="m102.144531 7.5c-26.703125 0-50.617187 16.542969-60.023437 41.535156-4.425782 11.746094-8.46875 24.367188-12.109375 37.59375l35.5625 17.8125 65.917969-17.8125c16.039062-48.671875 32.855468-79.128906 32.855468-79.128906zm0 0" fill="#b27858"/><path d="m423.6875 49.035156c-9.40625-24.992187-33.320312-41.535156-60.027344-41.535156h-62.203125l-9.070312 39.566406 41.925781 39.5625 59.558594 17.8125 41.921875-17.8125c-3.636719-13.226562-7.679688-25.847656-12.105469-37.59375zm0 0" fill="#c68c6a"/><path d="m301.457031 7.5h-68.554687v79.128906l50.707031 17.8125 50.703125-17.8125c-16.039062-48.671875-32.855469-79.128906-32.855469-79.128906zm0 0" fill="#b27858"/><path d="m232.902344 504.5h-68.554688l-67.167968-39.566406 34.3125-39.5625 50.707031-17.8125 50.703125 17.8125 39.320312 39.5625zm0 0" fill="#c68c6a"/><path d="m262.785156 455.441406-29.882812-30.070312h-101.410156l-26.078126 30.070312zm0 0" fill="#b27858"/><path d="m102.144531 504.5c-26.703125 0-50.617187-16.542969-60.023437-41.535156-4.425782-11.746094-8.46875-24.367188-12.109375-37.59375l35.5625-17.8125 65.917969 17.8125c16.039062 48.671875 32.855468 79.128906 32.855468 79.128906zm0 0" fill="#b27858"/><path d="m423.6875 462.964844c-9.40625 24.992187-33.320312 41.535156-60.027344 41.535156h-62.199218l-9.074219-39.566406 41.929687-39.5625 59.554688-17.8125 41.925781 17.8125c-3.640625 13.226562-7.683594 25.847656-12.109375 37.59375zm0 0" fill="#c68c6a"/><path d="m426.421875 455.441406c3.367187-9.558594 6.5-19.621094 9.375-30.070312h-101.484375l-31.867188 30.070312zm0 0" fill="#b27858"/><path d="m301.457031 504.5h-68.554687v-79.128906l50.707031-17.8125 50.703125 17.8125c-16.039062 48.671875-32.855469 79.128906-32.855469 79.128906zm0 0" fill="#b27858"/><path d="m353.710938 161.234375 46.519531-15.796875 50.96875 15.796875c4.636719 31.824219 7.109375 64.339844 7.109375 94.765625s-2.472656 62.9375-7.109375 94.765625l-45.191407 15.796875-52.296874-15.796875zm0 0" fill="#c68c6a"/><path d="m454.914062 191.304688c-1.019531-10.035157-2.261718-20.085938-3.714843-30.070313h-97.488281v30.070313zm0 0" fill="#b27858"/><path d="m353.710938 161.234375-55.78125-15.796875-65.027344 15.796875-30.578125 94.765625 30.578125 94.765625 60.40625 15.796875 60.402344-15.796875c5.566406-29.203125 9.246093-61.214844 9.246093-94.765625s-3.679687-65.558594-9.246093-94.765625zm0 0" fill="#b27858"/><g fill="#935b43"><path d="m112.097656 191.304688v-30.070313h-97.488281c-1.457031 9.984375-2.699219 20.035156-3.714844 30.070313zm0 0"/><path d="m323.519531 455.441406c3.503907-9 7.167969-19.066406 10.792969-30.070312h-101.410156v30.070312zm0 0"/><path d="m142.289062 455.441406c-3.503906-9-7.167968-19.066406-10.796874-30.070312h-101.480469c2.875 10.449218 6.007812 20.511718 9.375 30.070312zm0 0"/><path d="m358.570312 191.304688c-1.367187-10.300782-3.007812-20.34375-4.859374-30.070313h-120.808594l-9.703125 30.070313zm0 0"/></g><path d="m167.878906 145.4375-55.78125 15.796875c-5.566406 29.203125-9.246094 61.214844-9.246094 94.765625s3.679688 65.558594 9.246094 94.765625l60.402344 15.796875 60.402344-15.796875v-189.53125zm0 0" fill="#c68c6a"/><path d="m451.199219 161.234375h-436.589844c3.757813-25.800781 8.949219-51.164063 15.402344-74.605469h405.785156c6.449219 23.441406 11.640625 48.804688 15.402344 74.605469zm0 0" fill="#ffc471"/><path d="m248.027344 123.933594c0 8.351562-6.773438 15.121094-15.125 15.121094-8.351563 0-15.121094-6.769532-15.121094-15.121094 0-8.351563 6.769531-15.125 15.121094-15.125 8.351562 0 15.125 6.773437 15.125 15.125zm0 0" fill="#ffb85c"/><path d="m133.601562 123.933594c0 8.351562-6.773437 15.121094-15.125 15.121094-8.351562 0-15.121093-6.769532-15.121093-15.121094 0-8.351563 6.769531-15.125 15.121093-15.125 8.351563 0 15.125 6.773437 15.125 15.125zm0 0" fill="#ffb85c"/><path d="m362.449219 123.933594c0 8.351562-6.769531 15.121094-15.121094 15.121094s-15.121094-6.769532-15.121094-15.121094c0-8.351563 6.769531-15.125 15.121094-15.125s15.121094 6.773437 15.121094 15.125zm0 0" fill="#ffb85c"/><path d="m451.199219 350.765625c-3.761719 25.800781-8.953125 51.164063-15.40625 74.605469h-405.78125c-6.449219-23.441406-11.644531-48.804688-15.402344-74.605469zm0 0" fill="#ffc471"/><path d="m248.027344 388.066406c0 8.351563-6.773438 15.125-15.125 15.125-8.351563 0-15.121094-6.773437-15.121094-15.125 0-8.351562 6.769531-15.121094 15.121094-15.121094 8.351562 0 15.125 6.769532 15.125 15.121094zm0 0" fill="#ffb85c"/><path d="m133.601562 388.066406c0 8.351563-6.773437 15.125-15.125 15.125-8.351562 0-15.121093-6.773437-15.121093-15.125 0-8.351562 6.769531-15.121094 15.121093-15.121094 8.351563 0 15.125 6.769532 15.125 15.121094zm0 0" fill="#ffb85c"/><path d="m362.449219 388.066406c0 8.351563-6.769531 15.125-15.121094 15.125s-15.121094-6.773437-15.121094-15.125c0-8.351562 6.769531-15.121094 15.121094-15.121094s15.121094 6.769532 15.121094 15.121094zm0 0" fill="#ffb85c"/><path d="m232.902344 191.304688v-30.070313h-120.804688c-1.855468 9.726563-3.492187 19.769531-4.859375 30.070313zm0 0" fill="#b27858"/><path d="m232.902344 146.554688c12.476562 0 22.625-10.148438 22.625-22.621094 0-12.476563-10.148438-22.625-22.625-22.625-12.472656 0-22.621094 10.148437-22.621094 22.625 0 12.472656 10.148438 22.621094 22.621094 22.621094zm0-30.246094c4.203125 0 7.625 3.421875 7.625 7.625s-3.421875 7.621094-7.625 7.621094-7.621094-3.417969-7.621094-7.621094 3.417969-7.625 7.621094-7.625zm0 0"/><path d="m141.101562 123.933594c0-12.476563-10.148437-22.625-22.625-22.625-12.472656 0-22.621093 10.148437-22.621093 22.625 0 12.472656 10.148437 22.621094 22.621093 22.621094 12.476563 0 22.625-10.148438 22.625-22.621094zm-30.246093 0c0-4.203125 3.417969-7.625 7.621093-7.625 4.203126 0 7.625 3.421875 7.625 7.625s-3.421874 7.621094-7.625 7.621094c-4.203124 0-7.621093-3.417969-7.621093-7.621094zm0 0"/><path d="m347.328125 146.554688c12.476563 0 22.625-10.148438 22.625-22.621094 0-12.476563-10.148437-22.625-22.625-22.625-12.472656 0-22.621094 10.148437-22.621094 22.625 0 12.472656 10.148438 22.621094 22.621094 22.621094zm0-30.246094c4.203125 0 7.625 3.421875 7.625 7.625s-3.421875 7.621094-7.625 7.621094-7.621094-3.417969-7.621094-7.621094 3.421875-7.625 7.621094-7.625zm0 0"/><path d="m232.902344 365.445312c-12.472656 0-22.621094 10.148438-22.621094 22.625 0 12.472657 10.148438 22.621094 22.621094 22.621094 12.476562 0 22.625-10.148437 22.625-22.621094 0-12.476562-10.148438-22.625-22.625-22.625zm0 30.246094c-4.203125 0-7.621094-3.421875-7.621094-7.625s3.417969-7.621094 7.621094-7.621094 7.625 3.417969 7.625 7.621094-3.421875 7.625-7.625 7.625zm0 0"/><path d="m118.476562 365.445312c-12.472656 0-22.621093 10.148438-22.621093 22.625 0 12.472657 10.148437 22.621094 22.621093 22.621094 12.476563 0 22.625-10.148437 22.625-22.621094 0-12.476562-10.148437-22.625-22.625-22.625zm0 30.246094c-4.203124 0-7.621093-3.421875-7.621093-7.625s3.417969-7.621094 7.621093-7.621094c4.203126 0 7.625 3.417969 7.625 7.621094s-3.421874 7.625-7.625 7.625zm0 0"/><path d="m347.328125 365.445312c-12.472656 0-22.621094 10.148438-22.621094 22.625 0 12.472657 10.148438 22.621094 22.621094 22.621094 12.476563 0 22.625-10.148437 22.625-22.621094 0-12.476562-10.148437-22.625-22.625-22.625zm0 30.246094c-4.203125 0-7.621094-3.421875-7.621094-7.625s3.417969-7.621094 7.621094-7.621094 7.625 3.417969 7.625 7.621094-3.421875 7.625-7.625 7.625zm0 0"/><path d="m363.660156 512c29.660156 0 56.601563-18.644531 67.042969-46.390625 4.421875-11.726563 8.566406-24.59375 12.320313-38.246094 0 0 0 0 0-.003906 6.472656-23.507813 11.71875-48.910156 15.59375-75.507813 0 0 .003906 0 .003906-.003906 4.699218-32.265625 7.183594-65.410156 7.183594-95.847656 0-30.300781-2.460938-63.273438-7.121094-95.398438-.027344-.34375-.070313-.679687-.144532-1.011718-3.867187-26.394532-9.089843-51.605469-15.515624-74.949219v-.003906c-3.753907-13.648438-7.902344-26.519531-12.320313-38.242188-10.441406-27.75-37.382813-46.394531-67.042969-46.394531h-261.515625c-29.65625 0-56.597656 18.644531-67.042969 46.390625-4.417968 11.722656-8.5625 24.589844-12.320312 38.246094v.003906c-6.472656 23.507813-11.71875 48.910156-15.59375 75.507813v.003906c-4.703125 32.261718-7.1875 65.40625-7.1875 95.847656 0 30.4375 2.484375 63.582031 7.1875 95.847656v.003906c3.875 26.597657 9.125 52 15.59375 75.507813v.003906c3.757812 13.652344 7.902344 26.519531 12.320312 38.242188 10.445313 27.75 37.386719 46.394531 67.042969 46.394531zm-327.898437-417.871094h394.289062c4.953125 18.792969 9.117188 38.785156 12.421875 59.605469h-419.136718c3.304687-20.820313 7.46875-40.8125 12.425781-59.605469zm204.640625-79.128906h56.523437c.054688.109375 10.984375 23.027344 15.75 34.648438 3.992188 9.722656 7.707031 19.554687 11.171875 29.480468h-83.445312zm189.644531 402.871094h-394.285156c-4.953125-18.792969-9.121094-38.78125-12.425781-59.605469h419.136718c-3.304687 20.820313-7.472656 40.8125-12.425781 59.605469zm-261.160156 79.128906c-4.113281-8.042969-13.933594-28.238281-24.320313-56.816406-.886718-2.429688-1.753906-4.871094-2.605468-7.3125h83.441406v64.128906zm-153.886719-241c0-27.714844 2.113281-57.75 6.125-87.265625h81.984375c-1.460937 8.398437-2.734375 16.832031-3.792969 25.289063-.515625 4.113281 2.398438 7.863281 6.507813 8.378906 4.105469.519531 7.859375-2.394532 8.375-6.507813 1.144531-9.085937 2.542969-18.144531 4.152343-27.160156h107.050782v174.53125h-107.0625c-5.15625-28.867187-7.988282-57.9375-7.988282-87.265625 0-10.03125.339844-20.3125 1.011719-30.550781.273438-4.132813-2.855469-7.703125-6.992187-7.972657-4.128906-.269531-7.703125 2.859376-7.972656 6.992188-.695313 10.5625-1.046876 21.171875-1.046876 31.53125 0 29.234375 2.757813 58.46875 7.753907 87.265625h-81.980469c-4.011719-29.515625-6.125-59.550781-6.125-87.265625zm332.46875-87.265625c5.144531 28.785156 7.988281 58.011719 7.988281 87.265625 0 8.074219-.222656 16.339844-.660156 24.5625-.21875 4.136719 2.957031 7.667969 7.09375 7.886719 4.078125.210937 7.667969-3.003907 7.886719-7.089844.449218-8.488281.679687-17.019531.679687-25.359375 0-29.234375-2.742187-58.472656-7.757812-87.265625h81.984375c4.011718 29.511719 6.125 59.550781 6.125 87.265625s-2.113282 57.75-6.125 87.265625h-81.984375c.042969-.234375 3.386719-21.164063 4.53125-31.457031.492187-4.320313-3.023438-8.304688-7.371094-8.347656-3.804687-.046876-7.09375 2.796874-7.535156 6.652343-1.261719 11.101563-2.914063 22.15625-4.878907 33.152344h-107.042968v-174.53125zm-245.324219 328.265625c-23.445312 0-44.75-14.738281-53.003906-36.679688-3.222656-8.550781-6.300781-17.75-9.183594-27.449218h86.136719c4.332031 12.777344 9.058594 25.421875 14.253906 37.871094 3.679688 8.824218 7.550782 17.570312 11.722656 26.171874.003907.007813.007813.019532.015626.03125.007812.015626.019531.035157.027343.054688zm138.257813-64.128906h83.445312c-.773437 2.21875-1.5625 4.433594-2.363281 6.644531-7.039063 19.414063-15.097656 38.945313-24.5625 57.484375h-56.519531zm123.257812 64.128906h-49.964844c.007813-.019531.019532-.039062.027344-.054688.003906-.011718.011719-.019531.015625-.03125 7.996094-16.796874 15.1875-33.925781 21.539063-51.410156 1.523437-4.195312 3.003906-8.40625 4.4375-12.636718h86.136718c-2.882812 9.699218-5.960937 18.898437-9.183593 27.453124-8.257813 21.941407-29.558594 36.679688-53.007813 36.679688zm0-482c23.449219 0 44.75 14.738281 53.007813 36.679688 3.226562 8.554687 6.300781 17.753906 9.183593 27.449218h-86.136718c-3.617188-10.660156-7.480469-21.257812-11.722656-31.683594-4.394532-10.921874-9.097657-21.726562-14.234376-32.316406-.011718-.027344-.027343-.058594-.039062-.085937-.007812-.015625-.015625-.027344-.023438-.042969zm-138.257812 64.128906h-83.441406c3.460937-9.925781 7.175781-19.765625 11.175781-29.488281 4.734375-11.53125 15.691406-34.527344 15.75-34.640625h56.519531v64.128906zm-176.261719-27.449218c8.257813-21.941407 29.558594-36.679688 53.003906-36.679688h49.96875c-.007812.015625-.015625.027344-.023437.042969-.011719.027343-.027344.054687-.039063.082031-5.113281 10.605469-9.839843 21.394531-14.234375 32.320312-4.203125 10.449219-8.109375 21.019532-11.722656 31.683594h-86.136719c2.882813-9.699218 5.960938-18.898437 9.183594-27.449218zm0 0"/></svg>