<svg height="511pt" viewBox="-18 0 511 511.99901" width="511pt" xmlns="http://www.w3.org/2000/svg"><g fill="#b27858"><path d="m202.691406 347.03125-35.5-130.019531h-62.988281l-35.488281 130.019531 35.488281 130.019531h62.988281v-.023437zm0 0"/><path d="m309.1875 217.011719h-70.996094l-35.5 130.019531 35.5 130.019531h71l31.488282-130.019531zm0 0"/><path d="m372.175781 217.011719-31.496093 130.019531 31.496093 130.019531h70.976563v-260.039062zm0 0"/></g><path d="m33.226562 217.011719h70.976563v260.039062h-70.976563zm0 0" fill="#a67052"/><path d="m167.191406 217.011719h70.996094v260.039062h-70.996094zm0 0" fill="#a67052"/><path d="m309.1875 217.011719h62.988281v260.039062h-62.988281zm0 0" fill="#a67052"/><path d="m290.105469 296.820312h-103.832031c-10.539063 0-19.085938 8.542969-19.085938 19.082032v161.144531h142.003906v-161.144531c0-10.539063-8.542968-19.082032-19.085937-19.082032zm0 0" fill="#c68c6a"/><path d="m198.839844 329.144531h78.699218v147.902344h-78.699218zm0 0" fill="#b27858"/><path d="m411.832031 95.589844c-3.128906-8.730469-11.402343-14.550782-20.671875-14.550782h-305.941406c-9.269531 0-17.542969 5.820313-20.667969 14.550782l-52.675781 146.984375h452.628906zm0 0" fill="#935b43"/><path d="m11.875 242.574219 281.300781-232.617188c4.53125-3.75 11.238281-3.167969 15.054688 1.3125l15.601562 18.300781c3.816407 4.476563 3.332031 11.191407-1.085937 15.074219l-274.214844 240.929688c-4.511719 3.964843-11.402344 3.46875-15.300781-1.105469l-22.6875-26.613281c-3.898438-4.574219-3.296875-11.453125 1.332031-15.28125zm0 0" fill="#c68c6a"/><path d="m217.9375 72.171875-40.402344 33.410156 37.925782 33.320313 36.839843-32.363282zm0 0" fill="#b27858"/><path d="m464.503906 242.574219-281.300781-232.617188c-4.53125-3.75-11.238281-3.167969-15.054687 1.3125l-15.601563 18.300781c-3.816406 4.476563-3.332031 11.191407 1.085937 15.074219l274.214844 240.929688c4.511719 3.964843 11.402344 3.472656 15.300782-1.101563l22.6875-26.617187c3.898437-4.574219 3.296874-11.453125-1.332032-15.28125zm0 0" fill="#c68c6a"/><path d="m452.5625 449.578125h-428.742188c-6.597656 0-11.945312 5.347656-11.945312 11.941406v31.054688c0 6.59375 5.347656 11.941406 11.945312 11.941406h428.742188c6.59375 0 11.941406-5.347656 11.941406-11.941406v-31.054688c0-6.59375-5.347656-11.941406-11.941406-11.941406zm0 0" fill="#935b43"/><path d="m57.519531 93.042969-52.089843 145.351562c-2.785157 2.96875-4.5 6.75-4.859376 10.875-.429687 4.914063 1.097657 9.6875 4.296876 13.4375l20.890624 24.503907v154.851562h-1.910156c-10.71875 0-19.441406 8.722656-19.441406 19.441406v31.054688c0 10.71875 8.722656 19.441406 19.441406 19.441406h428.742188c10.722656 0 19.445312-8.722656 19.445312-19.441406v-31.054688c0-10.71875-8.722656-19.441406-19.445312-19.441406h-1.90625v-154.851562s20.882812-24.496094 20.890625-24.503907c5.949219-6.980469 5.707031-17.628906-.566407-24.316406l-52.085937-145.347656c-4.183594-11.675781-15.328125-19.519531-27.730469-19.519531h-89.9375l26.472656-23.261719c7.453126-6.550781 8.28125-18.023438 1.84375-25.574219 0 0-15.589843-18.289062-15.601562-18.300781-6.386719-7.496094-17.960938-8.5-25.542969-2.226563l-50.207031 41.515625-50.203125-41.515625c-7.644531-6.324218-19.105469-5.324218-25.542969 2.226563l-15.601562 18.300781c-6.4375 7.550781-5.609375 19.023438 1.84375 25.574219l26.472656 23.261719h-89.9375c-12.402344 0-23.546875 7.84375-27.730469 19.519531zm-42.003906 157.53125c.042969-.511719.253906-1.476563 1.171875-2.234375l64.667969-53.476563c3.191406-2.640625 3.640625-7.371093 1-10.5625-2.640625-3.191406-7.367188-3.640625-10.5625-1l-43.605469 36.0625 43.453125-121.257812c2.054687-5.730469 7.523437-9.582031 13.609375-9.582031h101.15625s-93.09375 76.984374-93.152344 77.03125c-3.363281 2.78125-3.585937 8.070312-.484375 11.125 2.675781 2.636718 7.152344 2.824218 10.042969.4375l98.023438-81.0625 26.019531 22.863281s-183.195313 160.960937-183.242188 161.003906c-1.304687 1.144531-3.464843 1.050781-4.644531-.332031l-22.6875-26.613282c-.769531-.90625-.8125-1.894531-.765625-2.402343zm349.191406 191.488281h-47.984375v-126.175781c0-.039063-.003906-.078125-.003906-.113281v-65.714844h47.988281zm-94.636719 0h-63.699218v-105.433594h63.699218zm7.5-120.433594h-78.699218c-4.140625 0-7.5 3.359375-7.5 7.5v112.933594h-16.648438v-126.234375c.03125-5.957031 4.597656-10.875 10.402344-11.464844.386719-.039062 105.011719-.058593 105.011719-.058593 6.355469 0 11.542969 5.160156 11.582031 11.511718v126.246094h-16.648438v-112.933594c0-4.140625-3.359374-7.5-7.5-7.5zm81.46875-86.570312h-241.636718l120.820312-106.152344zm-172.734374 54.242187c-3.914063 0-7.992188.917969-11.582032 2.660157v-41.902344h55.996094v39.242187zm59.417968-39.242187h55.996094v41.902344c-.863281-.417969-1.753906-.789063-2.664062-1.117188-2.851563-1.019531-5.886719-1.542969-8.917969-1.542969h-44.414063zm-133.988281 0h47.988281v65.636718c0 .0625-.003906.128907-.003906.191407v126.175781h-47.984375zm-70.976563 45.667968c.042969.273438 4.578126-.457031 5.007813-.542968 2.890625-.589844 5.539063-2.050782 7.75-3.992188.003906-.003906 43.21875-37.972656 43.21875-37.972656v188.84375h-55.976563s0-146.28125 0-146.335938zm411.832032 161.335938c2.449218 0 4.441406 1.992188 4.441406 4.441406v31.054688c0 2.449218-1.992188 4.441406-4.441406 4.441406h-428.742188c-2.445312 0-4.4375-1.996094-4.4375-4.441406v-31.054688c0-2.449218 1.992188-4.441406 4.4375-4.441406zm-72.882813-15v-188.84375s43.21875 37.972656 43.21875 37.976562c3.464844 3.039063 8.148438 4.710938 12.757813 4.527344v146.339844zm-81.722656-426.34375c1.363281-1.125 3.425781-.941406 4.570313.398438l15.597656 18.300781c1.152344 1.351562 1.003906 3.402343-.328125 4.574219l-42.515625 37.355468-25.320313-20.9375s47.996094-39.691406 47.996094-39.691406zm-139.699219 18.703125 15.601563-18.304687c1.152343-1.347657 3.203125-1.527344 4.570312-.398438 0 0 124.355469 102.839844 124.464844 102.929688 3.140625 2.59375 7.972656 2.125 10.5625-1 2.636719-3.195313 2.191406-7.921876-1-10.5625l-22.449219-18.5625h101.15625c6.085938 0 11.554688 3.851562 13.609375 9.582031l43.453125 121.257812s-112.699218-93.199219-112.773437-93.261719c-3.128907-2.585937-7.976563-2.125-10.5625 1-2.640625 3.191407-2.191407 7.921876 1 10.5625 0 0 133.835937 110.675782 133.839843 110.675782 1.386719 1.148437 1.566407 3.269531.402344 4.636718l-22.6875 26.613282c-1.152344 1.34375-3.316406 1.503906-4.644531.335937 0 0-274.210937-240.929687-274.210937-240.929687-1.332032-1.175782-1.480469-3.226563-.332032-4.574219zm0 0"/></svg>