<svg height="512pt" viewBox="-8 0 512 512" width="512pt" xmlns="http://www.w3.org/2000/svg"><path d="m404.453125 7.5h-313.652344c-6.464843 0-11.707031 5.242188-11.707031 11.707031v399.3125h337.066406v-399.3125c0-6.464843-5.242187-11.707031-11.707031-11.707031zm0 0" fill="#edebec"/><path d="m359.03125 57.261719h-111.40625l-22.09375 168.703125 22.09375 168.699218h126.761719v-322.046874c0-8.480469-6.875-15.355469-15.355469-15.355469zm0 0" fill="#ffb85c"/><path d="m247.625 57.261719v337.402343h-126.757812v-322.046874c0-8.480469 6.875-15.355469 15.351562-15.355469zm0 0" fill="#ffc471"/><path d="m156.832031 93.230469h54.824219v265.46875h-54.824219zm0 0" fill="#ffb85c"/><path d="m283.59375 93.230469h54.824219v265.46875h-54.824219zm0 0" fill="#ffc471"/><path d="m439.355469 394.664062h-383.460938c-6.863281 0-12.425781 5.5625-12.425781 12.425782v30.066406c0 6.863281 5.5625 12.425781 12.425781 12.425781l191.730469 27.457031 191.734375-27.457031c6.863281 0 12.425781-5.5625 12.425781-12.425781v-30.066406c0-6.859375-5.566406-12.425782-12.429687-12.425782zm0 0" fill="#d2d2d2"/><path d="m475.324219 449.582031h-455.398438c-6.863281 0-12.425781 5.5625-12.425781 12.425781v30.066407c0 6.863281 5.5625 12.425781 12.425781 12.425781h455.398438c6.863281 0 12.425781-5.5625 12.425781-12.425781v-30.066407c0-6.863281-5.5625-12.425781-12.425781-12.425781zm0 0" fill="#edebec"/><path d="m211.660156 85.730469h-54.824218c-4.144532 0-7.5 3.359375-7.5 7.5v265.46875c0 4.140625 3.355468 7.5 7.5 7.5h54.824218c4.140625 0 7.5-3.359375 7.5-7.5v-265.46875c0-4.140625-3.359375-7.5-7.5-7.5zm-7.5 265.46875h-39.824218v-250.46875h39.824218zm0 0"/><path d="m283.59375 366.199219h54.824219c4.140625 0 7.5-3.359375 7.5-7.5v-265.46875c0-4.140625-3.359375-7.5-7.5-7.5h-54.824219c-4.144531 0-7.5 3.359375-7.5 7.5v265.46875c0 4.140625 3.355469 7.5 7.5 7.5zm7.5-265.46875h39.824219v250.46875h-39.824219zm0 0"/><path d="m495.25 492.074219v-30.066407c0-10.984374-8.9375-19.925781-19.925781-19.925781h-16.683594c.40625-1.578125.644531-3.222656.644531-4.925781v-30.0625c0-10.988281-8.941406-19.925781-19.929687-19.925781h-15.695313v-367.960938c0-10.589843-8.617187-19.207031-19.207031-19.207031h-218.367187c-4.144532 0-7.5 3.359375-7.5 7.5s3.355468 7.5 7.5 7.5h218.367187c2.320313 0 4.207031 1.886719 4.207031 4.207031v367.957031h-26.773437v-314.546874c0-12.601563-10.253907-22.855469-22.855469-22.855469h-222.8125c-12.601562 0-22.851562 10.253906-22.851562 22.855469v314.546874h-26.773438v-367.957031c0-2.320312 1.886719-4.207031 4.207031-4.207031h65.285157c4.140624 0 7.5-3.359375 7.5-7.5s-3.359376-7.5-7.5-7.5h-65.285157c-10.589843 0-19.207031 8.617188-19.207031 19.207031v367.957031h-15.699219c-10.988281 0-19.925781 8.941407-19.925781 19.925782v30.066406c0 1.703125.234375 3.347656.640625 4.925781h-16.683594c-10.988281 0-19.925781 8.9375-19.925781 19.925781v30.0625c0 10.992188 8.9375 19.929688 19.925781 19.929688h455.398438c10.988281 0 19.925781-8.9375 19.925781-19.925781zm-128.363281-419.457031v314.546874h-111.761719v-322.402343h103.90625c4.332031 0 7.855469 3.523437 7.855469 7.855469zm-238.519531 0c0-4.332032 3.523437-7.855469 7.851562-7.855469h103.90625v322.402343h-111.757812zm351.882812 419.457031c0 2.714843-2.210938 4.925781-4.925781 4.925781h-455.398438c-2.714843 0-4.925781-2.210938-4.925781-4.925781v-30.066407c0-2.714843 2.210938-4.925781 4.925781-4.925781h328.160157c4.140624 0 7.5-3.355469 7.5-7.5 0-4.140625-3.359376-7.5-7.5-7.5h-292.191407c-2.71875 0-4.925781-2.210937-4.925781-4.925781v-30.0625c0-2.714844 2.207031-4.925781 4.925781-4.925781h383.464844c2.714844 0 4.925781 2.210937 4.925781 4.925781v30.0625c0 2.714844-2.210937 4.925781-4.925781 4.925781h-61.273437c-4.140626 0-7.5 3.359375-7.5 7.5 0 4.144531 3.359374 7.5 7.5 7.5h97.238281c2.71875 0 4.929687 2.210938 4.929687 4.925781v30.066407zm0 0"/></svg>