<svg height="511pt" viewBox="1 0 511.99988 511" width="511pt" xmlns="http://www.w3.org/2000/svg"><path d="m94.597656 380.109375 125.953125-125.953125 37.746094 37.742188-125.957031 125.957031zm0 0" fill="#c68c6a"/><path d="m258.304688 291.902344-37.144532 37.144531-37.746094-37.746094 37.144532-37.144531zm0 0" fill="#b27858"/><path d="m276.8125 183.277344-72.191406 72.191406c-4.035156 4.035156-4.035156 10.578125 0 14.617188l37.75 37.75c4.035156 4.035156 10.578125 4.035156 14.617187 0l72.191407-72.191407zm0 0" fill="#c5c4c9"/><path d="m447.269531 96.761719 13.761719-33.265625c1.425781-3.453125.636719-7.421875-2.003906-10.066406-2.644532-2.640626-6.617188-3.433594-10.066406-2.003907l-33.269532 13.761719c-15.921875 6.585938-20.035156 27.242188-7.851562 39.425781 12.1875 12.1875 32.84375 8.074219 39.429687-7.851562zm0 0" fill="#a1a1a5"/><path d="m415.695312 261.273438 33.265626 13.757812c3.453124 1.429688 7.421874.640625 10.066406-2.003906 2.640625-2.640625 3.433594-6.613282 2.003906-10.066406l-13.761719-33.265626c-6.585937-15.921874-27.242187-20.035156-39.425781-7.851562-12.1875 12.183594-8.074219 32.839844 7.851562 39.429688zm0 0" fill="#a1a1a5"/><path d="m251.183594 229.695312-13.757813 33.265626c-1.429687 3.453124-.640625 7.425781 2.003907 10.066406 2.640624 2.644531 6.613281 3.433594 10.066406 2.007812l33.265625-13.761718c15.921875-6.589844 20.035156-27.242188 7.851562-39.429688-12.183593-12.183594-32.839843-8.070312-39.429687 7.851562zm0 0" fill="#a1a1a5"/><path d="m282.761719 65.1875-33.265625-13.761719c-3.453125-1.425781-7.425782-.636719-10.066406 2.003907-2.644532 2.644531-3.433594 6.617187-2.007813 10.066406l13.761719 33.269531c6.585937 15.921875 27.242187 20.035156 39.425781 7.851563 12.1875-12.1875 8.074219-32.84375-7.847656-39.429688zm0 0" fill="#a1a1a5"/><path d="m468.3125 163.230469c0 65.769531-53.316406 119.085937-119.085938 119.085937-65.769531 0-119.085937-53.316406-119.085937-119.085937s53.316406-119.085938 119.085937-119.085938c65.769532 0 119.085938 53.316407 119.085938 119.085938zm0 0" fill="#aeaeb2"/><path d="m433.433594 79.023438c-3.382813-3.382813-6.925782-6.515626-10.59375-9.40625 36.84375 46.738281 33.714844 114.699218-9.40625 157.820312s-111.082032 46.25-157.820313 9.40625c2.894531 3.667969 6.023438 7.207031 9.40625 10.59375 46.507813 46.503906 121.90625 46.503906 168.414063 0 46.507812-46.507812 46.507812-121.910156 0-168.414062zm0 0" fill="#a1a1a5"/><g fill="#c5c4c9"><path d="m381.585938 163.230469c0 17.871093-14.488282 32.355469-32.359376 32.355469-17.867187 0-32.355468-14.484376-32.355468-32.355469 0-17.871094 14.488281-32.355469 32.355468-32.355469 17.871094 0 32.359376 14.484375 32.359376 32.355469zm0 0"/><path d="m465.550781 185.554688 33.253907-13.789063c3.453124-1.433594 5.699218-4.800781 5.699218-8.535156 0-3.738281-2.246094-7.105469-5.699218-8.535157l-33.253907-13.792968c-15.914062-6.601563-33.429687 5.09375-33.429687 22.328125 0 17.230469 17.515625 28.925781 33.429687 22.324219zm0 0"/><path d="m326.898438 279.554688 13.792968 33.253906c1.433594 3.449218 4.800782 5.699218 8.535156 5.699218 3.738282 0 7.105469-2.25 8.535157-5.699218l13.792969-33.253906c6.601562-15.917969-5.09375-33.433594-22.328126-33.433594-17.230468.003906-28.925781 17.515625-22.328124 33.433594zm0 0"/><path d="m232.902344 140.902344-33.253906 13.792968c-3.449219 1.429688-5.699219 4.796876-5.699219 8.535157 0 3.734375 2.25 7.105469 5.699219 8.535156l33.253906 13.792969c15.917968 6.601562 33.433594-5.097656 33.433594-22.328125-.003907-17.230469-17.515626-28.929688-33.433594-22.328125zm0 0"/><path d="m371.554688 46.90625-13.792969-33.253906c-1.429688-3.453125-4.800781-5.703125-8.535157-5.703125-3.734374 0-7.105468 2.25-8.535156 5.703125l-13.792968 33.253906c-6.601563 15.914062 5.097656 33.429688 22.328124 33.429688 17.230469 0 28.929688-17.515626 22.328126-33.429688zm0 0"/></g><path d="m148.882812 403.261719-39.6875-39.691407c-3.5-3.5-9.175781-3.5-12.675781 0l-83.65625 83.660157c-7.160156 7.15625-7.160156 18.765625 0 25.925781l26.4375 26.4375c7.160157 7.160156 18.765625 7.160156 25.925781 0l83.65625-83.65625c3.5-3.5 3.5-9.175781 0-12.675781zm0 0" fill="#aeaeb2"/><path d="m349.222656 123.421875c-10.648437 0-20.65625 4.148437-28.183594 11.675781-15.28125 15.277344-15.382812 40.984375 0 56.363282 7.527344 7.527343 17.535157 11.675781 28.183594 11.675781 10.644532 0 20.652344-4.148438 28.183594-11.675781 15.539062-15.539063 15.539062-40.824219 0-56.363282-7.53125-7.53125-17.539062-11.675781-28.183594-11.675781zm17.574219 57.433594c-9.574219 9.578125-25.585937 9.5625-35.152344 0-9.582031-9.582031-9.570312-25.578125 0-35.152344 9.582031-9.582031 25.582031-9.574219 35.152344 0 9.691406 9.691406 9.691406 25.460937 0 35.152344zm0 0"/><path d="m501.671875 178.742188c6.273437-2.601563 10.328125-8.671876 10.328125-15.464844 0-6.789063-4.054688-12.859375-10.328125-15.460938l-28.882813-11.980468c-3.203124-14.492188-8.875-28.175782-16.777343-40.554688l11.941406-28.867188c2.597656-6.273437 1.171875-13.433593-3.628906-18.238281-3.164063-3.160156-7.367188-4.902343-11.839844-4.902343-2.207031 0-4.359375.429687-6.398437 1.273437l-28.871094 11.941406c-12.378906-7.898437-26.058594-13.582031-40.554688-16.785156l-11.976562-28.875c-2.601563-6.273437-8.671875-10.328125-15.460938-10.328125-6.792968 0-12.863281 4.054688-15.464844 10.328125l-11.976562 28.875c-14.496094 3.203125-28.175781 8.886719-40.554688 16.785156 0 0-28.859374-11.9375-28.871093-11.941406-6.199219-2.566406-13.496094-1.113281-18.238281 3.628906-4.800782 4.800781-6.226563 11.960938-3.628907 18.238281l11.941407 28.871094c-7.898438 12.378906-13.582032 26.058594-16.78125 40.554688l-28.878907 11.976562c-6.273437 2.601563-10.328125 8.671875-10.328125 15.460938 0 6.792968 4.054688 12.863281 10.328125 15.464844l28.878907 11.976562c1.902343 8.617188 4.6875 16.9375 8.289062 24.875l-34.625 34.625c-5.058594 5.058594-6.417969 12.417969-4.117188 18.734375l-85.871093 85.871094c-2.019531-.867188-4.207031-1.328125-6.472657-1.328125-4.398437 0-8.53125 1.710937-11.640624 4.824218l-83.65625 83.65625c-10.070313 10.070313-10.074219 26.460938 0 36.535157 0 0 26.421874 26.421875 26.4375 26.4375 9.957031 9.957031 26.582031 9.949219 36.53125 0l22.601562-22.601563c2.929688-2.929687 2.929688-7.679687 0-10.605468-2.929688-2.929688-7.679688-2.929688-10.605469 0 0 0-22.578125 22.574218-22.601562 22.597656-4.183594 4.183594-11.144531 4.175781-15.320313 0l-26.4375-26.4375c-4.222656-4.222656-4.222656-11.097656 0-15.320313 0 0 83.601563-83.601562 83.660156-83.65625.570313-.574219 1.496094-.570312 2.066407 0l39.6875 39.6875c.570312.570313.570312 1.5 0 2.070313l-39.84375 39.839844c-2.929688 2.929687-2.929688 7.679687 0 10.609374 2.929687 2.929688 7.679687 2.929688 10.605469 0l39.84375-39.84375c4.886718-4.886718 6.042968-12.105468 3.488281-18.105468l85.871093-85.875c1.941407.710937 4.003907 1.101562 6.132813 1.101562 4.761719 0 9.242187-1.855468 12.609375-5.222656l34.625-34.625c7.9375 3.601562 16.261719 6.386719 24.875 8.289062l11.976562 28.878907c2.605469 6.273437 8.671876 10.328125 15.464844 10.328125 6.789063 0 12.859375-4.054688 15.460938-10.328125l11.976562-28.878907c14.496094-3.199218 28.175782-8.882812 40.558594-16.78125l28.871094 11.941407c2.039062.84375 4.191406 1.269531 6.394531 1.269531 11.753906 0 19.953125-12.3125 15.472656-23.140625l-11.945312-28.867187c7.902343-12.382813 13.582031-26.058594 16.785156-40.558594zm-4.695313-15.464844c0 .660156-.347656 1.316406-1.050781 1.609375 0 0-32.542969 13.496093-32.542969 13.496093s-.082031.035157-.082031.035157c-10.988281 4.511719-23.6875-2.769531-23.6875-15.140625 0-11.601563 12.289063-19.863282 23.058594-15.398438 0 0 33.195313 13.769532 33.253906 13.792969.703125.292969 1.050781.949219 1.050781 1.605469zm-65.6875-96.378906 20.53125-8.492188c.648438-.269531 1.40625-.113281 1.898438.378906.496094.496094.644531 1.242188.375 1.894532l-8.492188 20.53125c-.035156-.042969-.074218-.078126-.105468-.121094-4.335938-5.046875-9.050782-9.777344-14.105469-14.101563-.035156-.03125-.066406-.0625-.101563-.089843zm-83.675781-50.324219c.589844-1.417969 2.628907-1.417969 3.214844 0 0 0 13.789063 33.246093 13.792969 33.253906 2.089844 5.042969 1.542968 11.035156-1.535156 15.644531-3.144532 4.710938-8.199219 7.414063-13.863282 7.414063-11.679687 0-19.867187-12.289063-15.398437-23.058594 0 0 13.722656-33.089844 13.789062-33.253906zm-94.769531 64.636719-8.496094-20.53125c-.269531-.652344-.121094-1.394532.378906-1.894532.496094-.496094 1.25-.644531 1.894532-.378906l20.53125 8.492188c-.03125.027343-.0625.058593-.09375.085937-2.539063 2.15625-4.992188 4.429687-7.347656 6.785156-2.351563 2.351563-4.621094 4.804688-6.777344 7.339844-.03125.035156-.0625.066406-.089844.101563zm-51.402344 82.066406c0-.703125.421875-1.335938 1.074219-1.605469 0 0 33.25-13.789063 33.253906-13.792969 10.816407-4.484375 23.058594 3.6875 23.058594 15.398438 0 8.96875-7.6875 16.699218-16.65625 16.699218-2.433594 0-4.902344-.5625-7.113281-1.59375l-32.542969-13.496093c-.652344-.269531-1.074219-.902344-1.074219-1.609375zm65.710938 96.382812s-20.488282 8.476563-20.527344 8.492188c-1.40625.582031-2.855469-.867188-2.277344-2.273438l8.496094-20.53125c.027344.035156.058594.066406.085938.101563 2.167968 2.53125 4.425781 4.984375 6.78125 7.339843 2.359374 2.355469 4.808593 4.625 7.34375 6.785157.035156.027343.066406.054687.097656.085937zm-62.535156 21.082032 27.140624 27.136718-83.851562 83.851563-27.136719-27.136719zm47.058593 21.839843c-1.101562 1.097657-2.917969 1.085938-4.011719-.007812l-37.746093-37.742188c-1.105469-1.105469-1.105469-2.902343 0-4.007812l31.375-31.371094c.375.609375.753906 1.21875 1.136719 1.824219l-11.941407 28.871094c-2.597656 6.273437-1.171875 13.429687 3.628907 18.234374 4.734374 4.730469 12.058593 6.1875 18.238281 3.632813l28.871093-11.945313c.601563.386719 1.210938.761719 1.824219 1.136719 0 0-31.375 31.375-31.375 31.375zm99.152344 7.402344c-.589844 1.417969-2.628906 1.40625-3.214844 0 0 0-13.3125-32.105469-13.320312-32.121094-4.222657-10.195312 1.082031-22.644531 12.835937-24.066406 12.472656-1.507813 22.285156 11.375 17.484375 22.949219 0 0-13.6875 33-13.785156 33.238281zm94.773437-64.636719s8.476563 20.488282 8.492188 20.53125c.582031 1.402344-.863281 2.855469-2.273438 2.273438l-20.53125-8.492188c.03125-.027344.0625-.054687.089844-.082031 5.082032-4.324219 9.808594-9.070313 14.144532-14.140625.023437-.03125.050781-.058594.078124-.089844zm-4.167968-19.199218c-.019532.027343-.042969.050781-.058594.078124-7.835938 11.390626-17.796875 21.386719-29.203125 29.203126-.027344.015624-.046875.039062-.070313.054687-9.554687 6.535156-20.058593 11.523437-31.199218 14.808594-.03125-17.242188-14.445313-31.621094-31.679688-31.621094-17.015625 0-31.398437 14.164063-31.664062 31.179687 0 .144532-.015625.292969-.015625.441407-11.597657-3.417969-22.496094-8.722657-32.390625-15.671875-10.613282-7.449219-19.832032-16.671875-27.277344-27.277344-6.917969-9.855469-12.257812-20.820312-15.660156-32.371094.152344 0 1.164062-.019531 1.519531-.039062 16.59375-.847656 30.097656-14.988282 30.097656-31.65625 0-17.105469-14.445312-31.695313-31.617187-31.695313 3.277344-11.125 8.261718-21.613281 14.785156-31.15625.023438-.035156.050781-.0625.074219-.09375 7.792969-11.445312 17.828125-21.332031 29.203125-29.203125.023437-.019531.046875-.039062.070312-.058594 9.554688-6.53125 20.058594-11.523437 31.199219-14.804687.027344 17.261719 14.429687 31.621094 31.679687 31.621094 17.207032 0 31.652344-14.398438 31.679688-31.621094 11.140625 3.28125 21.640625 8.273437 31.199219 14.808594.023437.015625.042969.035156.066406.054687 11.378906 7.894532 21.425781 17.722656 29.207031 29.203125.019532.03125.042969.054688.0625.082031 6.527344 9.550782 11.511719 20.039063 14.792969 31.167969-.28125 0-.554687.015625-.832031.023438-15.191406.425781-28.445313 12.648437-30.5 27.636719-2.519532 18.382812 12.777344 35.734374 31.332031 35.734374-3.285156 11.128907-8.273437 21.625-14.800781 31.171876zm0 0"/></svg>