<svg height="512pt" viewBox="-5 0 512 512.00058" width="512pt" xmlns="http://www.w3.org/2000/svg"><g fill="#ffc471"><path d="m127.335938 21.945312 40.628906-14.445312s37.925781 51.453125 82.949218 69.738281c45.023438-18.28125 82.949219-69.738281 82.949219-69.738281l40.628907 14.445312v72.898438l-123.578126 46.046875-123.578124-40.289063zm0 0"/><path d="m73.679688 187.609375-56.59375-2.246094-8.746094 24.855469c-2.730469 7.75 1.25 16.261719 8.949218 19.15625l66.242188 24.84375c8.023438 3.003906 16.941406-1.257812 19.632812-9.386719l8.023438-24.171875v-.011718zm0 0"/><path d="m428.148438 187.609375 56.59375-2.246094 8.746093 24.855469c2.730469 7.75-1.25 16.261719-8.949219 19.15625l-66.242187 24.84375c-8.023437 3.003906-16.941406-1.257812-19.632813-9.386719l-8.023437-24.171875v-.011718zm0 0"/><path d="m409.917969 477.453125c-.730469-7-1.707031-14.027344-2.90625-21.023437l-156.097657-24.382813-156.097656 24.382813c-1.199218 6.996093-2.175781 14.023437-2.90625 21.023437-1.511718 14.472656 9.882813 27.046875 24.425782 27.046875h269.15625c14.542968 0 25.9375-12.574219 24.425781-27.046875zm0 0"/></g><path d="m121.910156 477.453125c.730469-7 1.707032-14.027344 2.90625-21.023437l141.097656-22.039063-15-2.34375-156.097656 24.378906c-1.199218 7-2.175781 14.027344-2.90625 21.027344-1.511718 14.472656 9.882813 27.046875 24.425782 27.046875h30c-14.542969 0-25.9375-12.574219-24.425782-27.046875zm0 0" fill="#ffb85c"/><path d="m448.371094 82.082031c-8.613282-24.480469-27.820313-43.746093-52.265625-52.449219l-21.617188-7.6875c-5.492187 7.039063-16.644531 20.585938-31.871093 35.433594-19.785157 19.300782-46.445313 40.78125-76.488282 52.980469-4.875 1.980469-10.046875 2.964844-15.214844 2.964844-5.171874 0-10.339843-.984375-15.214843-2.964844-53.160157-21.582031-95.71875-72.226563-108.363281-88.414063l-21.613282 7.6875c-24.445312 8.703126-43.652344 27.972657-52.265625 52.449219l-36.371093 103.28125 94.101562 35.285157 16.148438-48.609376s4.0625 49.425782 24.375 67.035157l99.203124 27.589843 99.199219-27.589843c20.316407-17.613281 24.378907-67.035157 24.378907-67.035157l16.148437 48.621094 94.101563-35.296875zm0 0" fill="#f77f82"/><path d="m407.011719 456.429688h-312.195313c13.996094-82.535157 56.898438-162.171876 56.898438-162.171876l99.199218-8.128906 99.199219 8.125c0 .003906 42.902344 79.640625 56.898438 162.175782zm0 0" fill="#f77f82"/><path d="m265.914062 287.359375-15-1.230469-99.199218 8.125s-42.902344 79.640625-56.898438 162.171875h30c13.996094-82.53125 56.898438-162.171875 56.898438-162.171875zm0 0" fill="#f5615e"/><path d="m127.335938 172.039062s4.066406 49.425782 24.378906 67.035157l21.683594 6.03125 8.316406-6.03125c-47.957032-36.457031-54.378906-67.035157-54.378906-67.035157zm0 0" fill="#f5615e"/><path d="m151.714844 239.074219h198.398437v55.183593h-198.398437zm0 0" fill="#b27858"/><path d="m151.714844 239.074219h30v55.183593h-30zm0 0" fill="#935b43"/><path d="m304.746094 266.664062c0-24.210937-24.101563-43.839843-53.832032-43.839843-29.730468 0-53.832031 19.628906-53.832031 43.839843 0 24.214844 24.101563 43.84375 53.832031 43.84375 29.730469 0 53.832032-19.628906 53.832032-43.84375zm0 0" fill="#ffb85c"/><path d="m274.78125 266.664062c0-10.75-10.683594-19.464843-23.867188-19.464843-13.183593 0-23.867187 8.714843-23.867187 19.464843s10.683594 19.464844 23.867187 19.464844c13.183594 0 23.867188-8.714844 23.867188-19.464844zm0 0" fill="#b27858"/><path d="m17.289062 229.375 19.566407 7.339844c-3.183594-3.945313-4.316407-9.382813-2.515625-14.496094l12.5625-35.671875-29.808594-1.183594-8.753906 24.855469c-.511719 1.453125-.789063 2.933594-.847656 4.398438-.042969 1.074218.039062 2.140624.222656 3.183593.195312 1.128907.523437 2.222657.964844 3.273438.261718.621093.550781 1.230469.890624 1.808593 1.695313 2.882813 4.351563 5.226563 7.71875 6.492188zm0 0" fill="#ffb85c"/><path d="m127.335938 43.332031c1.445312-.605469 2.90625-1.171875 4.386718-1.699219l49.859375-17.730468c-8.578125-9.566406-13.617187-16.402344-13.617187-16.402344l-2.65625.945312-37.972656 13.5zm0 0" fill="#ffb85c"/><path d="m141.035156 38.324219c-6.054687-6.816407-10.714844-12.5625-13.695312-16.375l-21.617188 7.683593c-1.957031.699219-3.878906 1.46875-5.765625 2.300782-21.683593 9.53125-38.578125 27.632812-46.5 50.148437l-.402343 1.144531-35.964844 102.140626 26.699218 10.011718 35.667969-101.296875c8.613281-24.480469 27.820313-43.746093 52.265625-52.449219zm0 0" fill="#f5615e"/><path d="m250.914062 293.632812c17.296876 0 31.367188-12.097656 31.367188-26.964843 0-14.871094-14.070312-26.96875-31.367188-26.96875-17.296874 0-31.367187 12.097656-31.367187 26.96875 0 14.867187 14.070313 26.964843 31.367187 26.964843zm0-38.933593c8.871094 0 16.367188 5.480469 16.367188 11.964843 0 6.488282-7.496094 11.964844-16.367188 11.964844-8.871093 0-16.367187-5.476562-16.367187-11.964844 0-6.484374 7.496094-11.964843 16.367187-11.964843zm0 0"/><path d="m500.5625 207.730469-45.117188-128.136719c-9.40625-26.730469-30.117187-47.515625-56.828124-57.027344l-62.242188-22.132812c-3.113281-1.105469-6.585938-.042969-8.546875 2.617187-.359375.488281-35.550781 47.785157-76.914063 66.042969-41.285156-18.230469-76.554687-65.558594-76.914062-66.042969-1.960938-2.660156-5.433594-3.726562-8.546875-2.617187l-62.246094 22.132812c-26.707031 9.507813-47.417969 30.292969-56.824219 57.023438l-45.113281 128.136718c-4.058593 11.507813 1.945313 24.367188 13.386719 28.671876l66.246094 24.84375c11.851562 4.441406 25.402344-2.03125 29.382812-14.046876l14.8125-44.625c3.613282 14.019532 9.554688 29.757813 19.117188 39.683594v50.136719c-6.429688 12.253906-43.699219 85.585937-56.792969 162.785156-1.230469 7.191407-2.230469 14.425781-2.96875 21.496094-1.945313 18.59375 13.226563 35.328125 31.882813 35.328125h269.15625c18.699218 0 33.832031-16.703125 31.882812-35.328125-.738281-7.070313-1.734375-14.304687-2.972656-21.511719-12.914063-76.152344-50.445313-150.566406-56.789063-162.753906v-50.152344c9.5625-9.925781 15.503907-25.660156 19.117188-39.679687 0 0 14.800781 44.578125 14.8125 44.617187 3.976562 11.976563 17.578125 18.476563 29.386719 14.046875l66.246093-24.84375c11.4375-4.300781 17.441407-17.160156 13.386719-28.664062zm-404.519531 34.746093c-1.328125 4.007813-5.929688 6.199219-9.878907 4.71875l-66.234374-24.839843c-3.855469-1.449219-5.878907-5.773438-4.511719-9.648438l6.203125-17.632812 80.179687 30.066406s-5.746093 17.300781-5.757812 17.335937zm130.175781-6.546874c7.609375-3.785157 16.242188-5.605469 24.695312-5.605469 8.613282 0 17.253907 1.875 24.964844 5.75 11.527344 5.796875 21.367188 17.117187 21.367188 30.59375 0 18.964843-17.386719 31.15625-34.28125 34.964843-3.953125.890626-7.996094 1.375-12.050782 1.375-20.550781 0-46.332031-12.8125-46.332031-36.339843 0-13.722657 9.886719-24.890625 21.636719-30.738281zm116.394531 50.828124h-35.246093c3.144531-6.210937 4.878906-13.125 4.878906-20.09375s-1.738282-13.878906-4.878906-20.089843h35.246093zm-150.257812-35.355468c-1.804688 4.875-2.773438 10.054687-2.773438 15.261718 0 6.972657 1.734375 13.882813 4.878907 20.09375h-35.246094v-40.183593h35.246094c-.792969 1.570312-1.496094 3.183593-2.105469 4.828125zm-6.285157 212.523437h214.554688c.726562 4.804688 1.339844 9.59375 1.832031 14.304688 1.039063 9.9375-7.015625 18.769531-16.964843 18.769531 0 0-268.839844 0-269.15625 0-9.953126 0-18.003907-8.863281-16.964844-18.769531.492187-4.710938 1.105468-9.503907 1.832031-14.304688h54.867187c4.140626 0 7.5-3.355469 7.5-7.5 0-4.140625-3.359374-7.5-7.5-7.5h-52.265624c13.039062-66.96875 44.1875-130.929687 52.464843-147.171875h49.832031c8.738282 7.824219 20.074219 13.089844 32.460938 15.207032.050781.007812.105469.015624.160156.023437 8.054688 1.390625 16.316406 1.390625 24.371094 0 .058594-.007813.117188-.015625.171875-.027344 12.386719-2.113281 23.722656-7.382812 32.457031-15.203125h49.835938c8.277344 16.242188 39.421875 80.199219 52.464844 147.171875h-211.953126c-4.144531 0-7.5 3.359375-7.5 7.5 0 4.144531 3.355469 7.5 7.5 7.5zm187.527344-299.332031c-3.539062.421875-6.289062 3.28125-6.582031 6.832031-1.011719 12.328125-6.527344 46.015625-19.90625 60.148438h-51.386719c-8.734375-7.820313-20.074218-13.089844-32.460937-15.203125-.027344-.007813-.058594-.007813-.085938-.015625-8.003906-1.464844-16.527343-1.4375-24.535156.003906-.023437.003906-.050781.003906-.074219.011719-12.386718 2.113281-23.726562 7.382812-32.460937 15.203125h-51.386719c-13.34375-14.109375-18.878906-47.8125-19.90625-60.148438-.292969-3.550781-3.042969-6.40625-6.582031-6.832031-3.539063-.425781-6.886719 1.699219-8.011719 5.082031l-13.691406 41.21875-79.925782-29.96875 33.929688-96.355469c7.898438-22.4375 25.285156-39.890624 47.707031-47.871093l16.570313-5.894531c.144531.179687.308594.375.460937.5625 11.164063 13.703124 23.359375 26.527343 36.328125 38.527343 20.8125 19.25 44.707032 36.625 71.28125 47.410157 11.480469 4.664062 24.59375 4.664062 36.074219.003906 18.910156-7.679688 38.289063-19.605469 57.601563-35.453125 3.203124-2.625 3.667968-7.351563 1.042968-10.554688-2.628906-3.203125-7.355468-3.667969-10.554687-1.039062-18.144531 14.886719-36.222657 26.039062-53.734375 33.148437-7.886719 3.203125-16.898438 3.203125-24.785156 0-25.558594-10.382812-48.097657-27.152344-68.191407-45.832031-10.816406-10.050781-20.992187-20.808594-30.484375-32.121094l25.511719-9.070312c10.519531 13.21875 43.683594 51.941406 82.738281 67.796875 1.808594.734375 3.832032.734375 5.640625 0 39.054688-15.855469 72.214844-54.578125 82.738281-67.796875l25.515626 9.070312c-7.3125 8.730469-15.039063 17.117188-23.148438 25.113281-2.878906 2.84375-2.917969 7.71875-.070312 10.605469 2.910156 2.949219 7.660156 2.980469 10.609374.070313 9.738282-9.597656 18.980469-19.714844 27.570313-30.355469.023437-.027344.050781-.058594.074219-.085937l16.566406 5.890624c22.421875 7.984376 39.808594 25.433594 47.707031 47.875l33.929688 96.351563-79.925781 29.980469-13.691407-41.226563c-1.128906-3.382812-4.476562-5.503906-8.015625-5.082031zm108.308594 57.757812s-66.242188 24.84375-66.242188 24.84375c-3.996093 1.496094-8.539062-.675781-9.882812-4.726562l-5.75-17.320312 80.175781-30.070313 6.207031 17.636719c1.363282 3.867187-.660156 8.191406-4.507812 9.636718zm0 0"/></svg>