<svg height="512pt" viewBox="0 -21 512 512" width="512pt" xmlns="http://www.w3.org/2000/svg"><path d="m442.621094 27.566406-62.371094 46.53125-61.878906 170.8125 61.878906 216.476563v.871093h124.25v-388.160156zm0 0" fill="#935b43"/><path d="m256.496094 75.460938v-1.363282l-61.875-46.53125-62.375 46.53125v.152344l-.496094-.152344-61.378906 170.8125 61.875 216.476563v.871093h124.25l61.875-217.347656zm0 0" fill="#935b43"/><path d="m380.496094 74.097656v388.160156h-124.25v-388.160156l62.375-46.53125zm0 0" fill="#a67052"/><path d="m132.496094 74.097656v388.160156h-124.25v-388.160156l62.371094-46.53125zm0 0" fill="#a67052"/><path d="m462.230469 17.457031c-4.675781-6.265625-12.035157-9.957031-19.855469-9.957031s-15.179688 3.691406-19.855469 9.957031l-42.269531 56.640625h124.25zm0 0" fill="#c68c6a"/><path d="m504.5 105.082031v37.433594l-37.214844 28.25-24.664062-18.71875zm0 0" fill="#ffc471"/><path d="m442.621094 189.480469-62.371094 47.34375v-37.433594l37.710938-28.625zm0 0" fill="#ffc471"/><path d="m504.5 199.015625v37.433594l-124.25-94.3125v-37.433594zm0 0" fill="#ffb85c"/><path d="m504.5 295.128906v37.433594l-37.214844 28.25-24.664062-18.71875zm0 0" fill="#ffc471"/><path d="m442.621094 379.527344-62.371094 47.34375v-37.433594l37.710938-28.625zm0 0" fill="#ffc471"/><path d="m504.5 389.0625v37.433594l-124.25-94.3125v-37.433594zm0 0" fill="#ffb85c"/><path d="m337.980469 17.457031c-4.675781-6.265625-12.035157-9.957031-19.855469-9.957031s-15.179688 3.691406-19.855469 9.957031l-42.269531 56.640625h124.25zm0 0" fill="#c68c6a"/><path d="m380.25 105.082031v37.433594l-37.214844 28.25-24.664062-18.71875zm0 0" fill="#ffc471"/><path d="m318.371094 189.480469-62.371094 47.34375v-37.433594l37.710938-28.625zm0 0" fill="#ffc471"/><path d="m380.25 199.015625v37.433594l-124.25-94.3125v-37.433594zm0 0" fill="#ffb85c"/><path d="m380.25 295.128906v37.433594l-37.214844 28.25-24.664062-18.71875zm0 0" fill="#ffc471"/><path d="m318.371094 379.527344-62.371094 47.34375v-37.433594l37.710938-28.625zm0 0" fill="#ffc471"/><path d="m380.25 389.0625v37.433594l-124.25-94.3125v-37.433594zm0 0" fill="#ffb85c"/><path d="m49.769531 17.457031c4.675781-6.265625 12.035157-9.957031 19.855469-9.957031s15.179688 3.691406 19.855469 9.957031l42.269531 56.640625h-124.25zm0 0" fill="#c68c6a"/><path d="m7.5 105.082031v37.433594l37.214844 28.25 24.660156-18.71875zm0 0" fill="#ffb85c"/><path d="m69.375 189.480469 62.375 47.34375v-37.433594l-37.714844-28.625zm0 0" fill="#ffb85c"/><path d="m7.5 199.015625v37.433594l124.25-94.3125v-37.433594zm0 0" fill="#ffc471"/><path d="m7.5 295.128906v37.433594l37.214844 28.25 24.660156-18.71875zm0 0" fill="#ffb85c"/><path d="m69.375 379.527344 62.375 47.34375v-37.433594l-37.714844-28.625zm0 0" fill="#ffb85c"/><path d="m7.5 389.0625v37.433594l124.25-94.3125v-37.433594zm0 0" fill="#ffc471"/><path d="m174.019531 17.457031c4.675781-6.265625 12.035157-9.957031 19.855469-9.957031s15.179688 3.691406 19.855469 9.957031l42.269531 56.640625h-124.25zm0 0" fill="#c68c6a"/><path d="m131.75 105.082031v37.433594l37.214844 28.25 24.660156-18.71875zm0 0" fill="#ffb85c"/><path d="m193.625 189.480469 62.375 47.34375v-37.433594l-37.714844-28.625zm0 0" fill="#ffb85c"/><path d="m131.75 199.015625v37.433594l124.25-94.3125v-37.433594zm0 0" fill="#ffc471"/><path d="m131.75 295.128906v37.433594l37.214844 28.25 24.660156-18.71875zm0 0" fill="#ffb85c"/><path d="m193.625 379.527344 62.375 47.34375v-37.433594l-37.714844-28.625zm0 0" fill="#ffb85c"/><path d="m131.75 389.0625v37.433594l124.25-94.3125v-37.433594zm0 0" fill="#ffc471"/><path d="m512 74.097656c0-1.597656-.535156-3.203125-1.488281-4.484375l-42.269531-56.640625c-6.0625-8.121094-15.730469-12.972656-25.867188-12.972656s-19.804688 4.851562-25.867188 12.972656l-36.257812 48.585938-36.257812-48.585938c-6.0625-8.121094-15.730469-12.972656-25.867188-12.972656s-19.804688 4.851562-25.867188 12.972656l-36.257812 48.585938-36.257812-48.585938c-6.0625-8.121094-15.730469-12.972656-25.867188-12.972656s-19.804688 4.851562-25.867188 12.972656l-36.257812 48.585938-36.257812-48.585938c-6.0625-8.121094-15.730469-12.972656-25.867188-12.972656s-19.804688 4.851562-25.867188 12.972656c0 0-42.265624 56.636719-42.269531 56.640625-.941406 1.265625-1.488281 2.894531-1.488281 4.484375v388.160156c0 4.140626 3.359375 7.5 7.5 7.5h435.792969c4.140625 0 7.5-3.359374 7.5-7.5 0-4.144531-3.359375-7.5-7.5-7.5h-55.542969v-24.160156l54.871094-41.652344 54.378906 41.273438v24.539062h-23.707031c-4.140625 0-7.5 3.355469-7.5 7.5 0 4.140626 3.359375 7.5 7.5 7.5h31.207031c4.140625 0 7.5-3.359374 7.5-7.5zm-124.25 216.929688v-50.476563l54.875-41.652343 54.375 41.273437v51.234375l-54.375 41.273438zm-124.25 0v-50.476563l54.871094-41.652343 54.378906 41.273437v51.234375l-54.378906 41.273438zm-69.875 41.652344-54.375-41.273438v-51.234375l54.375-41.273437 54.875 41.652343v50.476563zm-124.25 0-54.375-41.273438v-51.234375l54.375-41.273437 54.875 41.652343v50.476563zm69.875-111.339844v-18.601563l109.25-82.925781v18.601562zm-124.25-82.546875v-18.601563l41.972656 31.855469-12.257812 9.300781zm0 63.945312 109.25-82.925781v18.601562l-109.25 82.925782zm248.5 18.980469v-18.605469l30.210938-22.933593 12.257812 9.300781zm109.25-18.980469v18.601563l-109.25-82.925782v-18.601562zm0-18.832031-17.3125-13.140625 17.3125-13.140625zm-142.058594-13.140625 17.808594-13.519531v27.035156zm32.808594-13.519531 17.808594 13.519531-17.808594 13.515625zm-45.214844 22.933594 30.214844 22.933593v18.605469l-42.46875-32.238281zm169.464844-22.933594 17.808594 13.519531-17.808594 13.519531zm-15-18.453125-29.714844 22.558593-12.257812-9.300781 41.972656-31.859375zm-216.1875 31.972656-17.3125 13.140625v-26.28125zm-32.3125-13.519531v27.035156l-17.808594-13.515625zm0 45.867187v18.605469l-42.46875-32.238281 12.253906-9.300781zm44.714844-41.765625-29.714844-22.554687v-18.601563l41.972656 31.855469zm-29.714844 148.890625 41.972656 31.855469-12.257812 9.300781-29.714844-22.554687zm248.5-171.824219v-18.601562l109.25 82.925781v18.601563zm109.25 45.492188-17.3125-13.140625 17.3125-13.140625zm0-45.113281-29.714844 22.558593-12.257812-9.300781 41.972656-31.859375zm-482 18.832031 17.3125 13.140625-17.3125 13.140625zm0 152.613281 41.972656 31.855469-12.257812 9.300781-29.714844-22.554687zm141.5625 50.574219-17.3125 13.140625v-26.28125zm216.1875-50.574219v18.601563l-29.714844 22.554687-12.257812-9.300781zm0 37.433594v26.28125l-17.3125-13.140625zm15-125.953125v-18.605469l30.210938-22.933593 12.257812 9.300781zm109.25-120.359375-54.375 41.273437-54.875-41.652343v-19.382813h109.25zm-124.25 0-54.375 41.273437-54.875-41.652343v-19.382813h109.25zm-124.25-.378906-54.875 41.652343-54.375-41.273437v-19.761719h109.25zm-233.5 246.691406 17.3125 13.140625-17.3125 13.140625zm0 45.113281 109.25-82.925781v18.601563l-109.25 82.925781zm109.25-45.492187v27.035156l-17.808594-13.515625zm-30.214844 22.933593 30.214844 22.933594v18.605469l-42.46875-32.234375zm45.214844 22.558594 109.25-82.925781v18.601563l-109.25 82.925781zm109.25-45.492187v27.035156l-17.808594-13.515625zm-30.214844 22.933593 30.214844 22.933594v18.605469l-42.46875-32.234375zm45.214844 22.933594 30.210938-22.933594 12.257812 9.300782-42.46875 32.238281zm0-18.832031v-27.035156l17.808594 13.519531zm0-45.867187v-18.601563l109.25 82.925781v18.601563zm233.5-18.222657v18.601563l-29.714844 22.554687-12.257812-9.300781zm0 37.433594v26.28125l-17.3125-13.140625zm-68.46875-325.726563c3.242188-4.347656 8.417969-6.945312 13.84375-6.945312s10.601562 2.597656 13.847656 6.945312l33.324219 44.652344h-94.339844zm-124.25 0c3.242188-4.347656 8.417969-6.945312 13.84375-6.945312s10.601562 2.597656 13.847656 6.945312l33.324219 44.652344h-94.339844zm-124.25 0c3.242188-4.347656 8.417969-6.945312 13.84375-6.945312s10.601562 2.597656 13.84375 6.945312l33.328125 44.652344h-94.34375zm-124.25 0c3.242188-4.347656 8.417969-6.945312 13.84375-6.945312s10.601562 2.597656 13.847656 6.945312l33.324219 44.652344h-47.503906c-4.140625 0-7.5 3.359375-7.5 7.5 0 4.144532 3.359375 7.5 7.5 7.5h54.957031v19.382813l-54.875 41.652343-54.375-41.273437v-19.761719h24.292969c4.140625 0 7.5-3.355468 7.5-7.5 0-4.140625-3.359375-7.5-7.5-7.5h-16.839844zm-40.78125 408.273438 54.375-41.273438 54.875 41.648438v24.160156h-109.25zm124.25 0 54.378906-41.273438 54.871094 41.648438v24.160156h-109.25zm124.25.378906 54.871094-41.652344 54.378906 41.273438v24.539062h-109.25zm124.25-18.832031v-18.605469l30.210938-22.933594 12.257812 9.300782zm0-37.4375v-27.035156l17.808594 13.519531zm0-45.867187v-18.601563l109.25 82.925781v18.601563zm0 0"/></svg>