<svg height="512pt" viewBox="-27 0 512 512.001" width="512pt" xmlns="http://www.w3.org/2000/svg"><path d="m16.878906 95.804688s-36.816406 67.414062 35.476563 87.808593l17.5-51.039062zm0 0" fill="#edebec"/><path d="m441.367188 95.804688s36.816406 67.414062-35.476563 87.808593l-17.503906-51.039062zm0 0" fill="#edebec"/><path d="m397.105469 277.566406s28.277343 120.167969-69.023438 151.910156h-197.917969c-97.300781-31.742187-69.023437-151.910156-69.023437-151.910156zm0 0" fill="#ffb85c"/><path d="m29.292969 49.289062s-43.585938 57.707032 28.691406 93.03125l27.976563-22.96875-23.003907-49.246093zm0 0" fill="#d2d2d2"/><path d="m428.949219 49.289062s43.585937 57.707032-28.6875 93.03125l-27.976563-22.96875 23-49.246093zm0 0" fill="#d2d2d2"/><path d="m96.640625 122.261719c-2.007813 0-4.050781-.347657-6.042969-1.085938-38.507812-14.261719-45.835937-36.976562-51.1875-53.5625-3-9.304687-4.8125-14.347656-10.117187-18.324219-7.691407-5.769531-9.25-16.683593-3.480469-24.375 5.769531-7.695312 16.683594-9.253906 24.375-3.484374 14.402344 10.800781 18.820312 24.492187 22.367188 35.492187 4.507812 13.976563 7.488281 23.207031 30.136718 31.597656 9.019532 3.339844 13.621094 13.355469 10.28125 22.375-2.601562 7.023438-9.253906 11.367188-16.332031 11.367188zm0 0" fill="#edebec"/><path d="m361.601562 122.261719c2.011719 0 4.050782-.347657 6.046876-1.085938 38.503906-14.261719 45.832031-36.976562 51.183593-53.5625 3.003907-9.304687 4.816407-14.347656 10.117188-18.324219 7.695312-5.769531 9.253906-16.683593 3.484375-24.375-5.769532-7.695312-16.683594-9.253906-24.378906-3.484374-14.398438 10.800781-18.816407 24.492187-22.363282 35.492187-4.511718 13.976563-7.488281 23.207031-30.136718 31.597656-9.019532 3.339844-13.621094 13.355469-10.28125 22.375 2.601562 7.023438 9.253906 11.367188 16.328124 11.367188zm0 0" fill="#edebec"/><path d="m161 385.546875s-47.3125 41.324219-47.3125 118.953125h47.3125l17.378906-54.609375zm0 0" fill="#ffe1d7"/><path d="m297.246094 385.546875s47.3125 41.324219 47.3125 118.953125h-47.3125l-17.378906-54.609375zm0 0" fill="#ffe1d7"/><path d="m161 385.546875h136.246094v118.953125h-136.246094zm0 0" fill="#57565c"/><path d="m93.375 237.5c0 22.652344-18.367188 41.019531-41.019531 41.019531-22.65625 0-41.019531-18.367187-41.019531-41.019531s18.363281-41.019531 41.019531-41.019531c22.652343 0 41.019531 18.367187 41.019531 41.019531zm0 0" fill="#ffcec0"/><path d="m446.910156 237.5c0 22.652344-18.367187 41.019531-41.019531 41.019531-22.65625 0-41.019531-18.367187-41.019531-41.019531s18.363281-41.019531 41.019531-41.019531c22.652344 0 41.019531 18.367187 41.019531 41.019531zm0 0" fill="#ffcec0"/><path d="m405.890625 154.492188v67.886718c0 129.148438-124.988281 160.964844-151.769531 192.265625-6.089844 7.117188-14.832032 11.414063-24.195313 11.414063h-1.605469c-9.367187 0-18.109374-4.296875-24.199218-11.414063-26.78125-31.300781-151.765625-63.117187-151.765625-192.265625v-67.886718zm0 0" fill="#ffc471"/><path d="m358.84375 154.492188s13.441406 22.515624 13.441406 83.007812c0 16.316406-3.808594 28.25-9.082031 36.960938-12.398437 20.46875-38.507813 27.347656-60.027344 16.871093-22.132812-10.773437-29.945312-32.324219-74.054687-32.324219-44.105469 0-51.921875 21.550782-74.054688 32.324219-21.515625 10.476563-47.625 3.597657-60.023437-16.871093-5.277344-8.710938-9.082031-20.648438-9.082031-36.960938 0-60.492188 13.441406-83.007812 13.441406-83.007812zm0 0" fill="#ffe1d7"/><path d="m389.65625 108.324219-160.535156-19.898438-160.53125 19.898438c-10.019532 13.300781-16.238282 28.527343-16.238282 46.167969l176.769532 20.832031 176.773437-20.832031c0-17.644532-6.21875-32.867188-16.238281-46.167969zm0 0" fill="#c5c4c9"/><path d="m82.351562 154.492188c0-17.644532 6.21875-32.867188 16.238282-46.167969l145.53125-18.039063-15-1.859375-160.53125 19.898438c-10.019532 13.300781-16.238282 28.523437-16.238282 46.167969l176.769532 20.832031 15-1.769531zm0 0" fill="#aeaeb2"/><path d="m389.65625 108.324219h-321.066406c36.285156-48.269531 122.363281-71.273438 141.707031-92.554688 2.40625-2.648437 5.324219-4.714843 8.535156-6.121093 3.207031-1.402344 6.707031-2.148438 10.289063-2.148438 7.164062 0 14.011718 2.976562 18.828125 8.269531 19.339843 21.28125 105.417969 44.285157 141.707031 92.554688zm0 0" fill="#aeaeb2"/><path d="m240.296875 15.769531c1.164063-1.28125 2.449219-2.421875 3.824219-3.421875-4.320313-3.132812-9.566406-4.847656-15-4.847656-3.582032 0-7.082032.746094-10.289063 2.148438-3.210937 1.402343-6.128906 3.472656-8.535156 6.121093-19.34375 21.28125-105.421875 44.285157-141.707031 92.554688h30c36.289062-48.269531 122.363281-71.273438 141.707031-92.554688zm0 0" fill="#a1a1a5"/><path d="m405.890625 186.597656h-120.382813c-10.183593 0-19.714843 4.988282-25.519531 13.351563l-5.347656 7.710937c-5.804687 8.363282-15.335937 13.351563-25.519531 13.351563-10.179688 0-19.710938-4.988281-25.515625-13.351563l-5.347657-7.710937c-5.804687-8.359375-15.335937-13.351563-25.519531-13.351563h-120.382812v-32.105468h353.535156zm0 0" fill="#aeaeb2"/><path d="m52.355469 154.492188h30v32.105468h-30zm0 0" fill="#a1a1a5"/><path d="m322.78125 271.160156h-21.902344c-4.140625 0-7.5-3.355468-7.5-7.5 0-4.140625 3.359375-7.5 7.5-7.5h21.902344c4.144531 0 7.5 3.359375 7.5 7.5 0 4.144532-3.355469 7.5-7.5 7.5zm0 0" fill="#f77f82"/><path d="m157.367188 271.160156h-21.902344c-4.144532 0-7.5-3.355468-7.5-7.5 0-4.140625 3.355468-7.5 7.5-7.5h21.902344c4.140624 0 7.5 3.359375 7.5 7.5 0 4.144532-3.359376 7.5-7.5 7.5zm0 0" fill="#f77f82"/><path d="m148.152344 213.511719c-4.144532 0-7.5 3.355469-7.5 7.5v16.671875c0 4.140625 3.355468 7.5 7.5 7.5 4.140625 0 7.5-3.359375 7.5-7.5v-16.671875c0-4.144531-3.359375-7.5-7.5-7.5zm0 0"/><path d="m310.097656 245.183594c4.140625 0 7.5-3.359375 7.5-7.5v-16.671875c0-4.140625-3.359375-7.5-7.5-7.5-4.144531 0-7.5 3.359375-7.5 7.5v16.671875c0 4.140625 3.355469 7.5 7.5 7.5zm0 0"/><path d="m254.042969 283.441406c-3.117188-2.726562-7.855469-2.410156-10.582031.710938-3.488282 3.988281-8.714844 6.277344-14.339844 6.277344s-10.847656-2.289063-14.335938-6.277344c-2.726562-3.121094-7.464844-3.4375-10.582031-.710938-3.121094 2.726563-3.4375 7.464844-.710937 10.582032 6.335937 7.25 15.679687 11.40625 25.628906 11.40625 9.953125 0 19.296875-4.15625 25.632812-11.40625 2.726563-3.117188 2.410156-7.855469-.710937-10.582032zm0 0"/><path d="m453.894531 155.269531c10.558594-25.125-.941406-52.75-4.796875-60.78125 2.160156-19.136719-5.722656-35.949219-10.601562-44.25 2.457031-3.296875 4.070312-7.171875 4.667968-11.355469.941407-6.585937-.738281-13.148437-4.730468-18.472656-8.136719-10.847656-24.035156-13.109375-34.878906-4.980468-16.304688 12.230468-21.332032 27.8125-25 39.1875-3.070313 9.507812-4.957032 15.320312-12.613282 20.527343-21.683594-16.160156-47.394531-28.710937-69.550781-39.53125-18.738281-9.144531-36.4375-17.789062-42.894531-24.890625-6.199219-6.816406-15.082032-10.722656-24.375-10.722656-9.210938 0-18.171875 3.90625-24.375 10.726562-6.453125 7.097657-24.152344 15.742188-42.894532 24.890626-22.15625 10.816406-47.863281 23.367187-69.550781 39.527343-7.652343-5.207031-9.542969-11.019531-12.609375-20.527343-3.667968-11.375-8.695312-26.957032-25.003906-39.1875-10.851562-8.140626-26.742188-5.863282-34.875 4.980468-6.53125 8.710938-6.574219 21.101563-.0625 29.828125-4.878906 8.300781-12.761719 25.113281-10.601562 44.25-3.859376 8.03125-15.359376 35.65625-4.796876 60.78125 6.574219 15.640625 20.199219 27.003907 40.503907 33.855469v.4375c-23.207031 3.617188-41.023438 23.734375-41.023438 47.9375 0 26.632812 21.570313 48.3125 48.15625 48.511719-1.785156 12.035156-3.742187 33.378906-.246093 56.71875 6.667968 44.503906 30.191406 75.808593 68.230468 91.027343-7.8125 18.8125-13.789062 42.4375-13.789062 70.742188 0 4.144531 3.359375 7.5 7.5 7.5h230.875c4.140625 0 7.5-3.355469 7.5-7.5 0-28.285156-5.984375-51.914062-13.804688-70.734375 38.050782-15.214844 61.578125-46.523437 68.246094-91.035156 3.492188-23.339844 1.535156-44.683594-.25-56.71875 26.589844-.195313 48.160156-21.878907 48.160156-48.507813 0-24.203125-17.816406-44.324218-41.019531-47.941406v-.4375c20.300781-6.851562 33.925781-18.214844 40.503906-33.855469zm-95.914062 172.914063c-19.445313 21.226562-43.359375 37.03125-65.886719 50.796875l-.078125.046875c-15.046875 9.34375-31.859375 17.03125-43.59375 30.742187-4.777344 5.585938-11.519531 8.792969-18.496094 8.792969h-1.605469c-6.976562 0-13.71875-3.207031-18.496093-8.792969-11.511719-13.453125-28.855469-21.738281-43.714844-30.820312-22.457031-13.71875-46.308594-29.484375-65.726563-50.644531-.199218-.21875-.402343-.433594-.605468-.652344-24.722656-27.265625-38.390625-61.535156-39.789063-98.269532-.003906-.042968-.003906-.085937-.003906-.128906-.464844-11.710937-.128906-23.4375-.128906-35.152344h21.292969c-1.777344 13.128907-2.6875 27.667969-2.6875 43.398438 0 15.964844 3.417968 29.707031 10.164062 40.847656 9.613281 15.863282 26.617188 25.335938 45.492188 25.335938 16.9375 0 30.476562-8.261719 43.320312-18.4375 12.167969-9.636719 23.65625-18.738282 51.683594-18.738282s39.515625 9.101563 51.683594 18.738282c12.84375 10.171875 26.394531 18.4375 43.324218 18.4375 18.871094 0 35.875-9.472656 45.484375-25.335938 6.75-11.136718 10.167969-24.878906 10.167969-40.847656 0-15.730469-.914062-30.269531-2.6875-43.398438h21.292969v28.277344c0 38.953125-13.511719 76.226563-39.976563 105.332032-.140625.15625-.289062.3125-.429687.472656zm-310.964844-200.957032c-11.117187-7.816406-20.523437-18.753906-22.714844-32.546874-1.941406-12.292969 1.953125-23.925782 5.628907-31.617188.003906.011719.007812.023438.011718.035156.160156.417969.324219.859375.488282 1.320313 5 13.925781 9.425781 28.117187 19.488281 39.386719.316406.351562 7.632812 7.371093 7.625 7.386718-.152344.246094-.296875.496094-.449219.746094-3.175781 5.238281-5.867188 10.804688-7.871094 16.597656-.019531.054688-.039062.105469-.058594.15625-.71875-.476562-1.4375-.964844-2.148437-1.464844zm144.871094 77.171876c10.457031 12.652343 19.050781 24.113281 37.234375 24.113281 12.636718 0 24.476562-6.199219 31.679687-16.578125 6.292969-9.066406 12.464844-17.835938 24.703125-17.835938h76.46875c1.867188 12.964844 2.8125 27.53125 2.8125 43.402344 0 13.1875-2.691406 24.3125-8 33.074219-6.867187 11.339843-19.074218 18.109375-32.65625 18.109375-13.433594 0-23.894531-7.1875-34.011718-15.199219-13.003907-10.300781-27.75-21.976563-60.996094-21.976563s-47.988282 11.675782-60.996094 21.976563c-10.117188 8.015625-20.582031 15.199219-34.007812 15.199219-13.582032 0-25.789063-6.769532-32.660157-18.109375-5.304687-8.761719-7.996093-19.890625-7.996093-33.074219 0-15.875.945312-30.4375 2.8125-43.402344h76.464843c8.644531 0 14.335938 4.480469 19.148438 10.300782zm213.222656-97.210938c7.703125-7.574219 13.421875-16.941406 17.304687-26.980469 2.179688-5.640625 3.734376-11.503906 5.902344-17.148437.003906-.011719.011719-.027344.015625-.039063 3.707031 7.703125 7.617188 19.410157 5.570313 31.871094-1.871094 11.398437-8.726563 21.019531-17.429688 28.328125-.582031.484375-7.425781 5.378906-7.394531 5.472656-.015625-.046875-.035156-.09375-.050781-.140625-1.566406-4.507812-3.523438-8.882812-5.820313-13.066406-.171875-.3125-2.566406-4.242187-2.503906-4.292969.476563-.402344 3.4375-3.050781 4.40625-4.003906zm34.957031 42.265625c-4.335937 10.3125-13.289062 18.257813-26.675781 23.699219 0-8.164063.375-16.429688-.226563-24.574219-.109374-1.484375-.257812-2.976563-.449218-4.453125 4.820312-2.851562 9.390625-6.070312 13.699218-9.648438.023438-.015624.042969-.035156.0625-.050781 6.199219-5.242187 11.167969-10.949219 14.871094-17.109375 2.273438 9.46875 3.257813 21.339844-1.28125 32.136719zm-47.238281-90.230469c3.390625-10.507812 7.234375-22.421875 19.726563-31.792968 4.332031-3.246094 10.632812-2.34375 13.878906 1.984374 3.246094 4.328126 2.339844 10.632813-1.984375 13.875-6.523438 4.894532-9.128907 11.054688-11.664063 18.667969-4.632812 13.933594-9.445312 27.117188-20.871094 37.011719-.023437.019531-.046874.042969-.070312.0625-4.011719-4.765625-8.398438-9.191406-13.023438-13.359375-.289062-.265625-.574218-.527344-.867187-.789063 9.003906-7.46875 11.773437-16.050781 14.875-25.660156zm-224.394531-10.128906c21.804687-10.644531 39.023437-19.050781 47.414062-28.277344 3.375-3.71875 8.269532-5.816406 13.273438-5.816406 5.078125 0 9.917968 2.121094 13.277344 5.8125 8.386718 9.230469 25.609374 17.636719 47.414062 28.28125 22.847656 11.15625 49.640625 24.242188 70.90625 40.949219.019531.015625.03125.03125.050781.046875 4.484375 3.523437 8.570313 7.109375 12.257813 10.734375h-216.46875c-4.140625 0-7.5 3.355469-7.5 7.5 0 4.140625 3.359375 7.5 7.5 7.5h229.222656c5.695312 8.265625 9.515625 16.9375 11.320312 25.824219l.054688.289062c.332031 1.671875.582031 3.359375.78125 5.054688h-59.378906c-4.144532 0-7.5 3.359374-7.5 7.5 0 4.144531 3.355468 7.5 7.5 7.5h59.832031v17.109374h-112.882813c-12.636718 0-24.476562 6.195313-31.679687 16.574219-6.300781 9.078125-12.441406 17.835938-24.703125 17.835938-11.925781 0-18.53125-8.9375-24.707031-17.835938-7.203125-10.378906-19.042969-16.574219-31.675781-16.574219h-112.886719v-17.109374h248.703125c4.140625 0 7.5-3.355469 7.5-7.5 0-4.140626-3.359375-7.5-7.5-7.5h-248.25c.203125-1.710938.457031-3.425782.796875-5.136719l.039062-.207031c1.804688-8.886719 5.625-17.558594 11.320313-25.824219h54.09375c4.140625 0 7.5-3.359375 7.5-7.5 0-4.144531-3.359375-7.5-7.5-7.5h-41.339844c3.6875-3.625 7.773438-7.210938 12.257812-10.734375.015626-.015625.027344-.027344.042969-.039063 21.265625-16.710937 48.0625-29.796875 70.914063-40.957031zm-136.621094-19.679688c3.238281-4.320312 9.570312-5.214843 13.878906-1.984374 12.492188 9.371093 16.335938 21.285156 19.726563 31.792968 3.101562 9.609375 5.871093 18.191406 14.875 25.660156-1.5 1.328126-14.011719 14.042969-13.890625 14.148438-.023438-.019531-.046875-.042969-.070313-.0625-10.1875-8.792969-15.726562-21.097656-19.78125-33.660156-2.679687-8.296875-5.503906-16.578125-12.753906-22.019532-4.332031-3.246093-5.226563-9.550781-1.984375-13.875zm-13.605469 120.105469c-4.542969-10.75-3.558593-22.652343-1.28125-32.15625 3.703125 6.144531 8.667969 11.839844 14.859375 17.074219.011719.011719.023438.023438.035156.03125 4.320313 3.558594 8.894532 6.808594 13.710938 9.65625-.457031 3.484375-.773438 7.058594-.675781 10.574219v18.453125c-13.359375-5.429688-22.304688-13.355469-26.648438-23.632813zm.628907 87.980469c0-15.90625 11.136718-29.257812 26.019531-32.671875 0 8.066406-.207031 16.164063.117187 24.230469.472656 14.757812 2.535156 28.710937 6.214844 41.9375-17.945312-.617188-32.351562-15.402344-32.351562-33.496094zm47.808593 103.417969c-1.984375-12.996094-2.089843-25.484375-1.5-35.78125 1.175781 2.128906 2.40625 4.238281 3.6875 6.328125 11.269531 18.492187 25.566407 33.628906 41.046875 46.589844 13.175782 11.078124 26.890625 20.292968 39.726563 28.332031-5.921875 6.496093-14.96875 17.796875-23.277344 33.757812-33.585937-13.101562-53.65625-39.722656-59.683594-79.226562zm86.855469 64.4375v91.644531h-32.15625c1.847656-43.929688 19.617188-74.988281 32.15625-91.644531zm15-7.386719c5.675781 3.453125 11.34375 6.925781 16.824219 10.679688 4.640625 3.175781 9.425781 6.578124 13.101562 10.875 7.632813 8.921874 18.527344 14.039062 29.894531 14.039062h1.605469c11.363281 0 22.261719-5.117188 29.894531-14.039062 7.800782-9.121094 29.539063-21.320313 29.925782-21.554688v99.03125h-121.246094zm136.246094 99.03125v-91.644531c12.542968 16.660156 30.308594 47.71875 32.15625 91.644531zm86.855468-156.082031c-6.03125 39.511719-26.105468 66.136719-59.703124 79.234375-8.308594-15.957032-17.347657-27.261719-23.261719-33.761719 12.871093-8.066406 26.632812-17.3125 39.847656-28.433594 15.878906-13.363281 30.089844-28.707031 40.921875-46.480469 1.285156-2.089843 2.515625-4.207031 3.695312-6.335937.589844 10.296875.488282 22.78125-1.5 35.777344zm47.808594-103.417969c0 18.089844-14.40625 32.878906-32.351562 33.496094 3.679687-13.226563 5.742187-27.179688 6.214844-41.9375.273437-8.070313.117187-16.160156.117187-24.230469 14.882813 3.414063 26.019531 16.769531 26.019531 32.671875zm0 0"/></svg>