<svg height="512pt" viewBox="-46 0 512 512.00021" width="512pt" xmlns="http://www.w3.org/2000/svg"><path d="m258.09375 92.902344c-19.425781-22.53125-49.015625-32.453125-68.484375-54.375-4.722656-5.316406-4.902344-10.976563-3.742187-17.582032.996093-5.671874-2.390626-11.316406-8.042969-13-6.085938-1.808593-12.484375 1.652344-14.296875 7.738282-11.890625 39.941406 33.09375 61.449218 57.042968 83.566406 17.308594 15.980469 27.21875 36.144531 23.082032 59.699219-2.785156 15.875-11.199219 29.40625-17.386719 44.023437l22.128906 12.742188 22.125-12.742188c4.734375-12.703125 8.339844-25.777344 9.632813-39.382812 2.453125-25.792969-5.261719-51.199219-22.058594-70.6875zm0 0" fill="#ffc471"/><path d="m280.152344 348.410156c-1.292969-13.605468-4.898438-26.679687-9.632813-39.382812l-22.128906-10.773438-22.125 10.773438c6.1875 14.617187 14.601563 28.148437 17.386719 44.023437 4.136718 23.554688-5.773438 43.71875-23.082032 59.699219-23.953124 22.121094-68.933593 43.628906-57.042968 83.566406 1.808594 6.085938 8.210937 9.546875 14.292968 7.738282 5.652344-1.683594 9.042969-7.328126 8.042969-12.996094-1.160156-6.609375-.976562-12.265625 3.746094-17.585938 19.46875-21.921875 49.058594-31.84375 68.480469-54.375 16.800781-19.488281 24.515625-44.894531 22.0625-70.6875zm0 0" fill="#ffc471"/><path d="m226.265625 202.972656h44.253906v106.054688h-44.253906zm0 0" fill="#57565c"/><path d="m85.945312 214.816406c-6.550781-7.523437-16.035156-11.84375-26.011718-11.84375h-48.519532c-2.96875 0-4.894531 3.132813-3.554687 5.785156l15.777344 31.171876 35.007812 16.070312 49.15625-16.070312zm0 0" fill="#edebec"/><path d="m85.945312 297.183594c-6.550781 7.523437-16.035156 11.84375-26.011718 11.84375h-48.519532c-2.96875 0-4.894531-3.132813-3.554687-5.785156l15.777344-31.171876 35.007812-16.070312 49.15625 16.070312zm0 0" fill="#edebec"/><path d="m23.636719 239.929688c-5.292969 0-9.585938 4.292968-9.585938 9.585937v12.96875c0 5.296875 4.292969 9.589844 9.585938 9.589844h337.546875v-32.144531zm0 0" fill="#c68c6a"/><path d="m316.160156 256-4.90625 16.074219h49.929688v-32.144531h-49.929688zm0 0" fill="#b27858"/><path d="m409.132812 251.871094-66.082031-33.816406c-3.148437-1.613282-6.6875 1.351562-5.65625 4.734374l10.132813 33.210938-10.132813 33.214844c-1.03125 3.382812 2.507813 6.347656 5.65625 4.734375l66.082031-33.816407c3.367188-1.726562 3.367188-6.539062 0-8.261718zm0 0" fill="#c5c4c9"/><path d="m13.667969 220.230469 9.96875 19.699219h84.164062l-17.144531-19.699219zm0 0" fill="#d2d2d2"/><path d="m13.667969 291.769531 9.96875-19.695312h84.164062l-17.144531 19.695312zm0 0" fill="#d2d2d2"/><path d="m412.597656 245.195312-66.082031-33.820312c-4.972656-2.542969-11.1875-1.070312-14.507813 3.417969-4.054687 5.476562-1.222656 11.878906.535157 17.632812h-54.472657v-28.152343c5.253907-14.378907 8.410157-27.476563 9.597657-39.972657 2.6875-28.246093-5.78125-55.339843-23.847657-76.296875-10.5625-12.253906-23.703124-20.867187-36.410156-29.199218-11.949218-7.832032-23.234375-15.230469-32.144531-25.261719-2.464844-2.773438-2.960937-5.625-1.964844-11.296875 1.675781-9.496094-4.039062-18.734375-13.289062-21.488282-9.851563-2.933593-20.6875 2.921876-23.625 12.785157-5.855469 19.664062.0625 35.347656 10.46875 48.5l-110.917969 133.429687s-44.40625 0-44.476562 0c-8.417969 0-14.050782 9.15625-10.246094 16.671875l12.070312 23.84375c-4.058594 3.128907-6.691406 8.019531-6.691406 13.527344v12.96875c0 5.507813 2.632812 10.402344 6.6875 13.527344 0 0-12.050781 23.808593-12.066406 23.84375-3.8125 7.527343 1.832031 16.671875 10.246094 16.671875h44.476562l110.914062 133.429687c-10.40625 13.152344-16.324218 28.835938-10.46875 48.5 2.9375 9.867188 13.773438 15.714844 23.625 12.785157 9.25-2.753907 14.964844-11.992188 13.292969-21.484376-1-5.671874-.503906-8.523437 1.960938-11.300781 8.910156-10.03125 20.195312-17.429687 32.144531-25.261719 12.710938-8.332031 25.851562-16.945312 36.414062-29.199218 18.0625-20.957032 26.53125-48.050782 23.84375-76.296875-1.1875-12.496094-4.34375-25.59375-9.597656-39.972657v-28.152343h54.472656c-1.796874 5.894531-4.703124 12.003906-.535156 17.636719 3.320313 4.484374 9.542969 5.957031 14.511719 3.414062 0 0 66.015625-33.785156 66.082031-33.820312 8.65625-4.429688 8.636719-17.191407 0-21.609376zm-178.78125-34.71875h29.25v21.949219h-29.25zm-63.050781-192.652343c.609375-2.050781 2.863281-3.3125 4.964844-2.6875 1.945312.578125 3.144531 2.515625 2.796875 4.507812-4.453125 25.304688 22.628906 39.890625 40.65625 51.707031 12.386718 8.121094 24.085937 15.789063 33.273437 26.449219 15.371094 17.828125 22.574219 40.941407 20.277344 65.078125-.96875 10.164063-3.410156 20.871094-7.445313 32.59375h-27.308593c.28125-.589844.558593-1.175781.835937-1.757812 4.972656-10.410156 10.113282-21.171875 12.273438-33.46875 4.253906-24.246094-4.523438-47.242188-25.382813-66.507813-5.339843-4.929687-11.441406-9.648437-17.898437-14.648437-26.3125-20.347656-44.371094-36.65625-37.042969-61.265625zm-110.78125 192.652343c7.804687 0 15.222656 3.375 20.351563 9.265626l11.042968 12.683593h-63.082031l-11.113281-21.949219zm-31.6875 69.097657h63.082031l-11.042968 12.6875c-5.128907 5.886719-12.546876 9.265625-20.351563 9.265625h-42.800781zm190.515625 0v29.453125c0 1.015625.21875 2.03125.609375 2.964844 1.851563 4.367187 3.886719 8.632812 5.859375 12.757812 4.746094 9.9375 9.226562 19.324219 11.03125 29.597656 3.378906 19.242188-3.613281 37.039063-20.785156 52.894532-4.855469 4.484374-10.707032 9.007812-16.898438 13.800781-7.058594 5.457031-14.632812 11.316406-21.496094 17.8125l-103.566406-124.589844c6.917969-2.367187 13.175782-6.519531 18.085938-12.15625l19.613281-22.535156zm33.644531 134.628906c-9.1875 10.65625-20.886719 18.324219-33.273437 26.445313-12.242188 8.023437-24.902344 16.324218-35.136719 27.847656-7.1875 8.09375-6.726563 17.003906-5.519531 23.863281.351562 1.988281-.851563 3.925781-2.796875 4.503906-2.027344.605469-4.335938-.570312-4.964844-2.6875-7.328125-24.609375 10.730469-40.914062 37.042969-61.269531 6.457031-4.996094 12.5625-9.714844 17.898437-14.644531 20.859375-19.261719 29.636719-42.261719 25.382813-66.507813-2.160156-12.292968-7.300782-23.058594-12.273438-33.46875-.277344-.582031-.554687-1.167968-.835937-1.757812h27.308593c4.035157 11.722656 6.476563 22.429687 7.445313 32.59375 2.292969 24.136718-4.90625 47.25-20.277344 65.082031zm10.609375-112.675781h-29.25v-21.953125h29.25zm-239.382812-36.957032c-1.148438 0-2.085938-.933593-2.085938-2.085937v-12.96875c0-1.148437.9375-2.085937 2.089844-2.085937h126.050781c4.140625 0 7.5-3.359376 7.5-7.5 0-4.144532-3.359375-7.503907-7.5-7.503907h-38.472656l-19.617187-22.535156c-4.90625-5.636719-11.164063-9.789063-18.082032-12.152344l103.570313-124.59375c12.066406 11.425781 26.199219 20.355469 38.390625 31.617188 17.171875 15.855469 24.164062 33.648437 20.785156 52.890625-2.652344 15.113281-10.980469 28.410156-16.886719 42.359375-.394531.925781-.609375 1.953125-.609375 2.960937v29.453125h-39.074218c-4.140626 0-7.5 3.359375-7.5 7.503907 0 4.140624 3.359374 7.5 7.5 7.5h157.378906l2.613281 8.570312-2.613281 8.570312zm323.339844 18.941407 2.820312-9.246094 4.90625-16.074219c.4375-1.425781.4375-2.953125 0-4.378906l-4.902344-16.070312c0-.003907 0-.003907-.003906-.003907l-2.820312-9.25 53.761718 27.511719zm0 0"/></svg>