<svg height="512pt" viewBox="-1 0 512 512.001" width="512pt" xmlns="http://www.w3.org/2000/svg"><path d="m154.242188 367.347656-42.902344 117.871094c-3.414063 9.371094 3.527344 19.28125 13.5 19.28125h43.023437c6.039063 0 11.433594-3.777344 13.5-9.453125l37.871094-104.042969zm0 0" fill="#c68c6a"/><path d="m423.105469 367.347656 42.90625 117.871094c3.410156 9.371094-3.53125 19.28125-13.503907 19.28125h-43.023437c-6.039063 0-11.433594-3.777344-13.5-9.453125l-37.871094-104.042969zm0 0" fill="#c68c6a"/><path d="m423.105469 367.347656-64.992188 23.65625 20.761719 57.035156c22.019531-8.792968 42.464844-20.707031 60.792969-35.191406zm0 0" fill="#b27858"/><path d="m137.679688 412.847656c18.328124 14.484375 38.777343 26.398438 60.792968 35.191406l20.761719-57.035156-64.992187-23.65625zm0 0" fill="#b27858"/><path d="m288.675781 435.335938c-117.957031 0-213.917969-95.964844-213.917969-213.917969s95.960938-213.917969 213.917969-213.917969c117.953125 0 213.917969 95.964844 213.917969 213.917969s-95.964844 213.917969-213.917969 213.917969zm0 0" fill="#a5d0d8"/><path d="m288.675781 379.175781c-86.988281 0-157.757812-70.769531-157.757812-157.757812s70.769531-157.757813 157.757812-157.757813 157.757813 70.769532 157.757813 157.757813-70.769532 157.757812-157.757813 157.757812zm0 0" fill="#bce7ea"/><path d="m288.675781 323.015625c-56.023437 0-101.597656-45.578125-101.597656-101.597656s45.574219-101.597657 101.597656-101.597657c56.019531 0 101.597657 45.578126 101.597657 101.597657s-45.578126 101.597656-101.597657 101.597656zm0 0" fill="#a5d0d8"/><path d="m334.113281 221.417969c0 25.09375-20.34375 45.4375-45.4375 45.4375-25.097656 0-45.441406-20.34375-45.441406-45.4375s20.34375-45.4375 45.441406-45.4375c25.09375 0 45.4375 20.34375 45.4375 45.4375zm0 0" fill="#bce7ea"/><path d="m93.359375 182.738281c-7.132813-11.289062-19.554687-18.136719-32.90625-18.136719h-40.546875c-9.269531 0-15.273438 9.785157-11.074219 18.050782l10.90625 21.472656 55.019531 17.292969 32.109376-17.292969zm0 0" fill="#ffdaa6"/><path d="m93.359375 260.097656c-7.132813 11.289063-19.554687 18.132813-32.90625 18.132813h-40.546875c-9.269531 0-15.273438-9.78125-11.074219-18.046875l10.90625-21.472656 55.019531-17.292969 32.109376 17.292969zm0 0" fill="#ffdaa6"/><path d="m271.382812 204.125h-251.644531c-4.539062 0-8.21875 3.679688-8.21875 8.21875v18.144531c0 4.539063 3.679688 8.21875 8.21875 8.21875h251.644531c9.550782 0 17.292969-7.742187 17.292969-17.289062 0-9.550781-7.742187-17.292969-17.292969-17.292969zm0 0" fill="#c68c6a"/><path d="m9.300781 183.578125 10.4375 20.546875h87.132813l-12.980469-20.546875zm0 0" fill="#f9cf99"/><path d="m9.300781 259.257812 10.4375-20.546874h87.132813l-12.980469 20.546874zm0 0" fill="#f9cf99"/><path d="m288.640625 0c-50.484375 0-98.066406 16.621094-137.59375 48.0625-35.933594 28.585938-62.347656 67.988281-75.074219 111.71875-4.910156-1.738281-10.152344-2.679688-15.554687-2.679688 0 0-40.515625 0-40.542969 0-14.597656 0-24.386719 15.910157-17.761719 28.945313l7.324219 14.421875c-3.332031 2.886719-5.449219 7.132812-5.449219 11.875v18.144531c0 4.742188 2.117188 8.992188 5.449219 11.875 0 0-7.320312 14.414063-7.324219 14.421875-6.625 13.042969 3.183594 28.945313 17.761719 28.945313h40.542969c5.402343 0 10.644531-.9375 15.554687-2.675781 11.355469 39.007812 33.605469 74.566406 63.78125 102.082031l-35.496094 97.515625c-5.109374 14.035156 5.648438 29.347656 20.550782 29.347656h43.023437c9.160157 0 17.417969-5.78125 20.546875-14.386719l24.738282-67.964843c23.914062 8.699218 49.324218 13.1875 75.523437 13.1875 26.5 0 51.925781-4.6875 75.5-13.261719l24.765625 68.039062c3.132812 8.605469 11.390625 14.386719 20.546875 14.386719h43.023437c7.128907 0 13.824219-3.484375 17.914063-9.324219 4.085937-5.839843 5.074219-13.324219 2.636719-20.023437l-35.488282-97.496094c44.527344-40.527344 72.519532-98.925781 72.519532-163.738281 0-122.089844-99.328125-221.417969-221.417969-221.417969zm-269.652344 230.488281v-18.144531c0-.394531.324219-.71875.71875-.71875h251.644531c4.914063 0 9.246094 3.898438 9.738282 8.792969.574218 5.683593-4.015625 10.789062-9.738282 10.789062h-251.644531c-.398437 0-.71875-.320312-.71875-.71875zm252.363281 15.71875c13.414063 0 24.789063-11.382812 24.789063-24.789062 0-13.671875-11.121094-24.792969-24.789063-24.792969h-11.449218c7.074218-8.222656 17.464844-13.148438 28.738281-13.148438 20.921875 0 37.941406 17.019532 37.941406 37.9375 0 20.921876-17.019531 37.941407-37.941406 37.941407-11.273437 0-21.664063-4.925781-28.738281-13.148438zm-255.589843-71.703125c.859375-1.398437 2.355469-2.402344 4.113281-2.402344h40.542969c10.5625 0 20.925781 5.714844 26.566406 14.640626l6.242187 9.882812h-68.917968s-8.792969-17.3125-8.824219-17.371094c-.800781-1.574218-.578125-3.359375.277344-4.75zm4.113281 96.226563c-3.617188 0-6.023438-3.9375-4.390625-7.152344l8.824219-17.371094h68.917968l-6.242187 9.882813c-5.667969 8.976562-15.945313 14.640625-26.5625 14.640625-.003906 0-40.546875 0-40.546875 0zm154.410156 221.75c-.984375 2.703125-3.578125 4.519531-6.453125 4.519531 0 0-42.898437 0-43.023437 0-4.691406 0-8.058594-4.808594-6.453125-9.21875l33.59375-92.300781c.164062.128906 3.972656 3.066406 5.742187 4.371093 13.078125 9.644532 26.972656 17.730469 41.507813 24.1875zm251.050782-96.992188s33.550781 92.175781 33.59375 92.292969c1.609374 4.421875-1.765626 9.21875-6.453126 9.21875h-43.023437c-2.875 0-5.46875-1.816406-6.453125-4.519531l-24.941406-68.523438c.027344-.011719.054687-.023437.082031-.035156 16.804687-7.457031 32.683594-17.019531 47.136719-28.386719.019531-.015625.039062-.03125.058594-.046875zm-1.464844-18.242187c-.011719.011718-.027344.019531-.039063.027344-37.855469 31.957031-85.417969 50.5625-135.191406 50.5625-49.324219 0-97.765625-18.097657-135.011719-50.425782-30.941406-26.847656-53.480468-62.578125-64.1875-101.859375 1.980469-1.585937 3.828125-3.347656 5.539063-5.265625 6.253906-7.011718 10.890625-16.007812 15.929687-23.984375.019532-.03125.039063-.0625.058594-.09375h14.289062c5.6875 37.597657 24.257813 72.144531 52.765626 97.882813 30.421874 27.460937 69.707031 42.585937 110.617187 42.585937 91.125 0 165.257813-74.136719 165.257813-165.261719 0-91.121093-74.132813-165.253906-165.257813-165.253906-33.214844 0-65.277344 9.863282-92.710937 28.527344-3.425782 2.328125-4.3125 6.996094-1.984376 10.417969 2.332032 3.425781 6.996094 4.3125 10.421876 1.984375 24.9375-16.964844 54.078124-25.929688 84.273437-25.929688 82.855469 0 150.257813 67.402344 150.257813 150.257813 0 82.851562-67.402344 150.257812-150.257813 150.257812-37.1875 0-72.90625-13.75-100.5625-38.722656-25.363281-22.894531-42.082031-53.441406-47.636719-86.746094h41.976563c5.28125 22.582031 17.75 43.101563 35.59375 58.296875 19.699219 16.773438 44.785156 26.011719 70.628906 26.011719 22.96875 0 44.957031-7.089844 63.59375-20.5 3.359375-2.417969 4.125-7.105469 1.707031-10.46875-2.421875-3.363281-7.105468-4.125-10.46875-1.707031-16.066406 11.5625-35.027344 17.675781-54.828125 17.675781-22.289062 0-43.917969-7.96875-60.910156-22.4375-14.496094-12.34375-24.898437-28.746094-29.867187-46.871094h44.003906c9.121094 17.25 26.960937 28.148438 46.773437 28.148438 29.1875 0 52.9375-23.75 52.9375-52.941407 0-29.1875-23.75-52.9375-52.9375-52.9375-19.8125 0-37.652343 10.898438-46.773437 28.148438h-44.003906c4.96875-18.125 15.371093-34.527344 29.867187-46.871094 16.992187-14.46875 38.621094-22.4375 60.910156-22.4375 51.886719 0 94.097657 42.214844 94.097657 94.097656 0 20.796876-6.683594 40.523438-19.324219 57.050782-2.519531 3.289062-1.890625 7.996094 1.398437 10.515625 3.289063 2.515625 7.996094 1.886719 10.515625-1.402344 14.660157-19.167969 22.410157-42.046875 22.410157-66.164063 0-60.15625-48.941407-109.097656-109.097657-109.097656-25.847656 0-50.929687 9.238282-70.632812 26.015625-17.84375 15.191407-30.3125 35.707031-35.589844 58.292969h-41.976563c5.121094-30.511719 19.785157-59.085938 41.824219-81.203125 2.921875-2.9375 2.914063-7.683594-.019531-10.609375-2.9375-2.921875-7.6875-2.914062-10.609375.019531-24.828125 24.921875-41.140625 57.300781-46.382813 91.792969h-14.289062l-11.300781-17.894531c-2.742188-4.335938-6.226563-8.238281-10.226563-11.449219 11.472656-42.085938 36.523438-80.097656 70.941406-107.480469 36.847657-29.308593 81.199219-44.800781 128.257813-44.800781 113.820313 0 206.417969 92.597656 206.417969 206.417969 0 62.140625-27.601563 117.953125-71.1875 155.828125zm0 0"/></svg>