<svg height="512pt" viewBox="-24 0 512 512.00238" width="512pt" xmlns="http://www.w3.org/2000/svg"><g fill="#a67052"><path d="m193.496094 63.449219h76.90625v79.824219h-76.90625zm0 0"/><path d="m22.394531 399.835938h419.105469v104.757812h-419.105469zm0 0"/><path d="m387.136719 206.082031-150.046875-42.3125-160.332032 42.3125-5.140624 98.511719 160.332031 29.09375 160.328125-29.09375zm0 0"/></g><path d="m22.394531 448.988281h419.105469v-49.152343h-419.105469zm0 0" fill="#935b43"/><path d="m453.875 395.671875-61.597656-91.074219h-320.660156l-61.59375 91.074219c-6.707032 9.917969.398437 23.304687 12.371093 23.304687h419.105469c11.976562 0 19.082031-13.386718 12.375-23.304687zm0 0" fill="#57565c"/><path d="m76.757812 206.082031-1.566406 30.011719h313.511719l-1.566406-30.011719-150.046875-42.3125zm0 0" fill="#935b43"/><path d="m394.371094 182.777344-61.597656-61.324219h-201.652344l-61.59375 61.324219c-6.707032 9.921875.398437 23.304687 12.371094 23.304687h300.097656c11.976562 0 19.082031-13.382812 12.375-23.304687zm0 0" fill="#57565c"/><path d="m265.003906 163.933594h-20.660156v-20.660156h-24.792969v20.660156h-20.660156v24.792968h20.660156v62.316407h24.792969v-62.316407h20.660156zm0 0" fill="#ffdaa6"/><path d="m298.554688 345.421875v159.171875h-133.210938v-159.171875l66.605469-80.332031zm0 0" fill="#c68c6a"/><path d="m330.261719 354.957031-82.460938-109.65625c-4.710937-6.269531-12.792969-9.289062-20.722656-7.3125-4.503906 1.125-8.421875 3.90625-11.210937 7.617188l-82.230469 109.351562c-3.035157 4.035157-2.222657 9.761719 1.8125 12.796875l17.097656 12.859375c4.035156 3.03125 9.761719 2.21875 12.796875-1.8125l66.605469-88.578125 66.605469 88.578125c3.03125 4.03125 8.761718 4.84375 12.792968 1.8125l17.101563-12.859375c4.03125-3.035156 4.84375-8.761718 1.8125-12.796875zm0 0" fill="#935b43"/><path d="m250.222656 379.796875h-36.546875c-7.539062 0-13.652343 6.113281-13.652343 13.652344v111.144531h63.847656v-111.148438c.003906-7.539062-6.109375-13.648437-13.648438-13.648437zm0 0" fill="#57565c"/><path d="m282.925781 65.21875-35.199219-49.65625c-3.625-5.117188-9.507812-8.15625-15.777343-8.15625-6.273438 0-12.152344 3.039062-15.78125 8.15625l-35.199219 49.65625c-3.609375 5.09375.03125 12.140625 6.273438 12.140625h89.410156c6.242187 0 9.886718-7.046875 6.273437-12.140625zm0 0" fill="#57565c"/><path d="m193.496094 77.359375h76.90625v26h-76.90625zm0 0" fill="#935b43"/><path d="m399.609375 302.023438-4.832031-92.558594c2.871094-2 5.28125-4.679688 6.984375-7.894532 3.734375-7.03125 3.875-18.214843-2.152344-24.207031l-61.59375-61.324219c-1.40625-1.398437-3.308594-2.183593-5.292969-2.183593h-54.871094v-29.148438c5.203126-.421875 9.820313-3.464843 12.246094-8.160156 2.621094-5.066406 2.195313-11.109375-1.101562-15.765625 0 0-35.171875-49.613281-35.199219-49.65625-10.527344-14.847656-33.296875-14.820312-43.800781 0 0 0-35.132813 49.5625-35.199219 49.65625-6.6875 9.429688-.34375 22.988281 11.140625 23.925781v29.148438h-54.867188c-1.984374 0-3.890624.785156-5.296874 2.1875 0 0-62.246094 62.035156-62.515626 62.4375-6.777343 10.003906-4.140624 24.085937 5.753907 30.984375l-4.832031 92.558594s-60.386719 89.292968-60.425782 89.347656c-8.089844 11.964844-2.511718 28.914062 11.085938 33.726562v79.402344c0 4.144531 3.359375 7.503906 7.503906 7.503906h419.101562c4.144532 0 7.503907-3.359375 7.503907-7.503906v-79.402344c5.207031-1.84375 9.632812-5.578125 12.316406-10.632812 3.902344-7.347656 3.429687-16.199219-1.230469-23.09375zm-75.207031 57.683593c.28125.671875.085937 1.5-.515625 1.953125 0 0-17.089844 12.847656-17.101563 12.859375-.699218.527344-1.761718.371094-2.289062-.324219 0 0-66.421875-88.335937-66.515625-88.460937-2.984375-3.96875-9.046875-4.117187-12.082031-.117187 0 0-66.605469 88.578124-66.605469 88.578124-.53125.703126-1.582031.855469-2.289063.324219 0 0-17.085937-12.851562-17.097656-12.859375-.695312-.523437-.871094-1.566406-.324219-2.289062 0 0 82.21875-109.339844 82.234375-109.359375 4.988282-6.464844 14.847656-7.019531 19.933594-.296875 0 0 82.605469 109.875 82.652344 109.992187zm-80.109375-188.367187h13.15625v9.789062h-13.15625c-4.144531 0-7.503907 3.359375-7.503907 7.503906 0 0 0 41.605469-.027343 41.601563-3.152344-.578125-6.390625-.585937-9.546875-.035156-.070313.011719-.144532.015625-.214844.027343v-41.59375c0-4.144531-3.355469-7.503906-7.5-7.503906h-13.160156v-9.789062h13.160156c4.144531 0 7.5-3.359375 7.5-7.503906v-13.15625h9.789062v13.15625c0 4.144531 3.359376 7.503906 7.503907 7.503906zm9.449219 69.355468c-.519532-.691406-1.847657-2.203124-1.949219-2.304687v-24.902344h128.171875l4.355468 83.507813h-88.238281s-42.335937-56.300782-42.339843-56.300782zm-66.707032-171.234374s35.167969-49.609376 35.203125-49.65625c4.636719-6.542969 14.683594-6.535157 19.316407 0l35.246093 49.734374c.003907.058594-.058593.183594-.105469.210938 0 0-.027343.007812-.09375.007812l-89.503906-.007812c-.050781-.027344-.113281-.152344-.0625-.289062zm13.910156 15.300781h61.902344v29.09375h-61.902344zm-125.582031 102.644531 58.804688-58.546875h195.453125l58.804687 58.546875c2.796875 4.863281-.949219 11.074219-6.484375 11.074219h-130.148437v-2.347657h13.160156c4.140625 0 7.5-3.359374 7.5-7.503906v-24.792968c0-4.144532-3.359375-7.503907-7.5-7.503907h-13.160156v-13.15625c0-4.144531-3.359375-7.503906-7.503907-7.503906h-24.792968c-4.144532 0-7.5 3.359375-7.5 7.503906v13.15625h-13.160156c-4.144532 0-7.503907 3.359375-7.503907 7.503907v24.792968c0 4.144532 3.359375 7.503906 7.503907 7.503906h13.160156v2.347657h-53.464844c-4.144531 0-7.503906 3.359375-7.503906 7.503906s3.359375 7.503906 7.503906 7.503906h53.464844v24.9375c-.136719.144531-1.625 1.832031-2.179688 2.574219l-42.109375 55.996094h-88.238281l4.355469-83.507813h44.695312c4.144531 0 7.503907-3.359375 7.503907-7.503906s-3.359376-7.503906-7.503907-7.503906c0 0-46.597656 0-46.675781 0-5.5625.003906-9.269531-6.226563-6.480469-11.074219zm-59.179687 212.371094 59.363281-87.777344h80.878906s-28.824219 38.328125-28.839843 38.351562c-5.941407 7.898438-3.125 16.878907 3.296874 23.300782 0 0 17.097657 12.855468 17.101563 12.859375 2.800781 2.105469 6.292969 3.296875 9.800781 3.339843v21.523438s-135.203125 0-135.441406 0c-5.734375 0-9.503906-6.652344-6.160156-11.597656zm13.664062 26.605468h127.9375v70.613282h-127.9375zm142.945313-45.175781 59.101562-78.59375 59.105469 78.597657v115.785156h-19.675781v-103.644532c0-11.667968-9.488281-21.15625-21.15625-21.15625h-36.546875c-11.664063 0-21.152344 9.488282-21.152344 21.15625v103.644532h-19.675781zm34.679687 115.789063v-103.644532c0-3.390624 2.757813-6.152343 6.148438-6.152343h36.546875c3.390625 0 6.148437 2.761719 6.148437 6.152343v103.644532zm226.472656 0h-127.941406v-70.617188h64.609375c4.144531 0 7.503907-3.355468 7.503907-7.5 0-4.144531-3.359376-7.503906-7.503907-7.503906h-64.609375v-21.53125c3.558594-.039062 6.945313-1.1875 9.800782-3.332031 0 0 17.089843-12.851563 17.101562-12.859375 7.21875-5.429688 8.714844-16.097656 3.296875-23.300782l-28.835937-38.351562h80.875l59.363281 87.777344c3.3125 4.898437-.3125 11.597656-6.15625 11.597656h-40.824219c-4.144531 0-7.503906 3.359375-7.503906 7.503906 0 4.144532 3.359375 7.503906 7.503906 7.503906h33.320312zm0 0"/></svg>