<svg height="511pt" viewBox="0 -58 511.99799 511" width="511pt" xmlns="http://www.w3.org/2000/svg"><path d="m208.421875 98.941406c.160156-2.984375-.148437-5.976562-.914063-8.871094l-6.796874-25.746093c-.460938-1.753907-.757813-3.550781-.882813-5.359375l-.84375-12.203125c-.671875-9.738281-6.242187-18.472657-14.792969-23.191407l-20-11.027343c-4.460937-2.460938-9.496094-3.691407-14.585937-3.566407l-23.558594.578126c-.636719.015624-1.277344.007812-1.914063-.019532l-35.957031-1.511718c-8.035156-.339844-15.84375 2.703124-21.53125 8.390624-2.789062 2.785157-6.121093 4.972657-9.792969 6.414063l-.808593.320313c-9.550781 3.761718-16.375 12.328124-17.898438 22.480468l-2.527343 16.855469 141.09375 70.707031 30.578124-13.015625zm0 0" fill="#aeaeb2"/><path d="m65.617188 72.484375 2.527343-16.855469c1.523438-10.152344 8.347657-18.71875 17.898438-22.480468l.808593-.316407c3.671876-1.445312 7.003907-3.628906 9.792969-6.417969 5.6875-5.683593 13.496094-8.726562 21.53125-8.390624l35.957031 1.515624c.636719.027344 1.277344.03125 1.914063.015626l19.96875-.492188-11.824219-6.519531c-4.460937-2.460938-9.496094-3.691407-14.589844-3.566407l-23.554687.578126c-.640625.015624-1.277344.011718-1.917969-.015626l-35.957031-1.515624c-8.03125-.335938-15.839844 2.707031-21.527344 8.390624-2.789062 2.789063-6.121093 4.972657-9.792969 6.417969l-.808593.316407c-9.554688 3.761718-16.375 12.332031-17.898438 22.480468l-2.527343 16.855469 141.09375 70.707031 5.429687-2.3125zm0 0" fill="#a1a1a5"/><path d="m35.617188 62.484375c-9.570313-3.214844-19.9375 1.9375-23.15625 11.507813-16.6875 49.664062 10.042968 103.453124 59.707031 120.144531 43.269531 14.539062 89.671875-3.886719 111.9375-41.71875l158.898437 53.394531 12.085938-35.96875zm0 0" fill="#a67052"/><path d="m42.460938 83.992188c3.054687-9.082032 12.542968-14.171876 21.683593-11.921876l-28.527343-9.585937c-9.570313-3.214844-19.9375 1.9375-23.15625 11.507813-16.6875 49.664062 10.042968 103.453124 59.707031 120.140624 5.179687 1.742188 10.402343 2.996094 15.625 3.816407-40.257813-21.378907-60.328125-69.328125-45.332031-113.957031zm0 0" fill="#935b43"/><path d="m343.003906 205.8125 12.085938-35.96875-51.746094-17.390625-29.960938 29.964844zm0 0" fill="#935b43"/><path d="m442.65625 55.566406 32.929688 32.929688-177.710938 177.710937-32.933594-32.929687zm0 0" fill="#aeaeb2"/><path d="m478.75 42.710938h-33.730469c-6.058593 0-10.96875 4.910156-10.96875 10.96875v196.070312h55.667969v-196.070312c0-6.058594-4.910156-10.96875-10.96875-10.96875zm0 0" fill="#a67052"/><path d="m300.960938 197.265625-36.019532 36.019531 32.933594 32.929688 68.945312-68.949219zm0 0" fill="#a1a1a5"/><path d="m434.050781 197.265625h55.667969v52.484375h-55.667969zm0 0" fill="#935b43"/><path d="m489.71875 227.265625h-458.367188c-8.164062 0-14.785156 6.617187-14.785156 14.78125v67.199219c0 8.164062 6.621094 14.78125 14.785156 14.78125h458.367188c8.164062 0 14.78125-6.617188 14.78125-14.78125v-67.199219c0-8.160156-6.617188-14.78125-14.78125-14.78125zm0 0" fill="#c68c6a"/><path d="m476.332031 324.03125c0 35.148438-28.492187 63.644531-63.644531 63.644531-35.148438 0-63.644531-28.496093-63.644531-63.644531 0-35.152344 28.496093-63.648438 63.644531-63.648438 35.152344 0 63.644531 28.496094 63.644531 63.648438zm0 0" fill="#a67052"/><path d="m439.078125 324.03125c0 14.574219-11.816406 26.390625-26.390625 26.390625s-26.390625-11.816406-26.390625-26.390625c0-14.578125 11.816406-26.390625 26.390625-26.390625s26.390625 11.8125 26.390625 26.390625zm0 0" fill="#c68c6a"/><path d="m172.027344 324.03125c0 35.148438-28.496094 63.644531-63.648438 63.644531-35.148437 0-63.644531-28.496093-63.644531-63.644531 0-35.152344 28.496094-63.648438 63.644531-63.648438 35.152344 0 63.648438 28.496094 63.648438 63.648438zm0 0" fill="#a67052"/><path d="m134.769531 324.03125c0 14.574219-11.8125 26.390625-26.390625 26.390625-14.574218 0-26.390625-11.816406-26.390625-26.390625 0-14.578125 11.816407-26.390625 26.390625-26.390625 14.578125 0 26.390625 11.8125 26.390625 26.390625zm0 0" fill="#c68c6a"/><path d="m412.683594 290.140625c-18.6875 0-33.886719 15.203125-33.886719 33.890625s15.203125 33.890625 33.886719 33.890625c18.6875 0 33.890625-15.203125 33.890625-33.890625s-15.203125-33.890625-33.890625-33.890625zm0 52.78125c-10.414063 0-18.886719-8.476563-18.886719-18.890625 0-10.417969 8.472656-18.890625 18.886719-18.890625 10.417968 0 18.890625 8.472656 18.890625 18.890625 0 10.414062-8.472657 18.890625-18.890625 18.890625zm0 0"/><path d="m108.378906 290.140625c-18.6875 0-33.890625 15.203125-33.890625 33.890625s15.203125 33.890625 33.890625 33.890625 33.886719-15.203125 33.886719-33.890625c.003906-18.6875-15.199219-33.890625-33.886719-33.890625zm0 52.78125c-10.417968 0-18.890625-8.476563-18.890625-18.890625 0-10.417969 8.472657-18.890625 18.890625-18.890625 10.414063 0 18.886719 8.472656 18.886719 18.890625 0 10.414062-8.472656 18.890625-18.886719 18.890625zm0 0"/><path d="m511.996094 242.050781c0-9.65625-6.171875-17.894531-14.78125-20.980469v-46.277343c0-4.144531-3.355469-7.5-7.5-7.5-4.140625 0-7.5 3.355469-7.5 7.5v44.972656h-40.664063v-166.085937c0-1.914063 1.554688-3.46875 3.46875-3.46875h33.726563c1.914062 0 3.46875 1.554687 3.46875 3.46875v91.113281c0 4.140625 3.359375 7.5 7.5 7.5 4.144531 0 7.503906-3.359375 7.503906-7.5v-91.113281c0-10.183594-8.285156-18.46875-18.472656-18.46875h-33.726563c-10.183593 0-18.46875 8.285156-18.46875 18.46875v7.390624l-93.46875 93.46875-118-39.65625.828125-15.542968c.199219-3.769532-.1875-7.53125-1.152344-11.179688-1.933593-7.328125-3.894531-14.648437-5.8125-21.980468-1.746093-6.664063-2.066406-13.082032-2.480468-19.929688-1.554688-22.523438-21.527344-30.828125-38.652344-40.273438-5.605469-3.09375-11.988281-4.652343-18.394531-4.496093-8.304688 0-16.671875.898437-24.972657.566406l-35.957031-1.515625c-10.226562-.429688-19.945312 3.378906-27.148437 10.578125-2.289063 2.292969-5.050782 3.882813-8.046875 5.0625-12.003907 4.726563-20.652344 15.589844-22.566407 28.347656l-1.425781 9.523438c-10.578125.210937-20.390625 6.972656-23.949219 17.5625-4.011718 11.933593-5.78125 24.328125-5.2617182 36.832031.1718752 4.136719 3.6718752 7.351562 7.8007812 7.183594 4.140625-.171875 7.355469-3.667969 7.183594-7.808594-.441407-10.664062 1.070312-21.238281 4.496093-31.429688 1.894532-5.636718 8.019532-8.683593 13.65625-6.785156 0 0 171.671876 57.6875 171.671876 57.6875l116.339843 39.097656-18.117187 18.117188-116.625-39.191406c-3.363282-1.128906-7.054688.25-8.855469 3.304687-20.796875 35.339844-64.15625 51.496094-103.085937 38.414063-24.796876-8.332032-44.390626-27.136719-53.765626-51.585938-1.484374-3.867187-5.824218-5.800781-9.691406-4.320312-3.867187 1.484375-5.800781 5.820312-4.316406 9.691406 10.984375 28.644531 33.941406 50.671875 62.996094 60.433594 22.273437 7.484375 46.925781 7.027344 68.898437-1.316406 19.8125-7.527344 36.878907-21.089844 48.625-38.523438l103.972657 34.9375-23.421876 23.425781h-236.503906c-12.289062 0-22.285156 9.996094-22.285156 22.28125v67.199219c0 12.285156 9.996094 22.28125 22.285156 22.28125h6.28125c3.757813 35.71875 34.050782 63.644531 70.75 63.644531 36.695313 0 66.984375-27.925781 70.746094-63.644531h162.8125c3.757812 35.71875 34.050781 63.644531 70.746094 63.644531 36.699218 0 66.988281-27.925781 70.75-63.644531h6.28125c12.289062 0 22.28125-9.996094 22.28125-22.28125zm-466.4375-195.308593c2.261718-15.046876 17.25-15.894532 26.386718-25.023438 4.222657-4.222656 9.914063-6.453125 15.910157-6.199219 12.78125 0 25.59375 1.828125 38.371093 1.535157 0 0 23.554688-.582032 23.5625-.582032 14.617188-.355468 40.613282 14.9375 41.710938 30.808594.433594 6.292969.335938 12.824219 1.957031 18.960938l6.796875 25.746093c.566406 2.140625.792969 4.34375.675782 6.554688l-.605469 11.382812-156.359375-52.546875s1.59375-10.625 1.59375-10.636718zm309.367187 173.023437 71.621094-71.621094v71.621094zm71.621094-137.484375v44.648438l-92.835937 92.835937h-44.648438zm-318.167969 297.894531c-30.960937 0-56.144531-25.1875-56.148437-56.148437 0-30.957032 25.1875-56.144532 56.148437-56.144532 30.503906 0 56.144532 25.632813 56.144532 56.148438 0 30.957031-25.1875 56.144531-56.144532 56.144531zm304.304688 0c-30.957032 0-56.144532-25.1875-56.144532-56.144531 0-30.59375 25.589844-56.148438 56.144532-56.148438 30.445312 0 56.148437 25.742188 56.148437 56.148438 0 30.957031-25.1875 56.144531-56.148437 56.144531zm84.3125-70.929687c0 4.015625-3.265625 7.285156-7.28125 7.285156h-6.273438c-3.097656-29.367188-25.4375-54.390625-53.972656-61.558594-36.089844-9.066406-74.433594 13.292969-84.988281 48.851563-.320313 1.085937-2.839844 12.707031-2.546875 12.707031 0 0-162.796875 0-162.800782 0 .472657-.109375-2.714843-13.3125-3.183593-14.726562-9.453125-28.675782-37.171875-48.917969-67.421875-48.917969-.050782 0-.097656-.003907-.148438-.003907-.050781 0-.097656.003907-.144531.003907-35.253906.007812-66.925781 28.691406-70.609375 63.644531h-6.277344c-4.015625 0-7.285156-3.269531-7.285156-7.285156v-67.195313c0-4.015625 3.269531-7.28125 7.285156-7.28125h458.367188c4.015625 0 7.28125 3.265625 7.28125 7.28125zm0 0"/></svg>