<svg height="512pt" viewBox="-29 0 511 512" width="512pt" xmlns="http://www.w3.org/2000/svg"><path d="m418.792969 61.691406c0 29.925782-24.261719 54.1875-54.191407 54.1875-29.929687 0-54.191406-24.261718-54.191406-54.1875 0-29.929687 24.261719-54.191406 54.191406-54.191406 29.929688 0 54.191407 24.261719 54.191407 54.191406zm0 0" fill="#a67052"/><path d="m391.277344 61.691406c0 14.730469-11.941406 26.675782-26.675782 26.675782-14.730468 0-26.675781-11.945313-26.675781-26.675782 0-14.734375 11.945313-26.675781 26.675781-26.675781 14.734376 0 26.675782 11.941406 26.675782 26.675781zm0 0" fill="#ffa3b3"/><path d="m142.636719 61.691406c0 29.925782-24.261719 54.1875-54.1875 54.1875-29.929688 0-54.191407-24.261718-54.191407-54.1875 0-29.929687 24.261719-54.191406 54.191407-54.191406 29.925781 0 54.1875 24.261719 54.1875 54.191406zm0 0" fill="#a67052"/><path d="m115.125 61.691406c0 14.730469-11.945312 26.675782-26.675781 26.675782-14.734375 0-26.675781-11.945313-26.675781-26.675782 0-14.734375 11.941406-26.675781 26.675781-26.675781 14.730469 0 26.675781 11.941406 26.675781 26.675781zm0 0" fill="#ffa3b3"/><path d="m445.050781 239.574219c0-126.75-97.835937-229.5-218.527343-229.5-120.6875 0-218.523438 102.75-218.523438 229.5s97.835938 229.503906 218.523438 229.503906c120.691406 0 218.527343-102.753906 218.527343-229.503906zm0 0" fill="#c68c6a"/><path d="m294.84375 385.207031h-136.636719s-47.449219 41.441407-47.449219 119.292969h231.53125c0-77.839844-47.433593-119.28125-47.445312-119.292969zm0 0" fill="#ffe1d7"/><path d="m314.558594 409.226562c-10.382813-15.859374-19.710938-24.015624-19.71875-24.019531h-136.632813s-9.367187 8.1875-19.777343 24.109375c27.207031 12.785156 57.128906 19.535156 88.09375 19.535156 30.683593 0 60.707031-6.804687 88.035156-19.625zm0 0" fill="#ffcec0"/><path d="m401.984375 246.96875.007813-.007812c-12.3125 85.882812-86.179688 151.890624-175.46875 151.890624-48.953126 0-93.277344-19.839843-125.34375-51.929687-26.445313-26.421875-44.566407-61.175781-50.125-99.972656l.011718.019531 23.28125-23.28125h267.941406l59.703126 23.273438" fill="#ffe1d7"/><path d="m226.816406 398.847656c3.667969-.007812 7.332032-.136718 10.996094-.359375 1.242188-.082031 2.480469-.171875 3.714844-.273437-42.972656-3.601563-81.589844-22.511719-110.351563-51.289063-33.109375-33.132812-50.148437-76.851562-51.691406-123.234375h-5.136719s-23.28125 23.28125-23.292968 23.261719c3.558593 24.824219 12.472656 48.8125 25.972656 69.945313 11.511718 18.015624 26.308594 33.929687 43.429687 46.734374 29.574219 22.121094 66.292969 35.21875 106.066407 35.21875.097656 0 .195312-.003906.292968-.003906zm0 0" fill="#ffcec0"/><path d="m403.800781 221.574219c0 8.621093-.621093 17.09375-1.808593 25.386719l-.007813.007812s-24.289063 32.96875-76.675781 32.96875c-52.382813 0-58.371094-36.871094-98.785156-36.871094-40.410157 0-46.398438 36.871094-98.785157 36.871094-52.382812 0-76.671875-32.96875-76.671875-32.96875l-.011718-.019531c-1.1875-8.292969-1.804688-16.761719-1.804688-25.375 0-17.800781 13.371094-32.71875 31.050781-34.761719 10.160157-1.179688 22.300781-3.164062 35.691407-6.507812l19.179687 8.210937 19.179687-20.785156c4.648438-1.863281 9.886719-3.539063 15.355469-5.039063 37.160157-10.207031 76.464844-10.214844 113.621094-.007812 5.480469 1.507812 10.71875 3.183594 15.367187 5.046875l19.179688 20.785156 19.179688-8.210937c13.390624 3.34375 25.53125 5.328124 35.679687 6.507812 8.851563 1.015625 16.613281 5.265625 22.164063 11.472656 5.558593 6.207032 8.902343 14.390625 8.902343 23.289063zm0 0" fill="#a5d0d8"/><path d="m51.066406 246.96875s11.4375 15.519531 35.53125 25.261719c-2.4375-8.195313-4.304687-16.636719-5.542968-25.28125-1.1875-8.292969-1.804688-26.761719-1.804688-35.375 0-10.394531 4.566406-19.804688 11.882812-26.246094-3.597656.5625-7.210937 1.066406-10.828124 1.484375-11.605469 1.339844-21.351563 8.226562-26.683594 17.832031-6.949219 12.53125-4.507813 28.765625-2.554688 42.324219zm0 0" fill="#92c3cc"/><path d="m154.351562 167.730469-6.027343 30.40625c-1.773438 6.59375-7.742188 11.175781-14.566407 11.175781-6.558593 0-12.363281-4.242188-14.371093-10.476562l-3.390625-18.53125c11.972656-2.984376 24.933594-7.054688 38.355468-12.574219zm0 0" fill="#edebec"/><path d="m337.054688 180.304688-3.394532 18.53125c-2.003906 6.234374-7.8125 10.476562-14.367187 10.476562-6.824219 0-12.792969-4.582031-14.570313-11.175781l-6.027344-30.40625c13.421876 5.519531 26.382813 9.589843 38.359376 12.574219zm0 0" fill="#edebec"/><path d="m205.570312 104.175781c0-9.386719 41.910157-9.386719 41.910157 0 0 9.382813-9.382813 16.992188-20.957031 16.992188-11.570313 0-20.953126-7.609375-20.953126-16.992188zm0 0" fill="#57565c"/><path d="m145.320312 252.402344c4.144532 0 7.5-3.355469 7.5-7.5v-16.71875c0-4.140625-3.355468-7.5-7.5-7.5-4.140624 0-7.5 3.359375-7.5 7.5v16.71875c0 4.144531 3.359376 7.5 7.5 7.5zm0 0"/><path d="m307.730469 252.402344c4.140625 0 7.5-3.355469 7.5-7.5v-16.71875c0-4.140625-3.359375-7.5-7.5-7.5-4.144531 0-7.5 3.359375-7.5 7.5v16.71875c0 4.144531 3.355469 7.5 7.5 7.5zm0 0"/><path d="m134.210938 83.460938v17.460937c0 4.144531 3.355468 7.5 7.5 7.5 4.140624 0 7.5-3.355469 7.5-7.5v-17.460937c0-4.140626-3.359376-7.5-7.5-7.5-4.144532 0-7.5 3.359374-7.5 7.5zm0 0"/><path d="m303.839844 83.460938v17.460937c0 4.144531 3.359375 7.5 7.5 7.5 4.144531 0 7.5-3.355469 7.5-7.5v-17.460937c0-4.140626-3.355469-7.5-7.5-7.5-4.140625 0-7.5 3.359374-7.5 7.5zm0 0"/><path d="m226.523438 291.867188c9.976562 0 19.339843-4.164063 25.691406-11.429688 2.726562-3.117188 2.40625-7.855469-.710938-10.582031-3.121094-2.726563-7.859375-2.410157-10.582031.710937-3.503906 4.003906-8.75 6.300782-14.398437 6.300782-5.644532 0-10.890626-2.296876-14.394532-6.300782-2.726562-3.121094-7.464844-3.4375-10.582031-.710937-3.121094 2.726562-3.4375 7.464843-.710937 10.582031 6.351562 7.265625 15.714843 11.429688 25.6875 11.429688zm0 0"/><path d="m198.070312 104.175781c0 13.503907 12.765626 24.492188 28.457032 24.492188 15.6875 0 28.453125-10.988281 28.453125-24.492188 0-9.242187-10.371094-14.539062-28.453125-14.539062-18.085938 0-28.457032 5.296875-28.457032 14.539062zm28.453126 9.492188c-6.238282 0-11.648438-3.183594-13.082032-7.324219 2.234375-.78125 6.667969-1.707031 13.082032-1.707031 6.417968 0 10.847656.925781 13.085937 1.707031-1.433594 4.140625-6.84375 7.324219-13.085937 7.324219zm0 0"/><path d="m452.550781 239.574219c0-25.429688-3.832031-50.480469-11.394531-74.457031-1.246094-3.949219-5.457031-6.140626-9.410156-4.894532-3.949219 1.246094-6.140625 5.457032-4.894532 9.40625 7.097657 22.515625 10.699219 46.046875 10.699219 69.949219 0 78.464844-39.261719 150.75-103.023437 190.757813-8.886719-20.203126-19.71875-34.535157-26.917969-42.722657 14.5-7.082031 28.117187-16.074219 40.449219-26.855469 33.320312-29.117187 55.109375-69.148437 61.359375-112.734374 1.25-8.714844 1.882812-17.613282 1.882812-26.445313 0-21.347656-16.527343-39.78125-37.699219-42.214844-11.609374-1.347656-23.292968-3.480469-34.734374-6.335937-18.339844-4.570313-35.394532-12.582032-53.546876-17.574219-38.304687-10.535156-79.289062-10.515625-117.59375.007813-18.15625 4.96875-35.207031 13-53.546874 17.570312-11.441407 2.855469-23.128907 4.984375-34.738282 6.332031-21.488281 2.484375-37.691406 20.632813-37.691406 42.210938 0 8.828125.632812 17.722656 1.882812 26.441406 5.6875 39.707031 23.753907 75.746094 52.238282 104.207031 14.667968 14.679688 31.382812 26.574219 49.488281 35.441406-7.210937 8.179688-18.023437 22.460938-26.886719 42.640626-20.402344-12.808594-38.488281-29.035157-53.84375-48.335938-2.578125-3.238281-7.296875-3.777344-10.539062-1.199219-3.242188 2.582031-3.777344 7.296875-1.199219 10.539063 17.03125 21.402344 37.21875 39.277344 60.0625 53.210937-5.714844 16.828125-9.695313 36.847657-9.695313 59.980469 0 4.140625 3.359376 7.5 7.5 7.5h231.53125c4.140626 0 7.5-3.359375 7.5-7.5 0-23.097656-4-43.117188-9.730468-59.957031 69.546875-42.417969 112.492187-120.347657 112.492187-204.96875zm-140.527343-43.1875-3.328126-16.800781c6.480469 2.300781 13.074219 4.375 19.730469 6.207031l-2.039062 11.128906c-1.117188 2.941406-3.917969 4.890625-7.09375 4.890625-3.351563 0-6.308594-2.222656-7.269531-5.425781zm-167.667969-16.800781-2.671875 13.476562c-.882813 4.460938-2.503906 8.75-7.925782 8.75-6.28125 0-7.359374-6.363281-8.257812-11.242188l-.875-4.777343c6.65625-1.832031 13.25-3.90625 19.730469-6.207031zm-63.1875 14.675781c9.632812-1.117188 19.3125-2.746094 28.871093-4.855469 0 0 .152344.835938.152344.835938.878906 4.792968 1.1875 9.863281 3.453125 14.269531 3.8125 7.480469 11.5 12.300781 20.113281 12.300781 9.773438 0 19.976563-7.363281 21.925782-17.21875l5.214844-26.316406c3.226562-1.144532 6.839843-2.269532 10.796874-3.351563 17.855469-4.90625 36.3125-7.394531 54.851563-7.394531 18.527344 0 36.964844 2.484375 54.796875 7.382812 3.96875 1.09375 7.589844 2.21875 10.804688 3.363282l.332031 1.664062s4.886719 24.648438 4.886719 24.652344c1.980468 10 11.945312 17.21875 21.925781 17.21875 9.355469 0 19.972656-6.945312 21.746093-16.628906l1.972657-10.777344c9.554687 2.109375 19.234375 3.738281 28.867187 4.855469 13.707032 1.589843 24.421875 13.492187 24.421875 27.3125 0 7.4375-.488281 14.929687-1.453125 22.292969-.042968.046874-.078125.09375-.125.144531-.070312.082031-.148437.171875-.226562.257812-17.039063 19.429688-43.90625 28.167969-69.1875 28.167969-25.5 0-38.40625-9.152344-52.074219-18.839844-12.5-8.863281-25.421875-18.03125-46.710937-18.03125-21.285157 0-34.210938 9.167969-46.710938 18.03125-13.664062 9.6875-26.570312 18.839844-52.074219 18.839844-25.1875 0-52.730469-8.859375-69.503906-28.527344-.011719-.015625-.019531-.023437-.03125-.035156-.964844-7.371094-1.453125-14.859375-1.453125-22.300781 0-13.960938 10.496094-25.703125 24.417969-27.3125zm-17.984375 73.847656c.066406.046875.136718.09375.203125.140625.09375.066406.191406.132812.289062.199219 18.671875 12.886719 41.503907 18.988281 64.066407 18.988281 30.277343 0 46.464843-11.476562 60.75-21.605469 11.550781-8.191406 21.527343-15.265625 38.035156-15.265625 16.507812 0 26.484375 7.074219 38.035156 15.265625 14.28125 10.128907 30.46875 21.605469 60.75 21.605469 22.699219 0 45.78125-6.257812 64.515625-19.300781-8.921875 31.296875-26.789063 59.613281-51.636719 81.328125-30.761718 26.878906-70.835937 41.886718-111.664062 41.886718-44.953125 0-88.25-17.957031-120.046875-49.734374-20.75-20.730469-35.476563-45.828126-43.296875-73.507813zm239.160156 228.890625v-34.410156c0-4.140625-3.359375-7.5-7.5-7.5-4.144531 0-7.5 3.359375-7.5 7.5v34.410156h-121.632812v-34.410156c0-4.140625-3.359376-7.5-7.5-7.5-4.144532 0-7.5 3.359375-7.5 7.5v34.410156h-32.292969c2.394531-57.160156 31.660156-92.59375 41.511719-102.960938 10.503906 4.054688 21.394531 7.121094 32.558593 9.1875.027344.007813.058594.011719.085938.019532.027343.003906.054687.007812.082031.015625 33.40625 6.441406 68.714844 3.019531 100.417969-9.269531 9.820312 10.320312 39.160156 45.769531 41.5625 103.007812zm0 0"/><path d="m34.96875 365.425781c2.105469 3.519531 6.777344 4.683594 10.285156 2.582031 3.554688-2.125 4.710938-6.734374 2.582032-10.285156-21.152344-35.332031-32.335938-76.1875-32.335938-118.148437 0-122.410157 94.664062-222 211.027344-222 64.636718 0 127.363281 33.421875 165.925781 84.859375 9.222656 12.300781 17.519531 26.214844 24.074219 40.433594 1.730468 3.761718 6.1875 5.40625 9.949218 3.671874 3.761719-1.730468 5.40625-6.1875 3.671876-9.949218-5.519532-11.976563-11.96875-23.386719-19.25-34.144532 9.847656-11.203124 15.394531-25.726562 15.394531-40.757812 0-34.011719-27.675781-61.6875-61.691407-61.6875-18.53125 0-35.855468 8.261719-47.523437 22.375-28.382813-13.019531-59.144531-19.800781-90.554687-19.800781-31.703126 0-62.40625 6.808593-90.597657 19.742187-11.667969-14.078125-28.96875-22.316406-47.476562-22.316406-34.015625 0-61.691407 27.675781-61.691407 61.6875 0 15.023438 5.542969 29.535156 15.378907 40.738281-27.042969 39.800781-41.636719 87.300781-41.636719 137.148438 0 44.675781 11.917969 88.191406 34.46875 125.851562zm347.679688-297.238281c-8.464844-8.476562-17.570313-16.28125-27.25-23.335938 2.773437-1.519531 5.917968-2.335937 9.203124-2.335937 10.574219 0 19.175782 8.601563 19.175782 19.175781 0 2.242188-.386719 4.433594-1.128906 6.496094zm-18.046876-53.1875c25.746094 0 46.691407 20.945312 46.691407 46.6875 0 10.230469-3.394531 20.152344-9.503907 28.214844-2.660156-3.421875-5.410156-6.769532-8.253906-10.035156 3.410156-5.402344 5.242188-11.664063 5.242188-18.179688 0-18.84375-15.332032-34.171875-34.175782-34.171875-8.402343 0-16.273437 3.003906-22.433593 8.394531-3.6875-2.304687-7.425781-4.503906-11.21875-6.578125 8.726562-9.089843 20.808593-14.332031 33.652343-14.332031zm-295.328124 46.6875c0-10.570312 8.601562-19.171875 19.175781-19.171875 3.269531 0 6.402343.808594 9.167969 2.320313-9.550782 6.980468-18.648438 14.773437-27.210938 23.359374-.746094-2.0625-1.132812-4.257812-1.132812-6.507812zm-27.515626 0c0-25.742188 20.945313-46.6875 46.691407-46.6875 12.820312 0 24.886719 5.226562 33.609375 14.289062-3.792969 2.082032-7.542969 4.265626-11.230469 6.578126-6.148437-5.363282-14.003906-8.351563-22.378906-8.351563-18.847657 0-34.175781 15.328125-34.175781 34.171875 0 6.523438 1.835937 12.785156 5.246093 18.191406-2.851562 3.269532-5.609375 6.609375-8.265625 10.015625-6.101562-8.0625-9.496094-17.980469-9.496094-28.207031zm0 0"/></svg>