<svg height="512pt" viewBox="0 -3 512 512" width="512pt" xmlns="http://www.w3.org/2000/svg"><path d="m251.644531 46.332031-17.144531 12.167969 7.519531 20.300781c1.492188 4.027344 5.332031 6.699219 9.625 6.699219s8.132813-2.671875 9.625-6.699219l7.519531-20.300781zm0 0" fill="#edebec"/><path d="m36.582031 195.40625c0 25.734375 20.859375 46.59375 46.59375 46.59375v-46.59375zm0 0" fill="#ffdaa6"/><path d="m292.085938 195.40625c0 25.734375-20.863282 46.59375-46.59375 46.59375v-46.59375zm0 0" fill="#ffdaa6"/><g fill="#f9cf99"><path d="m185.628906 135.074219c-25.730468 0-46.59375 20.859375-46.59375 46.589843h46.59375zm0 0"/><path d="m404.355469 70.449219c22.035156-13.289063 50.667969-6.195313 63.957031 15.84375l-39.902344 24.058593zm0 0"/><path d="m442.148438 202.964844c25.152343 5.433594 41.140624 30.226562 35.710937 55.378906l-45.542969-9.835938zm0 0"/></g><path d="m164.332031 439c-74.804687 0-135.667969-60.859375-135.667969-135.667969 0-74.804687 60.863282-135.667969 135.667969-135.667969 74.808594 0 135.667969 60.863282 135.667969 135.667969 0 74.808594-60.859375 135.667969-135.667969 135.667969zm0-191.335938c-30.695312 0-55.667969 24.972657-55.667969 55.667969 0 30.695313 24.972657 55.667969 55.667969 55.667969 30.695313 0 55.667969-24.972656 55.667969-55.667969 0-30.695312-24.972656-55.667969-55.667969-55.667969zm0 0" fill="#f77f82"/><path d="m179.332031 356.929688c4.777344 1.339843 9.804688 2.070312 15 2.070312 30.695313 0 55.667969-24.972656 55.667969-55.667969 0-30.691406-24.972656-55.664062-55.667969-55.664062-5.195312 0-10.222656.730469-15 2.070312 23.429688 6.566407 40.667969 28.097657 40.667969 53.597657 0 25.496093-17.238281 47.027343-40.667969 53.59375zm0 0" fill="#f5615e"/><path d="m58.664062 303.332031c0-69.738281 52.894532-127.34375 120.667969-134.832031-4.925781-.546875-9.929687-.835938-15-.835938-74.804687 0-135.667969 60.863282-135.667969 135.667969 0 74.804688 60.863282 135.667969 135.667969 135.667969 5.070313 0 10.074219-.289062 15-.835938-67.773437-7.488281-120.667969-65.09375-120.667969-134.832031zm0 0" fill="#f5615e"/><path d="m439.90625 129.796875c25.734375 0 46.59375 20.859375 46.59375 46.59375h-46.59375zm0 0" fill="#ffdaa6"/><path d="m398.492188 40.5c43.570312 57.429688 61.089843 127.890625 50.640624 204.078125-7.859374 57.300781-29.128906 98.390625-30.03125 100.113281l-70.871093-37.132812c1.171875-2.347656 16.5625-33.71875 21.960937-76.296875 6.128906-48.273438-2.539062-91.382813-25.78125-128.460938l-12.558594 13.757813c-8.808593 9.660156-20.890624 14.5625-33.019531 14.5625-10.71875 0-21.480469-3.839844-30.039062-11.621094l43.820312-48.019531c4.546875-4.980469 1.019531-12.980469-5.722656-12.980469h-72.386719c0-28.171875 22.828125-51 51-51h112.988282zm0 0" fill="#f77f82"/><path d="m7.5 429.945312v-68.054687l35.761719-35.765625h428.789062l32.449219 35.765625v68.054687l-52.46875 34.027344h-391.183594zm0 0" fill="#a5d0d8"/><path d="m344.410156 102.800781c23.242188 37.078125 31.910156 80.1875 25.78125 128.460938-5.398437 42.578125-20.789062 73.949219-21.960937 76.296875l49.324219 25.84375c3.449218-11.003906 6.050781-24.078125 7.542968-39.566406 13.734375-142.34375-60.6875-191.035157-60.6875-191.035157zm0 0" fill="#f5615e"/><path d="m7.5 361.890625c30.980469-16.898437 68.421875-16.898437 99.398438 0 30.980468 16.894531 68.421874 16.894531 99.402343 0 30.976563-16.898437 68.421875-16.898437 99.398438 0 30.980469 16.894531 68.421875 16.894531 99.402343 0 30.976563-16.898437 68.417969-16.898437 99.398438 0v-68.054687c-30.980469-16.898438-68.421875-16.898438-99.398438 0-30.980468 16.894531-68.421874 16.894531-99.402343 0-30.976563-16.898438-68.421875-16.898438-99.398438 0-30.980469 16.894531-68.421875 16.894531-99.402343 0-30.976563-16.898438-68.417969-16.898438-99.398438 0zm0 0" fill="#bce7ea"/><path d="m504.5 498v-68.054688c-30.980469-16.898437-68.421875-16.898437-99.398438 0-30.980468 16.898438-68.421874 16.898438-99.402343 0-30.976563-16.898437-68.421875-16.898437-99.398438 0-30.980469 16.898438-68.421875 16.898438-99.402343 0-30.976563-16.898437-68.417969-16.898437-99.398438 0v68.054688zm0 0" fill="#bce7ea"/><path d="m468.203125 40.5h-69.710937c-9.109376 0-16.5-7.390625-16.5-16.5s7.390624-16.5 16.5-16.5h36.710937c18.230469 0 33 14.769531 33 33zm0 0" fill="#ffdaa6"/><path d="m342.519531 55.347656c4.140625 0 7.5-3.359375 7.5-7.5v-9.226562l7.707031-2.714844c3.90625-1.375 5.957032-5.660156 4.582032-9.566406s-5.660156-5.957032-9.566406-4.582032l-25.429688 8.960938c-3.90625 1.375-5.957031 5.65625-4.582031 9.5625 1.347656 3.832031 5.738281 5.933594 9.566406 4.582031l2.722656-.957031v3.941406c0 4.140625 3.355469 7.5 7.5 7.5zm0 0"/><path d="m273.726562 25.035156-10.242187 10.242188c-2.929687 2.925781-2.929687 7.675781 0 10.605468 2.839844 2.839844 7.691406 2.914063 10.605469 0l10.242187-10.242187c2.929688-2.925781 2.929688-7.675781 0-10.605469-2.929687-2.929687-7.679687-2.929687-10.605469 0zm0 0"/><path d="m512 293.835938c0-2.746094-1.5-5.273438-3.910156-6.585938-16.296875-8.890625-34.726563-13.589844-53.289063-13.589844-1.105469 0-2.210937.019532-3.3125.054688.953125-4.277344 1.824219-8.558594 2.609375-12.828125 0 0 22.171875 4.785156 22.179688 4.785156 4 .863281 8.050781-1.757813 8.914062-5.746094 5.015625-23.230469-5.4375-46.453125-25.625-58.148437-.011718-6.007813-.214844-11.972656-.578125-17.886719h27.511719c4.140625 0 7.5-3.359375 7.5-7.5 0-26.820313-19.621094-49.316406-45.574219-53.417969-1.3125-4.492187-2.742187-8.941406-4.285156-13.351562 0 0 28.011719-16.886719 28.042969-16.90625 3.503906-2.113282 4.664062-6.789063 2.550781-10.296875-9.878906-16.382813-27.210937-26.164063-46.363281-26.164063-3.15625 0-6.300782.277344-9.398438.828125-1.898437-3.058593-3.855468-6.085937-5.886718-9.082031h55.136718c4.140625 0 7.5-3.359375 7.5-7.5 0-.207031-.007812-.410156-.027344-.613281-.328124-22.046875-18.367187-39.886719-40.492187-39.886719h-149.699219c-32.246094 0-58.480468 26.222656-58.5 58.460938 0 .90625.164063 1.863281.488282 2.714843l7.492187 20.230469c5.597656 15.109375 27.726563 15.097656 33.316406 0l5.707031-15.40625h32.886719c.132813 0 .324219.140625.265625.308594-.003906.007812-43.832031 48.050781-43.90625 48.136718-2.757812 3.023438-2.527344 7.859376.492188 10.605469 20.960937 19.058594 54.574218 17.476563 73.644531-3.433593l5.707031-6.253907c5.671875 10.324219 10.257813 21.183594 13.679688 32.390625 1.210937 3.960938 5.402344 6.191406 9.363281 4.984375 3.960937-1.210937 6.195313-5.402343 4.984375-9.363281-4.769531-15.625-11.617188-30.613281-20.355469-44.554688-2.609375-4.164062-8.589843-4.699218-11.898437-1.078124 0 0-12.558594 13.761718-12.5625 13.765624-11.710938 12.828126-31.449219 15.792969-46.398438 6.933594 0 0 38.183594-41.84375 38.238282-41.902344 8.78125-9.625 1.730468-25.539062-11.257813-25.539062h-64.242187c3.5625-20.421875 21.421874-36 42.851562-36h90.742188c-1.414063 3.488281-1.972657 7.289062-1.660157 11.035156.890625 10.660156 9.316407 19.789063 19.90625 21.628906 12.675781 17.152344 23.230469 35.878907 31.234375 55.648438 13.246094 32.722656 19.375 68.472656 18.78125 103.917969-.382812 22.695312-3.464844 45.808593-8.777344 68.074219-.359374.0625-7.941406 1.640624-11.316406 2.601562-11.902344 3.390625-22.472656 9.992188-33.941406 14.476562-9.636719 3.773438-19.871094 5.96875-30.207031 6.488282 5.566406-13.78125 13.683593-37.617188 17.367187-66.667969 2.582032-20.304687 2.609375-40.023437.085938-58.609375-.554688-4.105469-4.332032-6.980469-8.4375-6.421875-4.105469.554687-6.980469 4.335937-6.425782 8.4375 2.347657 17.289063 2.3125 35.695313-.101562 54.707031-4.015625 31.667969-13.84375 57.175782-18.539062 68.023438-12.207032-1.433594-24.105469-5.191406-34.921876-11.089844-.953124-.519531-1.917968-1.023438-2.886718-1.515625-2.453125-19.898437-9.046875-38.886719-19.238282-55.871094 8.039063-9.667969 12.417969-21.691406 12.417969-34.457031 0-4.140625-3.359375-7.5-7.5-7.5h-43.152343c-16.671876-12.25-35.6875-20.683594-55.804688-24.8125v-28.019531c0-4.144531-3.355469-7.5-7.5-7.5-22.933594 0-43.214844 14.460937-50.875 35.703125-20.0625 4.273437-38.703125 12.796875-54.847656 24.628906h-43.320313c-4.140625 0-7.5 3.359375-7.5 7.5 0 12.78125 4.386719 24.816406 12.445313 34.492188-8.902344 14.789062-15.214844 31.34375-18.265625 49.078124-6.6875 2.136719-13.171875 4.902344-19.351563 8.273438-2.410156 1.3125-3.910156 3.839844-3.910156 6.585938v204.164062c0 4.144531 3.359375 7.5 7.5 7.5h497c4.140625 0 7.5-3.355469 7.5-7.5zm-253.988281-227.835938s-3.769531 10.179688-3.777344 10.195312c-.871094 2.359376-4.308594 2.355469-5.183594 0l-3.777343-10.195312zm213.40625 183.277344-14.917969-3.21875c.328125-2.398438 2.1875-19.808594 2.546875-26.125 8.085937 7.507812 12.632813 18.140625 12.371094 29.34375zm-18.722657-109.835938c13.054688 4.511719 22.910157 15.738282 25.582032 29.449219h-20.601563c-.011719-.066406-.019531-.132813-.027343-.203125-1.140626-9.882812-2.785157-19.613281-4.9375-29.179688-.003907-.019531-.011719-.042968-.015626-.066406zm-24.324218-68.183594c11.292968 0 21.707031 4.695313 29.039062 12.851563l-18.707031 11.277344c-3.417969-8.207031-7.25-16.25-11.492187-24.113281.386718-.011719.773437-.015626 1.160156-.015626zm31.207031-38.257812h-61.085937c-4.960938 0-9-4.039062-9-9s4.039062-9 9-9h36.710937c11.449219 0 21.164063 7.589844 24.375 18zm35.515625 384.335938c-30.320312-11.777344-65.023438-9.554688-93.585938 6.023437-14.101562 7.691406-30.042968 11.757813-46.109374 11.757813-24.914063 0-44.03125-13.582032-67.261719-20.582032-28.3125-8.53125-59.460938-5.339844-85.425781 8.824219-28.441407 15.515625-63.773438 15.515625-92.21875 0-29.1875-15.917969-64.734376-17.867187-95.492188-5.269531v-51.621094c.277344-.132812.550781-.269531.828125-.402344 27.664063-13.105468 60.585937-12.261718 87.480469 2.40625 32.914062 17.953125 73.671875 17.953125 106.582031 0 28.480469-15.535156 63.738281-15.535156 92.21875 0 32.914063 17.953125 73.667969 17.953125 106.582031 0 27.167969-14.820312 60.492188-15.519531 88.308594-2.003906v51.621094c-.316406-.132813-1.589844-.628906-1.90625-.753906zm-211.222656-214.429688c-.953125 4.945312-2.851563 9.621094-5.605469 13.824219-.023437-.03125-.050781-.0625-.074219-.09375-3.679687-4.8125-7.65625-9.414063-11.910156-13.730469zm-131.210938-42.261719c5.714844-8.957031 14.917969-15.285156 25.46875-17.347656 0 0 0 17.535156-.011718 17.535156-8.496094-.679687-16.953126-.886719-25.457032-.1875zm-90.265625 42.261719c-4.285156 4.347656-8.285156 8.960938-11.988281 13.828125-2.757812-4.203125-4.65625-8.882813-5.609375-13.828125zm-23.085937 72.203125c11.457031-50.792969 53.105468-89.621094 103.902344-98.171875 49.445312-8.324219 100.585937 14.210938 128.152343 55.980469 9.222657 13.972656 15.640625 29.617187 18.820313 46.132812-11.019532-3.550781-22.574219-5.390625-34.183594-5.390625-11.09375 0-22.691406 1.761719-33.46875 5.160156-9.757812-23.105468-32.667969-38.65625-58.199219-38.65625-6.1875 0-12.339843.914063-18.277343 2.714844-3.964844 1.199219-6.207032 5.386719-5.003907 9.351563 1.199219 3.964843 5.386719 6.203125 9.351563 5.003906 4.527344-1.371094 9.214844-2.066406 13.929687-2.066406 19.335938 0 36.691407 11.699219 44.21875 29.125-1.972656.929687-3.925781 1.910156-5.84375 2.957031-14.101562 7.691406-30.046875 11.757812-46.109375 11.757812-13.335937 0-26.589844-2.8125-38.78125-8.167968 1.898438-7.042969 5.386719-13.59375 10.265625-19.167969 2.726563-3.121094 2.410157-7.859375-.707031-10.585937-3.121094-2.726563-7.859375-2.410157-10.585938.710937-5.722656 6.542969-9.992187 14.109375-12.609374 22.261719.066406-.261719-6.273438-2.675782-6.324219-2.699219-18.476563-7.25-38.957031-9.460937-58.546875-6.25zm-24.308594 23.292969c28.652344-13.957032 62.066406-11.582032 90.039062 2.925781 32.417969 16.808594 72.761719 16.59375 104.851563-.910156 22.628906-12.34375 49.996094-15.070313 74.617187-7.421875.164063.050781.324219.101562.488282.148437 21.859375 6.871094 39.535156 19.5 63.34375 20.632813.011718 0 .023437.003906.03125.003906.015625.003906.03125.003906.046875.003906 19.960937 1.289063 40.207031-3.003906 57.980469-12.164062 28.632812-14.753906 61.152343-17.5625 90.601562-3.21875v51.632812c-30.742188-12.617187-66.316406-10.640625-95.492188 5.269532-28.480468 15.535156-63.734374 15.535156-92.214843 0-32.917969-17.953126-73.667969-17.953126-106.582031 0-28.480469 15.535156-63.742188 15.53125-92.21875 0-29.144532-15.898438-64.777344-17.875-95.492188-5.273438zm0 192.097656v-55.976562c.265625-.128907.535156-.261719.800781-.386719 27.652344-13.121094 60.625-12.269531 87.507813 2.390625 32.914062 17.953125 73.667968 17.953125 106.582031 0 28.402344-15.492188 63.804687-15.5 92.21875 0 32.910156 17.953125 73.671875 17.949218 106.582031 0 13.945313-7.605469 30.078125-11.757813 46.109375-11.757813 14.5625 0 29.113281 3.371094 42.199219 9.753907v55.976562zm0 0"/></svg>