<svg height="512pt" viewBox="-40 0 512 512.001" width="512pt" xmlns="http://www.w3.org/2000/svg"><path d="m364.59375 376.066406-61.5625 21.832032c-23.503906 8.332031-48.394531-8.34375-49.625-33.25l-11.226562-226.828126c24.292968-10.328124 41.328124-34.40625 41.328124-62.46875 0-37.472656-30.378906-67.851562-67.851562-67.851562-37.476562 0-67.855469 30.378906-67.855469 67.851562 0 28.0625 17.035157 52.140626 41.328125 62.46875l-11.222656 226.828126c-1.234375 24.90625-26.125 41.582031-49.625 33.25l-61.566406-21.832032-22.363282 28.527344s7.824219 21.339844 119.789063 61.964844c19.394531 7.035156 36.367187 19.574218 48.535156 36.238281.070313.097656.144531.191406.210938.289063 1.367187 1.886718 4.167969 1.886718 5.535156 0 .070313-.097657.136719-.191407.210937-.289063 12.164063-16.664063 29.140626-29.203125 48.535157-36.238281 111.964843-40.625 119.789062-61.964844 119.789062-61.964844zm-148.9375-332.328125c17.457031 0 31.609375 14.15625 31.609375 31.613281 0 17.460938-14.152344 31.613282-31.609375 31.613282-17.460938 0-31.613281-14.152344-31.613281-31.613282-.003907-17.457031 14.152343-31.613281 31.613281-31.613281zm0 0" fill="#c5c4c9"/><path d="m185.117188 218.855469-3.257813 65.878906c11.285156.109375 22.558594.179687 33.792969.179687 11.238281 0 22.511718-.070312 33.796875-.179687l-3.261719-65.878906zm0 0" fill="#a1a1a5"/><path d="m380.703125 171.53125c-109.96875-5.257812-220.128906-5.257812-330.097656 0-11.597657.554688-20.722657 10.117188-20.722657 21.726562v35.984376c0 11.609374 9.125 21.171874 20.722657 21.726562 109.96875 5.257812 220.128906 5.257812 330.097656 0 11.597656-.554688 20.722656-10.117188 20.722656-21.726562v-35.984376c0-11.609374-9.125-21.171874-20.722656-21.726562zm0 0" fill="#c68c6a"/><path d="m104.574219 148.417969h-26.507813c-7.039062 0-12.746094 5.703125-12.746094 12.742187v100.179688c0 7.039062 5.707032 12.742187 12.746094 12.742187h26.507813c7.039062 0 12.746093-5.703125 12.746093-12.742187v-100.179688c0-7.039062-5.707031-12.742187-12.746093-12.742187zm0 0" fill="#c5c4c9"/><path d="m326.730469 148.417969h26.511719c7.039062 0 12.746093 5.703125 12.746093 12.742187v100.179688c0 7.039062-5.707031 12.742187-12.746093 12.742187h-26.511719c-7.035157 0-12.742188-5.703125-12.742188-12.742187v-100.179688c0-7.039062 5.707031-12.742187 12.742188-12.742187zm0 0" fill="#c5c4c9"/><path d="m91.039062 436.316406 5.734376-14.875 22.527343-16.960937c2.808594-2.113281 5.296875-4.511719 7.449219-7.125l-60.035156-21.289063-22.363282 28.53125c0-.003906 3.980469 10.820313 46.6875 31.71875zm0 0" fill="#a1a1a5"/><path d="m94.519531 357.097656-72.871093-6.199218c-9.566407-.8125-16.703126 8.640624-13.300782 17.621093l25.921875 68.382813c4.246094 11.195312 20.066407 11.238281 24.371094.066406l11.882813-30.84375c.878906-2.277344 2.378906-4.261719 4.328124-5.730469l26.40625-19.878906c9.566407-7.203125 5.1875-22.40625-6.738281-23.417969zm0 0" fill="#c5c4c9"/><path d="m386.957031 404.59375-22.363281-28.527344-60.035156 21.289063c2.152344 2.613281 4.640625 5.011719 7.449218 7.125l22.527344 16.960937 5.734375 14.875c42.707031-20.898437 46.6875-31.722656 46.6875-31.722656zm0 0" fill="#a1a1a5"/><path d="m336.789062 357.097656 72.871094-6.199218c9.566406-.8125 16.707032 8.640624 13.300782 17.621093l-25.921876 68.382813c-4.246093 11.195312-20.066406 11.238281-24.371093.066406l-11.882813-30.84375c-.878906-2.277344-2.378906-4.261719-4.328125-5.730469l-26.40625-19.878906c-9.566406-7.203125-5.1875-22.40625 6.738281-23.417969zm0 0" fill="#c5c4c9"/><path d="m149.039062 196.5c-4.144531 0-7.5 3.359375-7.5 7.5v12.058594c0 4.140625 3.355469 7.5 7.5 7.5 4.140626 0 7.5-3.359375 7.5-7.5v-12.058594c0-4.140625-3.359374-7.5-7.5-7.5zm0 0"/><path d="m282.269531 223.558594c4.144531 0 7.5-3.359375 7.5-7.5v-12.058594c0-4.140625-3.355469-7.5-7.5-7.5-4.140625 0-7.5 3.359375-7.5 7.5v12.058594c0 4.140625 3.359375 7.5 7.5 7.5zm0 0"/><path d="m215.65625 229.992188c8.570312 0 16.621094-3.585938 22.085938-9.839844 2.726562-3.117188 2.410156-7.855469-.710938-10.582032-3.117188-2.726562-7.855469-2.40625-10.582031.710938-2.617188 2.992188-6.550781 4.710938-10.792969 4.710938-4.246094 0-8.179688-1.71875-10.796875-4.710938-2.726563-3.121094-7.464844-3.4375-10.582031-.710938-3.121094 2.726563-3.4375 7.464844-.710938 10.582032 5.464844 6.253906 13.515625 9.839844 22.089844 9.839844zm0 0"/><path d="m254.765625 75.355469c0-21.570313-17.542969-39.117188-39.109375-39.117188-21.570312 0-39.113281 17.546875-39.113281 39.117188 0 21.566406 17.542969 39.113281 39.113281 39.113281 21.566406 0 39.109375-17.546875 39.109375-39.113281zm-63.226563 0c0-13.296875 10.816407-24.117188 24.113282-24.117188s24.113281 10.820313 24.113281 24.117188c0 13.292969-10.816406 24.113281-24.113281 24.113281s-24.113282-10.820312-24.113282-24.113281zm0 0"/><path d="m409.023438 343.425781-72.867188 6.195313c-8.5625.730468-15.625 6.535156-18.003906 14.789062-1.921875 6.683594-.386719 13.636719 3.90625 18.78125l-21.535156 7.636719c-8.945313 3.175781-18.597657 1.960937-26.484376-3.320313-7.882812-5.28125-12.675781-13.75-13.144531-23.230468l-5.054687-102.125c16.910156-.199219 33.824218-.515625 50.648437-.953125v.136719c0 11.164062 9.082031 20.246093 20.246094 20.246093h26.507813c11.164062 0 20.246093-9.082031 20.246093-20.246093v-2.53125c2.523438-.113282 5.050781-.222657 7.574219-.34375 15.625-.746094 27.863281-13.582032 27.863281-29.21875v-35.984376c0-15.636718-12.242187-28.472656-27.863281-29.21875-2.527344-.121093-5.050781-.230468-7.574219-.34375v-2.535156c0-11.164062-9.082031-20.246094-20.246093-20.246094h-26.507813c-11.164063 0-20.246094 9.082032-20.246094 20.246094v.140625c-18.496093-.484375-37.101562-.820312-55.6875-1.007812l-.882812-17.8125c25.125-12.816407 41.089843-38.617188 41.089843-67.128907 0-41.546874-33.804687-75.351562-75.351562-75.351562-13.160156 0-26.136719 3.464844-37.527344 10.019531-3.589844 2.0625-4.824218 6.648438-2.757812 10.238281 2.0625 3.589844 6.648437 4.828126 10.238281 2.761719 9.117187-5.246093 19.507813-8.019531 30.046875-8.019531 33.277344 0 60.351562 27.074219 60.351562 60.355469 0 24.257812-14.429687 46.070312-36.761718 55.566406-2.894532 1.226563-4.710938 4.132813-4.554688 7.269531l1.085938 21.96875c-13.414063-.078125-26.832032-.078125-40.246094 0l1.085938-21.96875c.15625-3.136718-1.664063-6.039062-4.554688-7.269531-22.332031-9.496094-36.761719-31.308594-36.761719-55.566406 0-12.296875 3.6875-24.136719 10.65625-34.234375 2.351563-3.410156 1.496094-8.082032-1.910156-10.433594-3.410156-2.351562-8.082031-1.496094-10.433594 1.914062-8.707031 12.613282-13.3125 27.398438-13.3125 42.753907 0 28.507812 15.960938 54.308593 41.085938 67.125l-.878907 17.820312c-18.582031.1875-37.1875.523438-55.6875 1.007813v-.144532c0-11.164062-9.082031-20.246093-20.246093-20.246093h-26.507813c-11.164062 0-20.246094 9.082031-20.246094 20.246093v2.535157c-2.527343.113281-5.050781.21875-7.574218.339843-15.625.746094-27.863282 13.582032-27.863282 29.222657v35.980469c0 15.636718 12.238282 28.472656 27.863282 29.21875 2.523437.121093 5.050781.230468 7.574218.339843v2.539063c0 11.164062 9.082032 20.246094 20.246094 20.246094h26.507813c11.164062 0 20.246093-9.082032 20.246093-20.246094v-.148438c16.828126.441406 33.738282.761719 50.648438.957032l-5.054688 102.132812c-.46875 9.476562-5.261718 17.945312-13.144531 23.226562-7.886719 5.285157-17.539062 6.496094-26.484375 3.320313l-21.53125-7.632813c4.289063-5.148437 5.824219-12.101562 3.902344-18.785156-2.375-8.253906-9.441406-14.058594-18-14.789062l-72.871094-6.195313c-7.332031-.621093-14.476562 2.753907-18.652344 8.804688-3.832031 5.550781-4.691406 12.632812-2.296874 18.949219l25.921874 68.382812c3.054688 8.054688 10.59375 13.261719 19.210938 13.261719 8.566406 0 16.089844-5.164063 19.167969-13.15625l2.648437-6.871094c21.796875 12.527344 53.109375 26.230469 93.296875 40.8125 18.242188 6.617187 33.816407 18.242187 45.039063 33.609375l.195312.269531c2.046875 2.824219 5.351563 4.511719 8.839844 4.511719 3.484375 0 6.789062-1.6875 8.832031-4.5l.203125-.28125c11.222656-15.367188 26.796875-26.992188 45.035156-33.609375 9.488282-3.441406 18.652344-6.902344 27.234376-10.285156 3.855468-1.519531 5.75-5.875 4.230468-9.726563-1.519531-3.855468-5.875-5.75-9.726562-4.230468-8.460938 3.335937-17.492188 6.746093-26.855469 10.144531-19.449219 7.054687-36.285156 19.0625-48.953125 34.84375-12.691406-15.796875-29.519531-27.792969-48.957031-34.84375-49.078125-17.808594-77.222657-31.664063-92.949219-40.890625 0 0 3.773438-9.796875 3.773438-9.796875.367187-.953125 1.019531-1.820313 1.839843-2.4375l16.140625-12.152344 30.269532 10.734375c13.457031 4.773438 27.980468 2.953125 39.84375-4.996094 11.863281-7.949218 19.074218-20.6875 19.777343-34.949218l5.082031-102.710938c16.785157.121094 33.570313.125 50.355469 0l5.082031 102.710938c.707032 14.261718 7.914063 27 19.777344 34.949218 11.863282 7.949219 26.386719 9.769532 39.847656 4.996094l30.265626-10.734375 16.144531 12.152344c.75.566406 1.328125 1.3125 1.710937 2.164062.734375 1.628907 3.90625 10.074219 3.90625 10.074219-10.488281 6.164062-23.703125 12.757812-39.394531 19.65625-3.789063 1.667969-5.511719 6.089844-3.84375 9.882812 1.664063 3.792969 6.089844 5.515626 9.882813 3.847657 15.175781-6.671875 28.179687-13.113281 38.816406-19.21875l2.648437 6.875c3.078125 7.992187 10.601563 13.15625 19.167969 13.15625 8.617188 0 16.15625-5.203125 19.210938-13.261719l25.921874-68.382812c2.394532-6.3125 1.535157-13.394532-2.296874-18.945313-4.179688-6.054687-11.316407-9.433594-18.65625-8.808594zm-35.535157-164.722656c2.285157.101563 4.570313.207031 6.855469.316406 7.617188.367188 13.582031 6.621094 13.582031 14.238281v35.984376c0 7.617187-5.964843 13.871093-13.582031 14.234374-2.285156.109376-4.570312.214844-6.855469.320313zm-327.019531 259.070313c-2.148438-.003907-4.296875-1.1875-5.183594-3.527344 0 0-25.910156-68.34375-25.925781-68.382813-1.3125-3.46875 1.292969-7.511719 5.140625-7.511719.167969 0 73.382812 6.21875 73.382812 6.21875 5.007813.425782 6.84375 6.957032 2.867188 9.953126l-26.410156 19.878906c-3.042969 2.292968-5.445313 5.472656-6.8125 9.027344 0 0-11.886719 30.84375-11.886719 30.84375-.902344 2.34375-3.039063 3.5-5.171875 3.5zm280.265625-281.855469h26.507813c2.890624 0 5.246093 2.351562 5.246093 5.242187v100.179688c0 2.890625-2.355469 5.246094-5.246093 5.246094h-26.507813c-2.894531 0-5.246094-2.355469-5.246094-5.246094v-100.179688c0-2.890625 2.351563-5.242187 5.246094-5.242187zm-275.769531 87.5625c-7.617188-.367188-13.582032-6.621094-13.582032-14.238281v-35.984376c0-7.617187 5.964844-13.871093 13.582032-14.234374 2.285156-.109376 4.570312-.214844 6.855468-.316407v65.085938c-2.285156-.101563-4.570312-.207031-6.855468-.3125zm58.855468 17.859375c0 2.890625-2.351562 5.246094-5.246093 5.246094h-26.507813c-2.894531 0-5.246094-2.355469-5.246094-5.246094v-100.179688c0-2.890625 2.351563-5.242187 5.246094-5.242187h26.507813c2.894531 0 5.246093 2.351562 5.246093 5.242187zm15-85.046875c21.75-.570313 43.667969-.933594 65.492188-1.09375 17.144531-.128907 34.289062.003906 51.433594.003906 21.582031.164063 43.25.519531 64.742187 1.082031v69.925782c-20.761719.546874-41.683593.890624-62.53125 1.0625-18.515625.148437-37.03125.15625-55.546875.007812-21.195312-.171875-42.472656-.523438-63.585937-1.078125v-69.910156zm291.128907 189.566406-25.921875 68.386719c-1.789063 4.71875-8.570313 4.667968-10.359375.027344l-11.882813-30.84375c-2.476562-6.421876-8.230468-10.089844-13.488281-14.050782 0 0-19.734375-14.859375-19.738281-14.859375-4.027344-3.03125-2.082032-9.53125 2.867187-9.953125 0 0 72.808594-6.191406 72.867188-6.195312 4.015625-.339844 7.074219 3.746094 5.65625 7.488281zm0 0"/></svg>