<svg height="512pt" viewBox="-27 0 512 512.003" width="512pt" xmlns="http://www.w3.org/2000/svg"><path d="m232.046875 9.304688c-1.238281-2.40625-4.675781-2.40625-5.910156 0l-19.382813 37.707031h44.671875zm0 0" fill="#aeaeb2"/><path d="m27.890625 33.601562c-3.171875-4.636718-10.238281-3.730468-12.128906 1.558594-9.671875 27.015625-23.527344 90.105469 42.304687 121.246094l51.636719-67.75s-50.714844-9.589844-81.8125-55.054688zm0 0" fill="#ffb85c"/><path d="m430.300781 33.601562c3.171875-4.636718 10.238281-3.730468 12.128907 1.558594 9.671874 27.015625 23.527343 90.105469-42.304688 121.246094l-51.636719-67.75s50.710938-9.589844 81.8125-55.054688zm0 0" fill="#ffb85c"/><path d="m115.910156 477.195312c-1.28125 8.527344-2.015625 17.632813-2.015625 27.304688h230.402344c0-9.671875-.734375-18.777344-2.023437-27.304688l-54.105469-54.105468h-124.109375zm0 0" fill="#f77f82"/><path d="m342.273438 477.195312h-28.351563l-17.375-20.851562-17.378906 20.851562h-32.695313l-17.375-20.851562-17.378906 20.851562h-32.699219l-17.375-20.851562-17.378906 20.851562h-28.359375c9.039062-59.816406 45.199219-91.402343 45.199219-91.402343h135.976562c.011719.007812 36.164063 31.59375 45.191407 91.402343zm0 0" fill="#57565c"/><path d="m191.691406 49.429688c-66.210937 13.414062-119.75 61.730468-140.59375 124.914062l70.296875 26.808594 70.296875-26.808594 37.398438-62.457031zm0 0" fill="#aeaeb2"/><path d="m266.5 49.429688c66.210938 13.414062 119.75 61.730468 140.59375 124.914062l-70.296875 26.808594-70.296875-26.808594-37.398438-62.457031zm0 0" fill="#aeaeb2"/><path d="m229.097656 205.457031-187.402344 31.113281v38.894532c0 47.074218 38.160157 85.246094 85.246094 85.246094h34.167969v20.683593c0 12.621094 10.234375 22.847657 22.847656 22.847657h3.644531l7.5-3.511719 7.5 3.511719h18.988282l7.5-3.511719 7.5 3.511719h18.992187l7.5-3.511719 7.5 3.511719h3.652344c12.613281 0 22.851563-10.230469 22.851563-22.847657v-20.683593h34.167968c47.085938 0 85.242188-38.171876 85.242188-85.246094v-38.894532zm0 0" fill="#edebec"/><path d="m71.695312 275.464844v-38.894532l172.402344-28.625-15-2.488281-187.402344 31.113281v38.894532c0 47.074218 38.160157 85.246094 85.246094 85.246094h30c-47.085937 0-85.246094-38.171876-85.246094-85.246094zm0 0" fill="#d2d2d2"/><path d="m81.097656 174.34375c20.84375-63.183594 74.382813-111.5 140.59375-124.914062 7.320313-1.488282 14.800782-2.535157 22.40625-3.136719-4.949218-.390625-9.953125-.597657-15-.597657-12.8125 0-25.320312 1.28125-37.40625 3.734376-66.210937 13.414062-119.75 61.730468-140.59375 124.914062zm0 0" fill="#a1a1a5"/><path d="m407.09375 174.34375h-140.59375v-124.914062c-12.082031-2.453126-24.59375-3.734376-37.40625-3.734376-12.808594 0-25.320312 1.28125-37.402344 3.734376v124.914062h-140.59375c-6.105468 18.476562-9.402344 38.226562-9.402344 58.753906v3.472656h374.800782v-3.472656c0-20.527344-3.296875-40.277344-9.402344-58.753906zm0 0" fill="#ffc471"/><path d="m191.691406 58.183594c9.640625-3.714844 19.664063-6.660156 30-8.753906 7.320313-1.488282 14.800782-2.535157 22.40625-3.136719-.890625-.070313-1.78125-.125-2.671875-.183594-4.105469-.269531-8.21875-.414063-12.328125-.414063-12.554687 0-25.105468 1.238282-37.40625 3.734376zm0 0" fill="#ffb85c"/><path d="m81.097656 174.34375h-30c-6.105468 18.476562-9.402344 38.226562-9.402344 58.75v3.476562h30v-3.476562c0-20.523438 3.296876-40.273438 9.402344-58.75zm0 0" fill="#ffb85c"/><g fill="#57565c"><path d="m240.683594 205.457031c0 6.398438-5.1875 11.585938-11.585938 11.585938-6.398437 0-11.585937-5.1875-11.585937-11.585938 0-6.398437 5.1875-11.585937 11.585937-11.585937 6.398438 0 11.585938 5.1875 11.585938 11.585937zm0 0"/><path d="m240.683594 113.703125c0 6.402344-5.1875 11.585937-11.585938 11.585937-6.398437 0-11.585937-5.183593-11.585937-11.585937 0-6.398437 5.1875-11.585937 11.585937-11.585937 6.398438 0 11.585938 5.1875 11.585938 11.585937zm0 0"/><path d="m343.214844 205.457031c0 6.398438-5.1875 11.585938-11.585938 11.585938-6.402344 0-11.585937-5.1875-11.585937-11.585938 0-6.398437 5.183593-11.585937 11.585937-11.585937 6.398438 0 11.585938 5.1875 11.585938 11.585937zm0 0"/><path d="m138.148438 205.457031c0 6.398438-5.1875 11.585938-11.585938 11.585938s-11.585938-5.1875-11.585938-11.585938c0-6.398437 5.1875-11.585937 11.585938-11.585937s11.585938 5.1875 11.585938 11.585937zm0 0"/></g><path d="m229.097656 186.371094c-10.527344 0-19.085937 8.5625-19.085937 19.085937 0 10.523438 8.5625 19.085938 19.085937 19.085938 10.523438 0 19.085938-8.5625 19.085938-19.085938 0-10.523437-8.5625-19.085937-19.085938-19.085937zm0 23.171875c-2.253906 0-4.085937-1.832031-4.085937-4.085938 0-2.253906 1.832031-4.085937 4.085937-4.085937 2.25 0 4.085938 1.832031 4.085938 4.085937 0 2.253907-1.835938 4.085938-4.085938 4.085938zm0 0"/><path d="m229.097656 94.617188c-10.527344 0-19.085937 8.5625-19.085937 19.085937 0 10.527344 8.5625 19.085937 19.085937 19.085937 10.523438 0 19.085938-8.558593 19.085938-19.085937 0-10.523437-8.5625-19.085937-19.085938-19.085937zm0 23.171874c-2.253906 0-4.085937-1.832031-4.085937-4.085937 0-2.25 1.832031-4.085937 4.085937-4.085937 2.25 0 4.085938 1.835937 4.085938 4.085937 0 2.253906-1.835938 4.085937-4.085938 4.085937zm0 0"/><path d="m331.628906 224.542969c10.523438 0 19.085938-8.5625 19.085938-19.085938 0-10.523437-8.5625-19.085937-19.085938-19.085937-10.523437 0-19.085937 8.5625-19.085937 19.085937 0 10.523438 8.558593 19.085938 19.085937 19.085938zm0-23.171875c2.253906 0 4.085938 1.832031 4.085938 4.085937 0 2.253907-1.832032 4.085938-4.085938 4.085938s-4.085937-1.832031-4.085937-4.085938c0-2.253906 1.832031-4.085937 4.085937-4.085937zm0 0"/><path d="m126.5625 186.371094c-10.523438 0-19.085938 8.5625-19.085938 19.085937 0 10.523438 8.5625 19.085938 19.085938 19.085938 10.527344 0 19.085938-8.5625 19.085938-19.085938 0-10.523437-8.558594-19.085937-19.085938-19.085937zm0 23.171875c-2.25 0-4.085938-1.832031-4.085938-4.085938 0-2.253906 1.835938-4.085937 4.085938-4.085937 2.253906 0 4.085938 1.832031 4.085938 4.085937 0 2.253907-1.832032 4.085938-4.085938 4.085938zm0 0"/><path d="m221.660156 328.933594h15.386719c5.828125 0 9.582031-6.175782 6.902344-11.351563l-7.96875-15.382812c-2.945313-5.6875-11.125-5.570313-13.90625.199219l-7.417969 15.382812c-2.488281 5.164062 1.273438 11.152344 7.003906 11.152344zm0 0"/><path d="m144.171875 311.242188c4.144531 0 7.5-3.355469 7.5-7.5v-15.371094c0-4.140625-3.355469-7.5-7.5-7.5-4.140625 0-7.5 3.359375-7.5 7.5v15.371094c0 4.144531 3.359375 7.5 7.5 7.5zm0 0"/><path d="m314.019531 311.242188c4.140625 0 7.5-3.355469 7.5-7.5v-15.371094c0-4.140625-3.359375-7.5-7.5-7.5-4.144531 0-7.5 3.359375-7.5 7.5v15.371094c0 4.144531 3.355469 7.5 7.5 7.5zm0 0"/><path d="m64.921875 159.453125c14.910156-33.042969 40.230469-61.636719 71.203125-80.375 3.542969-2.144531 4.675781-6.753906 2.53125-10.296875-2.144531-3.546875-6.753906-4.679688-10.296875-2.535156-7.167969 4.335937-14.007813 9.113281-20.5 14.273437-11.230469-2.933593-49.164063-15.164062-73.777344-51.152343-2.6875-3.921876-7.113281-6.261719-11.84375-6.261719-6.152343 0-11.46875 3.738281-13.539062 9.53125-5.480469 15.3125-11.234375 38.625-7.511719 62.746093 4.347656 28.1875 20.230469 49.863282 47.226562 64.53125-1.609374 3.96875-3.089843 7.996094-4.4375 12.082032-11.148437 33.792968-9.78125 68.390625-9.78125 103.472656 0 51.140625 41.605469 92.746094 92.746094 92.746094h26.664063s.015625 13.949218.03125 14.332031c-8.726563 8.636719-37.101563 40.289063-45.144531 93.539063-1.394532 9.273437-2.101563 18.835937-2.101563 28.417968 0 4.140625 3.359375 7.5 7.5 7.5h230.40625c4.140625 0 7.5-3.359375 7.5-7.5 0-9.613281-.710937-19.175781-2.109375-28.429687-1.679688-11.109375-4.394531-22.074219-8.070312-32.585938-1.367188-3.910156-5.648438-5.96875-9.558594-4.601562-3.910156 1.367187-5.96875 5.644531-4.601563 9.554687 2.417969 6.90625 4.378907 14.023438 5.863281 21.253906h-15.886718s-15.109375-18.132812-15.125-18.152343c-2.957032-3.546875-8.574219-3.539063-11.523438 0l-15.128906 18.152343h-25.671875s-15.496094-18.566406-15.691406-18.757812c-3.09375-2.976562-8.210938-2.691406-10.957031.605469l-15.128907 18.152343h-25.671875s-15.109375-18.128906-15.128906-18.152343c-2.957031-3.546875-8.570312-3.542969-11.523438 0l-15.125 18.152343h-15.898437c7.316406-35.570312 24.523437-59.644531 34.222656-70.917968.121094.171875.253907.332031.378907.503906 5.621093 7.667969 14.972656 12.460938 24.496093 12.460938h90.277344c9.746094 0 19.296875-5.011719 24.886719-12.984376 4.511718 5.222657 10.632812 13.183594 16.597656 23.730469 2.039062 3.609375 6.613281 4.878907 10.21875 2.839844s4.875-6.613281 2.839844-10.21875c-9.597656-16.980469-19.652344-27.980469-24.222656-32.546875.015624-.386719.03125-14.347656.03125-14.347656h26.664062c51.140625 0 92.746094-41.605469 92.746094-92.746094 0-35.09375 1.386718-69.679688-9.78125-103.472656-1.347656-4.09375-2.832032-8.121094-4.4375-12.085938 26.996094-14.667968 42.878906-36.34375 47.226562-64.527344 3.722656-24.121093-2.027344-47.4375-7.511718-62.746093-2.070313-5.792969-7.386719-9.53125-13.539063-9.53125-4.730469 0-9.15625 2.339843-11.839844 6.261719-24.503906 35.824218-62.535156 48.167968-73.777343 51.144531-23.6875-18.835938-51.777344-32.238281-82.347657-38.433594-3.855469-.78125-7.757812-1.429687-11.679687-1.976563l-17.59375-34.226562c-1.863282-3.625-5.550782-5.875-9.625-5.875-4.074219 0-7.761719 2.25-9.625 5.875l-17.589844 34.226562c-3.917969.546876-7.816406 1.195313-11.675781 1.976563-11.597657 2.351563-23.121094 5.828125-34.25 10.339844-3.839844 1.554687-5.6875 5.929687-4.132813 9.769531 1.554688 3.835938 5.929688 5.6875 9.769532 4.132812 7.386718-2.996093 14.957031-5.496093 22.605468-7.46875v107.992188h-122.398437c.984375-2.488281 2.03125-4.949219 3.128906-7.390625zm79.347656 325.242187c2.207031 0 4.34375-1.003906 5.761719-2.699218l11.613281-13.9375 11.613281 13.9375c1.425782 1.707031 3.539063 2.699218 5.761719 2.699218h32.699219c2.226562 0 4.335938-.992187 5.761719-2.699218l11.617187-13.9375s11.613282 13.933594 11.613282 13.9375c1.367187 1.640625 3.539062 2.699218 5.761718 2.699218h32.699219c2.222656 0 4.335937-.992187 5.761719-2.699218l11.613281-13.9375s11.613281 13.9375 11.613281 13.9375c1.410156 1.691406 3.5625 2.699218 5.761719 2.699218h21.773437c.457032 4.058594.773438 8.164063.945313 12.304688h-215.089844c.171875-4.132812.484375-8.242188.9375-12.304688zm-128.257812-391.601562c-3.152344-20.421875 1.628906-40.5625 6.394531-54.234375 22.582031 32.359375 54.167969 47.144531 72.097656 53.296875-16.308594 15.570312-29.820312 33.859375-39.890625 54.046875-22.089843-12.347656-35.0625-30.183594-38.601562-53.109375zm392.984375 182.371094c0 42.871094-34.875 77.746094-77.746094 77.746094h-34.164062c-4.144532 0-7.5 3.359374-7.5 7.5v20.683593c0 8.28125-7.058594 15.347657-15.351563 15.347657h-3.644531v-26.101563c0-4.144531-3.359375-7.5-7.5-7.5s-7.5 3.355469-7.5 7.5v26.101563h-18.992188v-26.101563c0-4.144531-3.359375-7.5-7.5-7.5-4.144531 0-7.5 3.355469-7.5 7.5v26.101563h-18.996094v-26.101563c0-4.144531-3.359374-7.5-7.5-7.5-4.140624 0-7.5 3.355469-7.5 7.5v26.101563h-3.644531c-8.28125 0-15.347656-7.082032-15.347656-15.347657v-20.683593c0-4.140626-3.359375-7.5-7.5-7.5h-34.167969c-42.871094 0-77.746094-34.875-77.746094-77.746094v-31.394532h359.800782zm-65.476563-181.195313c.070313.0625.132813.128907.207031.191407 23.203126 19.203124 41.574219 44.367187 52.671876 72.382812h-122.398438v-108c25.800781 6.628906 49.457031 18.875 69.519531 35.425781zm92.265625-55.410156c4.765625 13.671875 9.546875 33.8125 6.394532 54.234375-3.539063 22.925781-16.511719 40.761719-38.601563 53.109375-.121094-.242187-.253906-.484375-.375-.726563-10.101563-20.050781-23.511719-38.054687-39.5-53.324218 17.929687-6.15625 49.507813-20.941406 72.082031-53.292969zm-176.785156 135.484375c0 4.140625 3.359375 7.5 7.5 7.5h135.085938c4.542968 15.28125 7.015624 31.125 7.367187 47.226562h-359.714844c.355469-16.101562 2.824219-31.945312 7.367188-47.226562h135.085937c4.144532 0 7.5-3.359375 7.5-7.5 0 0 0-118.671875 0-118.675781.207032-3.921875 59.808594-2.769531 59.808594 0zm-29.910156-154.382812 9.492187 18.46875c-6.347656-.3125-12.636719-.3125-18.980469 0zm0 0"/></svg>