<svg height="512pt" viewBox="-16 0 512 512.00073" width="512pt" xmlns="http://www.w3.org/2000/svg"><g fill="#c68c6a"><path d="m37.320312 131.714844-17.269531 11.257812s-5.488281 22.679688 16.679688 41.820313c2.671875 2.308593 6.832031 1.164062 7.878906-2.210938 3.214844-10.351562 10.28125-29.910156 20.246094-39.355469zm0 0"/><path d="m84.167969 125.988281-19.3125 17.238281s3.335937 19.214844 20.808593 29.984376c3.097657 1.910156 7.15625.160156 8.003907-3.375 2.109375-8.777344 6.769531-24.277344 15.210937-34.816407zm0 0"/><path d="m77.335938 197.59375c-1.042969-1.53125-3.261719-1.601562-4.410157-.148438-11.234375 14.214844-11.683593 32.957032-11.683593 32.957032l19.21875 11.953125 23.761718-20.738281c-13.21875-5.5625-22.949218-18.214844-26.886718-24.023438zm0 0"/><path d="m121.914062 188.824219c-1.066406-1.679688-3.398437-1.984375-4.863281-.632813-9.511719 8.796875-12.828125 33.425782-12.828125 33.425782l26.125 5.824218 11.964844-18.878906c-9.976562-4.742188-17.277344-14.816406-20.398438-19.738281zm0 0"/></g><path d="m429.386719 221.519531c-4.804688-45.238281-41.589844-69.46875-41.589844-69.46875l-9.804687 80.351563c19.597656-7.257813 37.546874-6.699219 46.269531-5.773438 2.945312.3125 5.4375-2.167968 5.125-5.109375zm0 0" fill="#935b43"/><path d="m435.203125 449.15625c-23.199219-39.132812-66.734375-45.84375-66.734375-45.84375l24.535156 77.136719c14.800782-14.757813 31.351563-21.722657 39.667969-24.511719 2.808594-.941406 4.039063-4.234375 2.53125-6.78125zm0 0" fill="#935b43"/><path d="m408.367188 332.558594c-17.644532-41.929688-59.855469-54.519532-59.855469-54.519532l13.785156 79.765626c16.671875-12.601563 34.019531-17.242188 42.636719-18.871094 2.910156-.550782 4.582031-3.644532 3.433594-6.375zm0 0" fill="#935b43"/><path d="m467.355469 7.53125c-41.03125-1.367188-105.789063 43.964844-105.789063 43.964844s-35.390625-37.414063-110.214844-37.414063c-74.828124 0-56.628906 52.582031-136.511718 54.605469-40.976563 0-106.425782-47.066406-107.34375 60.425781-.0625 7.183594 5.398437 13.21875 12.554687 13.859375 18.71875 1.683594 55.742188 2.871094 90.746094-8.558594l24.792969-7.394531c18.746094-5.59375 38.714844 3.691407 46.527344 21.625 8.195312 18.816407.285156 40.777344-18.054688 49.992188-23.488281 11.804687-58.976562 25.886719-102.824219 31.761719-5.285156.710937-8.957031 5.65625-8.074219 10.917968 4.316407 25.710938 26.957032 87.355469 145.605469 3.3125 0 0-81.058593 108.195313-14.238281 259.871094h42.550781l52.816407-35.390625 80.09375 35.390625h43.035156c-105.164063-285.148438 18.199218-231.558594-22.246094-388.289062 73.414062-51.867188 88.261719-89.253907 91.257812-102.710938.675782-3.023438-1.589843-5.863281-4.683593-5.96875zm0 0" fill="#a67052"/><path d="m94.078125 96.347656c-24.285156-19.675781-43.28125 3.261719-50.691406 14.765625-1.800781 2.792969-.039063 6.515625 3.265625 6.863281 23.078125 2.429688 40.199218-8.753906 47.476562-14.667968 2.21875-1.796875 2.167969-5.164063-.050781-6.960938zm0 0" fill="#935b43"/><path d="m319.09375 326.890625c-1.429688-47.09375 9.464844-76.945313 18.214844-100.933594 9.386718-25.726562 16.378906-44.890625 7.117187-87.8125-2.066406-9.585937-13.335937-13.96875-21.253906-8.183593-18.1875 13.28125-18.582031 33.785156-21.164063 53.761718-4.363281 33.78125-25.9375 57.789063-54.457031 75.410156-23.816406 14.714844-36.105469 45.425782-42.488281 71.417969-.050781.207031-.101562.410157-.152344.617188-12.375 51.039062-1.246094 120.179687 22.171875 173.335937h132.914063c-26.445313-74.066406-39.484375-130.777344-40.902344-177.613281zm0 0" fill="#c68c6a"/><path d="m210.554688 117.996094c4.140624 0 7.5-3.359375 7.5-7.5v-17.011719c8.472656-2.535156 17.726562-6.539063 25.894531-12.871094 3.273437-2.535156 3.871093-7.246093 1.332031-10.519531-2.535156-3.273438-7.246094-3.871094-10.523438-1.332031-11.964843 9.273437-28.871093 14.078125-43.949218 14.097656-4.136719.007813-7.492188 3.363281-7.492188 7.5 0 4.144531 3.359375 7.5 7.5 7.5.492188 0 5.28125-.03125 12.238282-1.058594v13.695313c0 4.140625 3.359374 7.5 7.5 7.5zm0 0"/><path d="m75.007812 81.15625c-18.480468 0-31.695312 16.222656-37.921874 25.894531-2.269532 3.523438-2.542969 7.882813-.734376 11.664063 1.808594 3.773437 5.367188 6.28125 9.519532 6.71875 2.402344.253906 4.835937.382812 7.238281.382812 21.933594 0 38.082031-10.453125 45.753906-16.683594 2.804688-2.277343 4.410157-5.65625 4.410157-9.265624-.003907-3.640626-1.632813-7.046876-4.46875-9.347657-7.671876-6.210937-15.675782-9.363281-23.796876-9.363281zm-22.257812 29.660156c4.800781-6.3125 12.917969-14.660156 22.257812-14.660156 3.617188 0 7.378907 1.257812 11.222657 3.738281-6.933594 4.910157-18.570313 11.066407-33.480469 10.921875zm0 0"/><path d="m31.832031 190.46875c6.660157 5.75 17.339844 2.742188 19.945313-5.660156 3.222656-10.386719 6.960937-19.335938 10.832031-26.101563 3.585937 6.90625 9.507813 14.964844 19.121094 20.886719 7.367187 4.542969 17.226562.347656 19.234375-8.007812 1.769531-7.367188 5.671875-20.675782 12.449218-30.125l24.324219-7.253907c15.09375-4.503906 31.21875 2.992188 37.507813 17.433594 6.609375 15.175781.21875 32.878906-14.546875 40.296875-5.230469 2.628906-11.238281 5.449219-17.945313 8.300781-7.042968-4.46875-12.378906-12.082031-14.503906-15.425781-3.523438-5.558594-11.457031-6.59375-16.289062-2.125-6.898438 6.382812-10.925782 18.347656-13.082032 27.1875-7.40625-5.542969-12.910156-12.921875-15.332031-16.492188-3.832031-5.644531-12.289063-5.914062-16.503906-.585937-8.933594 11.308594-11.867188 24.886719-12.828125 32.1875-2.078125 1.164063-3.90625 2.753906-5.367188 4.730469-2.75 3.726562-3.839844 8.289062-3.074218 12.84375 2.304687 13.726562 9.714843 38.230468 33.441406 48.097656 23.449218 9.75 56.15625 2.15625 97.460937-22.574219-2.820312 5.902344-5.769531 12.679688-8.632812 20.273438-10.464844 27.765625-21.683594 72.296875-15.710938 126.753906.453125 4.117187 4.152344 7.09375 8.273438 6.636719 4.117187-.453125 7.089843-4.15625 6.636719-8.273438-5.621094-51.246094 4.855468-93.152344 14.632812-119.28125 10.636719-28.429687 22.785156-44.910156 22.902344-45.0625 2.210937-2.957031 1.945312-7.082031-.632813-9.730468-2.574219-2.644532-6.695312-3.019532-9.707031-.886719-61.621094 43.648437-93.539062 44.914062-109.464844 38.292969-17.0625-7.097657-22.617187-26.058594-24.410156-36.734376-.179688-1.085937.605469-2.089843 1.675781-2.234374 36.550781-4.894532 72.222657-16.007813 105.195313-32.496094 21.878906-10.992188 31.351562-37.210938 21.5625-59.6875-9.3125-21.386719-33.191406-32.488282-55.546875-25.820313-22.929688 6.839844-45.1875 13.996094-69.191407 15.917969-14.476562 1.164062-29.066406 1.046875-43.53125-.246094-3.238281-.289062-5.753906-3.070312-5.726562-6.324218.257812-29.917969 5.734375-49.304688 16.285156-57.621094 12.085938-9.527344 31.859375-4.957032 50.980469-.535156 10.988281 2.539062 22.351563 5.164062 32.582031 5.164062h.1875c43.09375-1.089844 60.261719-16.648438 75.40625-30.371094 14.347656-13.003906 26.738282-24.230468 60.914063-24.230468 70.316406 0 104.449219 34.734374 104.769531 35.066406 2.554688 2.703125 6.703125 3.125 9.75.992187.15625-.113281 16.03125-11.183593 36.683594-21.996093 24.960937-13.070313 46.066406-20.152344 61.355468-20.621094-11.191406 38.726562-69.464843 82.347656-87.457031 95.058594-2.542969 1.800781-3.710937 4.984374-2.933593 8 10.582031 41.003906 9.296874 79.269531-5.257813 119.164062-29.824219 81.734375-9.222656 165.496094 18.714844 244.636719.007812.015625.015625.03125.019531.046875 1.699219 4.914062 3.46875 9.9375 5.316406 15.070312h-27.015625c-25.019531-70.945312-37.339843-125.183594-38.707031-170.339844-.226562-7.421874-.132812-14.808593.269531-21.953124.230469-4.132813-2.929687-7.675782-7.066406-7.910157-4.132813-.226562-7.679687 2.929688-7.910156 7.066407-.429688 7.574218-.523438 15.394531-.289063 23.25 1.386719 45.667968 13.425782 99.851562 37.804688 169.886718h-117.378906c-23.046876-54.730468-30.839844-118.617187-19.816407-164.074218l.140625-.589844c5.632813-22.933594 16.996094-53.140625 39.148438-66.828125 34.257812-21.164063 53.757812-48.359375 57.953125-80.828125 2.242187-17.324219 2.65625-37.363282 18.152343-48.667969 3.539063-2.585937 8.589844-.496094 9.5 3.710937 8.800782 40.804688 2.246094 58.777344-6.835937 83.660157-5.050781 13.847656-10.773437 29.539062-14.59375 49.492187-.78125 4.066406 1.886719 7.996094 5.957031 8.777344 4.066406.777344 7.996094-1.890625 8.773438-5.957031 3.59375-18.765625 9.097656-33.855469 13.957031-47.175781 9.566406-26.214844 17.121094-46.921876 7.402344-91.960938-3.152344-14.621094-20.878907-21.519531-33.011719-12.660156-18.9375 13.832031-21.398438 37.375-24.175781 58.859375-3.640625 28.15625-20.308594 51.050781-50.960938 69.988281-21.25 13.128906-36.667969 38.703125-45.832031 76.011719l-.152344.636719c-11.339844 46.746093-4.15625 111.390624 18.191406 167.601562h-26.355468c-7.605469-17.972656-13.460938-36.222656-17.425782-54.316406-.886718-4.046875-4.886718-6.609375-8.929687-5.722656-4.046875.886718-6.609375 4.886718-5.722656 8.933593 4.507812 20.570313 11.332031 41.304688 20.285156 61.628907 1.199219 2.722656 3.890625 4.476562 6.863281 4.476562h218.496094c5.164062 0 8.820312-5.257812 7.035156-10.09375-2.546875-6.902344-4.976562-13.65625-7.289062-20.273438 12.441406-10.851562 25.347656-16.261718 32.28125-18.585937 7.21875-2.421875 10.488281-11.160156 6.601562-17.714844-18.726562-31.585937-49.714844-43.570312-63.996094-47.574219-3.054687-12.953124-5.457031-25.132812-7.203124-36.566406 14.210937-9.679687 28.363281-13.472656 35.871093-14.890625 3.59375-.679687 6.730469-2.980469 8.453125-6.195312 1.746094-3.246094 1.929688-7.058594.5-10.457031-10.605468-25.195313-29.1875-40.59375-44.511718-49.554688 3.027343-14.316406 8.085937-28.054688 13.066406-41.777344 11.800781-3.859375 22.699218-4.722656 30.007812-4.722656 9.292969 0 24.511719 1.359375 23-12.871094-3.042968-28.691406-19.351562-55.355468-42.03125-72.875-1.203125-8.707031-2.996094-18.140625-5.515625-28.503906 71.773438-51.742188 86.894531-89.992188 90.0625-104.214844 1.675781-7.523437-4.089843-14.839844-11.753906-15.0937498-36.671875-1.2226562-88.972656 31.1484378-105.335937 41.9374998-12.289063-10.367187-48.414063-35.390625-110.917969-35.390625-39.960938 0-55.734375 14.292969-70.984375 28.117188-14.484375 13.121093-28.160156 25.519531-65.617188 26.488281-8.496094-.015625-18.511718-2.332031-29.109375-4.78125-21.519531-4.972656-45.910156-10.609375-63.648437 3.371094-14.5 11.433594-21.695313 34.089844-21.996094 69.273437-.0703125 8.359375 4.824219 15.777344 11.976562 19.300781-.234374 9.511719 2.203126 26.875 19.855469 42.117188zm94.867188 16.089844c-4.167969 1.515625-8.367188 2.941406-12.59375 4.285156 1.277343-4.6875 2.953125-9.429688 4.945312-12.980469 2.058594 2.75 4.621094 5.796875 7.648438 8.695313zm-51.425781.886718c2.761718 3.480469 6.25 7.378907 10.402343 11.023438-.214843.046875-10.589843 2.179688-15.597656 3.011719.933594-4.144531 2.519531-9.199219 5.195313-14.035157zm351.644531 242.582032c-7.394531 2.78125-18.285157 7.851562-29.335938 16.441406-5.691406-17.019531-10.976562-34.175781-15.59375-51.519531 13.050781 4.933593 31.925781 15.09375 44.929688 35.078125zm-26.875-117.734375c-7.832031 1.773437-19.464844 5.363281-31.691407 12.492187-.023437-.253906-.050781-.511718-.078124-.769531-1.734376-17.414063-1.773438-33.246094-.105469-47.878906 11.378906 7.542969 23.84375 19.078125 31.875 36.15625zm21.449219-113.433594c-2.492188-.175781-5.046876-.261719-7.636719-.261719-8.265625 0-16.359375.867188-24.199219 2.589844.300781-.992188.59375-1.988281.882812-2.984375 4.015626-13.921875 6.734376-29.164063 6.175782-48.417969 9.566406 10.078125 21.441406 26.644532 24.777344 49.074219zm-382.769532-42.457031c-9.328125-9.410156-11.488281-19.222656-11.765625-25.386719.074219.003906.148438.007813.21875.011719 7.328125.441406 14.636719.464844 21.96875.464844.097657 0 .195313 0 .289063-.003907-4.496094 7.914063-8.058594 16.933594-10.710938 24.914063zm48.394532-11.257813c-6.257813-4.644531-10.011719-10.648437-12.183594-15.386719.097656-.011718.191406-.027343.289062-.039062 6.09375-.746094 12.160156-1.714844 18.175782-2.964844-2.777344 6.339844-4.816407 12.785156-6.28125 18.390625zm0 0"/></svg>