<svg height="512pt" viewBox="-6 0 512 512" width="512pt" xmlns="http://www.w3.org/2000/svg"><path d="m133.945312 96.792969c-49.238281 0-89.300781-40.058594-89.300781-89.300781h34.347657c0 30.304687 24.652343 54.957031 54.957031 54.957031h233.230469c30.304687 0 54.957031-24.652344 54.957031-54.953125h34.34375c0 49.238281-40.058594 89.296875-89.300781 89.296875zm0 0" fill="#48484d"/><path d="m347.355469 15.339844h-193.585938c-21.078125 0-38.167969 17.089844-38.167969 38.167968v52.222657c0 21.078125 17.085938 38.167969 38.167969 38.167969h9.359375l87.433594 19.300781 87.433594-19.300781h9.359375c21.082031 0 38.167969-17.085938 38.167969-38.167969v-52.222657c.003906-21.078124-17.085938-38.167968-38.167969-38.167968zm0 0" fill="#57565c"/><path d="m325.742188 212.59375v48.441406c0 47.398438 55.386718 75.988282 93.484374 51.796875 6.125-3.890625 14.136719-3.015625 19.441407 1.9375 16.472656 15.382813 47.316406 49.925781 54.785156 98.457031 1.21875 7.933594-3.902344 15.472657-11.71875 17.3125-38.910156 9.164063-154.777344 38.039063-222.425781 71.902344-5.507813 2.753906-11.984375 2.753906-17.492188 0-67.644531-33.863281-183.511718-62.738281-222.425781-71.902344-7.8125-1.839843-12.933594-9.378906-11.714844-17.3125 7.464844-48.503906 38.277344-83.035156 54.757813-98.429687 5.320312-4.96875 13.367187-5.84375 19.492187-1.90625 38.4375 24.6875 93.460938-3.691406 93.460938-51.855469v-48.441406l75.179687-25.84375zm0 0" fill="#57565c"/><path d="m325.742188 212.59375h-150.355469v30.214844h150.355469c0-13.734375 0-30.214844 0-30.214844zm0 0" fill="#48484d"/><path d="m449.816406 386.820312c-5.601562-12.082031-12.667968-22.445312-19.515625-30.824218-3.375-4.136719-8.917969-5.871094-14.011719-4.277344-8.960937 2.800781-18.320312 4.203125-27.757812 4.203125-16.089844 0-32.398438-4.082031-47.3125-12.277344-31.199219-17.148437-49.828125-48.027343-49.828125-82.609375v-48.441406l-40.828125-25.84375-40.832031 25.84375v48.441406c0 35.046875-18.667969 66.167969-49.941407 83.25-14.667968 8.011719-30.71875 11.996094-46.59375 12-9.589843 0-19.121093-1.457031-28.246093-4.359375-5.175781-1.644531-10.816407.003907-14.246094 4.214844-6.808594 8.355469-13.824219 18.667969-19.394531 30.683594-3.46875 7.476562.6875 16.269531 8.675781 18.300781 48.808594 12.414062 121.96875 33.019531 177.292969 57.292969 8.472656 3.714843 18.09375 3.71875 26.570312 0 55.324219-24.269531 128.484375-44.878907 177.292969-57.292969 7.992187-2.03125 12.140625-10.824219 8.675781-18.304688zm0 0" fill="#d2d2d2"/><path d="m338 143.898438h-174.871094c-13.226562 0-23.945312 10.722656-23.945312 23.949218v8.539063c0 19.996093 16.207031 36.207031 36.203125 36.207031h150.355469c19.996093 0 36.203124-16.210938 36.203124-36.207031v-8.539063c0-13.226562-10.722656-23.949218-23.945312-23.949218zm0 0" fill="#d2d2d2"/><path d="m169.183594 176.390625v-8.542969c0-13.226562 10.71875-23.949218 23.945312-23.949218h-30c-13.226562 0-23.949218 10.722656-23.949218 23.949218v8.542969c0 19.992187 16.210937 36.203125 36.207031 36.203125h30c-19.996094 0-36.203125-16.210938-36.203125-36.203125zm0 0" fill="#aeaeb2"/><path d="m338.875 49.6875h-176.621094c-6.796875 0-12.304687 5.507812-12.304687 12.304688v35.253906c0 6.796875 5.507812 12.304687 12.304687 12.304687h176.621094c6.792969 0 12.304688-5.507812 12.304688-12.304687v-35.253906c0-6.796876-5.511719-12.304688-12.304688-12.304688zm0 0" fill="#aeaeb2"/><path d="m179.949219 97.246094v-35.253906c0-6.796876 5.507812-12.304688 12.304687-12.304688h-30c-6.796875 0-12.304687 5.511719-12.304687 12.304688v35.253906c0 6.796875 5.507812 12.304687 12.304687 12.304687h30c-6.796875 0-12.304687-5.507812-12.304687-12.304687zm0 0" fill="#a1a1a5"/><path d="m209.730469 212.59375h81.664062v30.214844h-81.664062zm0 0" fill="#aeaeb2"/><path d="m338.875 117.058594c10.917969 0 19.804688-8.882813 19.804688-19.804688v-35.253906c0-10.917969-8.882813-19.804688-19.804688-19.804688h-109.542969c-4.144531 0-7.5 3.359376-7.5 7.5 0 4.144532 3.355469 7.5 7.5 7.5h109.542969c2.648438 0 4.804688 2.15625 4.804688 4.804688v35.253906c0 2.652344-2.15625 4.804688-4.804688 4.804688h-176.621094c-2.652344 0-4.804687-2.152344-4.804687-4.804688v-35.253906c0-2.648438 2.152343-4.804688 4.804687-4.804688h37.078125c4.140625 0 7.5-3.355468 7.5-7.5 0-4.140624-3.359375-7.5-7.5-7.5h-37.078125c-10.921875 0-19.808594 8.886719-19.808594 19.804688v35.253906c0 10.921875 8.886719 19.804688 19.808594 19.804688zm0 0"/><path d="m171.746094 370.273438c-4.140625 0-7.5 3.355468-7.5 7.5v14.261718c0 4.144532 3.359375 7.5 7.5 7.5 4.144531 0 7.5-3.355468 7.5-7.5v-14.261718c0-4.144532-3.355469-7.5-7.5-7.5zm0 0"/><path d="m329.378906 399.535156c4.144532 0 7.5-3.355468 7.5-7.5v-14.261718c0-4.144532-3.355468-7.5-7.5-7.5-4.140625 0-7.5 3.355468-7.5 7.5v14.261718c0 4.144532 3.359375 7.5 7.5 7.5zm0 0"/><path d="m274.953125 385.394531c-3.121094-2.722656-7.859375-2.40625-10.582031.710938-3.359375 3.84375-8.390625 6.042969-13.808594 6.042969s-10.449219-2.203126-13.804688-6.042969c-2.726562-3.117188-7.464843-3.4375-10.585937-.707031-3.117187 2.726562-3.4375 7.464843-.707031 10.582031 6.203125 7.097656 15.351562 11.171875 25.097656 11.171875s18.894531-4.074219 25.101562-11.171875c2.726563-3.117188 2.40625-7.859375-.710937-10.585938zm0 0"/><path d="m17.671875 437.847656c34.703125 8.171875 153.1875 37.46875 220.789063 71.304688 3.789062 1.898437 7.945312 2.847656 12.101562 2.847656s8.316406-.949219 12.105469-2.847656c26.214843-13.121094 62.621093-26.890625 108.207031-40.925782 3.960938-1.21875 6.183594-5.414062 4.960938-9.375-1.214844-3.957031-5.414063-6.179687-9.375-4.960937-46.375 14.277344-83.554688 28.359375-110.507813 41.851563-3.375 1.6875-7.402344 1.6875-10.777344 0-22.375-11.203126-89.003906-40.6875-224.066406-72.496094-3.996094-.941406-6.640625-4.839844-6.019531-8.871094 7.046875-45.808594 35.894531-78.609375 52.464844-94.089844 2.875-2.6875 7.121093-3.132812 10.316406-1.078125 20.367187 13.082031 46.824218 13.664063 69.050781 1.523438 22.519531-12.300781 35.964844-34.613281 35.964844-59.6875v-40.945313h19.347656v40.945313c0 32.261719-17.210937 60.921875-46.039063 76.667969-20.710937 11.3125-46.128906 14.339843-68.972656 7.074218-8.023437-2.550781-17.003906.089844-22.332031 6.625-8.355469 10.253906-15.214844 21.113282-20.386719 32.265625-5.269531 11.367188 1.160156 25.554688 13.632813 28.726563 50.425781 12.824218 121.914062 33.109375 176.128906 56.890625 5.171875 2.269531 10.65625 3.421875 16.300781 3.421875 5.640625 0 11.121094-1.148438 16.296875-3.417969 54.222657-23.785156 125.703125-44.070313 176.125-56.894531 12.34375-3.136719 18.988281-17.175782 13.632813-28.726563-5.195313-11.210937-12.09375-22.117187-20.507813-32.417969-5.25-6.421874-14.136719-9.167968-22.0625-6.6875-22.933593 7.171876-48.246093 4.035157-69.21875-7.488281-28.765625-15.8125-45.9375-44.234375-45.9375-76.039062v-40.941407h19.347657v40.941407c0 24.636719 13.421874 46.722656 35.910156 59.082031 22.347656 12.28125 48.824218 11.917969 69.097656-.953125 3.199219-2.035156 7.433594-1.585937 10.296875 1.089844 16.578125 15.476562 45.441406 48.289062 52.492187 94.113281.617188 4.03125-2.023437 7.929688-6.023437 8.871094-15.734375 3.707031-47.515625 11.460937-83.582031 21.761718-3.980469 1.140626-6.289063 5.289063-5.148438 9.273438 1.136719 3.980469 5.289063 6.289062 9.269532 5.148438 35.769531-10.214844 67.292968-17.910157 82.898437-21.582032 11.566406-2.726562 19.214844-14.039062 17.410156-25.753906-7.738281-50.292969-39.082031-85.992188-57.078125-102.796875-7.859375-7.335937-19.609375-8.484375-28.578125-2.789063-15.652343 9.9375-36.277343 10.117188-53.832031.472657-17.617188-9.683594-28.136719-26.855469-28.136719-45.9375v-41.597657c20.539063-3.570312 36.207031-21.507812 36.207031-43.050781v-8.539062c0-7.214844-2.449218-13.863281-6.546874-19.175781 17.550781-6.371094 30.125-23.214844 30.125-42.941407v-4.96875c41.457031-11.507812 70.953124-49.773437 70.953124-93.269531 0-4.140625-3.355468-7.5-7.5-7.5h-34.34375c-4.144531 0-7.5 3.359375-7.5 7.5 0 16.410156-8.53125 31.4375-22.015624 40.027344-2.941407-22.359375-22.113282-39.679688-45.261719-39.679688h-193.585938c-23.148437 0-42.320312 17.320313-45.261719 39.683594-13.484374-8.59375-22.015624-23.621094-22.015624-40.03125 0-4.140625-3.359376-7.5-7.5-7.5h-34.347657c-4.140625 0-7.5 3.359375-7.5 7.5 0 43.496094 29.5 81.761719 70.957031 93.269531v4.96875c0 19.726563 12.574219 36.570313 30.125 42.941407-4.097656 5.3125-6.546874 11.960937-6.546874 19.175781v8.539062c0 21.542969 15.671874 39.480469 36.207031 43.050781v41.597657c0 19.503906-10.523438 36.894531-28.152344 46.523437-17.410156 9.511719-38.007813 9.136719-53.753906-.980468-8.980469-5.765626-20.769531-4.640626-28.667969 2.738281-17.988281 16.800781-49.316406 52.496093-57.050781 102.769531-1.800781 11.714844 5.84375 23.027344 17.410156 25.753906zm319.9375-87.621094c24.363281 13.390626 54.097656 17.042969 80.917969 8.65625 2.128906-.664062 4.523437.097657 5.96875 1.863282 7.617187 9.328125 13.847656 19.164062 18.519531 29.242187 1.46875 3.171875-.347656 7.015625-3.722656 7.875-50.96875 12.964844-123.300781 33.5-178.457031 57.695313-6.507813 2.855468-14.035157 2.855468-20.542969 0-55.148438-24.195313-127.484375-44.726563-178.457031-57.691406-3.304688-.839844-5.214844-4.65625-3.71875-7.878907 4.640624-10.023437 10.835937-19.8125 18.402343-29.101562 1.472657-1.808594 3.953125-2.503907 6.160157-1.804688 9.824218 3.125 20.089843 4.710938 30.519531 4.710938 17.367187-.003907 34.722656-4.46875 50.1875-12.917969 33.71875-18.417969 53.847656-51.996094 53.847656-89.832031v-40.941407h66.660156v40.941407c0 37.359375 20.082031 70.699219 53.714844 89.183593zm91.570313-335.226562h19.453124c-2.992187 32.203125-25.039062 59.902344-55.605468 70.113281v-20.769531c19.824218-9.035156 33.539062-27.835938 36.152344-49.34375zm-376.6875 0h19.453124c2.613282 21.507812 16.328126 40.308594 36.15625 49.34375v20.769531c-30.570312-10.210937-52.613281-37.910156-55.609374-70.113281zm70.609374 90.738281v-52.222656c0-16.910156 13.757813-30.664063 30.667969-30.664063h193.589844c16.910156 0 30.667969 13.753907 30.667969 30.664063v52.222656c0 16.910157-13.757813 30.667969-30.667969 30.667969h-193.589844c-16.910156 0-30.667969-13.757812-30.667969-30.667969zm23.578126 70.65625v-8.539062c0-9.070313 7.378906-16.449219 16.449218-16.449219h174.871094c9.066406 0 16.445312 7.378906 16.445312 16.449219v8.539062c0 15.828125-12.875 28.707031-28.703124 28.707031h-150.355469c-15.828125 0-28.707031-12.878906-28.707031-28.707031zm0 0"/></svg>