<svg height="512pt" viewBox="-14 0 512 512" width="512pt" xmlns="http://www.w3.org/2000/svg"><g fill="#a67052"><path d="m275.144531 504.5v-482.941406c0-7.765625-6.292969-14.058594-14.058593-14.058594h-37.867188c-7.765625 0-14.058594 6.292969-14.058594 14.058594v482.941406zm0 0"/><path d="m47.625 43.636719h-26.066406c-7.761719 0-14.058594 6.292969-14.058594 14.058593v24.945313c0 7.761719 6.296875 14.058594 14.058594 14.058594h26.066406l15.59375-26.53125zm0 0"/><path d="m436.679688 43.636719h26.066406c7.765625 0 14.058594 6.292969 14.058594 14.058593v24.945313c0 7.761719-6.292969 14.058594-14.058594 14.058594h-26.066406l-15.59375-26.53125zm0 0"/></g><path d="m209.160156 330.191406v89.238282l32.992188-17.195313 32.992187 17.195313v-89.238282zm0 0" fill="#935b43"/><path d="m396.917969 43.632812h39.765625v400.832032c0 11.53125-12.226563 18.949218-22.457032 13.621094l-172.074218-89.679688-172.074219 89.679688c-10.230469 5.328124-22.457031-2.089844-22.457031-13.621094v-400.832032h39.765625l154.765625 76.261719zm0 0" fill="#edebec"/><path d="m242.152344 43.632812h-154.765625v169.707032l71.828125 44.21875 82.9375-44.21875 77.382812-84.855469zm0 0" fill="#92c3cc"/><path d="m319.535156 128.484375-77.382812 84.855469-82.9375 44.21875 82.9375 66 154.765625 80.65625v-190.875zm0 0" fill="#92c3cc"/><path d="m242.152344 43.632812h154.769531v169.707032h-154.769531zm0 0" fill="#f77f82"/><path d="m242.152344 213.339844v110.21875l-154.765625 80.65625v-190.875zm0 0" fill="#f77f82"/><path d="m484.304688 57.695312c0-11.886718-9.671876-21.558593-21.558594-21.558593l-180.101563-.003907v-14.574218c0-11.886719-9.671875-21.558594-21.554687-21.558594h-37.871094c-11.886719 0-21.558594 9.671875-21.558594 21.558594v14.574218l-180.101562.003907c-11.886719 0-21.558594 9.671875-21.558594 21.558593v24.945313c0 11.886719 9.671875 21.558594 21.558594 21.558594h18.5625v224.710937c0 4.144532 3.359375 7.5 7.5 7.5s7.5-3.355468 7.5-7.5v-277.777344h24.765625v353.078126c0 5.492187 6.105469 9.1875 10.964843 6.652343l151.300782-78.847656s150.949218 78.667969 151.300781 78.847656c4.925781 2.566407 10.96875-1.117187 10.96875-6.648437v-284.304688c0-4.140625-3.359375-7.5-7.5-7.5-4.144531 0-7.5 3.359375-7.5 7.5v85.929688h-139.769531v-154.707032h139.769531v38.777344c0 4.144532 3.355469 7.5 7.5 7.5 4.140625 0 7.5-3.355468 7.5-7.5v-38.777344h24.765625v393.335938c0 5.6875-6.234375 9.707031-11.492188 6.964844l-172.074218-89.679688c-2.171875-1.132812-4.761719-1.132812-6.933594 0 0 0-172.074219 89.679688-172.074219 89.679688-5.191406 2.703125-11.492187-1.167969-11.492187-6.96875v-85.554688c0-4.140625-3.359375-7.5-7.5-7.5s-7.5 3.359375-7.5 7.5v85.554688c0 16.84375 18.46875 28.058594 33.425781 20.269531l128.113281-66.769531v106.535156c0 4.140625 3.359375 7.5 7.5 7.5h65.984375c4.140625 0 7.5-3.359375 7.5-7.5v-106.535156s128.011719 66.71875 128.117188 66.773437c14.996093 7.8125 33.421875-3.449219 33.421875-20.273437v-340.265625h18.5625c11.890625 0 21.558594-9.671875 21.558594-21.558594zm-462.746094 31.503907c-3.617188 0-6.558594-2.941407-6.558594-6.558594v-24.945313c0-3.617187 2.941406-6.558593 6.558594-6.558593h18.5625v38.0625zm73.328125 131.640625h139.765625v98.171875l-139.765625 72.835937zm294.535156 171.007812-139.769531-72.835937v-98.171875h139.769531zm-154.769531-186.007812h-139.765625v-154.707032h139.765625zm7.5-169.707032h-25.492188v-14.574218c0-3.617188 2.941406-6.558594 6.558594-6.558594h37.871094c3.613281 0 6.554687 2.941406 6.554687 6.558594v14.574218zm25.492187 354.015626v106.851562h-50.984375v-106.851562l25.492188-13.285157zm201.660157-307.507813c0 3.617187-2.941407 6.558594-6.558594 6.558594h-18.5625v-38.0625h18.5625c3.617187 0 6.558594 2.941406 6.558594 6.558593zm0 0"/></svg>