<svg height="511pt" viewBox="0 -19 511.99788 511" width="511pt" xmlns="http://www.w3.org/2000/svg"><path d="m443.476562 24.429688 44.605469 44.605468-85.886719 85.886719-44.605468-44.605469zm0 0" fill="#57565c"/><path d="m328.429688 112.371094 71.710937 71.710937-55.523437 55.527344-71.710938-71.710937zm0 0" fill="#c5c4c9"/><path d="m328.433594 112.375-21.558594 21.558594c6.089844 7.742187 13.625 16.082031 22.519531 24.917968 8.089844 8.035157 16.257813 16.199219 24.273438 24.269532 8.835937 8.898437 17.175781 16.429687 24.917969 22.523437l21.558593-21.558593zm0 0" fill="#aeaeb2"/><path d="m439.765625 155.738281c-7.347656-11.195312-18.429687-23.089843-26.996094-31.597656-8.15625-8.105469-16.285156-16.234375-24.390625-24.394531-8.507812-8.5625-20.402344-19.644532-31.597656-26.992188-6.726562-4.414062-15.621094-3.503906-21.308594 2.183594l-13.265625 13.261719c-5.6875 5.6875-6.59375 14.585937-2.183593 21.308593 7.347656 11.199219 18.429687 23.09375 26.996093 31.597657 8.15625 8.105469 16.289063 16.234375 24.390625 24.394531 8.507813 8.5625 20.402344 19.644531 31.597656 26.992188 6.726563 4.414062 15.621094 3.503906 21.308594-2.183594l13.265625-13.261719c5.6875-5.6875 6.59375-14.585937 2.183594-21.308594zm0 0" fill="#c5c4c9"/><path d="m368.582031 225.832031-76.804687-76.804687c-8.492188-8.496094-22.261719-8.496094-30.753906 0l-247.160157 247.160156c-8.605469 8.605469-8.605469 22.554688 0 31.160156 50.800781 50.796875 133.160157 50.796875 183.957031 0l170.761719-170.761718c8.496094-8.492188 8.496094-22.261719 0-30.753907zm0 0" fill="#f5615e"/><path d="m380.519531 284.546875-45.207031-45.207031c-7.441406-7.441406-19.511719-7.441406-26.957031 0l-22.167969 22.171875c-7.445312 7.441406-7.445312 19.511719 0 26.957031l45.207031 45.207031c7.441407 7.441407 19.511719 7.441407 26.957031 0l22.167969-22.171875c7.445313-7.445312 7.445313-19.511718 0-26.957031zm0 0" fill="#f77f82"/><path d="m264.851562 400.214844-45.207031-45.207032c-7.441406-7.441406-19.511719-7.441406-26.957031 0l-22.167969 22.171876c-7.445312 7.445312-7.445312 19.511718 0 26.957031l45.203125 45.207031c7.445313 7.441406 19.515625 7.441406 26.957032 0l22.171874-22.171875c7.441407-7.441406 7.441407-19.511719 0-26.957031zm0 0" fill="#f77f82"/><path d="m453.058594 104.074219-44.609375-44.609375 35.027343-35.023438 44.605469 44.605469zm0 0" fill="#48484d"/><path d="m494.414062 40.683594-22.578124-22.578125c-13.570313-13.570313-35.566407-13.570313-49.132813 0-5.589844 5.585937-5.589844 14.644531 0 20.234375l51.476563 51.476562c5.585937 5.589844 14.644531 5.589844 20.234374 0 13.566407-13.566406 13.566407-35.566406 0-49.132812zm0 0" fill="#c5c4c9"/><path d="m125.238281 333.976562c-2.929687 2.929688-2.929687 7.679688 0 10.609376 0 0 9.917969 9.917968 9.917969 9.917968 2.898438 2.902344 7.710938 2.902344 10.609375 0 2.933594-2.929687 2.933594-7.679687 0-10.609375l-9.914063-9.917969c-2.929687-2.929687-7.679687-2.929687-10.613281 0zm0 0"/><path d="m250.066406 247.050781c6.5625.015625 9.953125-8.109375 5.304688-12.757812l-9.917969-9.917969c-2.933594-2.929688-7.683594-2.929688-10.613281 0-2.929688 2.929688-2.929688 7.679688 0 10.613281 0 0 9.90625 9.902344 9.921875 9.914063 1.40625 1.410156 3.347656 2.144531 5.304687 2.148437zm0 0"/><path d="m181.550781 299.746094c-4.144531-.285156-7.710937 2.851562-7.988281 6.980468-.363281 5.414063 4.34375 8.0625 9.082031 8.0625 8.566407 0 16.929688-3.503906 23.21875-9.792968 6.800781-6.800782 10.34375-16.027344 9.71875-25.316406-.277343-4.136719-3.847656-7.269532-7.988281-6.984376-4.132812.277344-7.257812 3.855469-6.980469 7.988282.332031 4.96875-1.621093 9.964844-5.363281 13.703125-3.738281 3.742187-8.730469 5.695312-13.699219 5.359375zm0 0"/><path d="m52.328125 462.003906c3.769531 1.59375 8.238281-.222656 9.832031-3.988281 1.613282-3.816406-.175781-8.21875-3.992187-9.832031-14.5625-6.152344-27.65625-14.984375-38.921875-26.246094-5.664063-5.664062-5.664063-14.882812 0-20.546875l197.339844-197.339844c2.929687-2.929687 2.929687-7.679687 0-10.609375-2.929688-2.929687-7.679688-2.929687-10.609376 0l-197.339843 197.335938c-11.515625 11.515625-11.515625 30.253906 0 41.769531 12.636719 12.640625 27.335937 22.546875 43.691406 29.457031zm0 0"/><path d="m477.21875 12.695312c-16.273438-16.273437-43.496094-16.25-59.746094 0-7.867187 7.871094-8.441406 20.300782-1.742187 28.851563l-37.863281 37.863281c-5.429688-4.714844-11.226563-9.316406-16.890626-13.035156-9.597656-6.296875-22.625-4.953125-30.730468 3.152344l-13.265625 13.261718c-8.15625 8.160157-9.480469 21.082032-3.148438 30.730469.367188.5625.75 1.121094 1.132813 1.683594l-23.796875 23.796875c-4.414063-2.574219-9.445313-3.949219-14.6875-3.949219-7.8125 0-15.160157 3.042969-20.683594 8.566407l-28.601563 28.601562c-2.929687 2.929688-2.929687 7.679688 0 10.609375 2.929688 2.929687 7.679688 2.929687 10.609376 0l28.601562-28.601563c2.691406-2.6875 6.269531-4.171874 10.070312-4.171874 3.808594 0 7.382813 1.480468 10.074219 4.171874 0 0 76.804688 76.804688 76.804688 76.804688 7.40625 7.40625 3.640625 16.503906-2.707031 22.851562l-19.953126-19.949218c-10.152343-10.152344-27.40625-10.160156-37.570312 0 0 0-22.167969 22.167968-22.179688 22.179687-4.949218 4.960938-7.769531 11.761719-7.769531 18.773438 0 12.734375 9.515625 20.515625 17.757813 28.757812l9.976562 9.976563-55.933594 55.933594-19.953124-19.953126c-10.238282-10.242187-27.335938-10.230468-37.566407 0 0 0-22.152343 22.152344-22.167969 22.167969-10.050781 10.050781-10.042968 27.527344 0 37.570313l19.640626 19.640625c-27.28125 23.097656-62.753907 33.019531-98.488282 27.304687-4.085937-.65625-7.9375 2.128906-8.59375 6.222656-.65625 4.089844 2.132813 7.9375 6.222656 8.59375 7.441407 1.191407 14.863282 1.777344 22.226563 1.777344 32.742187 0 64.167969-11.609375 89.273437-33.253906 0 0 14.914063 14.914062 14.921876 14.921875 10.238281 10.238281 27.34375 10.226563 37.570312 0 0 0 22.15625-22.15625 22.167969-22.167969 10.242187-10.242187 10.234375-27.335937 0-37.570312l-14.644531-14.640625 55.933593-55.933594 14.644531 14.644531c5.015626 5.015625 11.6875 7.78125 18.78125 7.78125 7.097657 0 13.769532-2.765625 18.785157-7.78125l22.167969-22.171875c10.359374-10.355469 10.359374-27.207031 0-37.566406l-14.640626-14.644531s2.703126-2.703125 2.707032-2.707032c11.199218-11.199218 11.285156-29.847656.207031-41.148437l23.113281-23.113281c.5625.386718 1.125.769531 1.683594 1.136718 9.597656 6.296876 22.621094 4.957032 30.730469-3.152343l13.261719-13.261719c8.160156-8.160156 9.484374-21.082031 3.152343-30.730469-3.714843-5.664062-8.320312-11.460937-13.03125-16.890625l37.859375-37.863281c3.820313 3 8.496094 4.644531 13.429688 4.644531 5.824218 0 11.304687-2.269531 15.421875-6.390625 16.285156-16.28125 16.261719-43.480469 0-59.742187.003906-.003906-22.566407-22.574219-22.574219-22.582032zm-214.265625 400.894532c0 2.980468-1.109375 5.957031-3.328125 8.175781 0 0-22.132812 22.128906-22.171875 22.167969-4.449219 4.449218-11.910156 4.433594-16.34375 0 0 0-45.132813-45.128906-45.207031-45.207032-4.355469-4.351562-4.347656-11.996093 0-16.347656 0 0 22.144531-22.140625 22.167968-22.167968 4.460938-4.460938 11.890626-4.457032 16.347657 0 0 0 45.15625 45.15625 45.207031 45.207031 2.21875 2.222656 3.328125 5.199219 3.328125 8.171875zm112.339844-107.492188s-22.144531 22.140625-22.171875 22.167969c-4.457032 4.457031-11.894532 4.449219-16.347656 0 0 0-45.183594-45.183594-45.203126-45.207031-4.402343-4.398438-4.40625-11.9375 0-16.34375 0 0 22.140626-22.144532 22.167969-22.171875 4.410157-4.410157 11.949219-4.398438 16.347657 0l45.203124 45.207031c4.507813 4.507812 4.507813 11.839844.003907 16.347656zm9.957031-117.753906c-.023438.023438-21.679688 21.679688-21.679688 21.679688l-61.101562-61.101563 21.679688-21.679687c-1.757813 1.910156 60.164062 62.039062 61.101562 61.101562zm47.105469-16.707031s-13.242188 13.242187-13.265625 13.265625c-3.128906 3.128906-8.195313 3.636718-11.886719 1.214844-7.449219-4.886719-14.28125-10.734376-20.816406-16.765626-.019531-.019531-.035157-.035156-.054688-.054687-15-13.65625-29.34375-28.1875-43.097656-43.09375-.039063-.039063-.074219-.082031-.113281-.121094-6.023438-6.535156-11.863282-13.351562-16.746094-20.792969-2.449219-3.734374-1.9375-8.734374 1.214844-11.886718 0 0 13.234375-13.234375 13.265625-13.265625 3.144531-3.144531 8.171875-3.652344 11.886719-1.214844 6.824218 4.476563 13.988281 10.492187 20.34375 16.328125 15.257812 14.019531 30.140624 28.902344 44.15625 44.160156 5.832031 6.34375 11.847656 13.511719 16.328124 20.339844 2.449219 3.734375 1.9375 8.734375-1.214843 11.886719zm-43.425781-82.070313 37.285156-37.285156 33.996094 33.996094s-37.285157 37.289062-37.285157 37.289062c-.976562-1.007812-33.929687-34.066406-33.996093-34zm100.257812-5.160156c-4.707031 4.703125-9.65625.140625-13.0625-3.433594 0 0-44.605469-44.609375-44.609375-44.609375-3.488281-3.488281-8.226563-8.261719-3.433594-13.058593 10.496094-10.496094 28.039063-10.480469 38.523438 0 0 0 22.566406 22.570312 22.578125 22.582031 10.503906 10.5 10.496094 28.027343.003906 38.519531zm0 0"/></svg>