<svg height="511pt" viewBox="-18 0 511 511.99937" width="511pt" xmlns="http://www.w3.org/2000/svg"><path d="m267.503906 189.667969-255.035156 275.765625c-6.140625 6.636718-5.941406 16.9375.453125 23.332031l10.859375 10.859375c6.390625 6.390625 16.695312 6.59375 23.332031.453125l275.765625-255.035156zm0 0" fill="#a67052"/><path d="m200.351562 262.273438c4.628907 6.296874 9.726563 12.300781 15.292969 17.960937 11.382813 11.578125 24.167969 21.246094 37.972657 28.867187l69.265624-64.058593-55.378906-55.375zm0 0" fill="#c68c6a"/><path d="m237.730469 70.183594c-.242188.246094-.484375.488281-.722657.730468-51.101562 52.019532-51.085937 136.285157.03125 188.285157 52.671876 53.574219 138.988282 53.566406 191.652344-.023438 51.257813-52.164062 51.078125-136.707031-.386718-188.664062-1.859376-1.878907-3.761719-3.6875-5.699219-5.433594-3.691407-3.316406-9.570313-1.917969-11.351563 2.714844-4.890625 12.699219-15.125 32.652343-28.828125 23.746093-16.058593-10.4375-26.507812-48.925781-20.492187-75.316406 1.339844-5.878906-4.644532-10.699218-10.046875-8.015625-24.105469 11.984375-66.722657 40.132813-70.554688 90.65625 0 0-18.347656-8.144531-32.863281-27.804687-2.585938-3.5-7.664062-3.953125-10.738281-.875zm0 0" fill="#ffc471"/><path d="m428.304688 70.511719c-1.859376-1.878907-3.761719-3.6875-5.699219-5.429688-.90625-.816406-1.941407-1.339843-3.015625-1.609375 39.875 52.21875 36.285156 127.679688-10.90625 175.699219-49.027344 49.894531-127.21875 53.332031-180.28125 10.335937 2.699218 3.335938 5.574218 6.574219 8.636718 9.691407 52.671876 53.574219 138.988282 53.570312 191.652344-.023438 51.257813-52.164062 51.078125-136.707031-.386718-188.664062zm0 0" fill="#ffb85c"/><path d="m382.671875 143.515625-13.640625-13.644531c-18.570312-18.566406-49.011719-17.429688-66.144531 2.476562l-38.210938 44.402344c-11.546875 13.417969-10.796875 33.46875 1.722657 45.988281l23.40625 23.410157c12.519531 12.515624 32.570312 13.265624 45.988281 1.71875l44.402343-38.210938c19.910157-17.128906 21.046876-47.570312 2.476563-66.140625zm0 0" fill="#f77f82"/><path d="m382.671875 143.515625-13.640625-13.644531c-1.078125-1.074219-2.195312-2.074219-3.34375-3.019532 15.347656 18.710938 13.257812 46.660157-5.496094 62.800782l-44.402344 38.210937c-13.417968 11.546875-33.46875 10.796875-45.984374-1.71875l20.003906 20.003907c12.515625 12.515624 32.566406 13.265624 45.984375 1.71875l44.402343-38.210938c19.910157-17.128906 21.046876-47.570312 2.476563-66.140625zm0 0" fill="#f5615e"/><path d="m313.773438 263.433594c9.628906.011718 19.269531-3.253906 26.949218-9.859375 0 0 44.390625-38.203125 44.40625-38.214844 22.871094-19.683594 24.222656-55.792969 2.886719-77.128906 0 0-13.632813-13.636719-13.644531-13.644531-21.355469-21.359376-57.441406-19.992188-77.132813 2.886718l-38.210937 44.402344c-14.023438 16.300781-13.101563 40.976562 2.105468 56.183594 0 0 23.394532 23.394531 23.40625 23.410156 7.933594 7.933594 18.574219 11.957031 29.234376 11.964844zm-43.375-81.773438s38.183593-44.367187 38.214843-44.402344c14.089844-16.371093 39.894531-17.316406 55.148438-2.0625 0 0 13.632812 13.628907 13.644531 13.644532 15.289062 15.289062 14.296875 41.070312-2.0625 55.148437 0 0-44.382812 38.195313-44.40625 38.210938-10.320312 8.878906-26.175781 8.273437-35.789062-1.339844l-23.40625-23.40625c-9.6875-9.6875-10.277344-25.410156-1.34375-35.792969zm0 0"/><path d="m7.65625 494.085938s10.851562 10.855468 10.855469 10.859374c9.148437 9.144532 24.246093 9.433594 33.730469.660157l55.746093-51.554688c3.039063-2.8125 3.226563-7.558593.414063-10.601562-2.816406-3.042969-7.5625-3.226563-10.601563-.414063l-55.746093 51.554688c-3.691407 3.417968-9.375 3.304687-12.933594-.253906l-10.859375-10.855469c-3.558594-3.558594-3.667969-9.242188-.25-12.9375l202.492187-218.949219c3.453125 4.476562 7.195313 8.78125 11.222656 12.878906 9.5625 9.722656 20.503907 18.09375 32.421876 24.71875l-144.320313 133.472656c-3.039063 2.8125-3.226563 7.558594-.414063 10.601563 2.816407 3.039063 7.5625 3.226563 10.601563.414063l148.648437-137.476563c16.957032 7.011719 35.296876 10.691406 54.242188 10.691406 38.351562-.003906 74.28125-15.078125 101.171875-42.441406 54.070313-55.027344 53.886719-144.390625-.410156-199.203125-1.941407-1.960938-3.964844-3.886719-6.007813-5.730469-7.484375-6.730469-19.765625-3.777343-23.375 5.597657-2.03125 5.28125-9.140625 25.734374-17.734375 20.148437-5.945312-3.863281-11.835937-14.34375-15.375-27.355469-3.75-13.792968-4.457031-28.746094-1.894531-40.003906 2.683594-11.773438-9.804688-21.8125-20.695312-16.398438-12.210938 6.066407-29.925782 16.621094-44.972657 32.417969-14.976562 15.722657-24.421875 33.445313-28.175781 52.820313-5.9375-4.074219-13.886719-10.628906-20.894531-20.125-5.65625-7.65625-16.503907-7.351563-22.851563-.945313-13.542968 13.789063-23.941406 29.917969-30.898437 47.933594-1.492188 3.867187.429687 8.207031 4.296875 9.699219 3.863281 1.492187 8.207031-.429688 9.699218-4.292969 6.214844-16.097656 15.503907-30.507813 27.605469-42.828125l.320313-.320312c15.46875 20.761718 34.773437 29.5 35.609375 29.871093 4.675781 2.074219 10.136719-1.199219 10.523437-6.289062 3.492188-46.039063 42.246094-72.339844 65.636719-84.121094-6.429687 29.765625 5.28125 70.421875 23.886719 82.519531 6.6875 4.34375 12.660156 3.777344 16.492187 2.53125 8.941407-2.898437 16.746094-12.757812 23.203125-29.304687 1.683594 1.527343 3.34375 3.117187 4.941406 4.734375 48.554688 49.015625 48.71875 128.925781.367188 178.128906-24.046875 24.472656-56.175781 37.949219-90.484375 37.953125-41.953125.003906-82.113281-21.414063-105.40625-56.3125-.078125-.113281-.164063-.214844-.246094-.324219-17-25.539062-24.148437-56.5-19.78125-87.898437.570313-4.105469-2.292969-7.894531-6.398437-8.464844-4.105469-.566406-7.894532 2.292969-8.460938 6.398437-4.621094 33.21875 2.292969 66.011719 19.175782 93.644532l-204.777344 221.421875c-8.910156 9.636719-8.621094 24.453125.660156 33.730469zm0 0"/></svg>