<svg height="511pt" viewBox="-65 0 511 511.99878" width="511pt" xmlns="http://www.w3.org/2000/svg"><path d="m267.878906 78.699219c-3.28125-1.925781-7.484375.097656-8.019531 3.863281-1.953125 13.710938-8.039063 41.21875-25.820313 47.375-21.628906 7.488281-26.019531-74.5625-6.925781-114.8125 2.039063-4.292969-2.070312-8.941406-6.5625-7.390625-26.253906 9.085937-81.59375 36.921875-78.117187 109.5.289062 5.996094-6.6875 9.445313-11.328125 5.636719-10.613281-8.714844-24.519531-23.597656-27.894531-43.667969-.773438-4.601563-6.570313-6.179687-9.480469-2.53125-23.640625 29.613281-89.550781 120.246094-23.34375 226.285156l121.054687 90.972657 120.027344-92.230469c-.003906 0 69.023438-156.964844-43.589844-223zm0 0" fill="#ffc471"/><path d="m96.390625 316.960938c-59.6875-95.605469-11.992187-178.675782 15.300781-215.804688-3.957031-6.40625-7.101562-13.746094-8.480468-21.953125-.773438-4.601563-6.570313-6.179687-9.484376-2.53125-23.636718 29.613281-89.546874 120.242187-23.339843 226.285156l121.054687 90.972657 3.644532-2.800782zm0 0" fill="#ffb85c"/><path d="m181.484375 393.933594 87.289063-75.378906s13.816406-64.699219-27.175782-106.363282c-40.988281-41.660156-49.726562-63.835937-49.726562-63.835937s-110.550782 77.089843-71.738282 175.964843zm0 0" fill="#f77f82"/><path d="m140.140625 334.324219c-31.65625-80.636719 36.027344-146.777344 62.078125-168.4375-7.980469-11.554688-10.34375-17.53125-10.34375-17.53125s-110.554688 77.089843-71.742188 175.964843l61.351563 69.613282 6.355469-5.488282zm0 0" fill="#f5615e"/><path d="m53.863281 504.5625c-17.714843 0-34.539062-10.4375-41.835937-27.792969-9.707032-23.09375 1.144531-49.683593 24.238281-59.390625l275.199219-115.679687c23.09375-9.707031 49.683594 1.144531 59.390625 24.238281s-1.144531 49.683594-24.238281 59.390625l-275.195313 115.679687c-5.742187 2.414063-11.699219 3.554688-17.558594 3.554688zm0 0" fill="#a67052"/><path d="m141.875 372.984375-105.609375 44.394531c-.804687.339844-1.59375.703125-2.367187 1.082032l118.679687 48.433593 101.925781-42.847656zm0 0" fill="#935b43"/><path d="m21.179688 377.050781c-12.527344-12.527343-17.042969-31.804687-9.929688-49.234375 9.464844-23.195312 35.941406-34.324218 59.136719-24.859375l276.390625 112.796875c23.195312 9.46875 34.324218 35.941406 24.859375 59.136719-9.46875 23.191406-35.941407 34.320313-59.136719 24.855469l-276.390625-112.796875c-5.765625-2.351563-10.789063-5.757813-14.929687-9.898438zm0 0" fill="#c68c6a"/><path d="m142.714844 268.175781c-4.144532 0-7.503906 3.359375-7.503906 7.5v8.816407c0 4.144531 3.359374 7.503906 7.503906 7.503906 4.140625 0 7.5-3.359375 7.5-7.503906v-8.816407c0-4.140625-3.359375-7.5-7.5-7.5zm0 0"/><path d="m240.144531 291.996094c4.144531 0 7.503907-3.359375 7.503907-7.503906v-8.816407c0-4.140625-3.359376-7.5-7.503907-7.5s-7.5 3.359375-7.5 7.5v8.816407c0 4.144531 3.355469 7.503906 7.5 7.503906zm0 0"/><path d="m191.429688 296.703125c6.851562 0 13.292968-2.875 17.671874-7.886719 2.726563-3.117187 2.410157-7.855468-.710937-10.585937-3.121094-2.726563-7.859375-2.40625-10.585937.710937-1.53125 1.75-3.855469 2.753906-6.375 2.753906-2.519532 0-4.84375-1.003906-6.375-2.753906-2.730469-3.121094-7.46875-3.4375-10.585938-.710937-3.121094 2.726562-3.441406 7.464843-.710938 10.585937 4.378907 5.011719 10.820313 7.886719 17.671876 7.886719zm0 0"/><path d="m136.617188 473.65625c1.605468 3.820312 6.003906 5.613281 9.820312 4.007812l45.292969-19.035156s117.910156 48.121094 117.921875 48.125c26.746094 10.914063 58.015625-2.269531 68.914062-28.96875 10.898438-26.699218-2.355468-58.054687-28.96875-68.914062l-20.039062-8.179688 19.953125-8.386718c26.871093-11.292969 39.542969-42.34375 28.246093-69.214844-8.875-21.117188-31.355468-34.445313-54.125-32.109375 9.484376-27.09375 26.554688-89.183594 8.09375-145.140625-1.296874-3.9375-5.542968-6.074219-9.472656-4.777344-3.9375 1.300781-6.074218 5.542969-4.773437 9.476562 19.820312 60.085938-5.984375 130.921876-11.789063 145.503907l-27.832031 11.699219c2.0625-21.816407 1.6875-67.601563-30.925781-100.75-38.875-39.511719-47.976563-61.042969-48.09375-61.324219-1.832032-4.421875-7.289063-6.183594-11.269532-3.40625-1.164062.808593-28.710937 20.207031-51.914062 52.261719-27.5 37.992187-36.96875 77.664062-27.835938 115.675781l-32.347656-13.199219c-41.199218-67.671875-33.847656-140.832031 21.257813-211.96875 4.855469 19.90625 18.554687 34.632812 29.601562 43.699219 9.496094 7.792969 24.171875.46875 23.582031-11.792969-1.40625-29.359375 7.273438-53.910156 25.796876-72.972656 13.628906-14.023438 29.945312-22.464844 42.578124-27.355469-6.59375 16.269531-10.578124 38.828125-10.78125 61.613281-.109374 12.132813.828126 41.683594 11.898438 54.035156 4.667969 5.210938 10.890625 6.96875 17.074219 4.832032 19.933593-6.902344 27.480469-33.148438 30.304687-50.222656 15.792969 9.75 28.523438 22.046874 37.871094 36.582031 2.242188 3.484375 6.882812 4.492187 10.367188 2.25 3.484374-2.238281 4.492187-6.882813 2.253906-10.367188-11.164063-17.359375-26.511719-31.839843-45.613282-43.042969-7.773437-4.554687-17.976562.386719-19.246093 9.277344-3.199219 22.476563-10.992188 37.933594-20.84375 41.34375-.085938.027344-.148438.046875-.191407.054688-.519531-.28125-2.078124-1.808594-3.742187-5.976563-8.160156-20.457031-6.855469-70.976562 6.242187-98.585937 4.695313-9.902344-5.117187-21.390625-15.796874-17.691406-26.101563 9.03125-86.210938 38.328124-83.214844 115.605468-9.707032-8.179687-21.40625-21.246094-24.273438-38.292968-1.808594-10.761719-15.90625-14.535157-22.742187-5.96875-23.066407 28.894531-38.347657 57.390624-46.722657 87.128906-12.828124 45.554687-7.964843 90.226562 14.414063 133.015625-.765625-.035157-1.527344-.054688-2.292969-.054688-21.585937 0-40.800781 12.914063-48.957031 32.898438-10.851563 26.585937 2.410156 58.078125 28.964844 68.914062l20.042969 8.179688-19.957032 8.386719c-26.867187 11.296874-39.539062 42.34375-28.246094 69.214843 11.140626 26.503907 42.722657 39.382813 69.214844 28.246094l44.75-18.808594c3.820313-1.605469 5.613282-6.003906 4.007813-9.824219-1.605469-3.820312-6.003907-5.613281-9.820313-4.007812 0 0-44.738281 18.804688-44.75 18.808594-19.039062 8.003906-41.566406-1.191406-49.570312-20.226563-8.085938-19.242187.988281-41.480469 20.230468-49.570312l33.785157-14.203125 99.136719 40.460937-31.457032 13.222657c-3.824218 1.605468-5.617187 6.003906-4.011718 9.820312zm227.3125-144.753906c8.085937 19.246094-.988282 41.480468-20.230469 49.570312l-33.785157 14.203125-99.136718-40.460937s103.53125-43.519532 103.582031-43.539063c19.058594-8.011719 41.566406 1.195313 49.570313 20.226563zm-216.355469-125.253906c15.03125-20.855469 32.421875-36.28125 41.777343-43.855469 6.089844 10.371093 19.515626 29.898437 46.886719 57.71875 33.15625 33.699219 27.511719 84.925781 25.632813 96.949219l-70.742188 29.738281-65.566406-26.757813c-13.019531-37.1875-5.621094-75.453125 22.011719-113.792968zm-120.925781 167.980468c-10.128907-10.597656-14.128907-27.042968-8.464844-40.917968 7.785156-19.078126 30.289062-28.527344 49.355468-20.746094 0 0 276.160157 112.703125 276.394532 112.796875 19.050781 7.777343 28.519531 30.300781 20.742187 49.355469-7.78125 19.074218-30.296875 28.523437-49.355469 20.746093 0 0-276.265624-112.746093-276.390624-112.796875-4.707032-1.921875-8.847657-4.84375-12.28125-8.4375zm0 0"/></svg>