<svg height="512pt" viewBox="0 0 512 512" width="512pt" xmlns="http://www.w3.org/2000/svg"><path d="m504.492188 256c0 137.242188-111.257813 248.5-248.5 248.5-137.242188 0-248.5-111.257812-248.5-248.5s111.257812-248.5 248.5-248.5c137.242187 0 248.5 111.257812 248.5 248.5zm0 0" fill="#ffc471"/><path d="m457.457031 256c0 111.265625-90.199219 201.464844-201.464843 201.464844-111.265626 0-201.464844-90.199219-201.464844-201.464844s90.199218-201.464844 201.464844-201.464844c111.265624 0 201.464843 90.199219 201.464843 201.464844zm0 0" fill="#ffb85c"/><path d="m153.535156 398.457031c-78.675781-78.675781-78.675781-206.238281 0-284.914062 34.246094-34.246094 77.753906-53.578125 122.457032-58.011719-58.003907-5.753906-118.023438 13.582031-162.457032 58.011719-78.675781 78.675781-78.675781 206.238281 0 284.914062 44.433594 44.433594 104.453125 63.765625 162.457032 58.011719-44.703126-4.433594-88.210938-23.765625-122.457032-58.011719zm0 0" fill="#e7a249"/><path d="m234.492188 118.585938h43v99.496093h-43zm0 0" fill="#e7a249"/><path d="m214.359375 242.933594s-7.367187 123.480468 41.632813 178.816406c49-55.335938 41.636718-178.816406 41.636718-178.816406l-41.636718-24.851563zm0 0" fill="#ffc471"/><path d="m316.28125 200.261719c-7.011719-4.851563-23.144531-10.511719-60.289062-10.511719-36.546876 0-52.753907 5.476562-59.941407 10.277344-3.582031 2.386718-5.726562 6.410156-5.726562 10.71875v14.675781c0 4.304687 2.144531 8.328125 5.726562 10.71875 7.1875 4.796875 23.394531 10.273437 59.941407 10.273437 36.546874 0 52.753906-5.476562 59.941406-10.273437 3.582031-2.394531 5.726562-6.414063 5.726562-10.71875v-14.6875c0-4.152344-1.960937-8.109375-5.378906-10.472656zm0 0" fill="#e7a249"/><path d="m300.957031 99.648438c-6.269531-4.335938-11.753906-9.398438-44.964843-9.398438-32.675782 0-38.226563 4.898438-44.652344 9.191406-3.203125 2.136719-5.121094 5.734375-5.121094 9.582032v13.121093c0 3.851563 1.917969 7.449219 5.121094 9.585938 6.425781 4.289062 11.976562 9.1875 44.652344 9.1875 32.679687 0 38.230468-4.898438 44.65625-9.1875 3.203124-2.136719 5.117187-5.734375 5.117187-9.585938v-13.128906c0-3.714844-1.753906-7.25-4.808594-9.367187zm0 0" fill="#ffc471"/><path d="m437.007812 74.980469c-48.351562-48.351563-112.640624-74.980469-181.019531-74.980469-68.382812 0-132.667969 26.628906-181.019531 74.980469-38.777344 38.777343-63.667969 87.855469-71.976562 141.925781-.628907 4.09375 2.179687 7.921875 6.273437 8.554688 4.09375.628906 7.921875-2.183594 8.550781-6.273438 7.824219-50.898438 31.253906-97.09375 67.757813-133.597656 45.519531-45.519532 106.039062-70.589844 170.414062-70.589844 64.371094 0 124.890625 25.066406 170.410157 70.585938 45.519531 45.519531 70.589843 106.039062 70.589843 170.414062 0 64.371094-25.070312 124.894531-70.589843 170.414062-45.515626 45.519532-106.039063 70.585938-170.410157 70.585938-64.375 0-124.894531-25.066406-170.414062-70.585938-23.953125-23.953124-42.242188-51.988281-54.359375-83.320312-11.703125-30.269531-17.117188-62.140625-16.089844-94.730469.128906-4.140625-3.121094-7.601562-7.261719-7.734375-4.140625-.128906-7.601562 3.121094-7.734375 7.261719-1.089844 34.605469 4.664063 68.457031 17.09375 100.613281 12.875 33.292969 32.304688 63.074219 57.746094 88.515625 48.351562 48.351563 112.636719 74.980469 181.019531 74.980469 68.378907 0 132.667969-26.628906 181.019531-74.980469 48.351563-48.351562 74.980469-112.640625 74.980469-181.019531s-26.628906-132.667969-74.980469-181.019531zm-107.851562 150.441406v-14.683594c0-6.691406-3.222656-12.910156-8.613281-16.644531-7.449219-5.15625-19.355469-8.644531-35.554688-10.433594v-37.320312c10.304688-1.945313 14.78125-4.964844 18.910157-7.761719 5.636718-3.8125 9.359374-9.457031 9.359374-16.433594 0 0 0-13.121093 0-13.128906 0-6.738281-3.519531-12.371094-8.921874-16.148437-8.160157-5.730469-16.902344-10.113282-48.347657-10.113282-33.371093 0-41.097656 5.226563-47.914062 9.839844-5.605469 3.773438-9.359375 9.5-9.359375 16.429688v13.121093c0 6.929688 3.757812 12.65625 9.359375 16.433594 4.132812 2.792969 8.605469 5.8125 18.914062 7.761719v37.320312c-15.875 1.753906-27.636719 5.140625-35.105469 10.125-5.628906 3.757813-9.0625 10.195313-9.0625 16.957032v14.675781c0 6.832031 3.386719 13.171875 9.0625 16.960937 3.804688 2.535156 8.722657 4.65625 14.730469 6.363282-.324219 11.007812-.488281 35.300781 2.730469 63.695312 5.859375 51.707031 19.664062 90.160156 41.027344 114.285156 2.933594 3.3125 8.296875 3.3125 11.230468 0 21.363282-24.125 35.167969-62.578125 41.03125-114.285156 2.25-19.847656 2.804688-37.765625 2.875-49.296875.039063-6.371094.019532-11-.070312-14.417969 11.46875-3.269531 23.71875-9.679687 23.71875-23.300781zm-112.675781-99.269531c-1.480469-.996094-2.765625-2.046875-2.765625-4.007813 0 0 0-13.105469 0-13.121093 0-1.964844 1.296875-3.019532 2.765625-4.007813 5.277343-3.570313 10.734375-7.265625 39.507812-7.265625 29.203125 0 34.792969 3.929688 39.726563 7.390625 1.371094.964844 2.542968 1.96875 2.542968 3.875v13.128906c0 1.941407-1.296874 3.019531-2.765624 4.007813-3.613282 2.445312-7.3125 4.945312-18.511719 6.28125-13.90625 1.660156-28.09375 1.65625-41.996094 0-11.191406-1.335938-14.894531-3.835938-18.503906-6.28125zm53.507812 21.910156v34.476562c0-.238281-12.582031-.289062-14-.289062-4.667969 0-9.339843.085938-14 .289062 0 0 0-34.476562 0-34.480468.027344.414062 13.441407.359375 14 .359375 4.667969 0 9.339844-.089844 14-.355469zm-14 261.707031c-33.683593-46.332031-34.945312-131.039062-34.425781-157.953125 7.242188 1.039063 15.460938 1.691406 24.644531 1.960938.757813.019531 1.519531.039062 2.28125.058594v109.246093c0 4.144531 3.355469 7.5 7.5 7.5 4.019531 0 7.5-3.371093 7.5-7.5v-109.246093c.753907-.03125 1.515625-.039063 2.269531-.058594 9.183594-.269532 17.410157-.921875 24.65625-1.960938.523438 26.90625-.714843 111.597656-34.425781 157.953125zm58.167969-184.347656c0 1.796875-.902344 3.484375-2.390625 4.480469-2.480469 1.65625-7.125 3.863281-15.578125 5.679687-.042969.007813-.085938.007813-.132812.019531-13.09375 2.800782-26.714844 3.3125-40.066407 3.3125-13.359375 0-26.964843-.515624-40.066406-3.3125-.054687-.011718-.109375-.015624-.160156-.027343-8.433594-1.8125-13.074219-4.019531-15.550781-5.671875-1.496094-1-2.386719-2.675782-2.390626-4.484375 0 0 0-14.652344 0-14.675781 0-1.78125.90625-3.488282 2.390626-4.480469 3.9375-2.628907 13.320312-6.652344 34.769531-8.285157.023437 0 .050781 0 .078125-.003906 13.921875-1.007812 27.941406-1.023437 41.863281 0h.070313c21.773437 1.65625 31.136718 5.765625 35.015624 8.453125 1.34375.929688 2.148438 2.542969 2.148438 4.308594zm134.796875 10.953125c.417969 4.121094 4.09375 7.125 8.214844 6.710938 4.125-.417969 7.125-4.097657 6.710937-8.21875-4.824218-47.703126-26.175781-92.675782-60.132812-126.628907-81.472656-81.472656-214.042969-81.472656-295.519532 0-81.476562 81.476563-81.476562 214.046875 0 295.523438 81.476563 81.472656 214.046876 81.472656 295.519532 0 36.84375-36.84375 58.496094-85.777344 60.96875-137.785157.199218-4.136718-2.996094-7.648437-7.136719-7.84375-4.136719-.199218-7.648437 2.996094-7.847656 7.132813-2.292969 48.269531-22.390625 93.6875-56.589844 127.886719-75.625 75.628906-198.679687 75.628906-274.304687 0-75.628907-75.625-75.628907-198.679688-.003907-274.304688 75.628907-75.628906 198.683594-75.628906 274.308594 0 31.515625 31.515625 51.335937 73.253906 55.8125 117.527344zm0 0"/></svg>