<svg height="511pt" viewBox="0 0 511.99816 511" width="511pt" xmlns="http://www.w3.org/2000/svg"><path d="m264.257812 214.78125 33.457032 33.453125-163.28125 163.28125-33.457032-33.453125zm0 0" fill="#c68c6a"/><g fill="#a1a1a5"><path d="m416.144531 114.664062c2.863281-5.257812 1.921875-11.769531-2.308593-16.003906-4.234376-4.230468-10.75-5.171875-16.003907-2.3125l-33.214843 18.078125 3.332031 30.121094 30.121093 3.332031zm0 0"/><path d="m161.320312 198.128906v.015625c-19.292968 7.84375-33.085937 17.082031-33.085937 17.082031s-11.355469-86.539062 63.421875-161.316406 151.820312-35.804687 151.820312-35.804687c-7.355468 9.570312-11.425781 19.640625-13.304687 29.523437zm0 0"/><path d="m314.367188 351.175781h-.015626c-7.84375 19.292969-17.082031 33.085938-17.082031 33.085938s86.539063 11.355469 161.316407-63.425781c74.777343-74.777344 35.804687-151.816407 35.804687-151.816407-9.570313 7.355469-19.640625 11.425781-29.523437 13.304688zm0 0"/></g><path d="m319.582031 192.914062-65.75 11.433594c-25.851562-25.851562-64.847656-17.464844-92.511719-6.207031v-.011719c.230469-7.191406 1.085938-17.0625 3.511719-28.597656 7.269531-34.625 24.304688-65.515625 50.617188-91.828125 23.554687-23.554687 49.457031-35.695313 76.996093-36.097656 20.039063-.285157 34.410157 5.902343 36.046876 6.628906-.101563-.046875-.167969-.089844-.195313-.101563l1.875-.503906c-6.59375 34.574219 13.582031 66.796875 13.582031 66.796875zm0 0" fill="#aeaeb2"/><path d="m319.582031 192.914062-11.433593 65.75c25.851562 25.851563 17.460937 64.847657 6.203124 92.511719h.015626c7.191406-.230469 17.0625-1.085937 28.597656-3.511719 34.625-7.269531 65.511718-24.304687 91.828125-50.621093 23.554687-23.554688 35.695312-49.453125 36.097656-76.992188.285156-20.039062-5.902344-34.410156-6.628906-36.046875.046875.101563.085937.167969.101562.195313l.503907-1.875c-34.574219 6.59375-66.796876-13.582031-66.796876-13.582031zm0 0" fill="#aeaeb2"/><path d="m264.257812 214.78125-44.378906 44.382812 33.453125 33.453126 44.382813-44.378907zm0 0" fill="#a67052"/><path d="m398.070312 147.878906-33.457031-33.453125c-5.757812-5.757812-15.097656-5.757812-20.859375 0l-102.660156 102.660157c-5.757812 5.761718-5.757812 15.101562 0 20.859374l33.457031 33.457032c5.757813 5.757812 15.097657 5.757812 20.859375 0l102.660156-102.660156c5.757813-5.761719 5.757813-15.101563 0-20.863282zm0 0" fill="#d2d2d2"/><path d="m168.753906 377.195312-33.457031-33.453124c-5.757813-5.757813-15.097656-5.757813-20.859375 0l-102.660156 102.660156c-5.761719 5.761718-5.761719 15.101562 0 20.859375l33.453125 33.457031c5.761719 5.757812 15.101562 5.757812 20.863281 0l102.660156-102.660156c5.757813-5.761719 5.757813-15.101563 0-20.863282zm0 0" fill="#aeaeb2"/><path d="m276.339844 148.070312c1.917968.003907 3.851562-.703124 5.304687-2.152343l8.644531-8.648438c2.929688-2.929687 2.929688-7.675781 0-10.605469-2.929687-2.929687-7.679687-2.929687-10.609374 0l-8.644532 8.644532c-2.929687 2.929687-2.929687 7.679687 0 10.609375 1.417969 1.414062 3.355469 2.148437 5.304688 2.152343zm0 0"/><path d="m375.222656 222.207031-8.644531 8.644531c-2.929687 2.929688-2.929687 7.679688 0 10.609376 2.820313 2.820312 7.675781 2.929687 10.609375 0l8.644531-8.648438c2.929688-2.929688 2.929688-7.675781 0-10.605469-2.929687-2.929687-7.679687-2.929687-10.609375 0zm0 0"/><path d="m336 192.089844c-4.058594.269531-8.136719-1.332032-11.199219-4.394532-3.066406-3.066406-4.667969-7.148437-4.394531-11.199218.277344-4.136719-2.847656-7.710938-6.980469-7.988282-4.140625-.28125-7.710937 2.847657-7.988281 6.980469-.5625 8.371094 2.625 16.6875 8.753906 22.816407 5.660156 5.664062 13.195313 8.816406 20.917969 8.816406 4.722656 0 9.234375-2.75 8.875-8.050782-.273437-4.132812-3.847656-7.257812-7.984375-6.980468zm0 0"/><path d="m124.824219 331.964844c-5.941407 0-11.53125 2.3125-15.730469 6.515625 0 0-102.625 102.621093-102.664062 102.660156-8.578126 8.582031-8.570313 22.898437 0 31.46875 0 0 33.445312 33.445313 33.457031 33.453125 8.578125 8.582031 22.894531 8.574219 31.464843 0 0 0 102.566407-102.5625 102.664063-102.660156 6.578125-6.578125 8.347656-16.824219 4.371094-25.230469l97.050781-97.054687c2.9375 1.390624 6.15625 2.148437 9.5 2.148437 5.941406 0 11.53125-2.316406 15.734375-6.519531l7.015625-7.015625c16.683594 22.773437 9.363281 54.847656-.328125 78.664062-7.429687 18.273438-16.273437 31.597657-16.363281 31.734375-3.046875 4.550782-.15625 10.902344 5.253906 11.613282.484375.0625 5.492188.691406 13.875.691406 12.066406 0 31.128906-1.304688 53.71875-7.464844 3.996094-1.089844 6.355469-5.214844 5.265625-9.210938-1.09375-3.996093-5.214844-6.351562-9.210937-5.261718-20.992188 5.726562-38.808594 6.898437-49.820313 6.90625 2.765625-5 6.082031-11.46875 9.3125-18.914063 8.425781-.527343 16.808594-1.714843 25.070313-3.441406 36.058593-7.570313 68.222656-25.285156 95.589843-52.652344 24.886719-24.886719 41.519531-58.550781 37.742188-94.382812-.175781-1.6875-3.386719-20.289063-4.144531-20.066407 6.007812-1.769531 11.746093-4.261718 17.171874-7.460937 2.65625 7.875 6.042969 21.03125 6.171876 37.25.289062 35.601563-14.429688 68.519531-43.753907 97.84375-19.714843 19.710937-42.117187 35.042969-66.59375 45.5625-3.804687 1.636719-5.5625 6.046875-3.929687 9.855469 1.636718 3.804687 6.050781 5.5625 9.855468 3.925781 26.230469-11.273437 50.210938-27.671875 71.273438-48.734375 40.480469-40.480469 48.523438-81.8125 48.140625-109.359375-.414063-29.984375-10.507813-50.28125-10.945313-51.148437-2.101562-4.15625-7.585937-5.390626-11.265624-2.5625-11.277344 8.664062-25.125 13.070312-39.296876 13.074218-17.753906 0-33.507812-6.199218-41.964843-10.285156.859375-2.394531 1.335937-4.933594 1.335937-7.550781 0-3.941407-1.039062-7.714844-2.949218-11.042969l15.792968-29.015625c4.417969-8.121094 2.941406-18.359375-3.597656-24.894531-6.507812-6.511719-16.8125-7.996094-24.894531-3.597656l-29.015625 15.792968c-3.328125-1.910156-7.101563-2.949218-11.042969-2.949218-2.605469 0-5.136719.472656-7.519531 1.324218-5.054688-10.535156-13.414063-32.402344-9.125-54.902344 1.824218-9.59375 5.820312-18.460937 11.882812-26.351562 2.824219-3.675781 1.570313-9.171875-2.5625-11.261719-.851562-.429687-21.152344-10.53125-51.148437-10.945312-27.539063-.367188-68.882813 7.660156-109.359375 48.140625-39.933594 39.929687-55.644532 83.195312-61.792969 112.460937-6.691406 31.859375-3.890625 54.1875-3.765625 55.132813.710938 5.402344 7.066406 8.292968 11.609375 5.257812.132813-.085937 13.460937-8.933594 31.742187-16.371094 23.816407-9.6875 55.886719-17.007812 78.660157-.320312 0 0-7.011719 7.011719-7.015625 7.015625-6.566406 6.566406-8.339844 16.84375-4.371094 25.234375l-97.054688 97.050781c-2.933593-1.394531-6.152343-2.148437-9.496093-2.148437zm38.582031 60.828125s-102.355469 102.359375-102.660156 102.660156c-2.804688 2.804687-7.453125 2.800781-10.253906 0 0 0-33.394532-33.398437-33.453126-33.453125-2.800781-2.804688-2.804687-7.445312 0-10.25 0 0 102.5-102.5 102.660157-102.660156 2.796875-2.796875 7.464843-2.785156 10.253906 0l33.453125 33.453125c2.828125 2.828125 2.828125 7.425781 0 10.25zm287.070312-201.601563c2.800782 0 5.578126-.132812 8.3125-.398437.007813.019531.011719.039062.019532.054687 12.558594 37.183594-2.742188 74.3125-29.363282 100.933594-27.902343 27.90625-64.660156 46.816406-104.042968 51.128906 11.679687-34.722656 9.292968-63.417968-6.988282-83.90625l80.917969-80.917968c9.027344 4.644531 28.570313 13.105468 51.144531 13.105468zm-49.101562-88.210937c2.234375-1.21875 5.214844-.871094 7.113281 1.027343 1.867188 1.867188 2.289063 4.792969 1.027344 7.113282l-13.28125 24.402344-19.261719-19.265626s24.402344-13.277343 24.402344-13.277343zm-42.105469 16.792969s33.453125 33.453124 33.457031 33.457031c2.824219 2.824219 2.824219 7.421875-.003906 10.246093 0 0-102.546875 102.550782-102.660156 102.660157-2.796875 2.800781-7.453125 2.800781-10.253906 0 0 0-33.421875-33.425781-33.453125-33.453125-2.8125-2.789063-2.785157-7.464844 0-10.25 0 0 102.566406-102.570313 102.660156-102.660156 2.800781-2.800782 7.453125-2.800782 10.253906 0zm-189.683593 67.316406c.03125-.296875 1.496093-10.992188 2.546874-15.976563 7.03125-33.417969 24.503907-63.988281 48.578126-88.066406 15.207031-15.203125 31.484374-25.417969 48.378906-30.363281 3.976562-1.164063 6.257812-5.328125 5.09375-9.304688-1.164063-3.976562-5.332032-6.257812-9.304688-5.09375-19.339844 5.660156-37.769531 17.148438-54.777344 34.15625-27.371093 27.371094-45.085937 59.53125-52.652343 95.585938-1.734375 8.257812-2.917969 16.652344-3.441407 25.074218-7.449218 3.234376-13.917968 6.550782-18.917968 9.316407.003906-9.042969.792968-22.667969 4.246094-38.851563 5.78125-27.101562 20.46875-67.195312 57.582031-104.308594 29.324219-29.324218 62.195312-44.015624 97.847656-43.757812 16.21875.132812 29.375 3.519531 37.246094 6.175781-3.199219 5.425781-5.691407 11.164063-7.460938 17.171875-9.109375-2.890625-18.601562-4.449218-28.152343-4.675781-4.089844-.09375-7.589844 3.210937-7.695313 7.304687-.105469 4.140626 3.164063 7.585938 7.304687 7.695313 8.617188.21875 17.347657 1.671875 25.558594 4.488281.042969.019532.089844.03125.132813.046875-2.476563 25.890625 7.53125 49.308594 12.71875 59.445313l-80.929688 80.929687c-20.488281-16.28125-49.183593-18.667969-83.902343-6.992187zm71.464843 61.507812 22.847657 22.84375-95.1875 95.1875-22.847657-22.84375zm0 0"/></svg>