<svg height="511pt" viewBox="-18 1 511 511.9995" width="511pt" xmlns="http://www.w3.org/2000/svg"><path d="m426.546875 184.929688c-.871094 0-1.730469.039062-2.589844.089843l-15.507812 25.980469 15.507812 56.292969c.855469.054687 1.71875.089843 2.589844.089843 22.765625 0 41.226563-18.457031 41.226563-41.226562-.003907-22.765625-18.460938-41.226562-41.226563-41.226562zm0 0" fill="#ffcec0"/><path d="m49.222656 184.929688c.871094 0 1.730469.039062 2.589844.089843l15.507812 25.980469-15.507812 56.292969c-.855469.054687-1.71875.089843-2.589844.089843-22.765625 0-41.226562-18.457031-41.226562-41.226562.003906-22.765625 18.460937-41.226562 41.226562-41.226562zm0 0" fill="#ffcec0"/><path d="m169.417969 384.949219s-47.550781 41.53125-47.550781 119.554687h47.550781l17.464843-54.882812zm0 0" fill="#c68c6a"/><path d="m306.351562 384.949219s47.550782 41.53125 47.550782 119.554687h-47.550782l-17.464843-54.882812zm0 0" fill="#c68c6a"/><path d="m312.316406 450.96875c11.1875 0 21.695313-2.976562 30.777344-8.167969-14.03125-38.011719-36.742188-57.851562-36.742188-57.851562l-16.671874 61.734375c7.160156 2.796875 14.828124 4.285156 22.636718 4.285156zm0 0" fill="#a67052"/><path d="m163.457031 450.96875c7.804688 0 15.472657-1.488281 22.632813-4.285156l-16.671875-61.734375s-22.707031 19.84375-36.742188 57.851562c9.085938 5.191407 19.589844 8.167969 30.78125 8.167969zm0 0" fill="#a67052"/><path d="m169.417969 384.949219h136.933593v119.554687h-136.933593zm0 0" fill="#a5d0d8"/><path d="m169.417969 450.675781c6.234375-.601562 12.320312-2.132812 18.050781-4.53125 11.3125 15.621094 29.699219 25.800781 50.417969 25.800781s39.101562-10.175781 50.414062-25.800781c5.730469 2.398438 11.816407 3.929688 18.050781 4.53125v-65.726562h-136.933593zm0 0" fill="#92c3cc"/><path d="m240.042969 236.15625c-1.425781-.277344-2.890625-.277344-4.316407 0h-183.914062v131.617188c0 20.554687 16.660156 37.214843 37.214844 37.214843 20.554687 0 37.214844-16.660156 37.214844-37.214843v20.980468c0 20.550782 16.660156 37.214844 37.214843 37.214844 18.558594 0 33.941407-13.589844 36.75-31.359375.15625.03125.308594.066406.464844.097656v15.023438c0 20.554687 16.660156 37.214843 37.214844 37.214843 20.550781 0 37.214843-16.660156 37.214843-37.214843v-15.023438c.152344-.03125.304688-.066406.460938-.101562 2.808594 17.773437 18.191406 31.363281 36.753906 31.363281 20.550782 0 37.210938-16.664062 37.210938-37.214844v-20.980468c0 20.554687 16.664062 37.214843 37.214844 37.214843 20.554687 0 37.214843-16.660156 37.214843-37.214843v-131.617188zm0 0" fill="#f5615e"/><path d="m211.539062 9.167969c-114.082031 14.816406-151.308593 123.292969-151.308593 123.292969l151.308593 17.257812 26.347657-72.644531zm0 0" fill="#aeaeb2"/><path d="m264.230469 9.167969-26.347657 67.90625 26.347657 72.644531 151.3125-17.257812s-37.230469-108.476563-151.3125-123.292969zm0 0" fill="#aeaeb2"/><path d="m264.230469 9.167969v140.550781l-26.347657 3.007812-26.34375-3.007812v-140.550781c8.359376-1.082031 17.144532-1.671875 26.34375-1.671875 9.203126 0 17.988282.589844 26.347657 1.671875zm0 0" fill="#ffc471"/><path d="m166.359375 284.910156s-18.140625 15.757813-14.140625 41.757813c0 0 62.667969 9 85.667969-31.667969 23 40.667969 85.667969 31.667969 85.667969 31.667969 4-26-14.144532-41.757813-14.144532-41.757813l-.191406-16.578125-71.332031-57.332031-73 52.332031zm0 0" fill="#f77f82"/><path d="m51.8125 171.152344v65.003906c0 15.136719 26.027344 30.25 37.285156 36.878906 15.769532 9.28125 33.511719 14.964844 51.90625 14.964844 33.515625 0 63.351563-15.695312 82.578125-40.132812 3.445313-4.386719 8.726563-6.925782 14.304688-6.925782s10.859375 2.539063 14.304687 6.925782c19.226563 24.4375 49.0625 40.132812 82.578125 40.132812 18.394531 0 36.136719-5.683594 51.90625-14.964844 11.257813-6.628906 37.285157-21.742187 37.285157-36.878906v-65.003906c-2.566407 1.171875-369.582032 1.171875-372.148438 0zm0 0" fill="#d2d2d2"/><path d="m423.957031 171.152344c-2.570312 1.171875-369.578125 1.171875-372.144531 0v29.003906h372.144531zm0 0" fill="#aeaeb2"/><path d="m94.183594 172.996094v15.90625c0 29.046875 23.550781 52.597656 52.601562 52.597656 29.050782 0 52.601563-23.546875 52.601563-52.597656v-15.90625zm0 0" fill="#ffe1d7"/><path d="m381.585938 172.996094v15.90625c0 29.046875-23.550782 52.597656-52.601563 52.597656s-52.597656-23.546875-52.597656-52.597656v-15.90625zm0 0" fill="#ffe1d7"/><path d="m94.183594 188.902344c0 3.863281.429687 7.628906 1.222656 11.253906h102.757812c.789063-3.625 1.21875-7.390625 1.21875-11.253906v-15.90625h-105.199218zm0 0" fill="#ffcec0"/><path d="m381.585938 188.902344c0 3.863281-.429688 7.628906-1.222657 11.253906h-102.757812c-.789063-3.625-1.21875-7.390625-1.21875-11.253906v-15.90625h105.199219zm0 0" fill="#ffcec0"/><path d="m415.546875 132.464844h-355.320313c-11.191406 0-20.265624 9.074218-20.265624 20.265625 0 11.195312 9.074218 20.265625 20.265624 20.265625h355.320313c11.191406 0 20.265625-9.070313 20.265625-20.265625 0-11.191407-9.074219-20.265625-20.265625-20.265625zm0 0" fill="#ffb85c"/><path d="m14.769531 260.609375c8.035157 8.035156 18.382813 12.914063 29.542969 14.027344v93.132812c0 24.65625 20.058594 44.714844 44.714844 44.714844 12.078125 0 23.058594-4.816406 31.113281-12.625 2.21875 8.652344 6.980469 16.296875 13.425781 22.105469-12.738281 25.269531-19.199218 53-19.199218 82.535156 0 4.140625 3.355468 7.5 7.5 7.5h232.039062c4.140625 0 7.5-3.359375 7.5-7.5 0-29.535156-6.460938-57.265625-19.199219-82.535156 6.445313-5.808594 11.207031-13.453125 13.425781-22.105469 8.054688 7.808594 19.03125 12.625 31.113282 12.625 24.65625 0 44.714844-20.058594 44.714844-44.714844v-93.136719c24.570312-2.472656 43.8125-23.269531 43.8125-48.480468 0-25.207032-19.242188-46.007813-43.8125-48.476563v-2.214843c7.160156-5.027344 11.851562-13.339844 11.851562-22.734376 0-13.476562-9.65625-24.738281-22.410156-27.242187-4.71875-11.585937-19.382813-43.164063-48.949219-71.941406-2.96875-2.886719-7.714844-2.824219-10.605469.144531s-2.828125 7.71875.144532 10.605469c23.101562 22.488281 36.582031 47.269531 42.785156 60.667969h-132.546875v-107.054688c24.609375 4.386719 47.28125 13.757812 67.5 27.914062 3.390625 2.375 8.066406 1.554688 10.445312-1.839843 2.375-3.390625 1.550781-8.070313-1.839843-10.445313-24.519532-17.167968-52.320313-27.871094-82.636719-31.808594-.003907 0-.003907 0-.003907 0-17.738281-2.300781-36.878906-2.300781-54.617187 0 0 0 0 0-.003906 0-61.382813 7.96875-100.921875 42.414063-123.289063 69.90625-18.691406 22.980469-28.671875 44.691407-32.410156 53.851563-12.757812 2.5-22.414062 13.761719-22.414062 27.242187 0 9.394532 4.691406 17.707032 11.851562 22.734376v2.210937c-24.570312 2.472656-43.8125 23.269531-43.8125 48.480469 0 13.015625 5.066406 25.253906 14.269531 34.457031zm130-56.582031c4.144531 0 7.5-3.355469 7.5-7.5v-16.035156h39.613281v8.40625c0 24.867187-20.230468 45.097656-45.097656 45.097656-24.867187 0-45.101562-20.230469-45.101562-45.097656v-8.40625h35.585937v16.039062c0 4.140625 3.359375 7.496094 7.5 7.496094zm2.015625 44.96875c33.140625 0 60.101563-26.960938 60.101563-60.101563v-8.402343h62v8.402343c0 33.140625 26.960937 60.101563 60.097656 60.101563 33.140625 0 60.101563-26.960938 60.101563-60.101563v-8.402343h26.460937c.304687 0 .609375-.003907.914063-.015626v55.675782c0 10.648437-24.945313 25.328125-33.140626 30.148437l-.453124.265625c-15.480469 9.113282-32.113282 13.929688-48.101563 13.929688-28.15625 0-55.511719-12.515625-73.886719-33.890625-6.097656-7.097657-13.117187-13.167969-22.992187-13.167969-9.527344 0-17.105469 6.339844-23.003907 13.175781-18.398437 21.320313-45.722656 33.882813-73.878906 33.882813-15.984375 0-32.617187-4.816406-48.101562-13.929688l-.449219-.265625c-8.195313-4.820312-33.140625-19.5-33.140625-30.148437v-55.675782c.304688.011719.609375.015626.914062.015626h26.460938v8.40625c0 33.136718 26.960938 60.097656 60.097656 60.097656zm184.214844-44.96875c4.140625 0 7.5-3.355469 7.5-7.5v-16.035156h35.585938v8.40625c0 24.867187-20.234376 45.097656-45.101563 45.097656s-45.097656-20.230469-45.097656-45.097656v-8.40625h39.613281v16.039062c0 4.140625 3.359375 7.496094 7.5 7.496094zm-14.375 115.746094c-2.148438.132812-4.800781.238281-7.8125.238281-17.988281 0-50.273438-3.730469-64.398438-28.707031-1.332031-2.351563-3.824218-3.808594-6.527343-3.808594s-5.199219 1.457031-6.527344 3.808594c-14.128906 24.976562-46.410156 28.707031-64.398437 28.707031-3.011719 0-5.664063-.105469-7.816407-.238281-.207031-14.851563 7.867188-24.792969 10.988281-28.070313 21.691407-5.769531 41.226563-17.960937 56.191407-35.390625 3.230469-3.757812 5.972656-7.875 11.5625-7.875 5.214843 0 8.476562 4.28125 11.5625 7.878906 14.964843 17.425782 34.503906 29.617188 56.195312 35.386719 3.058594 3.222656 11.183594 13.195313 10.980469 28.070313zm-170.332031 110.265624c.117187.050782.238281.09375.355469.140626 4.847656 1.96875 10.042968 3.074218 15.269531 3.257812v63.5625h-32.398438c.96875-23.84375 6.597657-46.304688 16.773438-66.960938zm30.625 1.378907c6.703125-2.085938 12.738281-5.695313 17.675781-10.476563.769531 2.960938 1.847656 5.851563 3.207031 8.585938 7.414063 14.949218 23.402344 24.914062 40.085938 24.914062 18.269531 0 35.574219-12.066406 41.933593-29.214844.519532-1.402343.980469-2.832031 1.355469-4.28125 4.9375 4.777344 10.976563 8.386719 17.675781 10.476563v65.578125h-121.933593zm152.5625-1.378907c10.171875 20.65625 15.800781 43.117188 16.773437 66.960938h-32.402344v-63.5625c.460938-.015625.921876-.046875 1.378907-.078125 4.882812-.316406 9.734375-1.433594 14.25-3.320313zm86.976562-62.269531c0 16.386719-13.328125 29.714844-29.714843 29.714844-16.382813 0-29.710938-13.328125-29.710938-29.714844 0-4.140625-3.359375-7.5-7.503906-7.5-4.140625 0-7.5 3.359375-7.5 7.5v20.980469c0 16.972656-14.898438 30.78125-31.808594 29.628906-11.863281-.808594-22.414062-8.9375-26.113281-20.261718-.015625-.046876-.03125-.09375-.046875-.140626-.472656-1.484374-.84375-3.007812-1.089844-4.542968-.65625-4.152344-4.835938-7.0625-8.996094-6.160156-3.558594.769531-6.371094 3.648437-6.371094 7.429687v15.023437c0 16.382813-13.332031 29.714844-29.714843 29.714844-16.386719 0-29.714844-13.332031-29.714844-29.714844 0 0 0-15.019531 0-15.023437 0-4.296875-3.730469-7.597656-7.964844-7.597656-.027343 0-.054687.003906-.082031.003906-3.574219.0625-6.765625 2.785156-7.328125 6.324219-.242187 1.546875-.636719 3.160156-1.132813 4.683594-3.425781 10.394531-12.359374 18.167968-23.441406 19.957031-17.808594 2.867187-34.480468-11.320313-34.480468-29.328125v-20.976563c0-4.140625-3.359376-7.5-7.5-7.5-4.140626 0-7.5 3.359375-7.5 7.5 0 16.386719-13.332032 29.714844-29.714844 29.714844-16.386719 0-29.714844-13.332031-29.714844-29.714844v-105.953125c.3125.273438.636719.542969.953125.8125 22.121094 18.78125 51.347656 32.867188 80.738281 32.867188 2.945313 0 5.871094-.121094 8.777344-.34375-4.019531 8.152344-7.046875 19.203125-4.976562 32.652344.5 3.261718 3.078124 5.8125 6.34375 6.28125.265624.039062 6.539062.925781 15.808593.925781 18.9375 0 51.425781-3.746094 70.925781-26.914063 19.503907 23.167969 51.992188 26.914063 70.929688 26.914063 9.269531 0 15.542969-.886719 15.808594-.925781 3.265625-.46875 5.84375-3.019532 6.34375-6.28125 2.0625-13.402344-.996094-24.480469-5.027344-32.65625 2.921875.226562 5.867188.347656 8.828125.347656 18.660156 0 37.925781-5.53125 55.710937-16.003906 9.039063-5.316407 18.0625-10.75 25.980469-17.675782zm43.816407-141.617187c0 16.929687-12.539063 30.984375-28.816407 33.371094v-66.738282c16.277344 2.382813 28.816407 16.441406 28.816407 33.367188zm-203.542969-210.28125v109.089844h-37.6875v-109.089844c12.359375-1.167969 25.328125-1.167969 37.6875 0zm-196.503907 124.089844h48.867188c4.144531 0 7.5-3.355469 7.5-7.5 0-4.140626-3.355469-7.5-7.5-7.5h-37.605469c4.710938-10.199219 13.625-26.980469 27.773438-44.277344 28.085937-34.34375 63.300781-55.4375 104.777343-62.785156v107.0625h-64.945312c-4.140625 0-7.5 3.359374-7.5 7.5 0 4.144531 3.359375 7.5 7.5 7.5h276.453125c7.039063 0 12.761719 5.726562 12.761719 12.765624 0 6.886719-5.875 12.765626-12.761719 12.765626 0 0-356.496094-.085938-356.777344-.089844-6.347656-.09375-11.308593-6.761719-11.308593-12.675782 0-7.039062 5.726562-12.765624 12.765624-12.765624zm-15.914062 52.824218v66.742188c-7.144531-1.039063-13.738281-4.328125-18.933594-9.527344-6.371094-6.367188-9.878906-14.835938-9.878906-23.847656 0-16.925782 12.535156-30.984375 28.8125-33.367188zm0 0"/></svg>