<svg height="512pt" viewBox="-26 0 512 512" width="512pt" xmlns="http://www.w3.org/2000/svg"><g fill="#ffc471"><path d="m437.03125 171.132812-207.222656-22.035156-207.222656 22.035156c-3.777344 15.84375-5.777344 32.382813-5.777344 49.371094h426.003906c0-16.988281-2.003906-33.523437-5.78125-49.371094zm0 0"/><path d="m442.8125 220.503906c0 104.207032-13.011719 130.808594-49.070312 164.25-22.703126 24.09375-3.195313 63.253906-50.550782 87.492188l-78.273437-73.800782 60.714843-121.429687zm0 0"/><path d="m16.804688 220.503906c0 104.207032 13.015624 130.808594 49.074218 164.25 22.703125 24.09375 3.191406 63.253906 50.550782 87.492188l78.269531-73.800782-60.710938-121.429687zm0 0"/></g><path d="m95.878906 384.753906c-34.324218-31.832031-47.765625-57.46875-48.980468-149.738281l-30.089844-14.511719c0 104.207032 13.011718 130.808594 49.070312 164.25 22.703125 24.09375 3.195313 63.253906 50.550782 87.492188l12.6875-11.960938c-25.085938-23.816406-13.980469-55.09375-33.238282-75.53125zm0 0" fill="#ffb85c"/><path d="m22.585938 171.132812c-3.777344 15.84375-5.777344 32.382813-5.777344 49.371094h30c0-16.988281 2-33.527344 5.777344-49.371094zm0 0" fill="#ffb85c"/><path d="m43.265625 134.25c0 8.199219-6.648437 14.847656-14.851563 14.847656-8.199218 0-14.847656-6.648437-14.847656-14.847656 0-8.203125 6.648438-14.851562 14.847656-14.851562 8.203126 0 14.851563 6.648437 14.851563 14.851562zm0 0" fill="#ffc471"/><path d="m446.054688 134.25c0 8.199219-6.648438 14.847656-14.851563 14.847656-8.199219 0-14.847656-6.648437-14.847656-14.847656 0-8.203125 6.648437-14.851562 14.847656-14.851562 8.203125 0 14.851563 6.648437 14.851563 14.851562zm0 0" fill="#ffc471"/><path d="m452.117188 244.738281c0 22.289063-18.070313 40.359375-40.359376 40.359375-22.289062 0-40.359374-18.070312-40.359374-40.359375 0-22.289062 18.070312-40.359375 40.359374-40.359375 22.289063 0 40.359376 18.070313 40.359376 40.359375zm0 0" fill="#ffcec0"/><path d="m161.234375 384.753906s-47.628906 41.601563-47.628906 119.746094h47.628906l17.492187-54.972656zm0 0" fill="#ffe1d7"/><path d="m298.386719 384.753906s47.628906 41.601563 47.628906 119.746094h-47.628906l-17.496094-54.972656zm0 0" fill="#ffe1d7"/><path d="m161.234375 384.753906h137.152344v119.746094h-137.152344zm0 0" fill="#c68c6a"/><path d="m264.917969 398.445312c0 19.386719-15.71875 35.105469-35.109375 35.105469s-35.109375-15.71875-35.109375-35.105469c0-19.390624 15.71875-35.109374 35.109375-35.109374s35.109375 15.71875 35.109375 35.109374zm0 0" fill="#ffcec0"/><path d="m407.753906 220.5c0-98.273438-79.667968-177.941406-177.945312-177.941406-98.273438 0-177.941406 79.667968-177.941406 177.941406 0 98.277344 79.667968 177.945312 177.941406 177.945312 98.277344 0 177.945312-79.667968 177.945312-177.945312zm0 0" fill="#ffe1d7"/><path d="m81.867188 220.5c0-93.222656 71.6875-169.6875 162.941406-177.308594-4.945313-.410156-9.945313-.632812-15-.632812-92.941406 0-169.230469 71.261718-177.234375 162.125-1.5-.195313-3.0625-.304688-4.714844-.304688-22.289063 0-40.359375 18.070313-40.359375 40.359375 0 22.289063 18.070312 40.359375 40.359375 40.359375 5.875 0 10.753906-1.265625 14.765625-3.523437 24.917969 68.191406 90.367188 116.867187 167.183594 116.867187 5.054687 0 10.054687-.21875 15-.632812-91.253906-7.617188-162.941406-84.085938-162.941406-177.308594zm0 0" fill="#ffcec0"/><path d="m229.808594 7.5c-71.605469 0-135.074219 35.515625-173.707032 89.863281l173.707032 22.035157 173.710937-22.035157c-38.632812-54.347656-102.105469-89.863281-173.710937-89.863281zm0 0" fill="#ffc471"/><path d="m86.101562 97.363281c35.910157-50.519531 93.289063-84.746093 158.707032-89.320312-4.957032-.347657-9.953125-.542969-15-.542969-71.605469 0-135.074219 35.515625-173.707032 89.863281l173.707032 22.035157 15-1.902344zm0 0" fill="#ffb85c"/><path d="m437.03125 171.132812h-414.445312c6.410156-26.921874 17.949218-51.871093 33.515624-73.769531h347.417969c15.566407 21.898438 27.101563 46.847657 33.511719 73.769531zm0 0" fill="#c68c6a"/><path d="m56.101562 97.363281c-15.566406 21.898438-27.105468 46.847657-33.515624 73.769531h30c6.410156-26.921874 17.949218-51.871093 33.515624-73.769531zm0 0" fill="#a67052"/><path d="m244.660156 134.25c0 8.199219-6.648437 14.847656-14.851562 14.847656-8.199219 0-14.847656-6.648437-14.847656-14.847656 0-8.203125 6.648437-14.851562 14.847656-14.851562 8.203125 0 14.851562 6.648437 14.851562 14.851562zm0 0" fill="#ffc471"/><path d="m137.246094 134.25c0 8.199219-6.648438 14.847656-14.847656 14.847656-8.203126 0-14.851563-6.648437-14.851563-14.847656 0-8.203125 6.648437-14.851562 14.851563-14.851562 8.199218 0 14.847656 6.648437 14.847656 14.851562zm0 0" fill="#ffc471"/><path d="m352.070312 134.25c0 8.199219-6.644531 14.847656-14.847656 14.847656-8.199218 0-14.847656-6.648437-14.847656-14.847656 0-8.203125 6.648438-14.851562 14.847656-14.851562 8.203125 0 14.847656 6.648437 14.847656 14.851562zm0 0" fill="#ffc471"/><path d="m329.972656 275.730469h-23.425781c-4.140625 0-7.5-3.359375-7.5-7.5s3.359375-7.5 7.5-7.5h23.425781c4.140625 0 7.5 3.359375 7.5 7.5s-3.359375 7.5-7.5 7.5zm0 0" fill="#f77f82"/><path d="m153.070312 275.730469h-23.421874c-4.140626 0-7.5-3.359375-7.5-7.5s3.359374-7.5 7.5-7.5h23.421874c4.144532 0 7.5 3.359375 7.5 7.5s-3.355468 7.5-7.5 7.5zm0 0" fill="#f77f82"/><path d="m229.808594 156.597656c12.324218 0 22.351562-10.023437 22.351562-22.347656s-10.027344-22.351562-22.351562-22.351562c-12.320313 0-22.347656 10.027343-22.347656 22.351562 0 12.320312 10.027343 22.347656 22.347656 22.347656zm0-29.699218c4.054687 0 7.351562 3.296874 7.351562 7.351562 0 4.050781-3.296875 7.347656-7.351562 7.347656-4.050782 0-7.347656-3.296875-7.347656-7.347656 0-4.054688 3.296874-7.351562 7.347656-7.351562zm0 0"/><path d="m122.398438 156.597656c12.320312 0 22.347656-10.023437 22.347656-22.347656s-10.023438-22.351562-22.347656-22.351562c-12.324219 0-22.351563 10.027343-22.351563 22.351562 0 12.320312 10.027344 22.347656 22.351563 22.347656zm0-29.699218c4.050781 0 7.347656 3.296874 7.347656 7.351562 0 4.050781-3.296875 7.347656-7.347656 7.347656-4.054688 0-7.351563-3.296875-7.351563-7.347656 0-4.054688 3.296875-7.351562 7.351563-7.351562zm0 0"/><path d="m337.222656 156.597656c12.324219 0 22.347656-10.023437 22.347656-22.347656s-10.023437-22.351562-22.347656-22.351562c-12.324218 0-22.351562 10.027343-22.351562 22.351562 0 12.320312 10.027344 22.347656 22.351562 22.347656zm0-29.699218c4.050782 0 7.347656 3.296874 7.347656 7.351562 0 4.050781-3.296874 7.347656-7.347656 7.347656-4.050781 0-7.351562-3.296875-7.351562-7.347656 0-4.054688 3.300781-7.351562 7.351562-7.351562zm0 0"/><path d="m318.257812 250.453125c4.144532 0 7.5-3.359375 7.5-7.5v-16.140625c0-4.140625-3.355468-7.5-7.5-7.5-4.140624 0-7.5 3.359375-7.5 7.5v16.140625c0 4.140625 3.359376 7.5 7.5 7.5zm0 0"/><path d="m141.359375 250.453125c4.144531 0 7.5-3.359375 7.5-7.5v-16.140625c0-4.140625-3.355469-7.5-7.5-7.5-4.140625 0-7.5 3.359375-7.5 7.5v16.140625c0 4.140625 3.359375 7.5 7.5 7.5zm0 0"/><path d="m229.808594 274.757812c8.332031 0 16.15625-3.484374 21.46875-9.5625 2.726562-3.117187 2.40625-7.855468-.710938-10.582031-3.117187-2.726562-7.855468-2.410156-10.582031.710938-2.464844 2.816406-6.171875 4.433593-10.171875 4.433593-4.003906 0-7.710938-1.617187-10.175781-4.433593-2.722657-3.121094-7.460938-3.4375-10.582031-.710938-3.117188 2.726563-3.4375 7.460938-.710938 10.582031 5.3125 6.078126 13.136719 9.5625 21.464844 9.5625zm0 0"/><path d="m444.464844 170.007812c-.207032-1.40625-4.328125-15.28125-4.195313-15.339843 7.816407-3.484375 13.285157-11.320313 13.285157-20.417969 0-12.324219-10.027344-22.351562-22.351563-22.351562-2.976563 0-5.886719.601562-8.574219 1.722656-3.933594-7.0625-8.261718-13.941406-12.996094-20.601563-41.402343-58.246093-108.625-93.019531-179.824218-93.019531-26.507813 0-52.480469 4.695312-77.1875 13.960938-3.878906 1.453124-5.84375 5.777343-4.390625 9.65625 1.453125 3.875 5.777343 5.84375 9.65625 4.390624 23.019531-8.632812 47.21875-13.007812 71.921875-13.007812 61.371094 0 119.582031 27.734375 158.515625 74.863281h-317.019531c16.3125-19.714843 36.355468-36.460937 58.648437-48.914062 3.617187-2.019531 4.910156-6.585938 2.890625-10.203125-2.019531-3.617188-6.585938-4.910156-10.203125-2.890625-28.566406 15.953125-53.6875 38.484375-72.652344 65.164062-4.738281 6.664063-9.0625 13.539063-13 20.601563-2.6875-1.117188-5.59375-1.722656-8.574219-1.722656-12.320312 0-22.347656 10.027343-22.347656 22.351562 0 9.09375 5.464844 16.933594 13.277344 20.417969-1.515625 4.847656-2.871094 9.757812-4.058594 14.738281-3.632812 15.257812-5.601562 31.027344-5.902344 46.90625-5.890624 7.953125-9.382812 17.789062-9.382812 28.425781 0 11.574219 4.132812 22.199219 10.992188 30.484375 4.644531 62.65625 19.792968 87.167969 49.589843 114.847656 7.328125 7.894532 9.390625 18.03125 11.777344 29.757813 3.671875 18.035156 8.210937 40.25 35.835937 56.441406-1.316406 8.808594-2.089843 18.222657-2.089843 28.230469 0 4.140625 3.355469 7.5 7.5 7.5h232.40625c4.144531 0 7.5-3.359375 7.5-7.5 0-9.996094-.742188-19.417969-2.046875-28.253906 27.589844-16.191406 32.125-38.390625 35.792968-56.417969 1.171876-5.761719 2.28125-11.203125 4.003907-16.203125 1.347656-3.914062-.730469-8.183594-4.648438-9.535156-3.914062-1.347656-8.183593.730468-9.535156 4.648437-2.042969 5.929688-3.300781 12.117188-4.519531 18.097657-3.261719 16.03125-6.367188 31.285156-24.140625 43.597656-8.773438-36.785156-26.808594-61.441406-37.238281-73.265625 40.5-19.824219 72.734374-54.082031 90.007812-95.746094.195312.042969.398438.074219.59375.117187 10.257812 2.191407 21.167969.910157 30.625-3.628906-4.945312 44.703125-16.449219 64.097656-36.042969 83.890625-2.914062 2.945313-2.886719 7.691407.058594 10.605469 2.941406 2.914062 7.691406 2.890625 10.605469-.054688 23.539062-23.78125 37.207031-48.074218 41.585937-107.121093 6.871094-8.285157 11.003907-18.914063 11.003907-30.492188 0-10.636719-3.492188-20.46875-9.382813-28.421875-.292969-15.671875-2.222656-31.234375-5.769531-46.308594zm-9.511719 97.984376c-7.347656 7.347656-18.070313 10.816406-28.328125 9.199218-.0625-.011718-.128906-.023437-.195312-.035156 3.457031-10.765625 5.894531-21.800781 7.324218-33.015625.003906-.039063.007813-.082031.015625-.121094 1.347657-10.367187 1.746094-20.863281 1.316407-31.308593-.011719-.21875-.015626-.4375-.023438-.660157.25.027344.496094.054688.746094.085938 16.246094 2.003906 28.808594 16.257812 28.808594 32.601562 0 9.019531-3.648438 17.195313-9.550782 23.140625-.039062.035156-.074218.074219-.113281.113282zm-381.957031 9.195312c-19.460938 3.097656-37.996094-12.730469-37.996094-32.449219 0-16.617187 13.042969-31 29.558594-32.6875-.011719.222657-.011719.441407-.023438.664063-.4375 10.488281.011719 21.015625 1.332032 31.429687 1.429687 11.210938 3.867187 22.246094 7.324218 33.011719-.066406.011719-.132812.023438-.195312.03125zm-27.902344-74.554688c.695312-8.089843 1.867188-16.109374 3.503906-24h20.523438c-.003906.027344-.011719.054688-.015625.082032-.382813 1.648437-.734375 3.300781-1.066407 4.957031-.882812 4.386719-1.617187 8.808594-2.183593 13.25-.070313.003906-.136719.011719-.207031.015625-7.140626.324219-14.265626 2.289062-20.554688 5.695312zm409.433594 0c-1.234375-.667968-2.503906-1.265624-3.792969-1.820312-5.296875-2.289062-10.996094-3.613281-16.761719-3.875-.070312-.003906-.140625-.011719-.210937-.015625-.785157-6.125-1.867188-12.21875-3.253907-18.234375-.003906-.019531-.003906-.035156-.011718-.054688h20.523437c1.636719 7.890626 2.808594 15.910157 3.507813 24zm-39.472656-24c4.902343 19.394532 6.273437 39.648438 4.285156 59.542969-7.804688 75.402344-64.972656 136.367188-138.539063 149.9375-20.410156 3.765625-41.570312 3.855469-61.980469 0-73.566406-13.570312-130.734374-74.53125-138.539062-149.9375-2.058594-19.878906-.625-40.164062 4.285156-59.542969zm-179.726563 226.75c9.636719.738282 19.328125.761719 28.960937 0 4.214844-.324218 8.40625-.785156 12.566407-1.390624-2.574219 12.574218-13.722657 22.0625-27.046875 22.0625-13.324219 0-24.472656-9.488282-27.046875-22.0625 4.164062.605468 8.351562 1.066406 12.566406 1.390624zm215.875-278.484374c4.054687 0 7.351563 3.296874 7.351563 7.351562 0 2.558594-1.316407 4.8125-3.308594 6.132812-1.753906-4.492187-3.660156-8.921874-5.710938-13.289062.542969-.125 1.101563-.195312 1.667969-.195312zm-31.597656-22.035157c12.257812 17.929688 21.699219 37.894531 27.703125 58.769531h-395c1.140625-3.964843 2.402344-7.886718 3.777344-11.761718.039062-.097656.089843-.1875.125-.289063 2.878906-8.054687 6.292968-16 10.148437-23.613281.035156-.066406.054687-.136719.085937-.203125 4.003907-7.878906 8.523438-15.527344 13.566407-22.902344zm-378.539063 29.386719c0-4.054688 3.296875-7.351562 7.347656-7.351562.570313 0 1.128907.070312 1.671876.195312-2.050782 4.367188-3.960938 8.796875-5.714844 13.285156-1.988282-1.316406-3.304688-3.570312-3.304688-6.128906zm90.167969 326.207031c-17.800781-12.316406-20.910156-27.578125-24.175781-43.621093-2.621094-12.882813-5.332032-26.203126-15.71875-37.226563-.117188-.125-.238282-.242187-.359375-.355469-25.773438-23.902344-38.523438-43.191406-43.78125-91.351562 3.921875 1.886718 8.144531 3.238281 12.566406 3.996094.042969.007812.082031.015624.121094.023437 6.015625 1.050781 12.492187.871094 18.542969-.5 17.285156 41.691406 49.550781 75.964844 90.039062 95.765625-4.796875 5.460938-11.179688 13.601562-17.507812 24.324219-8.964844 15.1875-15.609376 31.804687-19.726563 48.945312zm42.5-55.910156v92.453125h-32.472656c1.855469-44.363281 19.832031-75.699219 32.472656-92.453125zm15-8.902344c6.101563 2.132813 12.289063 3.933594 18.554687 5.40625 1.351563 22.285157 19.902344 40 42.519532 40 22.621094 0 41.167968-17.714843 42.523437-40 6.265625-1.472656 12.453125-3.277343 18.554688-5.40625v101.355469h-122.152344zm137.152344 101.355469v-92.453125c12.640625 16.753906 30.617187 48.089844 32.472656 92.453125zm0 0"/></svg>