<svg height="511pt" viewBox="-20 0 511 511.99997" width="511pt" xmlns="http://www.w3.org/2000/svg"><path d="m273.632812 23.691406c73.296876-2.6875 90.40625-13.03125 137.839844-16.121094 20.519532-1.328124 39.070313 12.199219 44.125 32.152344 4.078125 16.082032 7.375 39.414063 7.375 72.800782 0 83.144531 21.457032 309.816406-194.3125 386.339843-21.265625 7.542969-44.484375 7.542969-65.753906 0-215.769531-76.523437-194.3125-303.195312-194.3125-386.339843 0-33.386719 3.296875-56.71875 7.375-72.800782 5.054688-19.953125 23.605469-33.480468 44.125-32.152344 47.433594 3.09375 64.542969 13.433594 137.84375 16.121094l37.847656 19.320313zm0 0" fill="#c68c6a"/><path d="m235.785156 468.210938c-7.085937 0-14.066406-1.203126-20.742187-3.570313-76.011719-26.957031-125.234375-76.324219-150.488281-150.917969-21.875-64.617187-20.691407-133.8125-19.90625-179.601562.132812-7.746094.257812-15.058594.257812-21.597656 0-32.378907 3.40625-52.609376 6.261719-63.875.722656-2.863282 3.253906-4.855469 6.152343-4.855469.140626 0 .285157.003906.429688.015625 17.816406 1.160156 30.839844 3.453125 45.921875 6.109375 22.382813 3.9375 47.753906 8.40625 92.933594 10.0625 11.960937.441406 25.144531.667969 39.175781.667969s27.21875-.226563 39.191406-.667969c45.167969-1.65625 70.539063-6.121094 92.917969-10.0625 15.082031-2.65625 28.105469-4.949219 45.941406-6.113281.128907-.007813.269531-.011719.414063-.011719 2.898437 0 5.425781 1.992187 6.148437 4.84375 2.859375 11.277343 6.265625 31.507812 6.265625 63.886719 0 6.535156.125 13.851562.257813 21.597656.785156 45.789062 1.96875 114.984375-19.90625 179.601562-25.25 74.59375-74.476563 123.960938-150.488281 150.917969-6.675782 2.367187-13.652344 3.570313-20.738282 3.570313zm0 0" fill="#a67052"/><path d="m138.636719 179.917969c-23.773438 0-44.949219 10.832031-58.664063 27.71875-8.640625 10.628906-8.640625 25.824219 0 36.457031 13.714844 16.886719 34.890625 27.71875 58.664063 27.71875 23.414062 0 44.3125-10.511719 58.042969-26.96875 9.246093-11.078125 9.246093-26.878906 0-37.957031-13.730469-16.457031-34.628907-26.96875-58.042969-26.96875zm0 0" fill="#c68c6a"/><path d="m79.972656 237.636719c13.714844-16.886719 34.890625-27.71875 58.664063-27.71875 23.414062 0 44.3125 10.511719 58.042969 26.96875 1.058593 1.265625 1.980468 2.601562 2.792968 3.980469 6.316406-10.660157 5.394532-24.171876-2.792968-33.984376-13.730469-16.453124-34.628907-26.964843-58.042969-26.964843-23.773438 0-44.949219 10.832031-58.664063 27.714843-7.800781 9.601563-8.53125 22.910157-2.246094 33.230469.671876-1.109375 1.40625-2.195312 2.246094-3.226562zm0 0" fill="#935b43"/><path d="m332.933594 179.917969c23.769531 0 44.945312 10.832031 58.664062 27.71875 8.636719 10.628906 8.636719 25.824219 0 36.457031-13.71875 16.886719-34.894531 27.71875-58.664062 27.71875-23.417969 0-44.316406-10.511719-58.046875-26.96875-9.242188-11.078125-9.242188-26.878906 0-37.957031 13.730469-16.457031 34.628906-26.96875 58.046875-26.96875zm0 0" fill="#c68c6a"/><path d="m274.886719 236.886719c13.730469-16.457031 34.628906-26.96875 58.046875-26.96875 23.769531 0 44.945312 10.832031 58.660156 27.71875.839844 1.03125 1.570312 2.117187 2.246094 3.226562 6.285156-10.320312 5.554687-23.628906-2.246094-33.230469-13.714844-16.882812-34.890625-27.714843-58.660156-27.714843-23.417969 0-44.316406 10.511719-58.046875 26.964843-8.1875 9.8125-9.109375 23.324219-2.792969 33.980469.8125-1.375 1.734375-2.710937 2.792969-3.976562zm0 0" fill="#935b43"/><path d="m271.515625 326.472656h-71.464844c-17.511719 0-31.707031 14.195313-31.707031 31.707032v17.058593c0 17.507813 14.195312 31.707031 31.707031 31.707031h71.464844c17.511719 0 31.707031-14.199218 31.707031-31.707031v-17.058593c0-17.511719-14.195312-31.707032-31.707031-31.707032zm0 0" fill="#c68c6a"/><path d="m271.515625 326.472656h-71.464844c-17.511719 0-31.707031 14.195313-31.707031 31.707032v17.058593c0 .492188.015625.980469.035156 1.472657.769532-16.828126 14.65625-30.234376 31.671875-30.234376h71.464844c17.015625 0 30.902344 13.40625 31.671875 30.234376.019531-.492188.035156-.980469.035156-1.472657v-17.058593c0-17.511719-14.195312-31.707032-31.707031-31.707032zm0 0" fill="#935b43"/><path d="m265.082031 334.546875h-58.597656c-13.402344 0-24.070313-11.238281-23.375-24.621094l14.828125-286.234375c11.203125.417969 23.714844.644532 37.847656.644532 14.128906 0 26.640625-.226563 37.847656-.644532l14.824219 286.234375c.695313 13.382813-9.96875 24.621094-23.375 24.621094zm0 0" fill="#57565c"/><g fill="#d2d2d2"><path d="m254.457031 279.863281c0 10.3125-8.359375 18.671875-18.671875 18.671875-10.316406 0-18.675781-8.359375-18.675781-18.671875s8.359375-18.675781 18.675781-18.675781c10.3125 0 18.671875 8.363281 18.671875 18.675781zm0 0"/><path d="m252.902344 211.40625c0 9.453125-7.664063 17.117188-17.117188 17.117188-9.457031 0-17.121094-7.664063-17.121094-17.117188s7.664063-17.117188 17.121094-17.117188c9.453125 0 17.117188 7.664063 17.117188 17.117188zm0 0"/><path d="m251.347656 142.949219c0 8.59375-6.96875 15.5625-15.5625 15.5625-8.597656 0-15.5625-6.96875-15.5625-15.5625s6.964844-15.5625 15.5625-15.5625c8.59375 0 15.5625 6.96875 15.5625 15.5625zm0 0"/><path d="m249.789062 74.492188c0 7.738281-6.269531 14.007812-14.003906 14.007812-7.738281 0-14.007812-6.269531-14.007812-14.007812 0-7.734376 6.269531-14.003907 14.007812-14.003907 7.734375 0 14.003906 6.269531 14.003906 14.003907zm0 0"/></g><path d="m235.785156 306.058594c14.433594 0 26.175782-11.742188 26.175782-26.175782 0-14.429687-11.742188-26.171874-26.175782-26.171874-14.429687 0-26.171875 11.742187-26.171875 26.171874 0 14.433594 11.742188 26.175782 26.171875 26.175782zm0-37.347656c6.164063 0 11.175782 5.011718 11.175782 11.171874 0 6.164063-5.011719 11.175782-11.175782 11.175782-6.160156 0-11.171875-5.011719-11.171875-11.175782 0-6.160156 5.011719-11.171874 11.171875-11.171874zm0 0"/><path d="m235.785156 236.046875c13.578125 0 24.621094-11.042969 24.621094-24.617187 0-13.578126-11.042969-24.621094-24.621094-24.621094-13.574218 0-24.617187 11.042968-24.617187 24.621094 0 13.574218 11.042969 24.617187 24.617187 24.617187zm0-34.238281c5.304688 0 9.621094 4.316406 9.621094 9.621094 0 5.300781-4.316406 9.617187-9.621094 9.617187-5.300781 0-9.617187-4.316406-9.617187-9.617187 0-5.304688 4.316406-9.621094 9.617187-9.621094zm0 0"/><path d="m235.785156 166.035156c12.71875 0 23.066406-10.347656 23.066406-23.0625 0-12.71875-10.347656-23.0625-23.066406-23.0625-12.714844 0-23.0625 10.34375-23.0625 23.0625 0 12.714844 10.347656 23.0625 23.0625 23.0625zm0-31.125c4.445313 0 8.0625 3.617188 8.0625 8.0625 0 4.445313-3.617187 8.058594-8.0625 8.058594-4.445312 0-8.058594-3.613281-8.058594-8.058594 0-4.445312 3.613282-8.0625 8.058594-8.0625zm0 0"/><path d="m235.785156 96.019531c11.859375 0 21.507813-9.644531 21.507813-21.503906s-9.648438-21.507813-21.507813-21.507813c-11.855468 0-21.503906 9.648438-21.503906 21.507813s9.648438 21.503906 21.503906 21.503906zm0-28.011719c3.589844 0 6.507813 2.917969 6.507813 6.507813 0 3.585937-2.917969 6.503906-6.507813 6.503906-3.585937 0-6.503906-2.917969-6.503906-6.503906 0-3.589844 2.917969-6.507813 6.503906-6.507813zm0 0"/><path d="m402.429688 402.335938c3.421874 2.332031 8.089843 1.445312 10.421874-1.976563 26.457032-38.835937 44.039063-87.019531 52.261719-143.214844 6.921875-47.320312 6.167969-91.5 5.613281-123.761719-.128906-7.546874-.25-14.675781-.25-20.839843 0-29.621094-2.558593-54.738281-7.605468-74.640625-5.941406-23.460938-27.757813-39.363282-51.882813-37.796875-20.222656 1.320312-35.019531 3.925781-50.6875 6.683593-81.597656 14.367188-167.433593 14.363282-249.027343 0-15.667969-2.757812-30.464844-5.367187-50.691407-6.683593-24.117187-1.5625-45.9375 14.335937-51.878906 37.792969-5.046875 19.910156-7.609375 45.023437-7.609375 74.644531 0 6.164062-.121094 13.296875-.25 20.847656-.8359375 48.816406-2.097656 122.585937 22.214844 194.398437 29.425781 86.921876 89.089844 146.867188 177.34375 178.164063 22.726562 8.0625 48.039062 8.0625 70.769531 0 50.136719-17.78125 91.40625-45.011719 122.664063-80.9375 2.722656-3.125 2.390624-7.859375-.730469-10.578125-3.125-2.722656-7.863281-2.390625-10.582031.730469-29.546876 33.953125-68.695313 59.742187-116.363282 76.648437-19.585937 6.945313-41.160156 6.945313-60.742187 0-45.285157-16.0625-82.910157-40.140625-111.828125-71.566406-24.554688-26.683594-43.503906-59.410156-56.320313-97.269531-23.480469-69.347657-22.242187-141.554688-21.425781-189.332031.128906-7.617188.253906-14.8125.253906-21.105469 0-28.378907 2.402344-52.253907 7.144532-70.957031 4.167968-16.457032 19.464843-27.601563 36.367187-26.511719 19.40625 1.265625 33.8125 3.800781 49.0625 6.488281 20.171875 3.550781 42.871094 7.546875 81.382813 9.332031l-1.101563 21.28125c-39.773437-1.84375-63.1875-5.964843-83.980469-9.625-15.296875-2.695312-28.507812-5.019531-46.710937-6.207031-6.757813-.460938-12.71875 3.992188-14.363281 10.480469-2.832032 11.183593-6.261719 31.101562-6.480469 62.5-.027344 4.140625 3.308593 7.523437 7.449219 7.550781h.054687c4.117187 0 7.46875-3.324219 7.496094-7.449219.203125-29.074219 3.21875-47.511719 5.808593-58.050781 16.917969 1.15625 29.554688 3.378906 44.148438 5.949219 21.230469 3.738281 45.132812 7.945312 85.800781 9.832031l-6.082031 117.4375c-12.960938-7.902344-27.96875-12.15625-43.457031-12.15625-25.242188 0-48.746094 11.113281-64.484375 30.488281-10.808594 13.304688-10.808594 32.613281 0 45.917969 15.738281 19.375 39.242187 30.488281 64.484375 30.488281 13.675781 0 27.117187-3.386719 39.050781-9.675781l-2.066406 39.902344c-.160156 3.054687.128906 6.054687.824218 8.933594.5625 2.316406 1.390626 4.550781 2.476563 6.675781-11.097656 7.070312-18.078125 19.390625-18.078125 33.035156v17.054687c0 21.621094 17.589844 39.207032 39.207031 39.207032h71.464844c21.621094 0 39.210937-17.585938 39.210937-39.207032v-17.054687c0-13.644531-6.980468-25.960937-18.078124-33.035156 2.433593-4.761719 3.585937-10.09375 3.300781-15.609375l-2.066407-39.902344c11.933594 6.289062 25.375 9.675781 39.050782 9.675781 25.242187 0 48.746094-11.113281 64.484375-30.488281 10.808593-13.304688 10.808593-32.613281 0-45.917969-15.738281-19.375-39.242188-30.488281-64.484375-30.488281-15.488282 0-30.496094 4.253906-43.457032 12.15625l-6.082031-117.4375c40.65625-1.882812 64.566407-6.09375 85.808594-9.832031 14.601563-2.570313 27.25-4.796875 44.140625-5.949219 2.707031 11.027344 5.816406 30.402344 5.816406 61.167969 0 6.46875.125 13.648437.25 21.25l.007813.476562c.777343 45.269531 1.949219 113.683594-19.507813 177.070313-24.46875 72.273437-72.191406 120.113281-145.894531 146.253906-11.734375 4.164062-24.726563 4.164062-36.464844 0-73.703125-26.140625-121.421875-73.980469-145.890625-146.253906-19.730468-58.292969-20.460937-119.265625-19.597656-171.835938.066406-4.144531-3.234375-7.554687-7.375-7.625-4.15625-.03125-7.554688 3.234375-7.625 7.375-.882812 53.828125-.113281 116.332032 20.390625 176.894532 26.039063 76.914062 76.765625 127.804687 155.085937 155.582031 14.953126 5.304687 31.542969 5.304687 46.496094 0 78.320313-27.777344 129.046875-78.667969 155.085938-155.582031 22.292968-65.851563 21.09375-135.828126 20.300781-182.136719l-.007813-.476563c-.125-7.535156-.246093-14.652344-.246093-20.992187 0-33.144531-3.535157-54.039063-6.496094-65.730469-1.566406-6.179688-7.085937-10.5-13.421875-10.5-.3125 0-.617188.011719-.902344.027344-18.238281 1.191406-31.445312 3.515625-46.753906 6.210937-20.792969 3.660157-44.210938 7.78125-83.972656 9.625l-1.105469-21.28125c38.515625-1.785156 61.214844-5.78125 81.386719-9.335937 15.25-2.683594 29.65625-5.21875 49.058594-6.484375 16.914062-1.089844 32.203124 10.054687 36.371093 26.511719 4.742188 18.699218 7.144531 42.574218 7.144531 70.957031 0 6.289062.125 13.480469.253907 21.09375 1.105469 64.632812 2.953125 172.800781-55.277344 258.273437-2.332031 3.425782-1.449219 8.09375 1.976563 10.425782zm-135.90625-370.886719s14.4375 278.699219 14.445312 278.886719c.464844 8.945312-6.917969 16.730468-15.882812 16.730468h-58.597657c-8.875 0-16.34375-7.855468-15.886719-16.730468l14.445313-278.882813c9.589844.269531 19.894531.40625 30.738281.40625s21.152344-.136719 30.738282-.410156zm-127.886719 232.882812c-20.703125 0-39.960938-9.09375-52.839844-24.949219-6.355469-7.820312-6.355469-19.175781 0-26.996093 12.878906-15.855469 32.136719-24.945313 52.839844-24.945313 15.574219 0 30.546875 5.21875 42.546875 14.765625l-2.554688 49.289063c-11.527344 8.296875-25.601562 12.835937-39.992187 12.835937zm157.089843 110.925781c0 13.347657-10.859374 24.207032-24.207031 24.207032h-71.464843c-13.347657 0-24.207032-10.859375-24.207032-24.207032v-17.054687c0-9.21875 5.152344-17.457031 13.15625-21.542969 3.179688 2.195313 6.730469 3.75 10.496094 4.613282.019531.007812.039062.011718.0625.015624 2.253906.53125 4.605469.78125 6.925781.78125h58.597657c3.285156 0 6.550781-.515624 9.675781-1.539062 2.769531-.90625 5.394531-2.203125 7.8125-3.871094 8 4.085938 13.152343 12.324219 13.152343 21.542969zm37.210938-187.816406c20.699219 0 39.960938 9.089844 52.839844 24.945313 6.355468 7.820312 6.355468 19.175781 0 26.996093-12.878906 15.855469-32.140625 24.949219-52.839844 24.949219-14.390625 0-28.464844-4.539062-39.992188-12.835937l-2.554687-49.289063c12-9.546875 26.972656-14.765625 42.546875-14.765625zm0 0"/></svg>