<svg height="512pt" viewBox="0 -46 512 512" width="512pt" xmlns="http://www.w3.org/2000/svg"><path d="m43.164062 108.519531c-9.027343 24.691407-13.695312 50.917969-13.695312 77.757813 0 30.5625 5.996094 60.238281 17.816406 88.191406 11.417969 26.984375 27.738282 51.203125 48.53125 71.996094 20.789063 20.789062 45.007813 37.109375 71.996094 48.527344 27.953125 11.820312 57.628906 17.820312 88.1875 17.820312s60.234375-6 88.1875-17.820312c26.988281-11.417969 51.207031-27.738282 71.996094-48.527344 20.792968-20.792969 37.113281-45.011719 48.53125-71.996094 11.820312-27.953125 17.816406-57.628906 17.816406-88.191406 0-26.839844-4.667969-53.066406-13.695312-77.757813l-212.835938-34.167969zm0 0" fill="#935b43"/><path d="m419.398438 108.519531c11.230468 23.558594 17.523437 49.921875 17.523437 77.757813 0 99.917968-81.003906 180.921875-180.921875 180.921875s-180.921875-81.003907-180.921875-180.921875c0-27.835938 6.292969-54.199219 17.523437-77.757813l163.398438-34.167969zm0 0" fill="#a67052"/><path d="m491.367188 40.183594h-470.734376c-7.253906 0-13.132812 5.878906-13.132812 13.132812v42.070313c0 7.253906 5.878906 13.136719 13.132812 13.136719h470.734376c7.253906 0 13.132812-5.882813 13.132812-13.136719v-42.070313c0-7.253906-5.882812-13.132812-13.132812-13.132812zm0 0" fill="#c68c6a"/><path d="m166.660156 40.183594h178.679688v68.335937h-178.679688zm0 0" fill="#a67052"/><path d="m286.449219 7.5h-60.898438c-15.953125 0-28.890625 12.933594-28.890625 28.890625v72.132813h118.679688v-72.132813c0-15.957031-12.9375-28.890625-28.890625-28.890625zm0 0" fill="#ffc471"/><path d="m226.660156 37.5h58.679688v71.019531h-58.679688zm0 0" fill="#ffb85c"/><path d="m288.757812 211.859375-7.015624-7.011719c-3.917969-3.921875-10.277344-3.921875-14.199219 0l-44.300781 44.300782c-3.921876 3.921874-3.921876 10.277343 0 14.199218l7.011718 7.011719c3.921875 3.921875 10.28125 3.921875 14.199219 0l44.304687-44.300781c3.921876-3.921875 3.921876-10.277344 0-14.199219zm0 0" fill="#f9cf99"/><path d="m281.742188 270.359375 7.015624-7.011719c3.921876-3.921875 3.921876-10.277344 0-14.199218l-44.304687-44.300782c-3.917969-3.921875-10.277344-3.921875-14.199219 0l-7.011718 7.011719c-3.921876 3.921875-3.921876 10.277344 0 14.199219l44.300781 44.300781c3.921875 3.921875 10.28125 3.921875 14.199219 0zm0 0" fill="#ffdaa6"/><path d="m359.105469 274.128906c3.265625 2.488282 8.027343 1.847656 10.511719-1.414062 6.402343-8.398438 11.875-17.507813 16.265624-27.070313 1.726563-3.765625.074219-8.21875-3.691406-9.945312-3.765625-1.726563-8.214844-.074219-9.945312 3.6875-3.925782 8.5625-8.824219 16.714843-14.554688 24.230469-2.511718 3.292968-1.878906 8 1.414063 10.511718zm0 0"/><path d="m311.460938 309.925781c1.871093 3.605469 6.515624 5.066407 10.113281 3.203125 9.34375-4.851562 18.179687-10.757812 26.261719-17.558594 3.167968-2.664062 3.574218-7.394531.90625-10.566406-2.667969-3.167968-7.398438-3.574218-10.566407-.90625-7.238281 6.089844-15.148437 11.375-23.511719 15.71875-3.675781 1.90625-5.109374 6.433594-3.203124 10.109375zm0 0"/><path d="m380.296875 156.335938c.953125 3.976562 5.078125 6.496093 9.039063 5.546874 4.027343-.964843 6.511718-5.015624 5.546874-9.042968-2.457031-10.261719-6.078124-20.261719-10.757812-29.726563-1.835938-3.710937-6.335938-5.230469-10.046875-3.394531-3.714844 1.835938-5.234375 6.332031-3.398437 10.046875 4.183593 8.460937 7.417968 17.398437 9.617187 26.570313zm0 0"/><path d="m132.957031 220.914062c-1.125-3.984374-5.265625-6.308593-9.253906-5.183593s-6.308594 5.265625-5.183594 9.253906c2.859375 10.140625 6.867188 19.992187 11.910157 29.273437 1.945312 3.582032 6.597656 4.953126 10.171874 3.011719 3.640626-1.980469 4.984376-6.53125 3.007813-10.171875-4.511719-8.304687-8.097656-17.113281-10.652344-26.183594zm0 0"/><path d="m383.796875 184.402344c.132813 9.230468-.765625 18.9375-2.699219 28.148437-.851562 4.054688 1.746094 8.027344 5.800782 8.878907 4 .839843 8.039062-1.792969 8.878906-5.800782 2.167968-10.324218 3.167968-20.890625 3.019531-31.4375-.058594-4.140625-3.441406-7.4375-7.605469-7.394531-4.140625.058594-7.453125 3.464844-7.394531 7.605469zm0 0"/><path d="m121.265625 200.90625c4.136719-.214844 7.316406-3.742188 7.097656-7.878906-.492187-9.4375.046875-18.929688 1.621094-28.246094.6875-4.085938-2.0625-7.957031-6.144531-8.644531-4.089844-.6875-7.957032 2.0625-8.644532 6.144531-1.757812 10.398438-2.359374 20.996094-1.808593 31.527344.207031 4.003906 3.519531 7.109375 7.480469 7.109375.132812 0 .265624-.003907.398437-.011719zm0 0"/><path d="m180.613281 289.429688c-7.609375-5.578126-14.625-12.011719-20.839843-19.125-2.726563-3.117188-7.464844-3.433594-10.582032-.707032-3.121094 2.726563-3.4375 7.464844-.710937 10.582032 6.941406 7.9375 14.769531 15.121093 23.265625 21.347656 3.308594 2.425781 8.0625 1.691406 10.484375-1.613282 2.449219-3.339843 1.726562-8.035156-1.617188-10.484374zm0 0"/><path d="m288.28125 309.960938c-9.101562 2.378906-18.511719 3.742187-27.972656 4.058593-4.136719.136719-7.382813 3.605469-7.246094 7.746094.136719 4.054687 3.464844 7.25 7.492188 7.25.085937 0 .167968-.003906.253906-.003906 10.570312-.355469 21.089844-1.878907 31.261718-4.535157 4.007813-1.046874 6.410157-5.144531 5.363282-9.152343-1.046875-4.007813-5.140625-6.40625-9.152344-5.363281zm0 0"/><path d="m232.117188 311.851562c-9.265626-1.757812-18.351563-4.558593-27-8.328124-3.800782-1.65625-8.21875.082031-9.875 3.878906-1.652344 3.796875.082031 8.214844 3.878906 9.871094 9.675781 4.214843 19.835937 7.351562 30.199218 9.316406 4.015626.761718 8.003907-1.949219 8.765626-5.972656.773437-4.066407-1.898438-7.992188-5.96875-8.765626zm0 0"/><path d="m199.410156 168.515625v-11.601563c0-4.140624-3.355468-7.5-7.5-7.5-4.140625 0-7.5 3.359376-7.5 7.5v11.601563c0 4.140625 3.359375 7.5 7.5 7.5 4.144532 0 7.5-3.359375 7.5-7.5zm0 0"/><path d="m312.589844 156.914062v11.601563c0 4.140625 3.355468 7.5 7.5 7.5 4.140625 0 7.5-3.359375 7.5-7.5v-11.601563c0-4.140624-3.359375-7.5-7.5-7.5-4.144532 0-7.5 3.359376-7.5 7.5zm0 0"/><path d="m256 182.207031c8.328125 0 16.152344-3.484375 21.464844-9.5625 2.726562-3.121093 2.40625-7.859375-.710938-10.582031-3.117187-2.726562-7.855468-2.410156-10.582031.710938-2.464844 2.816406-6.171875 4.433593-10.171875 4.433593s-7.707031-1.617187-10.171875-4.433593c-2.726563-3.121094-7.464844-3.4375-10.582031-.710938-3.117188 2.722656-3.4375 7.460938-.710938 10.582031 5.3125 6.078125 13.136719 9.5625 21.464844 9.5625zm0 0"/><path d="m512 95.386719v-42.070313c0-11.375-9.257812-20.632812-20.632812-20.632812h-168.71875c-1.859376-18.332032-17.382813-32.683594-36.199219-32.683594h-60.898438c-18.816406 0-34.339843 14.351562-36.199219 32.683594h-75.207031c-4.140625 0-7.5 3.355468-7.5 7.5 0 4.140625 3.359375 7.5 7.5 7.5h75.019531v53.335937h-168.53125c-3.105468 0-5.632812-2.527343-5.632812-5.632812v-42.070313c0-3.105468 2.527344-5.632812 5.632812-5.632812h63.511719c4.140625 0 7.5-3.359375 7.5-7.5 0-4.144532-3.359375-7.5-7.5-7.5h-63.511719c-11.375 0-20.632812 9.257812-20.632812 20.632812v42.070313c0 11.378906 9.257812 20.632812 20.632812 20.632812h12.070313c-7.125 22.636719-10.734375 46.222657-10.734375 70.257813 0 31.570312 6.195312 62.226562 18.410156 91.113281 11.800782 27.882813 28.667969 52.910156 50.132813 74.375 21.46875 21.46875 46.492187 38.335937 74.378906 50.132813 28.886719 12.21875 59.539063 18.414062 91.109375 18.414062s62.222656-6.195312 91.109375-18.414062c23.394531-9.894532 44.898437-23.457032 63.914063-40.300782 3.097656-2.746094 3.386718-7.488281.640624-10.585937-2.746093-3.101563-7.488281-3.390625-10.589843-.644531-17.792969 15.765624-37.917969 28.457031-59.808594 37.71875-27.027344 11.429687-55.714844 17.226562-85.265625 17.226562s-58.238281-5.796875-85.265625-17.226562c-26.097656-11.042969-49.519531-26.832032-69.613281-46.925782-20.097656-20.097656-35.882813-43.519531-46.925782-69.613281-11.429687-27.027344-17.226562-55.714844-17.226562-85.269531 0-24.101563 3.871094-47.710938 11.507812-70.257813h32.652344c-8.988281 22.300781-13.550781 45.878907-13.550781 70.257813 0 103.898437 84.527344 188.421875 188.421875 188.421875s188.421875-84.523438 188.421875-188.421875c0-24.378906-4.5625-47.957032-13.550781-70.257813h32.652344c7.640624 22.550781 11.507812 46.15625 11.507812 70.257813 0 29.550781-5.796875 58.238281-17.226562 85.265625-8.992188 21.257812-21.207032 40.84375-36.300782 58.21875-2.71875 3.128906-2.386718 7.867187.742188 10.582031 3.125 2.71875 7.863281 2.386719 10.578125-.742188 16.136719-18.570312 29.1875-39.5 38.796875-62.214843 12.21875-28.886719 18.410156-59.539063 18.410156-91.109375 0-24.035156-3.605469-47.617188-10.730469-70.257813h12.066407c11.375 0 20.632812-9.253906 20.632812-20.632812zm-307.839844-58.996094c0-11.792969 9.597656-21.390625 21.390625-21.390625h60.898438c11.792969 0 21.390625 9.59375 21.390625 21.390625v64.628906h-15v-63.519531c0-4.140625-3.359375-7.5-7.5-7.5h-58.679688c-4.140625 0-7.5 3.359375-7.5 7.5v63.519531h-15zm73.679688 64.628906h-43.679688v-56.019531h43.679688zm151.582031 85.257813c0 95.625-77.796875 173.421875-173.421875 173.421875s-173.421875-77.796875-173.421875-173.421875c0-24.492188 4.984375-48.105469 14.824219-70.257813h34.253906c-2.914062 5.140625-5.515625 10.441407-7.757812 15.875-1.578126 3.828125.246093 8.214844 4.074218 9.792969 3.78125 1.558594 8.234375-.289062 9.792969-4.074219 3.097656-7.511719 6.949219-14.757812 11.460937-21.589843h265.371094c9.839844 22.152343 14.824219 45.761718 14.824219 70.253906zm-106.582031-85.257813v-53.335937h168.527344c3.105468 0 5.632812 2.527344 5.632812 5.632812v42.070313c0 3.105469-2.527344 5.636719-5.632812 5.636719h-168.527344zm0 0"/><path d="m287.820312 237.605469 6.242188-6.242188c6.835938-6.839843 6.835938-17.96875 0-24.808593 0 0-7.011719-7.007813-7.015625-7.011719-6.761719-6.765625-18.046875-6.757813-24.804687 0l-6.242188 6.242187s-6.238281-6.238281-6.242188-6.242187c-6.761718-6.761719-18.050781-6.753907-24.804687 0 0 0-7.011719 7.007812-7.015625 7.011719-6.761719 6.761718-6.753906 18.054687 0 24.808593l6.242188 6.238281s-6.238282 6.238282-6.242188 6.242188c-6.761719 6.765625-6.757812 18.050781 0 24.808594 0 0 7.007812 7.007812 7.011719 7.011718 6.769531 6.765626 18.050781 6.757813 24.808593 0l6.242188-6.242187s6.238281 6.238281 6.242188 6.242187c6.761718 6.761719 18.050781 6.753907 24.804687 0 0 0 7.007813-7.007812 7.015625-7.011718 6.761719-6.765625 6.753906-18.050782 0-24.808594zm-14.972656-27.457031c.984375-.984376 2.613282-.980469 3.59375 0l7.011719 7.011718c.992187.992188.992187 2.605469 0 3.59375l-6.238281 6.242188-10.609375-10.605469s6.242187-6.242187 6.242187-6.242187zm-33.695312 54.910156c-.980469.980468-2.613282.976562-3.59375 0l-7.011719-7.015625c-.980469-.980469-.976563-2.613281 0-3.59375l6.242187-6.238281 10.605469 10.605468zm44.300781-7.011719s-7.011719 7.011719-7.011719 7.011719c-.988281.980468-2.613281.976562-3.59375 0 0 0-44.300781-44.300782-44.304687-44.304688-.980469-.984375-.976563-2.613281.003906-3.59375l7.011719-7.011718c.980468-.980469 2.617187-.976563 3.59375 0l44.300781 44.304687c.984375.984375.980469 2.613281 0 3.59375zm0 0"/></svg>