<svg height="511pt" viewBox="0 -23 511.99939 511" width="511pt" xmlns="http://www.w3.org/2000/svg"><path d="m345.890625 421.570312h-33.1875l-14.472656-45.742187h-34.25l14.476562 45.742187h-4.605469c-20.167968 0-36.515624 16.347657-36.515624 36.511719h145.066406c0-20.164062-16.347656-36.511719-36.511719-36.511719zm0 0" fill="#57565c"/><path d="m144.703125 372.667969s-55.71875 78.882812-127.691406 54.402343c-4.792969-1.628906-5.785157-7.957031-1.699219-10.9375l94.226562-68.652343 36.167969-2.496094zm0 0" fill="#48484d"/><path d="m144.703125 372.667969 1.003906-27.683594-36.167969 2.496094-38.382812 27.964843 25.453125 14.230469c7.15625 4 14.414063 7.675781 21.753906 11.035157 16.59375-14.253907 26.339844-28.042969 26.339844-28.042969zm0 0" fill="#3c3c40"/><path d="m302.101562 8.003906c-51.542968 0-93.324218 41.78125-93.324218 93.324219v89.652344l-97.519532 172.5c133.171876 74.449219 284.167969 16.777343 284.167969-123.160157v-138.992187c0-51.542969-41.78125-93.324219-93.324219-93.324219zm0 0" fill="#48484d"/><path d="m247.457031 201.007812c-23.257812-30.824218-79.671875-27.46875-126.007812 7.492188-31.304688 23.617188-49.992188 55.621094-51.65625 83.40625-.386719 6.496094-3.667969 12.476562-8.789063 16.492188-31.703125 24.878906-46.082031 41.738281-52.386718 50.816406-2.691407 3.875-.742188 9.265625 3.816406 10.503906 41.40625 11.253906 110.164062 13.074219 193.234375-49.601562 46.335937-34.957032 65.042969-88.285157 41.789062-119.109376zm0 0" fill="#57565c"/><path d="m504.605469 95.109375c-83.878907 25.992187-109.183594 50.476563-109.183594 50.476563-12.453125-8.003907-19.925781-16.609376-23.988281-25.183594l17.875-36.988282 46.664062-5.613281zm0 0" fill="#3c3c40"/><path d="m504.605469 95.109375s-100.066407-12.238281-133.171875 25.292969c-14.507813-30.574219 14.230468-60.652344 14.230468-60.652344s77.003907-11.675781 118.941407 35.359375zm0 0" fill="#57565c"/><path d="m330.371094 77.800781v17.304688c0 4.144531 3.359375 7.503906 7.503906 7.503906s7.503906-3.359375 7.503906-7.503906v-17.304688c0-4.144531-3.359375-7.503906-7.503906-7.503906s-7.503906 3.359375-7.503906 7.503906zm0 0"/><path d="m511.988281 94.445312c-.089843-1.554687-.644531-3.085937-1.753906-4.332031-25.695313-28.84375-65.828125-39.152343-103.214844-39.152343-7.261719 0-13.175781.394531-17.113281.757812-17.902344-31.71875-51.058594-51.21875-87.777344-51.21875-55.597656 0-100.828125 45.230469-100.828125 100.828125v71.144531c-1.808593-.046875-3.636719-.0625-5.496093-.007812-23.761719.699218-49.550782 9.785156-72.613282 25.582031-3.417968 2.34375-4.292968 7.011719-1.949218 10.429687 2.339843 3.421876 7.011718 4.292969 10.429687 1.953126 19.398437-13.292969 42.414063-22.867188 66.210937-23.042969 38.964844-.285157 60.402344 32.988281 47.722657 69.140625-9.035157 25.753906-28.570313 46.21875-50.332031 61.953125-51.496094 37.234375-116.332032 61.136719-179.925782 44.246093 5.65625-7.933593 19.429688-24.1875 50.316406-48.425781 6.890626-5.40625 11.136719-13.40625 11.648438-21.949219 1.242188-20.8125 13.023438-43.972656 32.320312-63.542968 2.910157-2.949219 2.875-7.699219-.074218-10.609375-2.953125-2.910157-7.703125-2.878907-10.609375.074219-21.8125 22.117187-35.160157 48.792968-36.617188 73.183593-.253906 4.257813-2.417969 8.28125-5.929687 11.039063-31.789063 24.941406-46.867188 42.28125-53.917969 52.4375-5.542969 7.980468-1.347656 19.484375 8.007813 22.027344 10.960937 2.976562 23.527343 5.273437 37.511718 6.089843 0 0-37.023437 26.976563-37.078125 27.015625-8.863281 6.457032-6.617187 20.601563 3.695313 24.109375 9.96875 3.390625 20.210937 5.109375 30.449218 5.109375 21.980469 0 44.066407-7.75 65.640626-23.035156 14.410156-10.210938 25.554687-21.71875 32.339843-29.53125 28.890625 11.179688 58.613281 16.941406 87.699219 16.941406 11.167969 0 22.339844-.851562 33.371094-2.609375l4.226562 13.363281c-21.667968 2.726563-38.484375 21.269532-38.484375 43.667969 0 4.144531 3.359375 7.503907 7.503907 7.503907h145.0625c4.144531 0 7.503906-3.359376 7.503906-7.503907 0-24.269531-19.746094-44.015625-44.015625-44.015625h-27.691407l-8.347656-26.375c15.285156-6.78125 29.222656-15.644531 41.480469-26.472656 3.105469-2.742188 3.398437-7.484375.65625-10.589844-2.742187-3.105468-7.484375-3.402344-10.589844-.65625-27.160156 24-62.738281 36.175782-98.589843 38.324219-32.542969 1.945313-66.34375-4.046875-98.980469-17.410156-.066407-.03125-.128907-.066407-.195313-.097657-2.214844-.90625-4.417968-1.855468-6.617187-2.828124 17.28125-6.761719 35.5-16.105469 54.511719-28.667969 29.257812-19.335938 56.300781-43.855469 68.207031-77.796875 8.753906-24.945313 6.515625-48.03125-6.292969-65.007813-8.933594-11.84375-22.367188-19.210937-36.730469-22.242187-.144531-.03125-.289062-.066406-.433593-.09375v-72.824219c0-47.320313 38.5-85.820313 85.820312-85.820313 31.132812 0 59.265625 16.457032 74.546875 43.269532-7.707031 9.765625-24.121094 35.035156-13.234375 62.003906 4.828125 11.953125 14.082031 21.503906 24.511719 28.808594v90.730468c0 34.207032-9.195313 64.039063-27.320313 88.664063-2.460937 3.335937-1.746094 8.035156 1.59375 10.492187 3.335938 2.453126 8.03125 1.742188 10.488282-1.597656 19.785156-26.875 30.242187-60.609375 30.242187-97.558594v-91.265624c7.707031-6.089844 36.136719-25.78125 103.898437-46.777344 3.34375-1.039063 5.320313-4.492188 5.136719-7.832032zm-206.410156 329.390626c.984375 3.117187 3.878906 5.238281 7.152344 5.238281h33.183593c13.402344 0 24.710938 9.136719 28.027344 21.507812h-128.089844c3.316407-12.371093 14.625-21.507812 28.027344-21.507812h4.605469c4.992187 0 8.65625-5.011719 7.152344-9.769531l-6.707031-21.199219c5.789062-1.386719 11.445312-3.023438 16.953124-4.917969zm-260.515625.445312c-7.792969 0-15.613281-1.199219-23.28125-3.558594l52.046875-37.921875c13.367187-1.019531 27.699219-3.488281 42.882813-7.910156.046874.027344.09375.046875.140624.070313 3.8125 1.953124 7.667969 3.820312 11.566407 5.597656-14.753907 15.992187-45.777344 43.722656-83.355469 43.722656zm437.71875-338.289062c-.019531 0-.039062 0-.058594 0-20.03125-.777344-40.285156-.230469-60.070312 3.21875-15.5625 2.710937-31.679688 7.203124-45.085938 16.121093-.792968.527344-1.570312 1.066407-2.332031 1.621094-2.355469-17.960937 9.71875-34.609375 14.234375-40.109375 3.308594-.355469 9.515625-.875 17.550781-.875 18.710938 0 50.351563 2.933594 75.761719 20.023438zm-87.726562 50.21875c-2.335938-1.714844-4.566407-3.546876-6.671876-5.535157-2.851562-2.695312-5.445312-5.675781-7.597656-8.960937-.03125-.105469.890625-.761719.984375-.839844 6.464844-5.328125 15.328125-9.667969 26.296875-12.9375 17.339844-5.167969 35.761719-6.828125 53.789063-7.167969.90625 0 3.082031-.042969 3.257812-.046875-40.664062 15.449219-61.5 29.023438-70.058593 35.488282zm0 0"/></svg>