<svg height="512pt" viewBox="-40 0 512 512" width="512pt" xmlns="http://www.w3.org/2000/svg"><path d="m360.882812 16.371094v46.820312h-54.09375v-46.820312c0-4.898438-3.972656-8.871094-8.875-8.871094h-45.953124c-4.898438 0-8.871094 3.972656-8.871094 8.871094v46.820312h-54.09375v-46.820312c0-4.898438-3.972656-8.871094-8.875-8.871094h-45.953125c-4.898438 0-8.871094 3.972656-8.871094 8.871094v46.820312h-54.09375v-46.820312c0-4.898438-3.972656-8.871094-8.875-8.871094h-45.957031c-4.898438 0-8.871094 3.972656-8.871094 8.871094v50.199218c0 4.335938 36.035156 102.386719 36.035156 109.601563v295.277344h345.011719v-295.277344c0-7.210937 36.039063-105.265625 36.039063-109.601563v-50.199218c0-4.898438-3.976563-8.871094-8.875-8.871094h-45.953126c-4.902343 0-8.875 3.972656-8.875 8.871094zm0 0" fill="#d2d2d2"/><g fill="#aeaeb2"><path d="m273.089844 16.371094c0-4.898438 3.972656-8.871094 8.871094-8.871094h-30c-4.898438 0-8.871094 3.972656-8.871094 8.871094v46.820312h30zm0 0"/><path d="m390.882812 16.371094c0-4.898438 3.972657-8.871094 8.875-8.871094h-30c-4.902343 0-8.875 3.972656-8.875 8.871094v46.820312h30zm0 0"/><path d="m37.5 66.570312v-50.199218c0-4.898438 3.972656-8.871094 8.871094-8.871094h-30c-4.898438 0-8.871094 3.972656-8.871094 8.871094v50.199218c0 4.335938 36.035156 102.386719 36.035156 109.601563v295.277344h30v-295.277344c0-7.214844-36.035156-105.265625-36.035156-109.601563zm0 0"/><path d="m155.292969 16.371094c0-4.898438 3.972656-8.871094 8.875-8.871094h-30c-4.902344 0-8.875 3.972656-8.875 8.871094v46.820312h30zm0 0"/></g><path d="m216.042969 252.898438c-40.726563 0-73.742188 33.011718-73.742188 73.738281v144.8125h147.480469v-144.8125c0-40.726563-33.015625-73.738281-73.738281-73.738281zm0 0" fill="#48484d"/><path d="m177.335938 471.449219v-144.8125c0-21.339844 17.363281-38.703125 38.703124-38.703125 21.34375 0 38.707032 17.363281 38.707032 38.703125v144.8125zm0 0" fill="#a1a1a5"/><path d="m402.6875 432.226562h-373.292969c-8.527343 0-15.441406 6.910157-15.441406 15.4375v41.394532c0 8.527344 6.914063 15.441406 15.441406 15.441406h373.292969c8.527344 0 15.441406-6.914062 15.441406-15.441406v-41.394532c0-8.527343-6.914062-15.4375-15.441406-15.4375zm0 0" fill="#57565c"/><path d="m43.953125 489.058594v-41.394532c0-8.527343 6.914063-15.4375 15.441406-15.4375h-30c-8.527343 0-15.441406 6.910157-15.441406 15.4375v41.394532c0 8.527344 6.914063 15.441406 15.441406 15.441406h30c-8.527343 0-15.441406-6.914062-15.441406-15.441406zm0 0" fill="#48484d"/><path d="m216.042969 102.414062c-16.898438 0-30.597657 13.699219-30.597657 30.597657v54.371093h61.195313v-54.371093c0-16.898438-13.699219-30.597657-30.597656-30.597657zm0 0" fill="#92c3cc"/><path d="m255.554688 170.589844h-79.027344c-3.917969 0-7.097656 3.175781-7.097656 7.097656v19.394531c0 3.921875 3.179687 7.097657 7.097656 7.097657h79.027344c3.921874 0 7.097656-3.175782 7.097656-7.097657v-19.394531c0-3.921875-3.175782-7.097656-7.097656-7.097656zm0 0" fill="#57565c"/><path d="m43.535156 354.835938c-4.140625 0-7.5 3.359374-7.5 7.5v62.390624h-6.640625c-12.648437 0-22.941406 10.289063-22.941406 22.9375v41.394532c0 12.652344 10.292969 22.941406 22.941406 22.941406h373.292969c12.648438 0 22.941406-10.292969 22.941406-22.941406v-41.394532c0-12.648437-10.292968-22.9375-22.941406-22.9375h-6.640625v-183.390624c0-4.140626-3.359375-7.5-7.5-7.5s-7.5 3.359374-7.5 7.5v183.390624h-83.765625v-98.089843c0-44.792969-36.441406-81.238281-81.238281-81.238281s-81.242188 36.445312-81.242188 81.238281v98.089843h-83.765625v-62.390624c0-4.140626-3.355468-7.5-7.5-7.5zm106.265625-28.199219c0-36.523438 29.714844-66.238281 66.242188-66.238281 36.523437 0 66.238281 29.714843 66.238281 66.238281v98.085937h-20.035156v-98.085937c0-25.476563-20.726563-46.207031-46.203125-46.207031-25.480469 0-46.207031 20.730468-46.207031 46.207031v98.085937h-20.035157zm97.445313 98.089843h-62.410156v-98.089843c0-17.207031 14-31.203125 31.207031-31.203125s31.203125 13.996094 31.203125 31.203125zm155.441406 15c4.378906 0 7.941406 3.5625 7.941406 7.9375v41.394532c0 4.378906-3.5625 7.941406-7.941406 7.941406h-373.292969c-4.375 0-7.941406-3.5625-7.941406-7.941406v-41.394532c0-4.378906 3.566406-7.9375 7.941406-7.9375zm0 0"/><path d="m432.085938 16.371094c0-9.027344-7.347657-16.371094-16.375-16.371094h-45.953126c-9.027343 0-16.375 7.34375-16.375 16.371094v39.320312h-39.09375v-39.320312c0-9.027344-7.34375-16.371094-16.375-16.371094h-45.949218c-9.03125 0-16.375 7.34375-16.375 16.371094v39.320312h-39.09375v-39.320312c0-9.027344-7.347656-16.371094-16.375-16.371094h-45.953125c-9.027344 0-16.371094 7.34375-16.371094 16.371094v39.320312h-39.097656v-39.320312c0-9.027344-7.34375-16.371094-16.371094-16.371094h-45.953125c-9.03125 0-16.375 7.34375-16.375 16.371094v50.199218c0 2.644532 1.203125 6.625 15.03125 46.398438 8.039062 23.117188 20.148438 57.945312 21.003906 63.492188v155.875c0 4.140624 3.359375 7.5 7.5 7.5 4.144532 0 7.5-3.359376 7.5-7.5v-156.164063c0-4.332031-4.082031-17.066406-21.835937-68.128906-6.203125-17.847657-13.210938-38.007813-14.199219-42.085938v-49.585937c0-.753906.617188-1.371094 1.375-1.371094h45.953125c.757813 0 1.371094.617188 1.371094 1.371094v46.820312c0 4.144532 3.359375 7.5 7.5 7.5h54.097656c4.140625 0 7.5-3.355468 7.5-7.5v-46.820312c0-.753906.613281-1.371094 1.371094-1.371094h45.953125c.757812 0 1.375.617188 1.375 1.371094v46.820312c0 4.144532 3.355468 7.5 7.5 7.5h54.09375c4.140625 0 7.5-3.355468 7.5-7.5v-46.820312c0-.753906.617187-1.371094 1.375-1.371094h45.949218c.757813 0 1.375.617188 1.375 1.371094v46.820312c0 4.144532 3.359376 7.5 7.5 7.5h54.09375c4.144532 0 7.5-3.355468 7.5-7.5v-46.820312c0-.753906.617188-1.371094 1.375-1.371094h45.953126c.757812 0 1.375.617188 1.375 1.371094v49.585937c-.988282 4.078125-7.996094 24.238281-14.203126 42.085938-17.753906 51.0625-21.835937 63.796875-21.835937 68.128906v35.164063c0 4.140624 3.359375 7.5 7.5 7.5 4.144531 0 7.5-3.359376 7.5-7.5v-34.875c.855469-5.546876 12.964844-40.375 21.003906-63.492188 13.828125-39.773438 15.035157-43.753906 15.035157-46.398438zm0 0"/><path d="m216.042969 94.914062c-21.007813 0-38.097657 17.089844-38.097657 38.097657v30.078125h-1.417968c-8.050782 0-14.597656 6.546875-14.597656 14.597656v19.394531c0 8.050781 6.546874 14.597657 14.597656 14.597657h79.027344c8.050781 0 14.597656-6.546876 14.597656-14.597657v-19.394531c0-8.050781-6.546875-14.597656-14.597656-14.597656h-1.414063v-30.078125c0-21.007813-17.089844-38.097657-38.097656-38.097657zm-23.097657 38.097657c0-12.738281 10.359376-23.097657 23.097657-23.097657 12.734375 0 23.097656 10.359376 23.097656 23.097657v30.078125h-46.195313zm62.207032 63.671875h-78.222656v-18.59375h78.222656zm0 0"/></svg>