<svg height="511pt" viewBox="0 -53 511.99928 511" width="511pt" xmlns="http://www.w3.org/2000/svg"><path d="m474.664062 217.289062-218.664062-39.640624-218.664062 39.640624-12.460938 70.5625 231.125 30.9375 231.125-30.9375zm0 0" fill="#a67052"/><path d="m54.875 287.847656 12.460938-70.558594 203.664062-36.921874-15-2.71875-218.664062 39.640624-12.460938 70.558594 231.125 30.941406 15-2.007812zm0 0" fill="#935b43"/><path d="m449.765625 76.179688-193.765625-34.085938-193.765625 34.085938-12.449219 70.558593 206.214844 11.597657 206.214844-11.597657zm0 0" fill="#a67052"/><path d="m79.785156 146.738281 12.449219-70.558593 178.765625-31.445313-15-2.640625-193.765625 34.085938-12.449219 70.558593 206.214844 11.597657 15-.84375zm0 0" fill="#935b43"/><path d="m49.785156 341.257812-37.359375 17.152344-4.761719 26.976563c-1.210937 6.835937 4.054688 13.101562 10.984376 13.101562h51.0625c5.414062 0 10.050781-3.886719 10.996093-9.214843l5.445313-30.859376zm0 0" fill="#a67052"/><path d="m37.664062 385.386719 4.761719-26.976563 22.15625-10.171875-14.796875-6.980469-37.363281 17.152344-4.761719 26.976563c-1.210937 6.835937 4.058594 13.101562 10.988282 13.101562h30c-6.929688 0-12.195313-6.265625-10.984376-13.101562zm0 0" fill="#935b43"/><path d="m462.214844 341.257812 37.359375 17.152344 4.761719 26.976563c1.210937 6.835937-4.054688 13.101562-10.984376 13.101562h-51.066406c-5.414062 0-10.046875-3.886719-10.996094-9.214843l-5.445312-30.859376zm0 0" fill="#a67052"/><path d="m476.085938 8h-440.171876c-6.449218 0-11.675781 5.226562-11.675781 11.675781v44.828125c0 6.449219 5.226563 11.675782 11.675781 11.675782h440.171876c6.449218 0 11.675781-5.230469 11.675781-11.675782v-44.828125c0-6.449219-5.226563-11.675781-11.675781-11.675781zm0 0" fill="#c68c6a"/><path d="m54.238281 64.503906v-44.828125c0-6.449219 5.226563-11.675781 11.675781-11.675781h-30c-6.449218 0-11.675781 5.226562-11.675781 11.675781v44.828125c0 6.445313 5.226563 11.675782 11.675781 11.675782h30c-6.449218 0-11.675781-5.226563-11.675781-11.675782zm0 0" fill="#a67052"/><path d="m474.664062 217.289062h-437.328124l12.449218-70.550781h412.429688zm0 0" fill="#c68c6a"/><path d="m49.785156 146.738281-12.449218 70.550781h30l12.449218-70.550781zm0 0" fill="#a67052"/><path d="m499.574219 358.410156h-487.148438l12.449219-70.558594h462.25zm0 0" fill="#c68c6a"/><path d="m24.875 287.847656-12.449219 70.5625h30l12.449219-70.5625zm0 0" fill="#a67052"/><path d="m219.132812 42.089844v79.378906c0 20.363281 16.507813 36.867188 36.867188 36.867188s36.863281-16.503907 36.863281-36.867188v-79.378906zm0 0" fill="#57565c"/><path d="m308.664062 225.746094h-31.597656v-70.570313c0-11.613281-9.449218-21.066406-21.066406-21.066406s-21.066406 9.453125-21.066406 21.066406v70.570313h-31.601563v-70.570313c0-29.039062 23.625-52.664062 52.667969-52.664062 29.039062 0 52.664062 23.625 52.664062 52.664062zm0 0" fill="#ffb85c"/><path d="m234.933594 164.148438h-31.5625c-.011719 0-.023438 0-.039063 0v61.597656h31.601563zm0 0" fill="#e7a249"/><path d="m308.664062 164.148438c-.011718 0-.027343 0-.039062 0h-31.558594v61.597656h31.597656zm0 0" fill="#e7a249"/><path d="m308.625 194.148438h-105.253906c-6.777344 0-12.277344 5.496093-12.277344 12.277343v76.269531c0 6.78125 5.5 12.28125 12.277344 12.28125h105.253906c6.78125 0 12.277344-5.5 12.277344-12.28125v-76.269531c0-6.78125-5.496094-12.277343-12.277344-12.277343zm0 0" fill="#ffc471"/><path d="m260.210938 237.09375v-6.78125c0-2.328125-1.886719-4.214844-4.210938-4.214844-2.328125 0-4.214844 1.886719-4.214844 4.214844v6.78125c-4.679687 1.863281-7.839844 6.71875-7.085937 12.210938.695312 5.078124 4.863281 9.136718 9.957031 9.71875 6.902344.789062 12.753906-4.585938 12.753906-11.332032 0-4.8125-2.984375-8.921875-7.199218-10.597656zm0 0"/><path d="m458.703125 83.679688h17.382813c10.574218 0 19.175781-8.605469 19.175781-19.175782v-44.828125c0-10.574219-8.601563-19.175781-19.175781-19.175781h-336.476563c-4.140625 0-7.5 3.359375-7.5 7.5s3.359375 7.5 7.5 7.5h336.476563c2.300781 0 4.175781 1.875 4.175781 4.175781v44.828125c0 2.300782-1.875 4.175782-4.175781 4.175782h-175.722657v-26.589844c0-4.144532-3.355469-7.5-7.5-7.5h-73.730469c-4.144531 0-7.5 3.355468-7.5 7.5v26.589844h-175.71875c-2.304687 0-4.179687-1.875-4.179687-4.175782v-44.828125c0-2.300781 1.875-4.175781 4.179687-4.175781h73.695313c4.140625 0 7.5-3.359375 7.5-7.5s-3.359375-7.5-7.5-7.5h-73.695313c-10.574218 0-19.179687 8.601562-19.179687 19.175781v44.828125c0 10.574219 8.605469 19.175782 19.179687 19.175782h17.378907s-53 300.296874-53.015625 300.398437c-1.988282 11.257813 6.957031 21.910156 18.371094 21.910156h51.0625c9.066406 0 16.796874-6.476562 18.382812-15.414062l4.355469-24.664063h327.101562l4.351563 24.675782c1.589844 8.921874 9.320312 15.402343 18.382812 15.402343h51.0625c11.414063 0 20.363282-10.671875 18.371094-21.90625zm-437.339844 267.230468 9.800781-55.558594h157.023438c.03125.03125.0625.0625.09375.097657 3.71875 4.367187 9.347656 7.027343 15.089844 7.027343h105.253906c5.742188 0 11.507812-2.703124 15.183594-7.125h67.8125c4.140625 0 7.5-3.359374 7.5-7.503906 0-4.140625-3.359375-7.5-7.5-7.5h-63.21875v-55.558594h139.96875l9.8125 55.558594h-56.5625c-4.140625 0-7.5 3.359375-7.5 7.5 0 4.144532 3.359375 7.503906 7.5 7.503906h59.210937l9.800781 55.558594zm22.261719-126.121094h139.96875v55.5625h-149.78125zm12.449219-70.550781h139.765625c-.003906.316407-.007813.625-.007813.9375v32.96875c-.015625.007813-.035156.015625-.050781.023438-7.070312 2.960937-11.992188 10.128906-12.179688 17.796875-.03125 1.257812-.007812 2.550781-.007812 3.824218h-137.320312zm156.171875-9.929687c5.078125-19.324219 23.210937-34.296875 43.753906-34.296875 24.457031 0 45.164062 20.734375 45.164062 45.164062v31.472657h-16.601562v-31.472657c0-15.492187-13.0625-28.566406-28.5625-28.566406-15.464844 0-28.566406 13.105469-28.566406 28.566406v31.472657h-16.597656v-31.472657c0-3.722656.488281-7.363281 1.410156-10.867187zm253.476562 65.480468h-137.320312v-3.363281c0-7.855469-4.953125-15.226562-12.183594-18.257812-.019531-.007813-.039062-.015625-.054688-.023438v-32.96875c0-.3125-.003906-.621093-.007812-.9375h139.765625zm-154.210937 76.648438c-.816407.644531-1.828125 1.039062-2.886719 1.039062h-105.253906c-2.566406 0-4.773438-2.207031-4.773438-4.777343 0 0 0-76.210938 0-76.273438 0-2.605469 2.308594-4.839843 4.910156-4.777343h104.984376c2.578124 0 4.910156 2.164062 4.910156 4.777343v76.273438c0 1.46875-.757813 2.84375-1.890625 3.738281zm-58.886719-144.386719c2.285156-.597656 4.710938-.582031 6.988281.066407 3.394531.960937 6.308594 3.234374 8.082031 6.261718-.320312.144532-.640624.296875-.976562.429688-3.402344 1.34375-7.0625 2.027344-10.722656 2.027344-4.0625 0-7.980469-.832032-11.695313-2.457032 1.773438-3.027344 4.6875-5.300781 8.082031-6.261718.082032-.023438.160157-.046876.242188-.066407zm-10.191406 21.664063c.007812.003906.011718.003906.019531.007812 4.34375 1.390625 8.898437 2.113282 13.546875 2.113282 4.644531 0 9.203125-.722657 13.546875-2.113282.003906-.003906.011719-.003906.015625-.007812v22.933594h-27.128906zm201.039062-80.035156 9.800782 55.558593h-139.257813c-.050781-.191406-.121094-.378906-.171875-.574219-2.550781-8.921874-7.214844-17.234374-13.480469-24.078124v-30.90625zm-216.839844-34.089844h58.730469v53.078125c-5.347656-3.007813-11.117187-5.160157-17.136719-6.40625-8.03125-1.660157-16.421874-1.667969-24.453124 0-6.019532 1.246093-11.792969 3.398437-17.140626 6.40625zm-15 34.089844s0 30.902343-.015624 30.921874c-6.191407 7.359376-11.070313 15.28125-13.636719 24.636719h-139.257813l9.804688-55.558593zm-138.308593 304.28125c-.3125 1.753906-1.832031 3.027343-3.613281 3.027343h-51.0625c-2.253907 0-3.992188-2.089843-3.597657-4.296875l3.664063-20.78125h58.5zm422.816406 1.710937c-.667969.796875-1.667969 1.316406-2.792969 1.316406h-51.0625c-1.78125 0-3.300781-1.273437-3.613281-3.019531l-3.890625-22.058594h58.5l3.667969 20.785156c.195312 1.109376-.140625 2.179688-.808594 2.976563zm0 0"/></svg>