<svg height="511pt" viewBox="0 -94 511.99897 511" width="511pt" xmlns="http://www.w3.org/2000/svg"><g fill="#92c3cc"><path d="m239.582031 21.824219c-.042969-8.089844-6.992187-14.34375-15.0625-13.792969-61.667969 4.203125-94.558593 59.753906-94.558593 59.753906l93.324218 6.742188c-6.445312-23.355469 16.386719-35.289063 16.296875-52.703125zm0 0"/><path d="m300.878906 96.425781c63.964844-33.738281 80.136719-29.316406 69.054688 24.847657l-39.015625 5.769531zm0 0"/><path d="m296.164062 237.960938c63.960938 33.738281 81.601563 37.167968 70.523438-16.996094l-40.484375-13.621094zm0 0"/><path d="m485.476562 104.6875-81.589843 28.292969v79.761719l81.589843 28.992187c11.980469 3.242187 22.519532-8.59375 17.917969-20.125l-9.523437-23.863281c-6.289063-15.753906-6.289063-33.320313 0-49.070313l9.523437-23.863281c4.601563-11.53125-5.9375-23.367188-17.917969-20.125zm0 0"/></g><path d="m129.960938 67.785156c7.960937-.714844 16.414062-1.105468 25.375-1.105468 91.441406 0 197.234374 51.746093 256.203124 68.597656 8.472657 2.421875 15.625 7.5 20.671876 14.175781 5.039062 6.664063 7.964843 14.945313 7.964843 23.757813 0 19.027343-13.570312 35.378906-32.296875 38.78125-63.097656 11.484374-166.347656 46.257812-252.542968 46.257812-28.257813 0-51.015626-4.328125-69.183594-10.636719zm0 0" fill="#bce7ea"/><path d="m407.875 191.992188c-63.097656 11.484374-166.34375 46.257812-252.542969 46.257812-25.96875 0-47.285156-3.664062-64.671875-9.152344l-4.511718 18.515625c18.171874 6.304688 40.929687 10.636719 69.183593 10.636719 86.199219 0 189.445313-34.773438 252.542969-46.257812 18.730469-3.402344 32.296875-19.753907 32.296875-38.78125 0-3.433594-.449219-6.785157-1.289063-9.992188-3.796874 14.511719-15.667968 25.988281-31.007812 28.773438zm0 0" fill="#a5d0d8"/><path d="m149.828125 136.523438c0 47.351562-25.582031 88.75-63.679687 111.089843-34.070313-11.792969-51.960938-30.5-59.535157-40.46875-2.613281-3.453125-1.605469-8.410156 2.15625-10.554687l19.953125-11.355469c3.164063-1.804687 3.453125-6.257813.550782-8.453125l-37.707032-28.433594c-3.949218-2.984375-5.214844-8.371094-2.941406-12.761718 9.21875-17.890626 39.511719-60.394532 121.335938-67.796876 12.582031 19.882813 19.867187 43.460938 19.867187 68.734376zm0 0" fill="#d2d2d2"/><path d="m96.148438 237.613281c-34.070313-11.792969-51.960938-30.5-59.535157-40.46875-.957031-1.265625-1.425781-2.734375-1.453125-4.195312l-6.390625 3.640625c-3.761719 2.144531-4.769531 7.101562-2.15625 10.554687 7.574219 9.96875 25.464844 28.675781 59.535157 40.46875zm0 0" fill="#aeaeb2"/><path d="m115.523438 226.796875c-8.710938-4.398437-19.171876-3.445313-26.910157 2.5-8.285156 6.375-11.808593 17.191406-8.859375 27.222656 24.800782 84.386719 50.394532 61.609375 44.132813 40.308594 17.292969 9.980469 20.617187-11.972656 12.636719-23.945313 14.136718 7.070313 33.183593-18.738281-21-46.085937zm0 0" fill="#92c3cc"/><path d="m137.808594 203.058594c-8.230469-5.242188-12.757813-14.71875-11.601563-24.40625 1.242188-10.382813 8.742188-18.9375 18.871094-21.527344 85.207031-21.808594 78.710937 11.832031 57.203125 17.332031 17.414062 9.765625.246094 23.84375-14.125 23.101563 13.300781 8.539062.855469 38.097656-50.347656 5.5zm0 0" fill="#92c3cc"/><path d="m78.035156 147.347656v-14.503906c0-4.144531-3.355468-7.5-7.5-7.5-4.140625 0-7.5 3.355469-7.5 7.5v14.5c0 4.144531 3.359375 7.5 7.5 7.5 4.144532 0 7.5-3.355469 7.5-7.496094zm0 0"/><path d="m510.371094 127.589844c3.191406-7.988282 1.617187-16.945313-4.101563-23.367188-5.722656-6.425781-14.4375-9.023437-22.742187-6.777344-.167969.046876-.332032.097657-.496094.15625l-10.320312 3.578126c-3.914063 1.355468-5.988282 5.628906-4.628907 9.542968 1.355469 3.914063 5.628907 5.988282 9.542969 4.628906l10.03125-3.476562c2.753906-.667969 5.511719.191406 7.410156 2.324219 1.949219 2.183593 2.460938 5.113281 1.375 7.832031l-9.523437 23.863281c-7.035157 17.613281-7.035157 37.015625 0 54.632813 0 0 9.503906 23.820312 9.523437 23.863281 2.230469 5.59375-2.914062 11.558594-8.761718 10.164063l-61.503907-21.855469c.023438-.015625.046875-.035157.074219-.050781 13.214844-8.546876 21.4375-23.699219 21.4375-39.4375 0-10.148438-3.367188-20.191407-9.480469-28.28125-3.453125-4.570313-7.722656-8.445313-12.550781-11.515626-.015625-.007812-.027344-.015624-.039062-.023437l23.976562-8.316406c3.914062-1.355469 5.988281-5.628907 4.628906-9.542969-1.355468-3.914062-5.628906-5.984375-9.542968-4.628906l-40.890626 14.179687c-7.773437-2.480469-16.207031-5.417969-25.273437-8.683593 3.75-21.238282 2.601563-33.820313-3.636719-41.464844-4.042968-4.953125-9.933594-7.464844-17.507812-7.464844-11.964844 0-29.144532 6.25-57.109375 20.824219-22.789063-7.640625-46.566407-14.769531-70.5-20.0625-.707031-8.222657 3.386719-14.746094 8.039062-22.125 4.59375-7.285157 9.34375-14.820313 9.292969-24.3125-.0625-12.234375-10.585938-22.097657-23.070312-21.242188-56.671876 3.867188-89.953126 47.558594-98.398438 60.128907-82.742188 8.675781-113.992188 52.726562-123.644531 71.457031-3.964844 7.648437-1.828125 16.980469 5.085937 22.199219l34.75 26.210937-16.75 9.527344c-3.664062 2.09375-6.25 5.660156-7.097656 9.789062-.847656 4.140625.128906 8.441407 2.6875 11.820313 6.933594 9.132812 22.496094 25.773437 50.625 38.140625.03125 2.949219.433594 5.910156 1.289062 8.8125 12.582032 42.820312 27.484376 65.453125 43.089844 65.453125 4.886719 0 9.277344-2.269532 12.363282-6.394532 2.230468-2.980468 3.625-6.75 4.125-10.839843 5.710937-.125 10.570312-3.175781 13.371093-8.410157 2.625-4.90625 3.226563-11.53125 1.980469-17.957031 5.441406-2.007812 9.691406-6.664062 11.121094-12.660156.148437-.617187.277344-1.320313.375-2.097656 20.1875-.21875 42.277344-2.226563 67.378906-6.132813 4.09375-.636718 6.894531-4.46875 6.257812-8.5625-.636718-4.09375-4.472656-6.890625-8.5625-6.257812-25.636718 3.988281-47.957031 5.941406-68.214843 5.972656-4.066407-7.789062-12.703125-17.183594-30.121094-27.007812.375-.453126.738281-.914063 1.109375-1.371094 3.066406-3.773438 5.964844-7.730469 8.613281-11.8125.019531-.027344.039063-.058594.058594-.085938.339844.210938 7.234375 4.292969 10.445313 5.945313.015624.007812.027343.015625.039062.019531 10.078125 5.1875 21.359375 9.667969 32.90625 9.023438 10.769531-.601563 22.015625-7.550782 21.710938-19.574219-.027344-.941407-.109376-1.886719-.285157-2.8125.191407-.066407.382813-.144531.574219-.21875 7.691406-2.914063 15.46875-8.960938 16.175781-17.761719 0-.019531 0-.039062.003907-.058594.183593-2.378906-.132813-5.425781-1.921876-8.597656 5.574219-4.304688 8.832032-10.304688 8.410157-16.386719 0-.027343-.003907-.050781-.003907-.078125-.871093-11.671875-13.554687-16.101562-23.484374-17.191406-9.84375-1.082031-22.652344-.109375-38.179688 2.867188-.957031.183593-4.789062.960937-4.945312.992187.582031-7.871094.460937-15.777344-.304688-23.628906-1.644531-16.871094-6.511719-33.453125-14.242188-48.539063.066407-.003906.128907-.007812.195313-.011718 17.957031-.8125 35.726563.269531 53.5 2.832031 34.785156 5.011719 69.160156 14.578125 102.285156 26.199219.035157.011718.0625.027343.09375.039062 35.476563 12 70.167969 26.589844 106.011719 37.480469 15.421875 4.6875 28.183594 14.714843 28.183594 32.199219 0 15.230468-11.140625 28.679687-26.140625 31.402343-51.390625 9.339844-101.484375 24.890625-152.761719 34.914063-4.0625.796875-6.714844 4.738281-5.917969 8.800781.792969 4.066406 4.734375 6.71875 8.796875 5.921875 12.96875-2.535156 25.941406-5.363281 38.628906-8.28125 29.859376 15.675781 48.65625 24.152344 61.535157 24.15625 6.59375 0 11.75-2.222656 15.324219-6.601562 5.542968-6.789063 6.5625-17.722657 3.25-36.910157 9.898437-2.328125 19.285156-4.417969 27.925781-6.117187l79.648437 28.304687c8.042969 2.867188 17.765625-.394531 23.292969-6.601562 5.722656-6.425781 7.296875-15.378907 4.105469-23.367188l-9.523438-23.863281c-5.601562-14.03125-5.601562-29.484375 0-43.511719zm-153-45.125c4.292968 0 5.449218 1.417968 5.882812 1.953125 2.085938 2.554687 3.746094 9.324219.929688 26.757812-2.65625-.972656-5.347656-1.964843-8.074219-2.96875-.082031-.03125-.167969-.0625-.253906-.09375-2.539063-.933593-5.109375-1.878906-7.699219-2.832031-.40625-.148438-.808594-.296875-1.21875-.445312-5.769531-2.117188-11.65625-4.269532-17.652344-6.425782-.007812-.003906-.011718-.003906-.019531-.007812-3.050781-1.097656-6.125-2.195313-9.226563-3.292969 13.753907-6.644531 28.410157-12.644531 37.332032-12.644531zm-132.332032-66.953125c3.8125-.257813 7.035157 2.6875 7.054688 6.351562.027344 5.121094-3.222656 10.273438-6.984375 16.238281-4.613281 7.316407-10.078125 15.988282-10.445313 27.042969-7.589843-1.410156-15.171874-2.605469-22.730468-3.550781-15.414063-1.925781-30.941406-2.753906-46.472656-2.253906 13.101562-15.683594 40.1875-41.140625 79.578124-43.828125zm-192.207031 187.398437s19.609375-11.15625 19.625-11.164062c7.710938-4.386719 8.402344-15.617188 1.34375-20.949219l-37.703125-28.4375c-1.050781-.792969-1.390625-2.191406-.792968-3.339844 8.492187-16.480469 36.113281-55.109375 110.703124-63.296875 4.429688 7.621094 8.007813 15.722656 10.660157 24.125 5.132812 16.230469 6.804687 33.574219 4.882812 50.488282-.128906.039062-.25.09375-.378906.132812-10.375 3.40625-18.578125 12.132812-21.480469 22.644531-2.53125 9.160157-.792968 19.234375 4.578125 27.054688-.144531.234375-.292969.46875-.441406.699219-2.855469 4.546874-5.996094 8.878906-9.421875 13.011718-.988281 1.1875-1.992188 2.359375-3.023438 3.511719-.339843-.078125-.683593-.140625-1.023437-.207031-2.039063-.398438-4.191406-.625-6.304687-.625-7.199219 0-14.304688 2.414062-20.011719 6.800781-3.960938 3.050781-7.226563 7.03125-9.429688 11.515625-23.03125-10.699219-35.863281-24.253906-41.78125-31.964844zm127.765625-41.773437c13.390625-2.882813 27.542969-5.628907 41.203125-2.949219 5.394531 1.109375 6.800781 2.871094 6.8125 2.890625.042969.75-1.570312 3.339844-5.273437 5.078125-.855469.402344-1.824219.757812-2.90625 1.035156-6.351563 1.625-7.625 10.542969-1.8125 13.808594 1.730468.96875 2.660156 1.808594 3.125 2.339844.21875.25.433594.503906.308594.851562-.007813.023438-.011719.039063-.019532.0625-1.859375 4.441406-9.199218 6.027344-13.480468 5.8125-7.476563-.375-10.75 9.75-4.4375 13.800782 1.257812.808593 1.933593 2.414062 1.109374 3.78125-1.804687 3-6.667968 3.003906-9.683593 2.820312-6.886719-.410156-13.609375-3.007812-19.773438-5.9375-5.953125-2.832031-12.277343-5.546875-17-10.289062-3.796875-3.8125-5.742187-9.351563-5.101562-14.703126.855469-7.175781 6.285156-13.359374 13.28125-15.152343 4.5-1.148438 9.058593-2.261719 13.648437-3.25zm-16.570312 103.214843c-.453125 1.902344-2.375 2.703126-4.136719 1.824219-6.699219-3.347656-13.765625 4.609375-9.597656 10.867188 4.097656 6.144531 2.929687 13.863281 1.703125 14.796875 0 0-.066406.019531-.222656.019531-.347657 0-1.675782-.109375-4.128907-1.527344-5.734375-3.304687-12.8125 2.261719-10.945312 8.613281 1.683593 5.722657-.253907 9.730469-1.039063 10.144532-3.277344 0-15.582031-10.046875-28.703125-54.6875-2.015625-6.859375.554688-14.789063 6.238281-19.160156 4.949219-3.804688 11.839844-4.703126 17.617188-2.351563.019531.007813.039062.015625.0625.023437 6.253906 2.566407 12.117188 6.082032 17.523438 10.125 5.480468 4.101563 11.085937 8.671876 14.257812 14.882813.015625.03125.035156.0625.050781.09375 1.382813 2.742187 1.660157 4.914063 1.320313 6.335937zm216.503906-10.3125c-.242188.296876-.886719 1.085938-3.707031 1.085938-7.617188-.003906-21.085938-5.527344-39.039063-14.46875 3.320313-.804688 43.074219-10.066406 42.996094-10.542969 2.804688 16.871094 1.136719 22.226563-.25 23.925781zm0 0"/></svg>