<svg height="512pt" viewBox="0 -3 512 512" width="512pt" xmlns="http://www.w3.org/2000/svg"><path d="m203.878906 162.820312 69.640625-118.390624c13.460938-22.878907 38.019531-36.929688 64.570313-36.929688 26.539062 0 51.109375 14.050781 64.570312 36.929688l69.640625 118.390624-12.800781 46.519532h-237zm0 0" fill="#edebec"/><path d="m444.53125 499.179688h59.96875v-281.609376l-32.199219-54.75-13.179687 6c-7.691406 3.5-15.949219 5.25-24.210938 5.25-8.261718 0-16.511718-1.75-24.199218-5.25-7.691407-3.5-15.949219-5.25-24.210938-5.25s-16.519531 1.75-24.210938 5.25c-7.6875 3.5-15.9375 5.25-24.199218 5.25-8.261719 0-16.519532-1.75-24.210938-5.25-7.6875-3.5-15.949218-5.25-24.199218-5.25-8.257813 0-16.519532 1.75-24.210938 5.25-15.378906 7-33.027344 7-48.410156 0l-13.179688-6-37.980468 64.558594v187.960938zm0 0" fill="#a67052"/><path d="m315.953125 241.347656c-12.902344-21.53125-36.433594-34.878906-61.5625-34.878906-20.050781 0-39.089844 8.5-52.527344 22.882812l-18.5625-31.550781-17.402343 29.578125v187.960938l278.632812 83.839844h35.5625zm0 0" fill="#935b43"/><path d="m7.5 350.5v-50.539062l64.53125-109.699219c7.507812-12.761719 21.207031-20.601563 36.019531-20.601563 14.800781 0 28.5 7.839844 36.007813 20.601563l21.839844 37.117187 34.972656 59.449219 17.5-29.757813c7.507812-12.761718 21.207031-20.601562 36.019531-20.601562 14.800781 0 28.507813 7.839844 36.007813 20.601562l60.710937 95.371094-185.210937 62.898438zm0 0" fill="#edebec"/><path d="m444.53125 499.179688h-437.03125v-148.679688c7.679688-3.488281 15.921875-5.230469 24.160156-5.230469 8.261719 0 16.519532 1.75 24.210938 5.25 7.6875 3.5 15.949218 5.25 24.207031 5.25 8.261719 0 16.523437-1.75 24.203125-5.25 7.6875-3.5 15.949219-5.25 24.207031-5.25 8.261719 0 16.523438 1.75 24.210938 5.25 7.679687 3.5 15.941406 5.25 24.199219 5.25 8.261718 0 16.523437-1.75 24.210937-5.25 7.691406-3.5 15.949219-5.25 24.210937-5.25 8.25 0 16.507813 1.75 24.199219 5.25 7.691407 3.5 15.949219 5.25 24.199219 5.25 8.261719 0 16.519531-1.75 24.210938-5.25 7.691406-3.5 15.949218-5.25 24.210937-5.25 8.25 0 16.507813 1.75 24.199219 5.25 1.570312.710938 3.160156 1.351563 4.769531 1.921875zm0 0" fill="#c68c6a"/><path d="m286.394531 118.476562v-10.710937c0-4.144531-3.359375-7.5-7.5-7.5s-7.5 3.355469-7.5 7.5v10.710937c0 4.140626 3.359375 7.5 7.5 7.5s7.5-3.359374 7.5-7.5zm0 0"/><path d="m404.785156 118.476562v-10.710937c0-4.144531-3.355468-7.5-7.5-7.5-4.140625 0-7.5 3.355469-7.5 7.5v10.710937c0 4.140626 3.359375 7.5 7.5 7.5 4.144532 0 7.5-3.359374 7.5-7.5zm0 0"/><path d="m338.089844 131.695312c7.859375 0 15.242187-3.289062 20.257812-9.027343 2.726563-3.117188 2.40625-7.855469-.710937-10.582031-3.117188-2.726563-7.855469-2.410157-10.582031.710937-2.167969 2.476563-5.433594 3.898437-8.964844 3.898437s-6.796875-1.421874-8.960938-3.898437c-2.726562-3.121094-7.464844-3.4375-10.585937-.710937-3.117188 2.722656-3.4375 7.460937-.710938 10.582031 5.015625 5.738281 12.398438 9.027343 20.257813 9.027343zm0 0"/><path d="m409.125 40.628906c-14.742188-25.0625-41.960938-40.628906-71.035156-40.628906-29.074219 0-56.289063 15.566406-71.035156 40.628906l-14.75 25.070313c-2.097657 3.570312-.90625 8.167969 2.664062 10.269531s8.167969.910156 10.265625-2.664062l14.75-25.074219c12.058594-20.496094 34.324219-33.230469 58.105469-33.230469s46.046875 12.734375 58.105468 33.230469l65.417969 111.210937c-15.601562 7.105469-31.582031 9.902344-47.796875 2.550782-17.214844-7.835938-37.425781-7.832032-54.632812 0-13.300782 6.054687-28.902344 6.050781-42.195313 0-17.226562-7.839844-37.402343-7.839844-54.625 0-16.15625 7.355468-32.25 4.527343-47.796875-2.550782l35.515625-60.378906c2.101563-3.570312.910157-8.164062-2.660156-10.265625s-8.167969-.910156-10.269531 2.664063l-71.253906 121.128906-15.375-26.136719c-8.820313-14.984375-25.09375-24.296875-42.472657-24.296875-17.386719 0-33.664062 9.3125-42.484375 24.296875l-64.53125 109.703125c-.679687 1.152344-1.035156 2.464844-1.035156 3.804688v199.21875c0 4.140624 3.359375 7.5 7.5 7.5h497c4.140625 0 7.5-3.359376 7.5-7.5v-281.609376c0-1.335937-.355469-2.648437-1.035156-3.800781zm-394.125 261.375 63.492188-107.941406c6.140624-10.425781 17.464843-16.902344 29.558593-16.902344 12.089844 0 23.410157 6.476563 29.546875 16.902344l56.808594 96.570312c2.628906 4.472657 9.183594 4.894532 12.375.816407.199219-.257813 18.050781-30.570313 18.054688-30.574219 6.078124-10.339844 17.566406-16.90625 29.554687-16.90625 12.097656 0 23.417969 6.476562 29.546875 16.902344.042969.074218.089844.152344.136719.226562l49.429687 77.648438c-.160156-.027344-.320312-.046875-.480468-.070313-12.90625-2.144531-26.289063-.402343-38.199219 5.019531-13.308594 6.054688-28.890625 6.054688-42.195313 0-17.21875-7.839843-37.40625-7.835937-54.625 0-13.300781 6.054688-28.894531 6.058594-42.195312 0-17.222656-7.851562-37.414063-7.835937-54.636719 0-13.308594 6.054688-28.886719 6.054688-42.191406 0-13.683594-6.226562-29.433594-7.601562-43.976563-3.796874v-37.894532zm482 189.675782h-48.355469l-27.097656-42.566407c-2.226563-3.496093-6.859375-4.523437-10.355469-2.300781-3.492187 2.226562-4.523437 6.859375-2.296875 10.355469l21.96875 34.511719h-415.863281v-136.097657c.132812-.046875.261719-.097656.394531-.140625 12.164063-4.121094 25.6875-3.414062 37.367188 1.90625 17.222656 7.835938 37.40625 7.84375 54.625 0 13.304687-6.066406 28.902343-6.058594 42.203125-.003906 17.230468 7.84375 37.398437 7.84375 54.628906 0 13.308594-6.058594 28.886719-6.054688 42.195312 0 17.207032 7.835938 37.421876 7.828125 54.621094 0 15.113282-6.875 30.113282-4.769531 44.992188 1.1875.03125.015625.066406.03125.097656.042969l47.027344 73.863281c2.222656 3.496094 6.859375 4.527344 10.351562 2.300781 3.496094-2.226562 4.523438-6.859375 2.300782-10.355469l-109.007813-171.234374c-8.828125-14.917969-25.0625-24.179688-42.40625-24.179688-17.382813 0-33.664063 9.3125-42.484375 24.300781l-11.035156 18.765625-26.269532-44.65625 32.320313-54.933594s7.03125 3.199219 7.03125 3.199219c17.183594 7.824219 37.445313 7.820313 54.625 0 13.308594-6.054687 28.890625-6.054687 42.195313 0 17.222656 7.839844 37.40625 7.839844 54.625 0 13.300781-6.054687 28.90625-6.050781 42.203124 0 17.226563 7.84375 37.402344 7.839844 54.625 0l7.035157-3.199219 27.738281 47.167969zm0 0"/></svg>