<svg height="512pt" viewBox="0 -15 512.00001 512" width="512pt" xmlns="http://www.w3.org/2000/svg"><path d="m36.210938 336.449219 34.925781-34.925781c7.023437-7.023438 16.554687-10.976563 26.488281-10.976563h67.796875l-43.925781 69.316406-8.886719 5.554688-44.589844-8.09375zm0 0" fill="#f9cf99"/><path d="m112.609375 365.417969-39.5625 13.925781h-55.746094c-8.847656 0-13.28125-10.703125-7.023437-16.960938l25.933594-25.933593zm0 0" fill="#f77f82"/><path d="m144.90625 445.148438 34.925781-34.925782c7.027344-7.027344 10.980469-16.554687 10.980469-26.492187v-67.796875l-69.316406 43.929687-5.554688 8.886719 8.09375 44.589844zm0 0" fill="#f9cf99"/><path d="m115.941406 368.75-13.925781 39.558594v55.746094c0 8.851562 10.703125 13.28125 16.960937 7.023437l25.933594-25.929687zm0 0" fill="#f77f82"/><path d="m475.789062 336.449219-34.925781-34.925781c-7.023437-7.023438-16.554687-10.976563-26.492187-10.976563h-67.792969l43.925781 69.316406 8.886719 5.554688 44.589844-8.09375zm0 0" fill="#f9cf99"/><path d="m399.390625 365.417969 39.558594 13.925781h55.746093c8.851563 0 13.28125-10.703125 7.027344-16.960938l-25.933594-25.933593zm0 0" fill="#f77f82"/><path d="m367.09375 445.148438-34.925781-34.925782c-7.027344-7.027344-10.980469-16.554687-10.980469-26.492187v-67.796875l69.316406 43.929687 5.554688 8.886719-8.09375 44.589844zm0 0" fill="#f9cf99"/><path d="m396.058594 368.75 13.925781 39.558594v55.746094c0 8.851562-10.703125 13.28125-16.960937 7.023437l-25.933594-25.929687zm0 0" fill="#f77f82"/><path d="m395.054688 57.339844-322 322c-3.929688 3.929687-3.929688 10.300781 0 14.230468l14.730468 14.734376c3.929688 3.929687 10.300782 3.929687 14.230469 0l322-322zm0 0" fill="#a67052"/><path d="m205.808594 246.582031 28.636718-28.636719 28.964844 28.964844-28.640625 28.636719zm0 0" fill="#935b43"/><path d="m116.945312 57.339844 322 322c3.929688 3.929687 3.929688 10.300781 0 14.230468l-14.734374 14.734376c-3.929688 3.929687-10.300782 3.929687-14.230469 0l-322-322zm0 0" fill="#c68c6a"/><path d="m395.054688 57.339844-50.078126 50.078125 21.261719 7.703125 7.699219 21.261718 50.078125-50.078124zm0 0" fill="#935b43"/><path d="m389.675781 91.683594-54.109375-19.597656c-10.3125-4.515626-9.132812-19.511719 1.761719-22.355469l125.96875-42.015625c6.269531-1.636719 11.984375 4.078125 10.347656 10.347656l-42.015625 125.96875c-2.84375 10.894531-17.84375 12.074219-22.355468 1.757812zm0 0" fill="#d2d2d2"/><path d="m116.945312 57.339844-28.964843 28.964844 50.078125 50.078124 7.703125-21.261718 21.261719-7.703125zm0 0" fill="#a67052"/><path d="m122.324219 91.683594 54.109375-19.597656c10.3125-4.515626 9.132812-19.511719-1.761719-22.355469l-125.96875-42.015625c-6.269531-1.636719-11.984375 4.078125-10.347656 10.347656l42.015625 125.96875c2.84375 10.894531 17.84375 12.074219 22.355468 1.757812zm0 0" fill="#d2d2d2"/><path d="m123.304688 111.117188 4.878906-13.472657 13.472656-4.878906 39.539062 39.542969c2.929688 2.929687 7.683594 2.929687 10.613282 0 2.929687-2.933594 2.929687-7.683594 0-10.613282l-34.574219-34.574218 21.75-7.878906c.152344-.054688.304687-.113282.453125-.179688 7.671875-3.355469 12.207031-10.917969 11.546875-19.265625-.648437-8.253906-6.191406-14.960937-14.148437-17.152344 0 0-125.753907-41.945312-125.761719-41.945312-6.113281-2.042969-13.3125.5625-17.179688 5.566406-3.019531 3.914063-4.242187 9.519531-2.660156 14.273437l41.945313 125.757813c2.347656 8.515625 9.832031 14.210937 18.710937 14.214844 7.789063 0 14.578125-4.449219 17.710937-11.609375.0625-.148438 8.058594-22.203125 8.058594-22.203125l98.761719 98.761719-57.683594 57.683593h-61.113281c-12.007812 0-23.300781 4.679688-31.796875 13.175781 0 0-60.835937 60.839844-60.855469 60.859376-10.765625 10.765624-2.855468 29.769531 12.328125 29.769531h45.320313c.097656 4.542969 1.902344 8.804687 5.125 12.03125l14.734375 14.730469c3.222656 3.226562 7.484375 5.027343 12.03125 5.128906v45.316406c0 15.171875 19.035156 23.066406 29.769531 12.332031l60.859375-60.859375c8.371094-8.375 13.175781-19.964844 13.175781-31.796875v-61.113281l57.683594-57.683594s24.300781 24.304688 24.308594 24.3125c2.894531 2.890625 7.722656 2.886719 10.613281 0 2.929687-2.933594 2.929687-7.683594 0-10.613281zm-27.535157 31.941406c-1.746093 3.648437-7.144531 2.988281-8.136719-.820313-.042968-.164062-41.933593-125.773437-42.046874-126.113281-.167969-.511719.550781-1.253906 1.082031-1.078125.003906.003906 125.628906 41.902344 125.628906 41.902344.160156.054687.316406.101562.480469.144531 2.710937.707031 3.171875 2.949219 3.246094 3.878906.070312.90625-.027344 3.109375-2.425782 4.257813l-53.828125 19.496093c-2.09375.761719-3.742187 2.410157-4.5 4.503907zm-19.328125 163.875c5.582032-5.582032 13.304688-8.78125 21.183594-8.78125h46.105469l-51.582031 51.582031-42.425782-16.082031zm-61.367187 63.5c-.355469-.84375-.253907-1.878906.507812-2.644532l22.503907-22.5 42.421874 16.085938-10.566406 10.566406s-52.523437 0-52.640625 0c-1.054687 0-1.871093-.660156-2.226562-1.507812zm98.59375 95.441406c-1.519531 1.511719-4.148438.410156-4.148438-1.71875v-52.640625l10.566407-10.566406 16.082031 42.425781c0-.003906-22.203125 22.203125-22.5 22.5zm69.640625-82.042969c0 7.882813-3.203125 15.601563-8.78125 21.183594l-26.71875 26.71875-16.085938-42.421875 51.585938-51.585938zm-86.601563 19.269531c-.984375.984376-2.628906.984376-3.613281 0l-14.734375-14.734374c-.988281-.988282-.984375-2.632813 0-3.617188l148.675781-148.675781 18.351563 18.351562s-148.675781 148.675781-148.679688 148.675781zm0 0"/><path d="m446.167969 296.320312c-8.496094-8.496093-19.789063-13.175781-31.796875-13.175781h-61.109375l-57.683594-57.683593 98.761719-98.761719 7.878906 21.75c.054688.152343.113281.304687.179688.453125 3.132812 7.160156 9.917968 11.609375 17.707031 11.609375 8.882812 0 16.367187-5.699219 18.710937-14.214844l41.945313-125.757813c.054687-.160156.101562-.320312.144531-.480468 1.257812-4.828125.238281-9.855469-2.804688-13.792969-3.015624-3.90625-7.734374-6.234375-12.625-6.234375-1.363281 0-2.738281.175781-4.074218.523438-.164063.042968-.320313.089843-.480469.144531l-125.757813 41.945312c-7.960937 2.191407-13.503906 8.894531-14.152343 17.152344-.65625 8.347656 3.875 15.910156 11.546875 19.265625.148437.066406.300781.125.453125.179688l21.75 7.878906-98.761719 98.761718-42.964844-42.964843c-2.929687-2.929688-7.683594-2.929688-10.613281 0-2.929687 2.933593-2.929687 7.683593 0 10.613281 0 0 231.21875 231.21875 231.21875 231.21875.996094 1 .996094 2.621094 0 3.617188 0 0-14.726563 14.722656-14.734375 14.734374-.960938.960938-2.621094.996094-3.617188 0l-103.140624-103.140624c-2.929688-2.933594-7.683594-2.933594-10.613282 0-2.929687 2.929687-2.929687 7.679687 0 10.609374l12.148438 12.148438v61.113281c0 11.832031 4.800781 23.421875 13.175781 31.796875 0 0 60.808594 60.808594 60.855469 60.859375 10.726562 10.722657 29.773437 2.804688 29.773437-12.332031v-45.316406c4.542969-.101563 8.804688-1.902344 12.027344-5.128906l14.734375-14.730469c3.328125-3.328125 5.023438-7.664063 5.121094-12.03125h45.324218c15.210938 0 23.089844-19.011719 12.332032-29.769531zm-110.195313-235.347656c.074219-.929687.539063-3.171875 3.25-3.878906.160156-.042969.320313-.089844.480469-.144531l125.625-41.902344c.5-.070313.8125.289063.894531.390625.199219.257812.214844.496094.1875.6875l-41.902344 125.632812c-.050781.15625-.097656.316407-.140624.480469-.789063 3.027344-3.460938 3.261719-4.261719 3.261719-1.023438 0-2.863281-.320312-3.875-2.441406l-13.703125-37.824219-5.796875-16.003906c-.757813-2.09375-2.40625-3.742188-4.5-4.5l-21.261719-7.703125-32.566406-11.796875c-2.398438-1.148438-2.5-3.347657-2.429688-4.257813zm34.371094 31.792969 1.167969.421875 12.300781 4.457031 4.878906 13.472657-103.726562 103.730468-18.351563-18.351562zm-41.652344 291.066406v-46.105469l51.582032 51.585938-16.082032 42.421875-26.71875-26.71875c-5.582031-5.578125-8.78125-13.300781-8.78125-21.183594zm73.058594 82.039063c-.890625.855468-2.40625 1.015625-3.417969.003906l-22.503906-22.5 16.085937-42.425781 10.566407 10.566406v52.640625c0 .703125-.289063 1.292969-.730469 1.714844zm-33.480469-167.71875h46.101563c7.882812 0 15.605468 3.199218 21.183594 8.78125l26.71875 26.71875-42.421876 16.082031zm128.671875 72.289062c-.285156.683594-.902344 1.5-2.246094 1.5h-52.640624l-10.566407-10.566406 42.421875-16.085938 22.503906 22.503907c.949219.945312.808594 1.960937.527344 2.648437zm0 0"/></svg>