<svg height="512pt" viewBox="0 -17 512.00032 512" width="512pt" xmlns="http://www.w3.org/2000/svg"><path d="m323.746094 351.300781h-135.488282s-47.050781 41.09375-47.050781 118.292969h229.589844c0-77.183594-47.039063-118.28125-47.050781-118.292969zm0 0" fill="#ffe1d7"/><path d="m256.46875 426.203125c38.78125 0 71.726562-13.039063 98.367188-30.316406-13.640626-29.339844-31.082032-44.578125-31.089844-44.585938h-135.492188s-17.253906 15.078125-30.867187 44.113281c26.765625 17.511719 59.953125 30.789063 99.082031 30.789063zm0 0" fill="#ffcec0"/><path d="m256 375.199219c-14.09375 5.878906-24 19.78125-24 36.003906s9.90625 30.128906 24 36.003906c14.09375-5.875 24-19.78125 24-36.003906 0-16.21875-9.910156-30.125-24-36.003906zm0 0" fill="#aeaeb2"/><path d="m431.71875 193.808594c-1.238281 46.644531-20.648438 88.777344-51.421875 119.527344-31.800781 31.824218-75.753906 51.492187-124.296875 51.492187-97.085938 0-175.789062-78.699219-175.789062-175.789063l68.332031-68.332031h217.289062zm0 0" fill="#ffe1d7"/><path d="m110.320312 90.628906c6.292969-9.300781 13.464844-17.96875 21.382813-25.886718 31.800781-31.820313 75.753906-51.492188 124.296875-51.492188 60.625 0 114.074219 30.683594 145.679688 77.378906l-145.210938 30.078125zm0 0" fill="#ffb85c"/><path d="m140.320312 90.628906c6.292969-9.304687 13.464844-17.96875 21.378907-25.886718 28.484375-28.496094 66.714843-47.238282 109.257812-50.84375-4.933593-.414063-9.917969-.648438-14.957031-.648438-48.542969 0-92.496094 19.671875-124.296875 51.492188-7.914063 7.917968-15.089844 16.585937-21.382813 25.886718l146.152344 30.078125 14.949219-3.097656zm0 0" fill="#e7a249"/><path d="m447.710938 208.871094 34.625-15.878906c4.160156 33.292968-9.027344 66.398437-34.945313 87.710937l-20.078125 16.511719-20.914062-38.871094zm0 0" fill="#d2d2d2"/><path d="m64.289062 208.871094-34.625-15.878906c-4.160156 33.292968 9.027344 66.398437 34.945313 87.710937l20.078125 16.511719 20.914062-38.871094zm0 0" fill="#d2d2d2"/><path d="m486.195312 130.359375c11.089844 24.800781 6.273438 53.828125-12.226562 73.722656l-39.421875 42.386719-22.210937-19.789062 5.9375-38.265626zm0 0" fill="#edebec"/><path d="m137.238281 144.210938v43.703124c0 19.957032 16.175781 36.132813 36.132813 36.132813 19.953125 0 36.128906-16.175781 36.128906-36.132813v-43.703124zm0 0" fill="#48484d"/><path d="m277.519531 424.898438c1.597657-4.261719 2.480469-8.875 2.480469-13.691407 0-16.222656-9.90625-30.128906-24-36.007812-14.09375 5.878906-24 19.785156-24 36.007812 0 4.765625.863281 9.332031 2.429688 13.554688 7.125.929687 14.46875 1.441406 22.039062 1.441406 7.222656 0 14.238281-.457031 21.050781-1.304687zm0 0" fill="#a1a1a5"/><path d="m256.46875 401.207031c99.191406 0 156.808594-101.664062 156.808594-101.664062l-19.476563-47.570313s-24.652343 28.519532-62.921875 34.710938l-74.40625-22.472656-74.410156 22.472656c-38.269531-6.191406-62.917969-34.710938-62.917969-34.710938l-19.476562 47.570313c-.003907 0 57.609375 101.664062 156.800781 101.664062zm0 0" fill="#d2d2d2"/><path d="m280.667969 239.949219h-49.40625s-50.257813 13.9375-50.257813 57.265625v24.328125h.90625c18.484375 0 35.34375-9.828125 45.226563-25.449219 5.226562-8.261719 14.023437-15.347656 28.828125-15.347656 14.804687 0 23.605468 7.085937 28.828125 15.347656 9.882812 15.621094 26.742187 25.449219 45.226562 25.449219h.90625v-24.328125c0-43.328125-50.257812-57.265625-50.257812-57.265625zm0 0" fill="#aeaeb2"/><path d="m431.789062 189.039062c0 1.59375-.019531 3.1875-.070312 4.769532l-35.195312 18.484375c0-15.992188-6.480469-30.464844-16.957032-40.945313-10.53125-10.519531-25.09375-17.007812-41.171875-16.949218-32.019531.128906-57.65625 26.738281-57.65625 58.753906v26.796875c0 5.097656-4.128906 9.222656-9.222656 9.222656h-31.03125c-5.09375 0-9.21875-4.125-9.21875-9.222656v-27.65625c0-15.992188-6.480469-30.464844-16.960937-40.945313-10.476563-10.46875-24.953126-16.949218-40.933594-16.949218-31.96875 0-57.894532 25.914062-57.894532 57.894531l-34.324218-41.488281c3.039062-29.496094 13.367187-56.835938 29.171875-80.175782h291.355469c19.007812 28.082032 30.109374 61.949219 30.109374 98.410156zm0 0" fill="#ffc471"/><path d="m111.148438 170.804688c3.039062-29.496094 13.367187-56.835938 29.171874-80.175782h-30c-15.800781 23.339844-26.132812 50.679688-29.167968 80.175782l34.324218 41.488281c0-10.046875 2.558594-19.492188 7.058594-27.722657zm0 0" fill="#ffb85c"/><path d="m483.578125 62.945312h-22.164063l-55.015624 98.925782v47l23.730468-2.96875c16.984375-18.691406 33.09375-39.578125 45.949219-57.324219 18.019531-24.882813 21.664063-57.386719 9.578125-85.632813" fill="#d2d2d2"/><path d="m28.421875 62.945312h22.164063l55.015624 98.925782v47l-23.730468-2.96875c-16.984375-18.691406-33.09375-39.578125-45.949219-57.324219-18.019531-24.882813-21.664063-57.386719-9.574219-85.632813" fill="#d2d2d2"/><path d="m25.804688 130.359375c-11.089844 24.800781-6.277344 53.828125 12.226562 73.722656l39.421875 42.386719 22.210937-19.789062-5.9375-38.265626zm0 0" fill="#edebec"/><g fill="#e7a249"><path d="m176.277344 122.054688c0 7.144531-5.789063 12.933593-12.929688 12.933593-7.144531 0-12.933594-5.789062-12.933594-12.933593 0-7.144532 5.789063-12.933594 12.933594-12.933594 7.140625 0 12.929688 5.789062 12.929688 12.933594zm0 0"/><path d="m361.585938 122.054688c0 7.144531-5.789063 12.933593-12.929688 12.933593-7.144531 0-12.933594-5.789062-12.933594-12.933593 0-7.144532 5.789063-12.933594 12.933594-12.933594 7.140625 0 12.929688 5.789062 12.929688 12.933594zm0 0"/><path d="m268.933594 122.054688c0 7.144531-5.789063 12.933593-12.933594 12.933593s-12.933594-5.789062-12.933594-12.933593c0-7.144532 5.789063-12.933594 12.933594-12.933594s12.933594 5.789062 12.933594 12.933594zm0 0"/></g><path d="m349.65625 252.21875h-21.902344c-4.144531 0-7.5-3.359375-7.5-7.5 0-4.144531 3.355469-7.5 7.5-7.5h21.902344c4.140625 0 7.496094 3.355469 7.496094 7.5 0 4.140625-3.355469 7.5-7.496094 7.5zm0 0" fill="#f77f82"/><path d="m184.246094 252.21875h-21.902344c-4.140625 0-7.5-3.359375-7.5-7.5 0-4.144531 3.359375-7.5 7.5-7.5h21.902344c4.144531 0 7.5 3.355469 7.5 7.5 0 4.140625-3.355469 7.5-7.5 7.5zm0 0" fill="#f77f82"/><path d="m417.03125 85.652344c15.28125-23.105469 31.144531-45.8125 46.921875-68.578125 7.746094-11.179688 23.625-12.847657 33.527344-3.527344 8.261719 7.773437 9.359375 20.511719 2.535156 29.570313-18.96875 25.167968-54.785156 76.6875-69.507813 124.699218-9.265624 24.882813 11.183594 63.480469 1.277344 107.015625-6.28125 27.617188-9.367187 54.769531-10.785156 70.9375-.53125 6.050781-7.976562 8.546875-12.109375 4.09375-17.449219-18.8125-16.015625-31.476562-16.015625-117.90625 0-19.695312-7.390625-37.523437-9.140625-56.839843-3.015625-33.238282 15.742187-62.933594 33.296875-89.464844zm0 0" fill="#edebec"/><path d="m94.96875 85.652344c-15.28125-23.105469-31.144531-45.8125-46.921875-68.578125-7.75-11.179688-23.625-12.847657-33.53125-3.527344-8.257813 7.773437-9.355469 20.515625-2.53125 29.570313 18.96875 25.167968 54.785156 76.6875 69.507813 124.699218 9.265624 24.882813-11.183594 63.480469-1.277344 107.019532 6.28125 27.613281 9.367187 54.765624 10.785156 70.933593.53125 6.050781 7.976562 8.550781 12.105469 4.097657 17.453125-18.816407 16.019531-31.476563 16.019531-117.910157 0-19.695312 7.390625-37.523437 9.140625-56.839843 3.015625-33.238282-15.746094-62.933594-33.296875-89.464844zm0 0" fill="#edebec"/><path d="m163.347656 142.488281c11.265625 0 20.429688-9.164062 20.429688-20.433593 0-11.265626-9.164063-20.433594-20.429688-20.433594-11.269531 0-20.4375 9.167968-20.4375 20.433594 0 11.269531 9.167969 20.433593 20.4375 20.433593zm0-25.867187c2.996094 0 5.433594 2.4375 5.433594 5.433594 0 3-2.441406 5.433593-5.433594 5.433593-2.996094 0-5.4375-2.4375-5.4375-5.433593 0-2.996094 2.441406-5.433594 5.4375-5.433594zm0 0"/><path d="m348.65625 142.488281c11.265625 0 20.429688-9.164062 20.429688-20.433593 0-11.265626-9.164063-20.433594-20.429688-20.433594-11.269531 0-20.4375 9.167968-20.4375 20.433594 0 11.269531 9.167969 20.433593 20.4375 20.433593zm0-25.867187c2.996094 0 5.433594 2.4375 5.433594 5.433594 0 3-2.441406 5.433593-5.433594 5.433593-2.996094 0-5.4375-2.4375-5.4375-5.433593 0-2.996094 2.4375-5.433594 5.4375-5.433594zm0 0"/><path d="m256 142.488281c11.265625 0 20.433594-9.164062 20.433594-20.433593 0-11.265626-9.167969-20.433594-20.433594-20.433594s-20.433594 9.167968-20.433594 20.433594c0 11.269531 9.167969 20.433593 20.433594 20.433593zm0-25.867187c2.996094 0 5.433594 2.4375 5.433594 5.433594 0 3-2.4375 5.433593-5.433594 5.433593s-5.433594-2.4375-5.433594-5.433593c0-2.996094 2.4375-5.433594 5.433594-5.433594zm0 0"/><path d="m335.703125 219.398438c4.144531 0 7.5-3.359376 7.5-7.5v-15.089844c0-4.144532-3.355469-7.5-7.5-7.5-4.140625 0-7.5 3.355468-7.5 7.5v15.089844c0 4.140624 3.359375 7.5 7.5 7.5zm0 0"/><path d="m502.621094 8.085938c-5.539063-5.214844-12.769532-8.085938-20.363282-8.085938-9.765624 0-18.914062 4.785156-24.46875 12.800781l-6.0625 8.746094c-13.558593 19.542969-27.578124 39.753906-40.953124 59.964844-1 1.515625-2.027344 3.066406-3.066407 4.648437-34.210937-50.351562-90.894531-80.410156-151.707031-80.410156-23.894531 0-47.15625 4.542969-69.132812 13.5-3.835938 1.5625-5.679688 5.941406-4.117188 9.777344 1.5625 3.835937 5.941406 5.675781 9.777344 4.113281 20.171875-8.222656 41.527344-12.390625 63.472656-12.390625 51.054688 0 98.949219 23.074219 130.792969 62.375h-261.578125c3.699218-4.554688 7.636718-8.925781 11.792968-13.082031 8.691407-8.695313 18.363282-16.457031 28.742188-23.070313 3.496094-2.222656 4.523438-6.859375 2.300781-10.351562-2.226562-3.496094-6.863281-4.523438-10.355469-2.296875-11.304687 7.195312-21.832031 15.648437-31.292968 25.113281-8.199219 8.199219-15.636719 17.191406-22.109375 26.722656-1.042969-1.585937-2.066407-3.132812-3.066407-4.648437-13.375-20.210938-47.011718-68.707031-47.015624-68.710938-10.210938-14.722656-31.792969-16.988281-44.835938-4.714843-11.066406 10.417968-12.519531 27.417968-3.378906 39.542968 3.527344 4.679688 7.5625 10.175782 11.886718 16.304688-8.046874 21.445312-7.921874 45.078125-.144531 66.261718-8.480469 21.28125-6.71875 44.910157 4.203125 64.433594-3.539062 35.15625 10.507813 69.335938 37.902344 91.867188l17.933594 14.746094c2.953125 17.429687 4.71875 33.390624 5.75 45.183593.660156 7.527344 6.875 13.207031 14.457031 13.207031 4.058594 0 7.832031-1.65625 10.621094-4.667968 4.867187-5.246094 8.425781-10.144532 11.027343-15.859375 10.269532 11.632812 23.660157 24.75 39.929688 36.441406-12.597656 20.644531-25.855469 52.296875-25.855469 94.046875 0 4.140625 3.355469 7.5 7.5 7.5h229.589844c4.140625 0 7.5-3.359375 7.5-7.5 0-11.273438-.988281-22.492188-2.9375-33.347656-.734375-4.078125-4.636719-6.792969-8.707031-6.058594-4.078125.734375-6.789063 4.628906-6.058594 8.707031 1.359375 7.578125 2.210938 15.351563 2.542969 23.199219h-31.894531v-37.558594c0-4.140625-3.355469-7.5-7.5-7.5-4.140626 0-7.5 3.359375-7.5 7.5v37.558594h-120.488282v-37.558594c0-4.140625-3.355468-7.5-7.5-7.5-4.140625 0-7.496094 3.359375-7.496094 7.5v37.558594h-31.898437c1.4375-34.296875 12.515625-60.558594 23.175781-78.195312 15.871094 9.710937 32.253906 16.570312 49 20.585937 1.277344.304687 2.554688.605469 3.839844.878906-.246094 1.929688-.375 3.878907-.375 5.839844 0 18.828125 11.230469 35.675781 28.613281 42.925781 1.773438.738282 3.933594.765625 5.773438 0 17.378906-7.25 28.613281-24.097656 28.613281-42.925781 0-1.898437-.121094-3.785156-.347656-5.65625 18.160156-3.75 35.910156-10.832031 53.066406-21.230469 5.113281 8.515625 9.449219 17.589844 12.929688 27.066406 1.429687 3.886719 5.738281 5.882813 9.628906 4.453126 3.886718-1.425782 5.878906-5.738282 4.453125-9.625-3.890625-10.585938-8.773438-20.707032-14.527344-30.203126 16.300781-11.613281 29.71875-24.660156 39.988281-36.210937 2.574219 5.421875 6.035156 10.132813 10.703125 15.164063 2.792969 3.011718 6.5625 4.667968 10.621094 4.667968 7.582031 0 13.796875-5.675781 14.457031-13.207031 1.035156-11.792969 2.800782-27.757813 5.75-45.179687l17.933594-14.75c27.398438-22.527344 41.441406-56.707032 37.902344-91.863282 10.921875-19.527344 12.683594-43.152344 4.203125-64.4375 7.777343-21.183594 7.902343-44.816406-.144531-66.261718 4.324218-6.125 8.363281-11.621094 11.886718-16.300782 9.140625-12.125 7.6875-29.125-3.382812-39.542968zm-117.636719 242.230468c-7.714844 7.535156-16.574219 13.921875-26.105469 18.957032-7.460937 3.949218-15.382812 7.007812-23.609375 8.902343-4.148437-12.027343-12.332031-22.671875-24.300781-31.363281-8.605469-6.25-17.292969-10.128906-22.730469-12.199219v-21.460937c0-28.152344 22.511719-51.144532 50.183594-51.253906h.191406c12.621094 0 24.539063 4.605468 33.828125 13.019531 1.359375 1.234375 4.082032 4.183593 4.191406 4.3125.933594 7.621093 2.578126 14.953125 4.179688 22.078125 2.347656 10.449218 4.5625 20.320312 4.5625 30.648437 0 6.390625-.007812 12.371094-.011719 17.988281-.128906.121094-.253906.246094-.378906.371094zm-210.652344 27.019532c-9.453125-2.570313-18.457031-6.667969-26.777343-11.824219-5.667969-3.511719-16.242188-12.097657-16.339844-12.1875 8.382812-5.632813 18.105468-13.628907 27.003906-24.496094 4.722656 1.757813 9.828125 2.71875 15.152344 2.71875 24.058594 0 43.632812-19.574219 43.632812-43.632813v-.859374c4.402344 7.589843 6.761719 16.230468 6.761719 25.238281v22.292969c-5.257813 2-13.597656 5.703124-21.964844 11.628906-12.355469 8.75-20.816406 19.519531-25.082031 31.734375-.800781-.195313-1.59375-.398438-2.386719-.613281zm1.328125-115.382813c9.386719.433594 18.613282 3.511719 26.339844 8.878906v17.082031c0 15.789063-12.84375 28.632813-28.628906 28.632813-15.789063 0-28.636719-12.84375-28.636719-28.632813v-17.082031c.035156-.023437.066406-.046875.101563-.070312 8.949218-6.203125 19.957031-9.3125 30.824218-8.808594zm-49.035156 70.003906c0-10.328125 2.214844-20.199219 4.5625-30.648437.09375-.417969.1875-.835938.28125-1.25 2.414062 8.308594 7.230469 15.597656 13.648438 21.066406-6.089844 7.113281-12.542969 12.734375-18.492188 17.097656 0-2.050781 0-4.128906 0-6.265625zm61.878906 65.257813c0-22.738282 18.238282-39.238282 37.785156-47.476563.164063-.070312.332032-.140625.496094-.207031 3.085938 4.398438 8.324219 7.140625 13.699219 7.140625h31.03125c5.300781 0 10.609375-2.746094 13.695313-7.144531 11.207031 4.613281 33.160156 16.449218 37.464843 39.523437.5 2.691407.753907 5.425781.753907 8.164063v16.335937c-13.074219-1.953125-24.835938-9.671875-32.296876-21.46875-7.792968-12.320312-19.953124-18.835937-35.164062-18.835937-15.214844 0-27.375 6.515625-35.167969 18.835937-7.460937 11.796875-19.222656 19.515625-32.296875 21.46875zm209.136719-199.085938c.414063.640625.820313 1.289063 1.230469 1.941406-2.597656 4.285157-9.21875 16.566407-9.988282 18.140626-6.15625 12.542968-11.019531 26.144531-12.5 40.664062-.402343-.285156-.8125-.554688-1.21875-.828125-10.648437-7.203125-23.628906-11.148437-36.550781-11.148437h-.25c-21.324219.085937-40.285156 10.597656-52.171875 26.742187-8.386718 11.390625-12.957031 25.367187-12.957031 39.511719v26.800781c0 .949219-.773437 1.71875-1.722656 1.71875h-31.027344c-.949219 0-1.722656-.773437-1.722656-1.722656v-27.65625c0-17.285157-6.9375-34.03125-19.160157-46.25-18.417968-18.417969-47-24.160157-71.109374-14.25-4.480469 1.839843-8.769532 4.195312-12.726563 6.988281-.042969.027344-.085937.058594-.148437.097656-1.480469-14.515625-6.339844-28.109375-12.496094-40.652344-3.042969-6.207031-6.410156-12.246093-9.992188-18.15625.40625-.652343.816406-1.300781 1.226563-1.945312h283.285156zm-323.175781 72.300782c1.863281 5.007812 2.234375 11.105468 1.863281 17.785156-.097656-.117188-.195313-.234375-.292969-.351563-5.765625-6.792969-11.359375-13.730469-16.835937-20.753906-8.425781-10.808594-17.699219-21.582031-23.859375-33.902344-8.238282-16.460937-10.566406-35.410156-6.589844-53.347656 14.679688 22.253906 31.066406 50.328125 41.414062 77.984375.117188.308594 2.859376 8.753906 4.300782 12.585938zm-41.652344-13.382813c12.894531 17.597656 26.402344 34.789063 40.949219 51.054687.058593.066407.113281.132813.171875.195313-.085938.578125-2.445313 17.125-2.800782 20.363281l-27.609374-29.6875c-2.789063-2.925781-5.214844-6.234375-7.316407-9.679687-7.175781-11.753907-10.085937-25.558594-8.304687-39.109375.03125.046875.0625.085937.089844.132812.570312.84375 3.957031 5.554688 4.820312 6.730469zm36.558594 117.863281c-18.871094-15.519531-30.363282-37.484375-32.582032-61.152344l16.601563 17.851563 16.535156 17.777344c.011719 2.28125.082031 4.585937.210938 6.910156.375 7.367187 1.515625 14.617187 3.121093 21.808594zm28.996094 69.027344c-1.132813-12.609375-3.066407-29.585938-6.289063-48.015625-.007813-.050781-.019531-.097656-.027344-.144531-3.242187-18.203125-7.667969-35.863282-6.878906-54.515625.984375-23.148438 10.390625-48.089844 4.839844-71.128907-2.539063-10.527343-6.742188-20.558593-11.027344-30.472656-17.421875-40.28125-44.558594-79.226562-61.011719-101.058594-4.527344-6.003906-3.800781-14.429687 1.683594-19.59375 6.472656-6.09375 17.164062-4.960937 22.226562 2.339844 0 0 33.550782 48.367188 46.832032 68.441406 8.8125 13.324219 16.875 26.097657 22.753906 38.875 6.222656 13.53125 12.242188 31.636719 9.222656 46.738282-3.671875 18.339844-9.066406 37.773437-9.066406 56.554687 0 15.6875-.191406 31.375-.507812 47.0625-.285157 14.308594.730468 29.527344-1.96875 43.609375-1.878907 9.800782-5.140626 15.089844-10.78125 21.308594zm157.632812 94.972656c-10.117188-5.46875-16.5-16.027344-16.5-27.707031 0-1.152344.0625-2.296875.1875-3.4375 5.570312.621094 11.179688.9375 16.785156.9375 5.292969 0 10.589844-.28125 15.851563-.832031.117187 1.101562.175781 2.214844.175781 3.332031 0 11.679687-6.382812 22.238281-16.5 27.707031zm131.636719-116.265625c-19.25 23.375-54.757813 57.832031-102.9375 68.082031-.066407.011719-.128907.027344-.195313.039063-20.300781 4.257813-41.558594 3.796875-61.664062-1.292969-.035156-.011718-.070313-.019531-.105469-.027344-45.855469-11.699218-79.636719-44.972656-98.222656-67.769531 1.800781-11.992187 2.109375-28.46875 2.140625-52.519531.199218.160156 9.765625 7.25 14.644531 10.164062 10.019531 5.988282 20.898437 10.609376 32.269531 13.308594.039063.007813.074219.019532.109375.027344.132813.050781-.171875 4.144531-.171875 4.558594v24.328125c0 4.140625 3.359375 7.5 7.5 7.5h.90625c20.824219 0 40.101563-10.820313 51.5625-28.941407 5.046875-7.976562 12.402344-11.855468 22.492188-11.855468s17.449218 3.878906 22.492187 11.855468c11.464844 18.121094 30.742188 28.941407 51.566407 28.941407 4.402343 0 8.40625-2.722657 8.40625-7.5v-24.328125c0-1.441406-.054688-2.890625-.15625-4.328125.011718-.058594.851562-.207031.914062-.222657 19.851562-4.65625 35.644531-14.460937 46.167969-22.746093.003906 2.566406.011719 5.046875.027343 7.4375.109376 21.367187.574219 34.902343 2.253907 45.289062zm54.992187-47.734375-3.886718 3.195313c.117187-.527344 1.46875-7.015625 1.886718-9.746094.617188-4.007813 1.019532-8.046875 1.238282-12.09375.125-2.3125.199218-4.609375.207031-6.878906l33.136719-35.628907c-2.222657 23.667969-13.710938 45.632813-32.582032 61.152344zm41.46875-124.726562c1.78125 13.539062-1.121094 27.328125-8.28125 39.074218-2.109375 3.46875-4.570312 6.742188-7.339844 9.714844l-27.605468 29.6875c-.359375-3.242187-.773438-6.417968-1.210938-9.539062-.003906-.027344-.007812-.050782-.011718-.078125-.421876-3.003907-1.496094-10.167969-1.582032-10.746094.058594-.0625 2.835938-3.195313 4.152344-4.703125 13.109375-15.003906 25.378906-30.722656 37.148438-46.789062 1.574218-2.148438 3.160156-4.285157 4.644531-6.496094.027343-.042969.058593-.082032.085937-.125zm-.847656-70.324219c3.976562 17.941406 1.652344 36.890625-6.601562 53.371094-4.917969 9.824219-11.964844 18.347656-18.582032 27.039062-7.148437 9.394531-14.503906 18.636719-22.140625 27.640625-.082031.101563-.167969.207032-.253906.304688-.371094-6.679688 0-12.777344 1.863281-17.78125 1.542969-4.152344 2.746094-8.433594 4.300782-12.589844 10.347656-27.652344 26.734374-55.726562 41.414062-77.984375zm10.777344-41.257813c-16.457032 21.835938-43.601563 60.796876-61.023438 101.089844-4.433594 10.253906-9.015625 20.683594-11.292968 31.671875-2.242188 10.816407-.929688 22.019531.597656 32.84375 2.652344 18.785157 6.097656 37.640625 4.15625 56.683594-1.199219 11.816406-4.511719 23.277344-6.527344 34.957031-.003906.027344-.007812.046875-.015625.082032-3.222656 18.414062-5.15625 35.394531-6.289063 48.007812-5.472656-6.03125-8.707031-11.183594-10.609374-20.433594-8.492188-41.257812 1.703124-84.15625-7.574219-125.496094-1.734375-7.746093-3.378907-15.058593-4.140625-22.609374-1.707032-16.859376 3-33.335938 10.105468-48.628907.003907-.015625.011719-.027343.019532-.042969 5.785156-12.132812 13.484375-24.289062 21.851562-36.9375 15.253906-23.054687 31.070313-45.734374 46.832032-68.441406 5.070312-7.3125 15.757812-8.425781 22.226562-2.335937 5.484375 5.160156 6.210938 13.585937 1.683594 19.589843zm0 0"/></svg>