<?xml version="1.0" encoding="UTF-8"?><svg id="a" xmlns="http://www.w3.org/2000/svg" viewBox="0 0 256 512"><defs><style>.b{fill:#fad59a;}.c{fill:#e7b467;}.d{fill:#fae2c0;}.e{fill:#fbcb80;}.f{fill:#c56e37;}.g{fill:#d57e4b;}</style></defs><path class="g" d="M20.8,480.8h-2.4c-4.4,0-8,3.6-8,8v15.2c0,4.4,3.6,8,8,8h46.4c4.4,0,8-3.6,8-8v-15.2c0-4.4-3.6-8-8-8H20.8Z"/><rect class="f" x="20.8" y="447.5" width="41.6" height="33.3"/><rect class="f" x="20.8" y="480.8" width="41.6" height="0"/><path class="g" d="M64.8,31.2c4.4,0,8-3.6,8-8V8c0-4.4-3.6-8-8-8H18.4c-4.4,0-8,3.6-8,8v15.2c0,4.4,3.6,8,8,8h46.4Z"/><rect class="f" x="20.8" y="31.2" width="41.6" height="33.3"/><path class="d" d="M256,412.1V79.1h-56.4c-2.2,0-4,1.8-4,4v21.3c0,4-5.1,5.5-7.3,2.2l-17.2-25.7c-.7-1.1-2-1.8-3.3-1.8h-13.4v29.1c0,4.3-3.5,7.7-7.7,7.7s-7.7-3.5-7.7-7.7v-29.1h-21v18.7c0,4.3-3.5,7.7-7.7,7.7s-7.7-3.5-7.7-7.7v-18.7h-19.3V412.1h172.7Z"/><path class="d" d="M255.9,429.7c-.1,.5-.3,1-.6,1.4,.3-.4,.5-.9,.6-1.4Z"/><path class="d" d="M254.2,432.2c-.4,.3-.9,.5-1.4,.6,.5-.1,1-.3,1.4-.6Z"/><path class="b" d="M83.3,412.1v20.8H252c.3,0,.5,0,.8,0,.5-.1,1-.3,1.4-.6s.8-.7,1.1-1.1,.5-.9,.6-1.4,0-.5,0-.8v-16.8H83.3Z"/><path class="e" d="M73.3,447.5H10c-5.5,0-10-4.5-10-10H0c0,5.5,4.5,10,10,10h63.3c5.5,0,10-4.5,10-10h0c0,5.5-4.5,10-10,10Z"/><path class="e" d="M83.3,412.1V74.5c0-5.5-4.5-10-10-10H10c-5.5,0-10,4.5-10,10v49.9H18.7c4.3,0,7.7,3.5,7.7,7.7s-3.5,7.7-7.7,7.7H0v10.6H29.1c4.3,0,7.7,3.5,7.7,7.7s-3.5,7.7-7.7,7.7H0v255.6H83.3v-9.4Z"/><rect class="e" x="20.8" y="64.5" width="41.6" height="0"/><path class="c" d="M0,421.5v16c0,5.5,4.5,10,10,10h63.3c5.5,0,10-4.5,10-10v-16H0Z"/><path class="c" d="M36.9,158.2c0-4.3-3.5-7.7-7.7-7.7H0v15.5H29.1c4.3,0,7.7-3.5,7.7-7.7Z"/><path class="c" d="M26.5,132.2c0-4.3-3.5-7.7-7.7-7.7H0v15.5H18.7c4.3,0,7.7-3.5,7.7-7.7Z"/><rect class="b" x="139" y="79.1" width="15.5" height="0"/><path class="b" d="M146.7,116c4.3,0,7.7-3.5,7.7-7.7v-29.1h-15.5v29.1c0,4.3,3.5,7.7,7.7,7.7Z"/><rect class="b" x="102.6" y="79.1" width="15.5" height="0"/><path class="b" d="M110.3,105.6c4.3,0,7.7-3.5,7.7-7.7v-18.7h-15.5v18.7c0,4.3,3.5,7.7,7.7,7.7Z"/></svg>