<?xml version="1.0" encoding="UTF-8"?><svg id="a" xmlns="http://www.w3.org/2000/svg" viewBox="0 0 259.2 512"><defs><style>.b{fill:#fad59a;}.c{fill:#e7b467;}.d{fill:#fae2c0;}.e{fill:#fbcb80;}.f{fill:#c56e37;}.g{fill:#d57e4b;}</style></defs><path class="d" d="M3.1,429.7c-.1,.5-.3,1-.6,1.4,.3-.4,.5-.9,.6-1.4Z"/><path class="d" d="M1.4,432.2c-.4,.3-.9,.5-1.4,.6,.5-.1,1-.3,1.4-.6Z"/><path class="g" d="M248.8,504v-15.2c0-4.4-3.6-8-8-8h-46.4c-4.4,0-8,3.6-8,8v15.2c0,4.4,3.6,8,8,8h46.4c4.4,0,8-3.6,8-8Z"/><rect class="f" x="196.8" y="447.5" width="41.6" height="33.3"/><rect class="f" x="196.8" y="480.8" width="41.6" height="0"/><path class="g" d="M186.3,8v15.2c0,4.4,3.6,8,8,8h46.4c4.4,0,8-3.6,8-8V8c0-4.4-3.6-8-8-8h-46.4c-4.4,0-8,3.6-8,8Z"/><rect class="f" x="196.8" y="31.2" width="41.6" height="33.3"/><path class="d" d="M10.5,405.4l4.5,6.7h58.5v-10.8c0-4.3,3.6-7.9,8-7.7,4.2,.1,7.5,3.8,7.5,8v10.4h21v-.3c0-4.6,4-8.3,8.7-7.7,3.9,.5,6.7,4,6.7,7.9h19.3c5.7,0,10.4-4.6,10.4-10.3V79.1H3.2V407.6c0-4,5.1-5.5,7.3-2.2Z"/><path class="e" d="M249.2,64.5h-63.3c-5.5,0-10,4.5-10,10v4.6h0V421.5h83.3v-41.2h-18.7c-4.3,0-7.7-3.5-7.7-7.7s3.5-7.7,7.7-7.7h18.7v-10.6h-29.1c-4.3,0-7.7-3.5-7.7-7.7s3.5-7.7,7.7-7.7h29.1V74.5c0-5.5-4.5-10-10-10Z"/><path class="e" d="M249.2,447.5h-63.3c-5.5,0-10-4.5-10-10h0c0,5.5,4.5,10,10,10h63.3c5.5,0,10-4.5,10-10h0c0,5.5-4.5,10-10,10Z"/><rect class="e" x="196.8" y="64.5" width="41.6" height="0"/><rect class="e" x="175.9" y="79.1" width="0" height="342.4"/><path class="c" d="M175.9,432.9h0v4.6c0,5.5,4.5,10,10,10h63.3c5.5,0,10-4.5,10-10v-16h-83.3v11.4Z"/><rect class="c" x="175.9" y="421.5" width="0" height="11.4"/><path class="c" d="M222.3,346.5c0,4.3,3.5,7.7,7.7,7.7h29.1v-15.5h-29.1c-4.3,0-7.7,3.5-7.7,7.7Z"/><path class="c" d="M232.7,372.6c0,4.3,3.5,7.7,7.7,7.7h18.7v-15.5h-18.7c-4.3,0-7.7,3.5-7.7,7.7Z"/><rect class="b" x="155.1" y="79.1" width="20.8" height="0"/><path class="b" d="M27.7,431.1h0l-12.7-19h0l12.7,19c.7,1.1,2,1.8,3.3,1.8h0c-1.3,0-2.6-.7-3.3-1.8Z"/><path class="b" d="M155.1,401.7c0,5.7-4.7,10.4-10.4,10.4h-19.3c0-4-2.8-7.5-6.7-8-4.7-.6-8.7,3.1-8.7,7.7v.3h-21v-10.4c0-4.2-3.3-7.9-7.5-8-4.4-.1-8,3.4-8,7.7v10.8H15l12.7,19h0c.7,1.1,2,1.8,3.3,1.8H175.9V79.1h-20.8V401.7Z"/></svg>