<svg id="Layer_1" data-name="Layer 1" xmlns="http://www.w3.org/2000/svg" viewBox="0 0 1156.5 441"><defs><style>.cls-1{fill:#fff;}</style></defs><path class="cls-1" d="M426.4,280.3A118.2,118.2,0,0,0,430,251a121,121,0,0,0-242,0,122.4,122.4,0,0,0,2.5,24.4,88,88,0,0,0,53,167.7l-54.3-54.3a7.5,7.5,0,0,1,10.6-10.6L259,437.4a88.5,88.5,0,0,0,36-31.8V275a15,15,0,0,1,30,0V422.4l.5.5,92.8-92.8a7.5,7.5,0,1,1,10.6,10.6l-91.4,91.4a88,88,0,1,0,88.9-151.8Z" transform="translate(-133 -130)"/><path class="cls-1" d="M325,423.4v-1A88,88,0,0,1,303,390a82,82,0,0,1-8,15.6v67.8l-36-36a89.6,89.6,0,0,1-15.5,5.7l47.2,47.2a7.3,7.3,0,0,0,4.3,2.1V552a15,15,0,0,0,30,0V435.7a7,7,0,0,0,4.4,1.4,7.4,7.4,0,0,0,5.3-2.2l2.8-2.8a95.5,95.5,0,0,1-12-9.2Z" transform="translate(-133 -130)"/><path class="cls-1" d="M535.3,434.6V204.8H454V158H671.8v46.8H590.6V434.6Z" transform="translate(-133 -130)"/><path class="cls-1" d="M736.3,434.6H683.7V234.2h48.8v28.5c8.4-13.5,15.9-22.3,22.5-26.6a41.2,41.2,0,0,1,22.7-6.4,65.9,65.9,0,0,1,34.6,10l-16.2,46.2c-8.9-5.8-17.1-8.7-24.7-8.7s-13.6,2.1-18.7,6.2-9.1,11.4-12.1,22.1-4.3,33.1-4.3,67.2Z" transform="translate(-133 -130)"/><path class="cls-1" d="M949.9,370.8l52.3,8.9c-6.7,19.3-17.3,34.1-31.8,44.2s-32.7,15.2-54.5,15.2q-51.7,0-76.7-34.2c-13-18.2-19.6-41.2-19.6-69q0-49.8,25.8-78t65.3-28.2q44.3,0,69.9,29.5c17,19.7,25.2,49.8,24.4,90.5H873.5c.3,15.7,4.6,27.9,12.7,36.7a39.7,39.7,0,0,0,30.2,13.1c8.3,0,15.2-2.3,20.8-6.8S947,380.9,949.9,370.8Zm3-53.6c-.4-15.3-4.3-27-11.8-35s-16.6-12-27.3-12a36.6,36.6,0,0,0-28.4,12.7c-7.5,8.4-11.1,19.9-11,34.3Z" transform="translate(-133 -130)"/><path class="cls-1" d="M1162.8,370.8l52.4,8.9c-6.8,19.3-17.4,34.1-31.9,44.2s-32.7,15.2-54.5,15.2c-34.5,0-60.1-11.4-76.6-34.2q-19.7-27.3-19.7-69,0-49.8,25.8-78t65.3-28.2q44.3,0,69.9,29.5c17,19.7,25.2,49.8,24.5,90.5H1086.4c.3,15.7,4.6,27.9,12.7,36.7a39.7,39.7,0,0,0,30.3,13.1c8.2,0,15.1-2.3,20.7-6.8S1159.9,380.9,1162.8,370.8Zm3-53.6c-.4-15.3-4.3-27-11.8-35a35.7,35.7,0,0,0-27.3-12,36.6,36.6,0,0,0-28.4,12.7c-7.5,8.4-11.1,19.9-11,34.3Z" transform="translate(-133 -130)"/><path class="cls-1" d="M528.9,544.5V454h29c11,0,18.2.5,21.5,1.4a24.1,24.1,0,0,1,12.9,8.8c3.5,4.6,5.2,10.5,5.2,17.7a29.9,29.9,0,0,1-3,14,25.5,25.5,0,0,1-7.6,8.9,27.3,27.3,0,0,1-9.4,4.3,110,110,0,0,1-18.7,1.2H547v34.2ZM547,469.3V495h9.9c7.1,0,11.9-.5,14.3-1.4a12.5,12.5,0,0,0,5.6-4.5,11.8,11.8,0,0,0,2.1-7A11.6,11.6,0,0,0,576,474a11.8,11.8,0,0,0-7.3-4c-2.1-.5-6.5-.7-13-.7Z" transform="translate(-133 -130)"/><path class="cls-1" d="M629.3,454v33.3c5.6-6.6,12.2-9.8,19.9-9.8a25,25,0,0,1,10.7,2.2,17.6,17.6,0,0,1,7.2,5.7,20.7,20.7,0,0,1,3.3,7.6,68.4,68.4,0,0,1,.9,13v38.5H654.1V509.9c0-6.9-.3-11.3-1-13.1a8.3,8.3,0,0,0-3.4-4.4,11.3,11.3,0,0,0-6.2-1.7,14.4,14.4,0,0,0-7.7,2.1,11.9,11.9,0,0,0-4.9,6.4c-1,2.8-1.6,6.9-1.6,12.4v32.9H612.2V454Z" transform="translate(-133 -130)"/><path class="cls-1" d="M684.7,510.8a35.7,35.7,0,0,1,4.2-16.7,29.3,29.3,0,0,1,12-12.4,35.3,35.3,0,0,1,17.2-4.2c9.8,0,17.9,3.2,24.2,9.6s9.4,14.6,9.4,24.4-3.2,18.1-9.5,24.7-14.3,9.7-24,9.7a37.6,37.6,0,0,1-17-4,28,28,0,0,1-12.3-12C686.1,524.7,684.7,518.3,684.7,510.8Zm17.6.9c0,6.5,1.5,11.5,4.6,14.9a14.9,14.9,0,0,0,22.6,0q4.5-5.1,4.5-15c0-6.4-1.5-11.4-4.5-14.8a14.9,14.9,0,0,0-22.6,0C703.8,500.2,702.3,505.2,702.3,511.7Z" transform="translate(-133 -130)"/><path class="cls-1" d="M794.9,479v13.8H783.1v26.4a65.1,65.1,0,0,0,.4,9.3,3.7,3.7,0,0,0,1.5,2.2,4.8,4.8,0,0,0,2.9.9,22.4,22.4,0,0,0,6.9-1.7l1.5,13.4a32.7,32.7,0,0,1-13.6,2.6,22.4,22.4,0,0,1-8.4-1.5,12.3,12.3,0,0,1-5.4-4.1,15.1,15.1,0,0,1-2.4-6.8c-.4-2-.6-6-.6-12.2V492.8H758V479h7.9V465.9l17.2-10.1V479Z" transform="translate(-133 -130)"/><path class="cls-1" d="M802.8,510.8a35.7,35.7,0,0,1,4.2-16.7,29.3,29.3,0,0,1,12-12.4,35.3,35.3,0,0,1,17.2-4.2c9.9,0,17.9,3.2,24.2,9.6s9.4,14.6,9.4,24.4-3.2,18.1-9.5,24.7-14.3,9.7-23.9,9.7a37.7,37.7,0,0,1-17.1-4,28,28,0,0,1-12.3-12C804.2,524.7,802.8,518.3,802.8,510.8Zm17.6.9c0,6.5,1.5,11.5,4.6,14.9a14.9,14.9,0,0,0,22.6,0q4.5-5.1,4.5-15c0-6.4-1.5-11.4-4.5-14.8a14.9,14.9,0,0,0-22.6,0C821.9,500.2,820.4,505.2,820.4,511.7Z" transform="translate(-133 -130)"/><path class="cls-1" d="M881.6,548.8l19.7,2.4c.3,2.3,1,3.9,2.2,4.7s4.2,1.9,7.7,1.9,7.9-.7,10.1-2.1a7.9,7.9,0,0,0,3.4-4.3c.6-1.5.8-4.1.8-8v-9.6c-5.1,7.1-11.6,10.7-19.4,10.7s-15.6-3.8-20.7-11.2c-4-5.9-6-13.2-6-22,0-10.9,2.6-19.3,7.8-25.1a25.5,25.5,0,0,1,19.6-8.7c8,0,14.6,3.5,19.8,10.6V479h16.1v58.7c0,7.8-.6,13.5-1.9,17.4a22,22,0,0,1-5.3,9,25.1,25.1,0,0,1-9.2,5.1,48.6,48.6,0,0,1-14.4,1.8q-16.5,0-23.4-5.7a17.9,17.9,0,0,1-6.9-14.4ZM897,510.3c0,7,1.3,12.1,4,15.3a12.5,12.5,0,0,0,9.9,4.9,13.6,13.6,0,0,0,10.6-5c2.9-3.3,4.3-8.2,4.3-14.7s-1.4-11.8-4.1-15.1a13.3,13.3,0,0,0-10.5-5,12.7,12.7,0,0,0-10.2,4.9C898.3,498.8,897,503.7,897,510.3Z" transform="translate(-133 -130)"/><path class="cls-1" d="M976.1,544.5H958.9V479h16v9.3c2.7-4.4,5.2-7.3,7.4-8.7a13.1,13.1,0,0,1,7.4-2.1,22.3,22.3,0,0,1,11.3,3.2l-5.3,15.2c-2.9-1.9-5.6-2.9-8.1-2.9a9.7,9.7,0,0,0-6.1,2c-1.7,1.4-3,3.8-3.9,7.3s-1.5,10.8-1.5,21.9Z" transform="translate(-133 -130)"/><path class="cls-1" d="M1021.2,498.9l-15.6-2.8c1.8-6.3,4.8-11,9.1-14.1s10.6-4.5,19-4.5,13.4.9,17.2,2.7a18.3,18.3,0,0,1,7.9,7c1.5,2.8,2.3,8,2.3,15.5l-.2,20.2c0,5.8.2,10,.8,12.8a37.3,37.3,0,0,0,3.1,8.8h-17c-.5-1.2-1-2.9-1.7-5.2a6.8,6.8,0,0,0-.6-2,30.6,30.6,0,0,1-9.4,6.5,27.2,27.2,0,0,1-10.7,2.1c-6.6,0-11.9-1.8-15.8-5.5a19.8,19.8,0,0,1-3.1-23.7,17.2,17.2,0,0,1,7.4-6.7,56.2,56.2,0,0,1,13.6-4c8-1.6,13.6-3,16.7-4.3V500c0-3.3-.8-5.7-2.5-7.1s-4.7-2.2-9.2-2.2c-3,0-5.4.6-7.1,1.9S1022.3,495.9,1021.2,498.9Zm23,14.1q-3.3,1.1-10.5,2.7t-9.3,3a7.3,7.3,0,0,0-3.4,6.1,8.6,8.6,0,0,0,2.7,6.3,9.7,9.7,0,0,0,6.9,2.6,14.3,14.3,0,0,0,8.8-3.1,10.1,10.1,0,0,0,4.1-5.7c.5-1.5.7-4.3.7-8.4Z" transform="translate(-133 -130)"/><path class="cls-1" d="M1077.5,479h16v9.6a23.9,23.9,0,0,1,8.4-8,22.9,22.9,0,0,1,11.8-3.1,24.7,24.7,0,0,1,19.2,8.9c5.3,6,7.9,14.3,7.9,24.9s-2.6,19.5-7.9,25.5-11.8,9.1-19.3,9.1a21.9,21.9,0,0,1-9.7-2.1,33.9,33.9,0,0,1-9.2-7.4v33h-17.2Zm17,31.6c0,7.4,1.4,12.8,4.3,16.3a13.3,13.3,0,0,0,10.6,5.3,12.4,12.4,0,0,0,10-4.9c2.6-3.2,3.9-8.5,3.9-15.8s-1.3-12-4.1-15.3a12.4,12.4,0,0,0-10.1-5,13.2,13.2,0,0,0-10.5,4.9C1095.9,499.3,1094.5,504.2,1094.5,510.6Z" transform="translate(-133 -130)"/><path class="cls-1" d="M1171.5,454v33.3c5.6-6.6,12.2-9.8,19.9-9.8a25,25,0,0,1,10.7,2.2,17.6,17.6,0,0,1,7.2,5.7,20.7,20.7,0,0,1,3.3,7.6,68.4,68.4,0,0,1,.9,13v38.5h-17.2V509.9c0-6.9-.3-11.3-1-13.1a8.3,8.3,0,0,0-3.4-4.4,11.3,11.3,0,0,0-6.2-1.7,14.4,14.4,0,0,0-7.7,2.1,11.9,11.9,0,0,0-4.9,6.4c-1,2.8-1.6,6.9-1.6,12.4v32.9h-17.1V454Z" transform="translate(-133 -130)"/><path class="cls-1" d="M1222.7,479H1241l15.5,46.5,15.2-46.5h17.8l-22.9,63-4.1,11.4a55.7,55.7,0,0,1-4.3,8.8,22,22,0,0,1-4.7,4.9,22.3,22.3,0,0,1-6.6,2.9,33.8,33.8,0,0,1-8.8,1,45,45,0,0,1-9.7-1l-1.5-13.6a33.2,33.2,0,0,0,7.3.8c4,0,6.9-1.2,8.8-3.5a24.9,24.9,0,0,0,4.4-9.1Z" transform="translate(-133 -130)"/></svg>